mtllib tn__Alavanca1_zH_Corpo1_Mesh.mtl
v 0.00375 0.007 -0.008
v 0.00375 0.005 0.0
v 0.00375 0.008337060928344726 -0.006888859748840332
v 0.00375 0.008585786819458008 -0.00658578634262085
v 0.00375 0.008152240753173829 -0.007234632968902588
v 0.00375 0.008038429260253907 -0.0076098194122314455
v 0.00375 0.01 -0.006
v 0.00375 0.009609819412231446 -0.006038429260253907
v 0.00375 0.008888859748840332 -0.006337060928344727
v 0.00375 0.009234633445739746 -0.006152240753173829
v 0.00375 0.015 0.0
v 0.00375 0.0085 -0.013000000000000001
v 0.00375 0.008337060928344726 -0.009111140251159668
v 0.00375 0.005 -0.008
v 0.00375 0.008038429260253907 -0.008390180587768555
v 0.00375 0.008152240753173829 -0.008765366554260254
v 0.00375 0.008 -0.008
v 0.00375 0.009609819412231446 -0.009961570739746094
v 0.00375 0.01 -0.01
v 0.00375 0.008888859748840332 -0.009662939071655274
v 0.00375 0.009234633445739746 -0.009847759246826172
v 0.00375 0.008585786819458008 -0.009414213180541992
v 0.00375 0.010765366554260254 -0.006152240753173829
v 0.00375 0.010390180587768555 -0.006038429260253907
v 0.00375 0.011414213180541992 -0.00658578634262085
v 0.00375 0.011111140251159668 -0.006337060928344727
v 0.00375 0.011662939071655274 -0.006888859748840332
v 0.00375 0.013000000000000001 -0.008
v 0.00375 0.011847759246826172 -0.007234632968902588
v 0.00375 0.011961570739746094 -0.0076098194122314455
v 0.00375 0.012 -0.008
v 0.00375 0.011961570739746094 -0.008390180587768555
v 0.00375 0.015 -0.008
v 0.00375 0.011111140251159668 -0.009662939071655274
v 0.00375 0.0115 -0.013000000000000001
v 0.00375 0.010765366554260254 -0.009847759246826172
v 0.00375 0.010390180587768555 -0.009961570739746094
v 0.00375 0.011414213180541992 -0.009414213180541992
v 0.00375 0.011847759246826172 -0.008765366554260254
v 0.00375 0.011662939071655274 -0.009111140251159668
v 0.00375 0.01 -0.018000000000000002
v 0.03625 0.013000000000000001 -0.008
v 0.03625 0.015 0.0
v 0.03625 0.011662939071655274 -0.006888859748840332
v 0.03625 0.011414213180541992 -0.00658578634262085
v 0.03625 0.011847759246826172 -0.007234632968902588
v 0.03625 0.011961570739746094 -0.0076098194122314455
v 0.03625 0.01 -0.006
v 0.03625 0.010390180587768555 -0.006038429260253907
v 0.03625 0.011111140251159668 -0.006337060928344727
v 0.03625 0.010765366554260254 -0.006152240753173829
v 0.03625 0.005 0.0
v 0.03625 0.0115 -0.013000000000000001
v 0.03625 0.011662939071655274 -0.009111140251159668
v 0.03625 0.015 -0.008
v 0.03625 0.011961570739746094 -0.008390180587768555
v 0.03625 0.011847759246826172 -0.008765366554260254
v 0.03625 0.012 -0.008
v 0.03625 0.010390180587768555 -0.009961570739746094
v 0.03625 0.01 -0.01
v 0.03625 0.011111140251159668 -0.009662939071655274
v 0.03625 0.010765366554260254 -0.009847759246826172
v 0.03625 0.011414213180541992 -0.009414213180541992
v 0.03625 0.009234633445739746 -0.006152240753173829
v 0.03625 0.009609819412231446 -0.006038429260253907
v 0.03625 0.008585786819458008 -0.00658578634262085
v 0.03625 0.008888859748840332 -0.006337060928344727
v 0.03625 0.008337060928344726 -0.006888859748840332
v 0.03625 0.007 -0.008
v 0.03625 0.008152240753173829 -0.007234632968902588
v 0.03625 0.008038429260253907 -0.0076098194122314455
v 0.03625 0.008 -0.008
v 0.03625 0.008038429260253907 -0.008390180587768555
v 0.03625 0.005 -0.008
v 0.03625 0.008888859748840332 -0.009662939071655274
v 0.03625 0.0085 -0.013000000000000001
v 0.03625 0.009234633445739746 -0.009847759246826172
v 0.03625 0.009609819412231446 -0.009961570739746094
v 0.03625 0.008585786819458008 -0.009414213180541992
v 0.03625 0.008152240753173829 -0.008765366554260254
v 0.03625 0.008337060928344726 -0.009111140251159668
v 0.03625 0.01 -0.018000000000000002
v 0.0 0.0 0.0
v 0.00375 0.005 0.0
v 0.03625 0.005 0.0
v 0.0 0.02 0.0
v 0.04 0.0 0.0
v 0.03625 0.015 0.0
v 0.00375 0.015 0.0
v 0.04 0.02 0.0
v 0.03625 0.013000000000000001 -0.008
v 0.00375 0.013000000000000001 -0.008
v 0.00375 0.015 -0.008
v 0.03625 0.015 -0.008
v 0.03625 0.005 -0.008
v 0.00375 0.005 -0.008
v 0.00375 0.007 -0.008
v 0.03625 0.007 -0.008
v 0.00375 0.007 -0.008
v 0.00375 0.01 -0.018000000000000002
v 0.03625 0.01 -0.018000000000000002
v 0.03625 0.007 -0.008
v 0.00375 0.01 -0.018000000000000002
v 0.00375 0.013000000000000001 -0.008
v 0.03625 0.013000000000000001 -0.008
v 0.03625 0.01 -0.018000000000000002
v 0.03625 0.005 0.0
v 0.00375 0.005 0.0
v 0.00375 0.005 -0.008
v 0.03625 0.005 -0.008
v 0.03625 0.012 -0.008
v 0.03625 0.011961570739746094 -0.0076098194122314455
v 0.04 0.011961570739746094 -0.0076098194122314455
v 0.03625 0.011847759246826172 -0.007234632968902588
v 0.03625 0.011662939071655274 -0.006888859748840332
v 0.04 0.011662939071655274 -0.006888859748840332
v 0.04 0.011847759246826172 -0.007234632968902588
v 0.03625 0.011414213180541992 -0.00658578634262085
v 0.03625 0.011111140251159668 -0.006337060928344727
v 0.04 0.011111140251159668 -0.006337060928344727
v 0.03625 0.010765366554260254 -0.006152240753173829
v 0.03625 0.010390180587768555 -0.006038429260253907
v 0.04 0.010390180587768555 -0.006038429260253907
v 0.04 0.010765366554260254 -0.006152240753173829
v 0.04 0.011414213180541992 -0.00658578634262085
v 0.03625 0.01 -0.006
v 0.03625 0.009609819412231446 -0.006038429260253907
v 0.04 0.009609819412231446 -0.006038429260253907
v 0.03625 0.009234633445739746 -0.006152240753173829
v 0.03625 0.008888859748840332 -0.006337060928344727
v 0.04 0.008888859748840332 -0.006337060928344727
v 0.04 0.009234633445739746 -0.006152240753173829
v 0.03625 0.008585786819458008 -0.00658578634262085
v 0.03625 0.008337060928344726 -0.006888859748840332
v 0.04 0.008337060928344726 -0.006888859748840332
v 0.03625 0.008152240753173829 -0.007234632968902588
v 0.03625 0.008038429260253907 -0.0076098194122314455
v 0.04 0.008038429260253907 -0.0076098194122314455
v 0.04 0.008152240753173829 -0.007234632968902588
v 0.04 0.008585786819458008 -0.00658578634262085
v 0.04 0.01 -0.006
v 0.04 0.012 -0.008
v 0.03625 0.008 -0.008
v 0.04 0.008 -0.008
v 0.04 0.011961570739746094 -0.008390180587768555
v 0.03625 0.008038429260253907 -0.008390180587768555
v 0.04 0.008038429260253907 -0.008390180587768555
v 0.03625 0.008152240753173829 -0.008765366554260254
v 0.03625 0.008337060928344726 -0.009111140251159668
v 0.04 0.008337060928344726 -0.009111140251159668
v 0.04 0.008152240753173829 -0.008765366554260254
v 0.03625 0.008585786819458008 -0.009414213180541992
v 0.03625 0.008888859748840332 -0.009662939071655274
v 0.04 0.008888859748840332 -0.009662939071655274
v 0.03625 0.009234633445739746 -0.009847759246826172
v 0.03625 0.009609819412231446 -0.009961570739746094
v 0.04 0.009609819412231446 -0.009961570739746094
v 0.04 0.009234633445739746 -0.009847759246826172
v 0.04 0.008585786819458008 -0.009414213180541992
v 0.03625 0.01 -0.01
v 0.03625 0.010390180587768555 -0.009961570739746094
v 0.04 0.010390180587768555 -0.009961570739746094
v 0.03625 0.010765366554260254 -0.009847759246826172
v 0.03625 0.011111140251159668 -0.009662939071655274
v 0.04 0.011111140251159668 -0.009662939071655274
v 0.04 0.010765366554260254 -0.009847759246826172
v 0.03625 0.011414213180541992 -0.009414213180541992
v 0.03625 0.011662939071655274 -0.009111140251159668
v 0.04 0.011662939071655274 -0.009111140251159668
v 0.03625 0.011847759246826172 -0.008765366554260254
v 0.03625 0.011961570739746094 -0.008390180587768555
v 0.04 0.011847759246826172 -0.008765366554260254
v 0.04 0.011414213180541992 -0.009414213180541992
v 0.04 0.01 -0.01
v 0.04 0.008152240753173829 -0.007234632968902588
v 0.04 0.008038429260253907 -0.008390180587768555
v 0.04 0.008337060928344726 -0.009111140251159668
v 0.04 0.008152240753173829 -0.008765366554260254
v 0.04 0.008585786819458008 -0.009414213180541992
v 0.04 0.008888859748840332 -0.009662939071655274
v 0.04 0.009609819412231446 -0.009961570739746094
v 0.04 0.01 -0.01
v 0.04 0.009234633445739746 -0.009847759246826172
v 0.04 0.011662939071655274 -0.009111140251159668
v 0.04 0.008 -0.008
v 0.04 0.008038429260253907 -0.0076098194122314455
v 0.04 0.011662939071655274 -0.006888859748840332
v 0.04 0.009609819412231446 -0.006038429260253907
v 0.04 0.008337060928344726 -0.006888859748840332
v 0.04 0.008888859748840332 -0.006337060928344727
v 0.04 0.008585786819458008 -0.00658578634262085
v 0.04 0.009234633445739746 -0.006152240753173829
v 0.04 0.010390180587768555 -0.009961570739746094
v 0.04 0.010765366554260254 -0.009847759246826172
v 0.04 0.011414213180541992 -0.009414213180541992
v 0.04 0.011111140251159668 -0.009662939071655274
v 0.04 0.011847759246826172 -0.008765366554260254
v 0.04 0.011961570739746094 -0.008390180587768555
v 0.04 0.012 -0.008
v 0.04 0.011111140251159668 -0.006337060928344727
v 0.04 0.010765366554260254 -0.006152240753173829
v 0.04 0.010390180587768555 -0.006038429260253907
v 0.04 0.01 -0.006
v 0.04 0.011961570739746094 -0.0076098194122314455
v 0.04 0.011847759246826172 -0.007234632968902588
v 0.04 0.011414213180541992 -0.00658578634262085
v 0.00375 0.008 -0.008
v 0.00375 0.008038429260253907 -0.0076098194122314455
v 0.0 0.008038429260253907 -0.0076098194122314455
v 0.00375 0.008152240753173829 -0.007234632968902588
v 0.00375 0.008337060928344726 -0.006888859748840332
v 0.0 0.008337060928344726 -0.006888859748840332
v 0.0 0.008152240753173829 -0.007234632968902588
v 0.00375 0.008585786819458008 -0.00658578634262085
v 0.00375 0.008888859748840332 -0.006337060928344727
v 0.0 0.008888859748840332 -0.006337060928344727
v 0.00375 0.009234633445739746 -0.006152240753173829
v 0.00375 0.009609819412231446 -0.006038429260253907
v 0.0 0.009609819412231446 -0.006038429260253907
v 0.0 0.009234633445739746 -0.006152240753173829
v 0.0 0.008585786819458008 -0.00658578634262085
v 0.00375 0.01 -0.006
v 0.00375 0.010390180587768555 -0.006038429260253907
v 0.0 0.010390180587768555 -0.006038429260253907
v 0.00375 0.010765366554260254 -0.006152240753173829
v 0.00375 0.011111140251159668 -0.006337060928344727
v 0.0 0.011111140251159668 -0.006337060928344727
v 0.0 0.010765366554260254 -0.006152240753173829
v 0.00375 0.011414213180541992 -0.00658578634262085
v 0.00375 0.011662939071655274 -0.006888859748840332
v 0.0 0.011662939071655274 -0.006888859748840332
v 0.00375 0.011847759246826172 -0.007234632968902588
v 0.00375 0.011961570739746094 -0.0076098194122314455
v 0.0 0.011961570739746094 -0.0076098194122314455
v 0.0 0.011847759246826172 -0.007234632968902588
v 0.0 0.011414213180541992 -0.00658578634262085
v 0.0 0.01 -0.006
v 0.0 0.008 -0.008
v 0.00375 0.012 -0.008
v 0.0 0.012 -0.008
v 0.0 0.008038429260253907 -0.008390180587768555
v 0.00375 0.011961570739746094 -0.008390180587768555
v 0.0 0.011961570739746094 -0.008390180587768555
v 0.00375 0.011847759246826172 -0.008765366554260254
v 0.00375 0.011662939071655274 -0.009111140251159668
v 0.0 0.011662939071655274 -0.009111140251159668
v 0.0 0.011847759246826172 -0.008765366554260254
v 0.00375 0.011414213180541992 -0.009414213180541992
v 0.00375 0.011111140251159668 -0.009662939071655274
v 0.0 0.011111140251159668 -0.009662939071655274
v 0.00375 0.010765366554260254 -0.009847759246826172
v 0.00375 0.010390180587768555 -0.009961570739746094
v 0.0 0.010390180587768555 -0.009961570739746094
v 0.0 0.010765366554260254 -0.009847759246826172
v 0.0 0.011414213180541992 -0.009414213180541992
v 0.00375 0.01 -0.01
v 0.00375 0.009609819412231446 -0.009961570739746094
v 0.0 0.009609819412231446 -0.009961570739746094
v 0.00375 0.009234633445739746 -0.009847759246826172
v 0.00375 0.008888859748840332 -0.009662939071655274
v 0.0 0.008888859748840332 -0.009662939071655274
v 0.0 0.009234633445739746 -0.009847759246826172
v 0.00375 0.008585786819458008 -0.009414213180541992
v 0.00375 0.008337060928344726 -0.009111140251159668
v 0.0 0.008337060928344726 -0.009111140251159668
v 0.00375 0.008152240753173829 -0.008765366554260254
v 0.00375 0.008038429260253907 -0.008390180587768555
v 0.0 0.008152240753173829 -0.008765366554260254
v 0.0 0.008585786819458008 -0.009414213180541992
v 0.0 0.01 -0.01
v 0.0 0.011847759246826172 -0.007234632968902588
v 0.0 0.011961570739746094 -0.008390180587768555
v 0.0 0.011662939071655274 -0.009111140251159668
v 0.0 0.011847759246826172 -0.008765366554260254
v 0.0 0.011414213180541992 -0.009414213180541992
v 0.0 0.011111140251159668 -0.009662939071655274
v 0.0 0.010390180587768555 -0.009961570739746094
v 0.0 0.01 -0.01
v 0.0 0.010765366554260254 -0.009847759246826172
v 0.0 0.008337060928344726 -0.009111140251159668
v 0.0 0.012 -0.008
v 0.0 0.011961570739746094 -0.0076098194122314455
v 0.0 0.008337060928344726 -0.006888859748840332
v 0.0 0.010390180587768555 -0.006038429260253907
v 0.0 0.011662939071655274 -0.006888859748840332
v 0.0 0.011111140251159668 -0.006337060928344727
v 0.0 0.011414213180541992 -0.00658578634262085
v 0.0 0.010765366554260254 -0.006152240753173829
v 0.0 0.009609819412231446 -0.009961570739746094
v 0.0 0.009234633445739746 -0.009847759246826172
v 0.0 0.008585786819458008 -0.009414213180541992
v 0.0 0.008888859748840332 -0.009662939071655274
v 0.0 0.008152240753173829 -0.008765366554260254
v 0.0 0.008038429260253907 -0.008390180587768555
v 0.0 0.008 -0.008
v 0.0 0.008888859748840332 -0.006337060928344727
v 0.0 0.009234633445739746 -0.006152240753173829
v 0.0 0.009609819412231446 -0.006038429260253907
v 0.0 0.01 -0.006
v 0.0 0.008038429260253907 -0.0076098194122314455
v 0.0 0.008152240753173829 -0.007234632968902588
v 0.0 0.008585786819458008 -0.00658578634262085
v 0.00375 0.015 0.0
v 0.03625 0.015 0.0
v 0.03625 0.015 -0.008
v 0.00375 0.015 -0.008
v 0.0 0.015 0.015
v 0.04 0.015 0.015
v 0.04 0.02 0.01
v 0.0 0.02 0.01
v 0.0 0.02 0.0
v 0.0 0.02 0.01
v 0.04 0.02 0.01
v 0.04 0.02 0.0
v 0.04 0.005 0.015
v 0.04 0.0 0.01
v 0.04 0.015 0.015
v 0.04 0.02 0.01
v 0.04 0.02 0.0
v 0.04 0.0 0.0
v 0.0 0.0 0.01
v 0.04 0.0 0.01
v 0.04 0.005 0.015
v 0.0 0.005 0.015
v 0.0 0.0 0.01
v 0.0 0.0 0.0
v 0.04 0.0 0.0
v 0.04 0.0 0.01
v 0.0 0.015 0.015
v 0.0 0.005 0.015
v 0.04 0.005 0.015
v 0.04 0.015 0.015
v 0.0 0.005 0.015
v 0.0 0.02 0.01
v 0.0 0.0 0.01
v 0.0 0.02 0.0
v 0.0 0.0 0.0
v 0.0 0.015 0.015
usemtl Diffuse
f 1 2 3
f 3 2 4
f 1 3 5
f 1 5 6
f 7 8 2
f 9 4 2
f 10 9 2
f 8 10 2
f 2 11 7
f 12 1 13
f 1 14 2
f 15 16 1
f 17 15 1
f 1 6 17
f 13 1 16
f 12 18 19
f 20 21 12
f 22 20 12
f 21 18 12
f 23 24 11
f 25 26 11
f 27 25 11
f 23 11 26
f 27 28 29
f 28 27 11
f 30 28 31
f 28 30 29
f 31 28 32
f 11 33 28
f 24 7 11
f 34 35 36
f 37 35 19
f 37 36 35
f 12 19 35
f 38 35 34
f 28 39 32
f 39 28 40
f 28 35 40
f 38 40 35
f 22 12 13
f 12 35 41
f 42 43 44
f 44 43 45
f 42 44 46
f 42 46 47
f 48 49 43
f 50 45 43
f 51 50 43
f 49 51 43
f 43 52 48
f 53 42 54
f 42 55 43
f 56 57 42
f 58 56 42
f 42 47 58
f 54 42 57
f 53 59 60
f 61 62 53
f 63 61 53
f 62 59 53
f 64 65 52
f 66 67 52
f 68 66 52
f 64 52 67
f 68 69 70
f 69 68 52
f 71 69 72
f 69 71 70
f 72 69 73
f 52 74 69
f 65 48 52
f 75 76 77
f 78 76 60
f 78 77 76
f 53 60 76
f 79 76 75
f 69 80 73
f 80 69 81
f 69 76 81
f 79 81 76
f 53 76 82
f 63 53 54
f 83 84 85
f 84 83 86
f 87 85 88
f 85 87 83
f 89 86 90
f 86 89 84
f 88 90 87
f 90 88 89
f 91 92 93
f 93 94 91
f 95 96 97
f 97 98 95
f 99 100 101
f 101 102 99
f 103 104 105
f 105 106 103
f 107 108 109
f 109 110 107
f 111 112 113
f 114 115 116
f 112 114 117
f 118 119 120
f 121 122 123
f 119 121 124
f 115 118 125
f 126 127 128
f 129 130 131
f 127 129 132
f 133 134 135
f 136 137 138
f 134 136 139
f 130 133 140
f 122 126 141
f 113 142 111
f 116 117 114
f 113 112 117
f 120 125 118
f 123 124 121
f 120 119 124
f 116 115 125
f 128 141 126
f 131 132 129
f 128 127 132
f 135 140 133
f 138 139 136
f 135 134 139
f 131 130 140
f 123 122 141
f 143 144 137
f 111 142 145
f 143 146 147
f 148 149 150
f 146 148 151
f 152 153 154
f 155 156 157
f 153 155 158
f 149 152 159
f 160 161 162
f 163 164 165
f 161 163 166
f 167 168 169
f 170 171 145
f 168 170 172
f 164 167 173
f 156 160 174
f 147 144 143
f 150 151 148
f 147 146 151
f 154 159 152
f 157 158 155
f 154 153 158
f 150 149 159
f 162 174 160
f 165 166 163
f 162 161 166
f 169 173 167
f 145 172 170
f 169 168 172
f 165 164 173
f 157 156 174
f 171 111 145
f 144 138 137
f 175 176 177
f 176 178 177
f 177 179 180
f 181 182 180
f 180 183 181
f 180 175 177
f 175 180 184
f 185 176 186
f 187 188 189
f 176 175 186
f 190 191 192
f 188 192 191
f 191 189 188
f 189 175 187
f 180 182 193
f 193 194 195
f 196 195 194
f 193 195 184
f 184 197 198
f 198 199 184
f 184 187 175
f 187 184 199
f 200 201 202
f 200 202 187
f 187 202 203
f 204 205 187
f 206 200 187
f 188 187 203
f 199 204 187
f 180 193 184
f 207 208 209
f 210 211 212
f 208 210 213
f 214 215 216
f 217 218 219
f 215 217 220
f 211 214 221
f 222 223 224
f 225 226 227
f 223 225 228
f 229 230 231
f 232 233 234
f 230 232 235
f 226 229 236
f 218 222 237
f 209 238 207
f 212 213 210
f 209 208 213
f 216 221 214
f 219 220 217
f 216 215 220
f 212 211 221
f 224 237 222
f 227 228 225
f 224 223 228
f 231 236 229
f 234 235 232
f 231 230 235
f 227 226 236
f 219 218 237
f 239 240 233
f 207 238 241
f 239 242 243
f 244 245 246
f 242 244 247
f 248 249 250
f 251 252 253
f 249 251 254
f 245 248 255
f 256 257 258
f 259 260 261
f 257 259 262
f 263 264 265
f 266 267 241
f 264 266 268
f 260 263 269
f 252 256 270
f 243 240 239
f 246 247 244
f 243 242 247
f 250 255 248
f 253 254 251
f 250 249 254
f 246 245 255
f 258 270 256
f 261 262 259
f 258 257 262
f 265 269 263
f 241 268 266
f 265 264 268
f 261 260 269
f 253 252 270
f 267 207 241
f 240 234 233
f 271 272 273
f 272 274 273
f 273 275 276
f 277 278 276
f 276 279 277
f 276 271 273
f 271 276 280
f 281 272 282
f 283 284 285
f 272 271 282
f 286 287 288
f 284 288 287
f 287 285 284
f 285 271 283
f 276 278 289
f 289 290 291
f 292 291 290
f 289 291 280
f 280 293 294
f 294 295 280
f 280 283 271
f 283 280 295
f 296 297 298
f 296 298 283
f 283 298 299
f 300 301 283
f 302 296 283
f 284 283 299
f 295 300 283
f 276 289 280
f 303 304 305
f 305 306 303
f 307 308 309
f 309 310 307
f 311 312 313
f 313 314 311
f 315 316 317
f 317 316 318
f 316 319 318
f 319 316 320
f 321 322 323
f 323 324 321
f 325 326 327
f 327 328 325
f 329 330 331
f 331 332 329
f 333 334 335
f 336 337 334
f 338 334 333
f 334 337 335
