mtllib tn__corpo1_dC_Corpo1_Mesh.mtl
v -0.01625 -0.014142135620117189 0.033357864379882814
v -0.01625 -0.010004097938537598 0.03
v -0.01625 -0.012856413841247558 0.03453606414794922
v -0.01625 -0.0175 0.03
v -0.01625 -0.0023144538402557376 0.03405485153198242
v -0.01625 -0.010004097938537598 0.02
v -0.01625 -2.7755575615628914e-19 0.025500000000000002
v -0.01625 -0.0007287017703056335 0.03260855865478516
v -0.01625 1.5308084995570108e-19 0.0325
v -0.01625 -0.001394118309020996 0.0329248046875
v -0.01625 -0.0019384603500366211 0.033421276092529296
v -0.01625 -0.002 0.02
v -0.01625 -0.011472944259643555 0.0355977783203125
v -0.01625 -0.0024482359886169435 0.035506103515625
v -0.01625 -0.008455496788024902 0.03734042358398437
v -0.01625 -0.01000224494934082 0.03653494262695313
v -0.01625 -0.0068444619178771975 0.038008102416992186
v -0.01625 -0.002194406270980835 0.03619773864746094
v -0.01625 -0.005181387901306152 0.038532901763916015
v -0.01625 -0.0024894447326660155 0.03477051162719726
v -0.01625 -0.00175 0.03678535842895508
v -0.01625 -0.00347891902923584 0.038910831451416016
v -0.01625 -0.00175 0.039139019012451176
v -0.01625 0.0007287017703056335 0.03260855865478516
v -0.01625 0.002 0.02
v -0.01625 0.010004097938537598 0.02
v -0.01625 0.010004097938537598 0.03
v -0.01625 0.001394118309020996 0.0329248046875
v -0.01625 0.0019384603500366211 0.033421276092529296
v -0.01625 0.0175 0.03
v -0.01625 0.014142135620117189 0.033357864379882814
v -0.01625 0.0023144538402557376 0.03405485153198242
v -0.01625 0.012856413841247558 0.03453606414794922
v -0.01625 0.011472944259643555 0.0355977783203125
v -0.01625 0.0024482359886169435 0.035506103515625
v -0.01625 0.0024894447326660155 0.03477051162719726
v -0.01625 0.01000224494934082 0.03653494262695313
v -0.01625 0.00175 0.039139019012451176
v -0.01625 0.00175 0.03678535842895508
v -0.01625 0.00347891902923584 0.038910831451416016
v -0.01625 0.002194406270980835 0.03619773864746094
v -0.01625 0.005181387901306152 0.038532901763916015
v -0.01625 0.008455496788024902 0.03734042358398437
v -0.01625 0.0068444619178771975 0.038008102416992186
v -0.01625 0.010004097938537598 0.02
v 0.01625 0.002 0.02
v 0.01625 0.010004097938537598 0.02
v -0.01625 0.002 0.02
v -0.01625 0.00175 0.039139019012451176
v -0.02 0.00175 0.039139019012451176
v -0.02 0.00175 0.03678535842895508
v -0.01625 0.00175 0.03678535842895508
v -0.01625 -0.00175 0.03678535842895508
v -0.02 -0.00175 0.03678535842895508
v -0.02 -0.00175 0.039139019012451176
v -0.01625 -0.00175 0.039139019012451176
v -0.02 1.5308084995570108e-19 0.0325
v -0.01625 -0.0007287017703056335 0.03260855865478516
v -0.01625 1.5308084995570108e-19 0.0325
v -0.02 -0.0019384603500366211 0.033421276092529296
v -0.01625 -0.0019384603500366211 0.033421276092529296
v -0.01625 -0.001394118309020996 0.0329248046875
v -0.02 -0.001394118309020996 0.0329248046875
v -0.02 -0.0023144538402557376 0.03405485153198242
v -0.01625 -0.0024894447326660155 0.03477051162719726
v -0.01625 -0.0023144538402557376 0.03405485153198242
v -0.02 -0.0024482359886169435 0.035506103515625
v -0.01625 -0.002194406270980835 0.03619773864746094
v -0.01625 -0.0024482359886169435 0.035506103515625
v -0.02 -0.0024894447326660155 0.03477051162719726
v -0.02 -0.0007287017703056335 0.03260855865478516
v -0.02 -0.002194406270980835 0.03619773864746094
v -0.02 -0.00175 0.03678535842895508
v -0.01625 -0.00175 0.03678535842895508
v -0.02 0.0007287017703056335 0.03260855865478516
v -0.02 0.00175 0.03678535842895508
v -0.01625 0.002194406270980835 0.03619773864746094
v -0.01625 0.00175 0.03678535842895508
v -0.02 0.0024482359886169435 0.035506103515625
v -0.01625 0.0024894447326660155 0.03477051162719726
v -0.01625 0.0024482359886169435 0.035506103515625
v -0.02 0.002194406270980835 0.03619773864746094
v -0.02 0.0019384603500366211 0.033421276092529296
v -0.01625 0.0019384603500366211 0.033421276092529296
v -0.01625 0.0023144538402557376 0.03405485153198242
v -0.02 0.001394118309020996 0.0329248046875
v -0.01625 0.0007287017703056335 0.03260855865478516
v -0.01625 0.001394118309020996 0.0329248046875
v -0.02 0.0024894447326660155 0.03477051162719726
v -0.02 0.0023144538402557376 0.03405485153198242
v -0.02 0.014142135620117189 0.033357864379882814
v -0.02 0.012856413841247558 0.03453606414794922
v -0.01625 0.014142135620117189 0.033357864379882814
v -0.02 0.011472944259643555 0.0355977783203125
v -0.02 0.01000224494934082 0.03653494262695313
v -0.01625 0.011472944259643555 0.0355977783203125
v -0.01625 0.012856413841247558 0.03453606414794922
v -0.01625 0.01000224494934082 0.03653494262695313
v -0.01625 0.008455496788024902 0.03734042358398437
v -0.02 0.008455496788024902 0.03734042358398437
v -0.02 0.0068444619178771975 0.038008102416992186
v -0.02 0.005181387901306152 0.038532901763916015
v -0.01625 0.005181387901306152 0.038532901763916015
v -0.02 0.00347891902923584 0.038910831451416016
v -0.02 0.00175 0.039139019012451176
v -0.01625 0.00175 0.039139019012451176
v -0.01625 0.00347891902923584 0.038910831451416016
v -0.01625 0.0068444619178771975 0.038008102416992186
v -0.02 -0.035 0.015
v 0.02 -0.035 0.015
v 0.02 -0.02 0.03
v -0.02 -0.02 0.03
v -0.02 0.02 0.03
v -0.02 0.035 0.015
v -0.02 0.0175 0.03
v -0.02 0.014142135620117189 0.033357864379882814
v -0.02 0.0019384603500366211 0.033421276092529296
v -0.02 0.012856413841247558 0.03453606414794922
v -0.02 0.0007287017703056335 0.03260855865478516
v -0.02 1.5308084995570108e-19 0.0325
v -0.02 0.001394118309020996 0.0329248046875
v -0.02 0.0023144538402557376 0.03405485153198242
v -0.02 0.0024894447326660155 0.03477051162719726
v -0.02 -0.035 0.015
v -0.02 0.011472944259643555 0.0355977783203125
v -0.02 0.002194406270980835 0.03619773864746094
v -0.02 0.008455496788024902 0.03734042358398437
v -0.02 0.01000224494934082 0.03653494262695313
v -0.02 0.0068444619178771975 0.038008102416992186
v -0.02 0.00175 0.03678535842895508
v -0.02 0.005181387901306152 0.038532901763916015
v -0.02 0.0024482359886169435 0.035506103515625
v -0.02 0.00347891902923584 0.038910831451416016
v -0.02 0.00175 0.039139019012451176
v -0.02 -0.0007287017703056335 0.03260855865478516
v -0.02 -0.0175 0.03
v -0.02 -0.0019384603500366211 0.033421276092529296
v -0.02 -0.001394118309020996 0.0329248046875
v -0.02 -0.014142135620117189 0.033357864379882814
v -0.02 -0.0023144538402557376 0.03405485153198242
v -0.02 -0.012856413841247558 0.03453606414794922
v -0.02 -0.02 0.03
v -0.02 -0.0024894447326660155 0.03477051162719726
v -0.02 -0.0024482359886169435 0.035506103515625
v -0.02 -0.011472944259643555 0.0355977783203125
v -0.02 -0.00175 0.039139019012451176
v -0.02 -0.00175 0.03678535842895508
v -0.02 -0.00347891902923584 0.038910831451416016
v -0.02 -0.002194406270980835 0.03619773864746094
v -0.02 -0.008455496788024902 0.03734042358398437
v -0.02 -0.01000224494934082 0.03653494262695313
v -0.02 -0.0068444619178771975 0.038008102416992186
v -0.02 -0.005181387901306152 0.038532901763916015
v -0.02 0.02 0.03
v 0.02 0.02 0.03
v 0.02 0.035 0.015
v -0.02 0.035 0.015
v 0.02 -0.02 0.03
v 0.02 -0.035 0.015
v 0.02 -0.0175 0.03
v 0.02 -0.014142135620117189 0.033357864379882814
v 0.02 -0.0009567086100578309 0.03269029998779297
v 0.02 0.0175 0.03
v 0.02 1.5308084995570108e-19 0.0325
v 0.02 -0.0017677669525146486 0.03323223114013672
v 0.02 -0.0023096988201141357 0.03404329299926758
v 0.02 -0.012687865257263184 0.03467593765258789
v 0.02 -0.0025 0.035
v 0.02 -0.0023096988201141357 0.035956707000732425
v 0.02 -0.007653668880462647 0.03769332122802734
v 0.02 -0.009427934646606446 0.03685415267944336
v 0.02 -0.005805693626403809 0.03835453414916992
v 0.02 -0.0009567086100578309 0.037309700012207035
v 0.02 -0.0039018063545227053 0.03883143615722656
v 0.02 -0.0017677669525146486 0.036767768859863284
v 0.02 -0.011111404418945313 0.03584511947631836
v 0.02 -0.001960342764854431 0.03911942291259766
v 0.02 -4.592425233973236e-19 0.0375
v 0.02 0.014142135620117189 0.033357864379882814
v 0.02 0.0023096988201141357 0.03404329299926758
v 0.02 0.0017677669525146486 0.03323223114013672
v 0.02 0.0025 0.035
v 0.02 0.012687865257263184 0.03467593765258789
v 0.02 0.011111404418945313 0.03584511947631836
v 0.02 0.0023096988201141357 0.035956707000732425
v 0.02 0.0009567086100578309 0.03269029998779297
v 0.02 0.035 0.015
v 0.02 0.02 0.03
v 0.02 0.001960342764854431 0.03911942291259766
v 0.02 0.0009567086100578309 0.037309700012207035
v 0.02 0.0039018063545227053 0.03883143615722656
v 0.02 -3.552713678800501e-18 0.039215728759765624
v 0.02 0.0017677669525146486 0.036767768859863284
v 0.02 0.005805693626403809 0.03835453414916992
v 0.02 0.009427934646606446 0.03685415267944336
v 0.02 0.007653668880462647 0.03769332122802734
v -0.02 -0.00175 0.039139019012451176
v -0.02 -0.00347891902923584 0.038910831451416016
v -0.01625 -0.00347891902923584 0.038910831451416016
v -0.02 -0.005181387901306152 0.038532901763916015
v -0.02 -0.0068444619178771975 0.038008102416992186
v -0.01625 -0.0068444619178771975 0.038008102416992186
v -0.01625 -0.005181387901306152 0.038532901763916015
v -0.01625 -0.00175 0.039139019012451176
v -0.01625 -0.008455496788024902 0.03734042358398437
v -0.02 -0.008455496788024902 0.03734042358398437
v -0.02 -0.01000224494934082 0.03653494262695313
v -0.01625 -0.01000224494934082 0.03653494262695313
v -0.02 -0.011472944259643555 0.0355977783203125
v -0.02 -0.012856413841247558 0.03453606414794922
v -0.01625 -0.011472944259643555 0.0355977783203125
v -0.01625 -0.012856413841247558 0.03453606414794922
v -0.02 -0.014142135620117189 0.033357864379882814
v -0.01625 -0.014142135620117189 0.033357864379882814
v -0.02 -0.0175 0.03
v -0.01625 -0.0175 0.03
v -0.01625 0.0175 0.03
v -0.02 0.0175 0.03
v 0.02 -0.014142135620117189 0.033357864379882814
v 0.02 -0.012687865257263184 0.03467593765258789
v 0.01625 -0.012687865257263184 0.03467593765258789
v 0.02 -0.011111404418945313 0.03584511947631836
v 0.02 -0.009427934646606446 0.03685415267944336
v 0.01625 -0.011111404418945313 0.03584511947631836
v 0.02 -0.007653668880462647 0.03769332122802734
v 0.02 -0.005805693626403809 0.03835453414916992
v 0.01625 -0.005805693626403809 0.03835453414916992
v 0.02 -0.0039018063545227053 0.03883143615722656
v 0.02 -0.001960342764854431 0.03911942291259766
v 0.01625 -0.001960342764854431 0.03911942291259766
v 0.01625 -0.007653668880462647 0.03769332122802734
v 0.01625 -0.014142135620117189 0.033357864379882814
v 0.01625 -0.009427934646606446 0.03685415267944336
v 0.01625 -0.0039018063545227053 0.03883143615722656
v 0.02 -3.552713678800501e-18 0.039215728759765624
v 0.01625 3.552713678800501e-18 0.039215728759765624
v 0.02 0.001960342764854431 0.03911942291259766
v 0.02 0.0039018063545227053 0.03883143615722656
v 0.01625 0.001960342764854431 0.03911942291259766
v 0.02 0.005805693626403809 0.03835453414916992
v 0.02 0.007653668880462647 0.03769332122802734
v 0.01625 0.007653668880462647 0.03769332122802734
v 0.01625 0.0039018063545227053 0.03883143615722656
v 0.02 0.009427934646606446 0.03685415267944336
v 0.02 0.011111404418945313 0.03584511947631836
v 0.01625 0.009427934646606446 0.03685415267944336
v 0.02 0.012687865257263184 0.03467593765258789
v 0.02 0.014142135620117189 0.033357864379882814
v 0.01625 0.012687865257263184 0.03467593765258789
v 0.01625 0.011111404418945313 0.03584511947631836
v 0.01625 0.005805693626403809 0.03835453414916992
v 0.01625 0.014142135620117189 0.033357864379882814
v 0.01625 -0.0175 0.03
v 0.02 -0.0175 0.03
v 0.01625 0.014142135620117189 0.033357864379882814
v 0.01625 0.010004097938537598 0.03
v 0.01625 0.012687865257263184 0.03467593765258789
v 0.01625 0.0175 0.03
v 0.01625 0.0023096988201141357 0.03404329299926758
v 0.01625 0.010004097938537598 0.02
v 0.01625 -2.7755575615628914e-19 0.025500000000000002
v 0.01625 0.0009567086100578309 0.03269029998779297
v 0.01625 0.0017677669525146486 0.03323223114013672
v 0.01625 0.002 0.02
v 0.01625 0.011111404418945313 0.03584511947631836
v 0.01625 0.0023096988201141357 0.035956707000732425
v 0.01625 0.007653668880462647 0.03769332122802734
v 0.01625 0.009427934646606446 0.03685415267944336
v 0.01625 0.005805693626403809 0.03835453414916992
v 0.01625 0.0017677669525146486 0.036767768859863284
v 0.01625 0.0039018063545227053 0.03883143615722656
v 0.01625 0.0025 0.035
v 0.01625 0.0009567086100578309 0.037309700012207035
v 0.01625 3.552713678800501e-18 0.039215728759765624
v 0.01625 0.001960342764854431 0.03911942291259766
v 0.01625 1.5308084995570108e-19 0.0375
v 0.01625 -4.592425233973236e-19 0.0325
v 0.01625 -0.0009567086100578309 0.03269029998779297
v 0.01625 -0.002 0.02
v 0.01625 -0.010004097938537598 0.02
v 0.01625 -0.010004097938537598 0.03
v 0.01625 -0.0017677669525146486 0.03323223114013672
v 0.01625 -0.0023096988201141357 0.03404329299926758
v 0.01625 -0.014142135620117189 0.033357864379882814
v 0.01625 -0.012687865257263184 0.03467593765258789
v 0.01625 -0.0175 0.03
v 0.01625 -0.011111404418945313 0.03584511947631836
v 0.01625 -0.0039018063545227053 0.03883143615722656
v 0.01625 -0.0009567086100578309 0.037309700012207035
v 0.01625 -0.0017677669525146486 0.036767768859863284
v 0.01625 -0.001960342764854431 0.03911942291259766
v 0.01625 -0.0023096988201141357 0.035956707000732425
v 0.01625 -0.005805693626403809 0.03835453414916992
v 0.01625 -0.0025 0.035
v 0.01625 -0.009427934646606446 0.03685415267944336
v 0.01625 -0.007653668880462647 0.03769332122802734
v 0.01625 -2.7755575615628914e-19 0.025500000000000002
v 0.01625 0.002 0.02
v -0.01625 0.002 0.02
v -0.01625 -2.7755575615628914e-19 0.025500000000000002
v 0.01625 -0.002 0.02
v 0.01625 -2.7755575615628914e-19 0.025500000000000002
v -0.01625 -2.7755575615628914e-19 0.025500000000000002
v -0.01625 -0.002 0.02
v -0.01625 -0.010004097938537598 0.02
v -0.01625 -0.010004097938537598 0.03
v 0.01625 -0.010004097938537598 0.03
v 0.01625 -0.010004097938537598 0.02
v 0.01625 0.010004097938537598 0.02
v 0.01625 0.010004097938537598 0.03
v -0.01625 0.010004097938537598 0.03
v -0.01625 0.010004097938537598 0.02
v -0.01625 -0.010004097938537598 0.02
v 0.01625 -0.010004097938537598 0.02
v 0.01625 -0.002 0.02
v -0.01625 -0.002 0.02
v -0.02 -0.0175 0.03
v -0.02 -0.02 0.03
v -0.01625 -0.0175 0.03
v -0.01625 -0.010004097938537598 0.03
v 0.01625 -0.0175 0.03
v 0.02 -0.02 0.03
v 0.02 -0.0175 0.03
v 0.01625 -0.010004097938537598 0.03
v -0.02 0.02 0.03
v -0.01625 0.0175 0.03
v 0.01625 0.0175 0.03
v -0.02 0.0175 0.03
v -0.01625 0.010004097938537598 0.03
v 0.01625 0.010004097938537598 0.03
v 0.02 0.0175 0.03
v 0.02 0.02 0.03
v 0.01625 0.0023096988201141357 0.03404329299926758
v 0.02 0.0023096988201141357 0.03404329299926758
v 0.02 0.0025 0.035
v 0.01625 0.0009567086100578309 0.03269029998779297
v 0.02 0.0009567086100578309 0.03269029998779297
v 0.02 0.0017677669525146486 0.03323223114013672
v 0.01625 -0.0009567086100578309 0.03269029998779297
v 0.02 -0.0009567086100578309 0.03269029998779297
v 0.02 1.5308084995570108e-19 0.0325
v 0.01625 -0.0023096988201141357 0.03404329299926758
v 0.02 -0.0023096988201141357 0.03404329299926758
v 0.02 -0.0017677669525146486 0.03323223114013672
v 0.01625 -0.0017677669525146486 0.03323223114013672
v 0.01625 -4.592425233973236e-19 0.0325
v 0.01625 0.0025 0.035
v 0.01625 0.0017677669525146486 0.03323223114013672
v 0.01625 -0.0025 0.035
v 0.02 -0.0025 0.035
v 0.01625 0.0023096988201141357 0.035956707000732425
v 0.01625 -0.0023096988201141357 0.035956707000732425
v 0.02 -0.0023096988201141357 0.035956707000732425
v 0.01625 -0.0009567086100578309 0.037309700012207035
v 0.02 -0.0009567086100578309 0.037309700012207035
v 0.02 -0.0017677669525146486 0.036767768859863284
v 0.01625 -0.0017677669525146486 0.036767768859863284
v 0.01625 0.0009567086100578309 0.037309700012207035
v 0.02 0.0009567086100578309 0.037309700012207035
v 0.02 -4.592425233973236e-19 0.0375
v 0.02 0.0023096988201141357 0.035956707000732425
v 0.02 0.0017677669525146486 0.036767768859863284
v 0.01625 0.0017677669525146486 0.036767768859863284
v 0.01625 1.5308084995570108e-19 0.0375
v 0.02 0.0175 0.03
v 0.01625 0.0175 0.03
v -0.022024999618530276 -0.038148418426513675 0.0
v 0.022024999618530276 -0.038148418426513675 0.0
v 0.022024999618530276 -0.038148418426513675 0.015
v -0.022024999618530276 -0.038148418426513675 0.015
v -0.04404999923706055 4.440892098500626e-18 0.015
v -0.04404999923706055 4.280430176972772e-18 0.0
v -0.022024999618530276 -0.038148418426513675 0.015
v -0.022024999618530276 -0.038148418426513675 0.0
v -0.022024999618530276 0.038148418426513675 0.0
v -0.04404999923706055 4.280430176972772e-18 0.0
v -0.04404999923706055 4.440892098500626e-18 0.015
v -0.022024999618530276 0.038148418426513675 0.015
v 0.022024999618530276 0.038148418426513675 0.0
v -0.022024999618530276 0.038148418426513675 0.0
v -0.022024999618530276 0.038148418426513675 0.015
v 0.022024999618530276 0.038148418426513675 0.015
v 0.04404999923706055 0.0 0.0
v 0.022024999618530276 0.038148418426513675 0.0
v 0.022024999618530276 0.038148418426513675 0.015
v 0.04404999923706055 0.0 0.015
v 0.022024999618530276 -0.038148418426513675 0.0
v 0.04404999923706055 0.0 0.0
v 0.04404999923706055 0.0 0.015
v 0.022024999618530276 -0.038148418426513675 0.015
v -0.022024999618530276 -0.038148418426513675 0.015
v -0.02 -0.035 0.015
v -0.04404999923706055 4.440892098500626e-18 0.015
v 0.022024999618530276 -0.038148418426513675 0.015
v -0.02 0.035 0.015
v -0.022024999618530276 0.038148418426513675 0.015
v -0.02 0.0 0.015
v 0.02 0.035 0.015
v 0.02 -0.035 0.015
v 0.04404999923706055 0.0 0.015
v 0.022024999618530276 0.038148418426513675 0.015
v 0.02 0.0 0.015
v 0.022024999618530276 0.038148418426513675 0.0
v -0.04404999923706055 4.280430176972772e-18 0.0
v -0.022024999618530276 0.038148418426513675 0.0
v -0.022024999618530276 -0.038148418426513675 0.0
v 0.022024999618530276 -0.038148418426513675 0.0
v 0.04404999923706055 0.0 0.0
usemtl Diffuse_1
f 1 2 3
f 2 1 4
f 3 2 5
f 6 7 2
f 8 2 7
f 8 7 9
f 2 8 10
f 5 2 11
f 11 2 10
f 6 12 7
f 3 5 13
f 14 15 16
f 17 18 19
f 15 18 17
f 16 13 20
f 21 19 18
f 18 15 14
f 22 21 23
f 22 19 21
f 14 16 20
f 13 5 20
f 9 7 24
f 7 25 26
f 27 28 24
f 27 29 28
f 24 7 27
f 27 30 31
f 27 32 29
f 27 33 32
f 33 27 31
f 32 33 34
f 7 26 27
f 35 36 37
f 38 39 40
f 41 42 39
f 41 35 43
f 35 37 43
f 43 44 41
f 39 42 40
f 41 44 42
f 37 36 34
f 36 32 34
f 45 46 47
f 46 45 48
f 49 50 51
f 51 52 49
f 53 54 55
f 55 56 53
f 57 58 59
f 60 61 62
f 63 62 58
f 64 65 66
f 67 68 69
f 70 69 65
f 64 66 61
f 71 58 57
f 60 62 63
f 71 63 58
f 64 70 65
f 61 60 64
f 67 69 70
f 72 68 67
f 72 73 74
f 72 74 68
f 75 57 59
f 76 77 78
f 79 80 81
f 82 81 77
f 83 84 85
f 86 87 88
f 83 88 84
f 89 85 80
f 81 82 79
f 82 77 76
f 85 89 90
f 88 83 86
f 87 86 75
f 83 85 90
f 89 80 79
f 75 59 87
f 91 92 93
f 94 95 96
f 92 94 97
f 93 92 97
f 95 98 96
f 96 97 94
f 99 95 100
f 99 98 95
f 101 102 103
f 104 105 106
f 102 104 107
f 99 100 108
f 107 103 102
f 106 107 104
f 108 101 103
f 108 100 101
f 109 110 111
f 111 112 109
f 113 114 115
f 116 117 118
f 119 116 115
f 115 120 119
f 119 121 116
f 122 123 118
f 117 122 118
f 121 117 116
f 115 114 124
f 118 123 125
f 126 127 128
f 129 130 131
f 127 130 129
f 128 125 132
f 130 127 126
f 133 130 134
f 133 131 130
f 126 128 132
f 125 123 132
f 135 120 136
f 137 138 139
f 140 137 141
f 135 139 138
f 136 124 142
f 136 120 115
f 141 137 139
f 139 135 136
f 115 124 136
f 140 141 143
f 144 143 145
f 146 147 148
f 149 150 147
f 149 144 151
f 149 151 150
f 150 152 147
f 147 153 148
f 147 152 153
f 151 144 145
f 143 141 145
f 154 155 156
f 156 157 154
f 158 159 160
f 161 160 162
f 160 163 164
f 165 161 162
f 161 166 167
f 161 165 166
f 167 166 168
f 162 160 164
f 160 159 163
f 169 170 171
f 172 173 174
f 170 175 172
f 171 176 169
f 175 170 169
f 174 173 177
f 172 175 173
f 177 173 178
f 169 176 168
f 176 167 168
f 179 180 181
f 182 183 184
f 180 183 182
f 182 184 185
f 181 186 179
f 163 187 188
f 163 186 164
f 183 180 179
f 179 186 163
f 159 187 163
f 189 190 191
f 178 189 192
f 189 178 190
f 178 192 177
f 190 193 194
f 185 195 196
f 195 185 184
f 194 191 190
f 193 196 194
f 193 185 196
f 197 198 199
f 200 201 202
f 198 200 203
f 199 204 197
f 202 203 200
f 205 202 201
f 199 198 203
f 201 206 205
f 206 207 208
f 209 210 211
f 207 209 211
f 208 207 211
f 212 213 214
f 212 211 210
f 213 212 210
f 206 208 205
f 215 216 214
f 214 213 215
f 91 93 217
f 217 218 91
f 219 220 221
f 222 223 224
f 220 222 221
f 225 226 227
f 228 229 230
f 226 228 227
f 223 225 231
f 232 219 221
f 224 223 233
f 222 224 221
f 225 227 231
f 231 233 223
f 227 228 234
f 234 228 230
f 229 235 236
f 230 229 236
f 237 238 239
f 240 241 242
f 238 240 243
f 244 245 246
f 247 248 249
f 245 247 250
f 241 244 242
f 239 236 237
f 251 243 240
f 239 238 243
f 246 242 244
f 249 250 247
f 252 249 248
f 246 245 250
f 251 240 242
f 237 236 235
f 253 254 219
f 219 232 253
f 255 256 257
f 256 255 258
f 257 256 259
f 260 261 256
f 256 261 262
f 259 256 263
f 263 256 262
f 261 260 264
f 257 259 265
f 266 267 268
f 269 270 271
f 267 266 269
f 268 265 272
f 273 271 270
f 270 269 266
f 274 275 276
f 275 271 273
f 273 276 275
f 266 268 272
f 265 259 272
f 262 261 277
f 277 261 278
f 261 279 280
f 281 282 278
f 281 283 282
f 278 261 281
f 281 261 280
f 281 284 285
f 284 281 286
f 281 285 283
f 283 285 287
f 288 289 290
f 276 289 291
f 288 291 289
f 276 291 274
f 290 292 293
f 294 287 295
f 287 294 283
f 295 296 292
f 293 288 290
f 292 296 293
f 294 295 292
f 297 298 299
f 299 300 297
f 301 302 303
f 303 304 301
f 305 306 307
f 307 308 305
f 309 310 311
f 311 312 309
f 313 314 315
f 315 316 313
f 317 318 319
f 320 319 321
f 318 322 319
f 321 322 323
f 322 321 319
f 321 324 320
f 325 326 327
f 326 325 328
f 329 327 326
f 330 327 329
f 331 332 327
f 327 332 325
f 333 334 335
f 336 337 338
f 333 338 334
f 339 340 341
f 342 343 344
f 345 344 340
f 346 341 337
f 335 347 333
f 338 348 336
f 348 338 333
f 341 346 339
f 344 345 342
f 345 340 339
f 346 337 336
f 343 349 350
f 351 347 335
f 352 353 350
f 354 355 356
f 357 356 353
f 358 359 360
f 351 361 362
f 363 362 359
f 364 360 355
f 350 349 352
f 356 357 354
f 357 353 352
f 360 364 358
f 362 363 351
f 363 359 358
f 364 355 354
f 351 335 361
f 343 342 349
f 252 248 365
f 365 366 252
f 367 368 369
f 369 370 367
f 371 372 373
f 374 373 372
f 375 376 377
f 377 378 375
f 379 380 381
f 381 382 379
f 383 384 385
f 385 386 383
f 387 388 389
f 389 390 387
f 391 392 393
f 392 391 394
f 393 395 396
f 395 393 397
f 396 395 398
f 397 393 392
f 399 394 400
f 394 399 392
f 398 400 401
f 400 398 402
f 398 401 396
f 399 400 402
f 403 404 405
f 406 404 407
f 404 403 408
f 407 404 408
