mtllib Mesh.mtl
v 19.226497650146484 -33.30126953125 0.0
v -19.226497650146484 -33.30126953125 0.0
v -19.226497650146484 -33.30126953125 5.0
v 19.226497650146484 -33.30126953125 5.0
v 38.45299530029297 -8.881784197001252e-15 0.0
v 19.226497650146484 -33.30126953125 0.0
v 19.226497650146484 -33.30126953125 5.0
v 38.45299530029297 -8.881784197001252e-15 5.0
v 19.226497650146484 33.30126953125 0.0
v 38.45299530029297 -8.881784197001252e-15 0.0
v 38.45299530029297 -8.881784197001252e-15 5.0
v 19.226497650146484 33.30126953125 5.0
v -19.226497650146484 33.30126953125 0.0
v 19.226497650146484 33.30126953125 0.0
v 19.226497650146484 33.30126953125 5.0
v -19.226497650146484 33.30126953125 5.0
v -38.45299530029297 1.3877787807814457e-14 0.0
v -19.226497650146484 33.30126953125 0.0
v -19.226497650146484 33.30126953125 5.0
v -38.45299530029297 1.3877787807814457e-14 5.0
v -19.226497650146484 -33.30126953125 0.0
v -38.45299530029297 1.3877787807814457e-14 0.0
v -38.45299530029297 1.3877787807814457e-14 5.0
v -19.226497650146484 -33.30126953125 5.0
v -44.226497650146484 1.3322676295501878e-14 5.0
v -22.113248825073242 -38.30126953125 5.0
v -19.226497650146484 -33.30126953125 5.0
v 22.113248825073242 -38.30126953125 5.0
v -38.45299530029297 1.3877787807814457e-14 5.0
v -19.226497650146484 33.30126953125 5.0
v -22.113248825073242 38.30126953125 5.0
v 22.113248825073242 38.30126953125 5.0
v 38.45299530029297 -8.881784197001252e-15 5.0
v 19.226497650146484 -33.30126953125 5.0
v 44.226497650146484 4.440892098500626e-15 5.0
v 19.226497650146484 33.30126953125 5.0
v 22.113248825073242 -38.30126953125 5.0
v -22.113248825073242 -38.30126953125 5.0
v -22.113248825073242 -38.30126953125 20.0
v 22.113248825073242 -38.30126953125 20.0
v -22.113248825073242 -38.30126953125 5.0
v -44.226497650146484 1.3322676295501878e-14 5.0
v -44.226497650146484 1.3322676295501878e-14 20.0
v -22.113248825073242 -38.30126953125 20.0
v -44.226497650146484 1.3322676295501878e-14 5.0
v -22.113248825073242 38.30126953125 5.0
v -22.113248825073242 38.30126953125 20.0
v -44.226497650146484 1.3322676295501878e-14 20.0
v 44.226497650146484 4.440892098500626e-15 5.0
v 22.113248825073242 -38.30126953125 5.0
v 22.113248825073242 -38.30126953125 20.0
v 44.226497650146484 4.440892098500626e-15 20.0
v 22.113248825073242 38.30126953125 5.0
v 44.226497650146484 4.440892098500626e-15 5.0
v 44.226497650146484 4.440892098500626e-15 20.0
v 22.113248825073242 38.30126953125 20.0
v -22.113248825073242 38.30126953125 5.0
v 22.113248825073242 38.30126953125 5.0
v 22.113248825073242 38.30126953125 20.0
v -22.113248825073242 38.30126953125 20.0
v -25.0 -43.30126953125 0.0
v 25.0 -43.30126953125 0.0
v 25.0 -43.30126953125 20.0
v -25.0 -43.30126953125 20.0
v -50.0 1.3322676295501878e-14 0.0
v -25.0 -43.30126953125 0.0
v -25.0 -43.30126953125 20.0
v -50.0 1.3322676295501878e-14 20.0
v -25.0 43.30126953125 20.0
v -25.0 43.30126953125 0.0
v -50.0 1.3322676295501878e-14 20.0
v -50.0 1.3322676295501878e-14 0.0
v 25.0 43.30126953125 0.0
v -25.0 43.30126953125 0.0
v -25.0 43.30126953125 20.0
v 25.0 43.30126953125 20.0
v 50.0 0.0 20.0
v 50.0 0.0 0.0
v 25.0 43.30126953125 0.0
v 25.0 43.30126953125 20.0
v 25.0 -43.30126953125 0.0
v 50.0 0.0 0.0
v 50.0 0.0 20.0
v 25.0 -43.30126953125 20.0
v -50.0 1.3322676295501878e-14 20.0
v -25.0 -43.30126953125 20.0
v -22.113248825073242 -38.30126953125 20.0
v 25.0 -43.30126953125 20.0
v -44.226497650146484 1.3322676295501878e-14 20.0
v -22.113248825073242 38.30126953125 20.0
v -25.0 43.30126953125 20.0
v 22.113248825073242 38.30126953125 20.0
v 22.113248825073242 -38.30126953125 20.0
v 50.0 0.0 20.0
v 44.226497650146484 4.440892098500626e-15 20.0
v 25.0 43.30126953125 20.0
v -19.226497650146484 -33.30126953125 0.0
v -25.0 -43.30126953125 0.0
v -50.0 1.3322676295501878e-14 0.0
v 25.0 -43.30126953125 0.0
v -38.45299530029297 1.3877787807814457e-14 0.0
v -25.0 43.30126953125 0.0
v -19.226497650146484 33.30126953125 0.0
v 25.0 43.30126953125 0.0
v 50.0 0.0 0.0
v 19.226497650146484 -33.30126953125 0.0
v 38.45299530029297 -8.881784197001252e-15 0.0
v 19.226497650146484 33.30126953125 0.0
usemtl Diffuse
f 1 2 3
f 3 4 1
f 5 6 7
f 7 8 5
f 9 10 11
f 11 12 9
f 13 14 15
f 15 16 13
f 17 18 19
f 19 20 17
f 21 22 23
f 23 24 21
f 25 26 27
f 27 26 28
f 25 27 29
f 30 31 25
f 31 30 32
f 30 25 29
f 33 34 35
f 28 34 27
f 35 34 28
f 36 35 32
f 35 36 33
f 36 32 30
f 37 38 39
f 39 40 37
f 41 42 43
f 43 44 41
f 45 46 47
f 47 48 45
f 49 50 51
f 51 52 49
f 53 54 55
f 55 56 53
f 57 58 59
f 59 60 57
f 61 62 63
f 63 64 61
f 65 66 67
f 67 68 65
f 69 70 71
f 72 71 70
f 73 74 75
f 75 76 73
f 77 78 79
f 79 80 77
f 81 82 83
f 83 84 81
f 85 86 87
f 87 86 88
f 85 87 89
f 90 91 85
f 91 90 92
f 90 85 89
f 93 88 94
f 88 93 87
f 93 94 95
f 95 94 92
f 92 94 96
f 92 96 91
f 97 98 99
f 100 98 97
f 101 97 99
f 99 102 103
f 104 103 102
f 101 99 103
f 105 106 107
f 97 106 100
f 100 106 105
f 104 105 108
f 107 108 105
f 103 104 108
