v -13.392857275903225 -0.942857121117413 11.830335262392792
v 13.392857275903225 -0.942857121117413 11.830335262392792
v -13.392857275903225 0.942857121117413 11.830335262392792
v 13.392857275903225 0.942857121117413 11.830335262392792
v -13.392857275903225 -0.942857121117413 -11.830335262392792
v 13.392857275903225 -0.942857121117413 -11.830335262392792
v -13.392857275903225 0.942857121117413 -11.830335262392792
v 13.392857275903225 0.942857121117413 -11.830335262392792
f 1 2 4 3
f 5 7 8 6
f 7 3 4 8
f 5 6 2 1
f 5 1 3 7
f 6 8 4 2
