mtllib tn__Gaveta1_aE_Corpo1_Mesh.mtl
v 4.5 -3.0 2.5
v 4.347759246826172 -3.0 1.7346330881118774
v 4.347759246826172 0.0 1.7346330881118774
v 3.9142136573791504 -3.0 1.0857864618301392
v 3.265366792678833 -3.0 0.6522409319877625
v 3.265366792678833 0.0 0.6522409319877625
v 3.9142136573791504 0.0 1.0857864618301392
v 2.5 -3.0 0.5
v 1.7346330881118774 -3.0 0.6522409319877625
v 1.7346330881118774 0.0 0.6522409319877625
v 1.0857864618301392 -3.0 1.0857864618301392
v 0.6522409319877625 -3.0 1.7346330881118774
v 0.6522409319877625 0.0 1.7346330881118774
v 1.0857864618301392 0.0 1.0857864618301392
v 2.5 0.0 0.5
v 4.5 0.0 2.5
v 0.5 -3.0 2.5
v 0.5 0.0 2.5
v 4.347759246826172 0.0 3.265366792678833
v 0.6522409319877625 -3.0 3.265366792678833
v 0.6522409319877625 0.0 3.265366792678833
v 1.0857864618301392 -3.0 3.9142136573791504
v 1.7346330881118774 -3.0 4.347759246826172
v 1.7346330881118774 0.0 4.347759246826172
v 1.0857864618301392 0.0 3.9142136573791504
v 2.5 -3.0 4.5
v 3.265366792678833 -3.0 4.347759246826172
v 3.265366792678833 0.0 4.347759246826172
v 3.9142136573791504 -3.0 3.9142136573791504
v 4.347759246826172 -3.0 3.265366792678833
v 3.9142136573791504 0.0 3.9142136573791504
v 2.5 0.0 4.5
v 0.0 70.0 2.5
v 0.19030116498470306 70.0 1.543291449546814
v 0.0 0.0 2.5
v 0.19030116498470306 0.0 1.543291449546814
v 0.7322330474853516 70.0 0.7322330474853516
v 0.7322330474853516 0.0 0.7322330474853516
v 1.543291449546814 70.0 0.19030116498470306
v 2.5 70.0 0.0
v 2.5 0.0 0.0
v 1.543291449546814 0.0 0.19030116498470306
v 0.5 73.0 2.5
v 0.6522409319877625 73.0 1.7346330881118774
v 0.6522409319877625 70.0 1.7346330881118774
v 1.0857864618301392 73.0 1.0857864618301392
v 1.7346330881118774 73.0 0.6522409319877625
v 1.7346330881118774 70.0 0.6522409319877625
v 1.0857864618301392 70.0 1.0857864618301392
v 2.5 73.0 0.5
v 3.265366792678833 73.0 0.6522409319877625
v 3.265366792678833 70.0 0.6522409319877625
v 3.9142136573791504 73.0 1.0857864618301392
v 4.347759246826172 73.0 1.7346330881118774
v 4.347759246826172 70.0 1.7346330881118774
v 3.9142136573791504 70.0 1.0857864618301392
v 2.5 70.0 0.5
v 0.5 70.0 2.5
v 4.5 73.0 2.5
v 4.5 70.0 2.5
v 0.6522409319877625 70.0 3.265366792678833
v 4.347759246826172 73.0 3.265366792678833
v 4.347759246826172 70.0 3.265366792678833
v 3.9142136573791504 73.0 3.9142136573791504
v 3.265366792678833 73.0 4.347759246826172
v 3.265366792678833 70.0 4.347759246826172
v 3.9142136573791504 70.0 3.9142136573791504
v 2.5 73.0 4.5
v 1.7346330881118774 73.0 4.347759246826172
v 1.7346330881118774 70.0 4.347759246826172
v 1.0857864618301392 73.0 3.9142136573791504
v 0.6522409319877625 73.0 3.265366792678833
v 1.0857864618301392 70.0 3.9142136573791504
v 2.5 70.0 4.5
v 33.0 0.0 43.54999923706055
v 35.0 0.0 43.54999923706055
v 35.0 70.0 43.54999923706055
v 33.0 70.0 43.54999923706055
v 0.6522409319877625 0.0 1.7346330881118774
v 0.19030116498470306 0.0 1.543291449546814
v 0.7322330474853516 0.0 0.7322330474853516
v 1.0857864618301392 0.0 1.0857864618301392
v 1.543291449546814 0.0 0.19030116498470306
v 1.7346330881118774 0.0 0.6522409319877625
v 2.5 0.0 0.0
v 2.5 0.0 0.5
v 0.0 0.0 38.54999923706055
v 0.0 0.0 2.5
v 1.0857864618301392 0.0 3.9142136573791504
v 0.5 0.0 2.5
v 0.6522409319877625 0.0 3.265366792678833
v 1.7346330881118774 0.0 4.347759246826172
v 2.5 0.0 4.5
v 3.9142136573791504 0.0 1.0857864618301392
v 3.265366792678833 0.0 0.6522409319877625
v 35.0 0.0 0.0
v 4.347759246826172 0.0 1.7346330881118774
v 4.5 0.0 2.5
v 4.347759246826172 0.0 3.265366792678833
v 3.9142136573791504 0.0 3.9142136573791504
v 33.0 0.0 38.54999923706055
v 3.265366792678833 0.0 4.347759246826172
v 35.0 0.0 43.54999923706055
v 33.0 0.0 43.54999923706055
v 2.1903011798858643 68.0 3.5432913303375244
v 2.1903011798858643 2.0 3.5432913303375244
v 2.7322330474853516 2.0 2.7322330474853516
v 2.7322330474853516 68.0 2.7322330474853516
v 2.0 68.0 4.5
v 2.0 2.0 4.5
v 3.5432913303375244 2.0 2.1903011798858643
v 3.5432913303375244 68.0 2.1903011798858643
v 4.5 2.0 2.0
v 4.5 68.0 2.0
v 2.1903011798858643 68.0 3.5432913303375244
v 2.7322330474853516 68.0 2.7322330474853516
v 2.0 68.0 4.5
v 4.5 68.0 2.0
v 2.0 68.0 38.54999923706055
v 3.5432913303375244 68.0 2.1903011798858643
v 33.0 68.0 2.0
v 33.0 68.0 38.54999923706055
v 4.5 2.0 2.0
v 33.0 2.0 2.0
v 33.0 68.0 2.0
v 4.5 68.0 2.0
v 35.0 70.0 0.0
v 35.0 0.0 0.0
v 2.5 0.0 0.0
v 2.5 70.0 0.0
v 0.6522409319877625 -3.0 1.7346330881118774
v 1.0857864618301392 -3.0 1.0857864618301392
v 1.7346330881118774 -3.0 0.6522409319877625
v 3.265366792678833 -3.0 0.6522409319877625
v 0.6522409319877625 -3.0 3.265366792678833
v 4.347759246826172 -3.0 3.265366792678833
v 0.5 -3.0 2.5
v 1.7346330881118774 -3.0 4.347759246826172
v 1.0857864618301392 -3.0 3.9142136573791504
v 2.5 -3.0 0.5
v 3.9142136573791504 -3.0 1.0857864618301392
v 4.347759246826172 -3.0 1.7346330881118774
v 4.5 -3.0 2.5
v 3.265366792678833 -3.0 4.347759246826172
v 2.5 -3.0 4.5
v 3.9142136573791504 -3.0 3.9142136573791504
v 4.5 73.0 2.5
v 4.347759246826172 73.0 1.7346330881118774
v 3.9142136573791504 73.0 1.0857864618301392
v 3.265366792678833 73.0 0.6522409319877625
v 2.5 73.0 0.5
v 4.347759246826172 73.0 3.265366792678833
v 3.265366792678833 73.0 4.347759246826172
v 3.9142136573791504 73.0 3.9142136573791504
v 1.7346330881118774 73.0 0.6522409319877625
v 0.5 73.0 2.5
v 1.0857864618301392 73.0 1.0857864618301392
v 0.6522409319877625 73.0 1.7346330881118774
v 0.6522409319877625 73.0 3.265366792678833
v 1.7346330881118774 73.0 4.347759246826172
v 2.5 73.0 4.5
v 1.0857864618301392 73.0 3.9142136573791504
v 35.0 70.0 0.0
v 3.9142136573791504 70.0 1.0857864618301392
v 4.347759246826172 70.0 1.7346330881118774
v 2.5 70.0 0.0
v 4.5 70.0 2.5
v 3.265366792678833 70.0 0.6522409319877625
v 2.5 70.0 0.5
v 1.7346330881118774 70.0 0.6522409319877625
v 35.0 70.0 43.54999923706055
v 33.0 70.0 38.54999923706055
v 33.0 70.0 43.54999923706055
v 4.347759246826172 70.0 3.265366792678833
v 3.9142136573791504 70.0 3.9142136573791504
v 0.0 70.0 38.54999923706055
v 3.265366792678833 70.0 4.347759246826172
v 1.543291449546814 70.0 0.19030116498470306
v 1.0857864618301392 70.0 1.0857864618301392
v 0.7322330474853516 70.0 0.7322330474853516
v 0.19030116498470306 70.0 1.543291449546814
v 0.6522409319877625 70.0 1.7346330881118774
v 0.5 70.0 2.5
v 1.7346330881118774 70.0 4.347759246826172
v 1.0857864618301392 70.0 3.9142136573791504
v 2.5 70.0 4.5
v 0.0 70.0 2.5
v 0.6522409319877625 70.0 3.265366792678833
v 2.0 2.0 38.54999923706055
v 33.0 0.0 38.54999923706055
v 33.0 2.0 38.54999923706055
v 2.0 68.0 38.54999923706055
v 33.0 68.0 38.54999923706055
v 33.0 70.0 38.54999923706055
v 0.0 70.0 38.54999923706055
v 0.0 0.0 38.54999923706055
v 33.0 2.0 2.0
v 4.5 2.0 2.0
v 33.0 2.0 38.54999923706055
v 2.0 2.0 4.5
v 3.5432913303375244 2.0 2.1903011798858643
v 2.0 2.0 38.54999923706055
v 2.7322330474853516 2.0 2.7322330474853516
v 2.1903011798858643 2.0 3.5432913303375244
v 0.0 70.0 2.5
v 0.0 0.0 2.5
v 0.0 0.0 38.54999923706055
v 0.0 70.0 38.54999923706055
v 35.0 20.875 28.549999237060547
v 35.0 50.875 28.549999237060547
v 45.0 50.875 28.549999237060547
v 45.0 20.875 28.549999237060547
v 35.0 20.875 33.54999923706055
v 35.0 20.875 28.549999237060547
v 45.0 20.875 28.549999237060547
v 45.0 20.875 33.54999923706055
v 35.0 50.875 33.54999923706055
v 35.0 20.875 33.54999923706055
v 45.0 20.875 33.54999923706055
v 45.0 50.875 33.54999923706055
v 35.0 50.875 28.549999237060547
v 35.0 50.875 33.54999923706055
v 45.0 50.875 33.54999923706055
v 45.0 50.875 28.549999237060547
v 45.0 20.875 33.54999923706055
v 45.0 20.875 28.549999237060547
v 45.0 50.875 28.549999237060547
v 45.0 50.875 33.54999923706055
v 33.0 70.0 43.54999923706055
v 33.0 68.0 38.54999923706055
v 33.0 0.0 43.54999923706055
v 33.0 70.0 38.54999923706055
v 33.0 2.0 2.0
v 33.0 2.0 38.54999923706055
v 33.0 68.0 2.0
v 33.0 0.0 38.54999923706055
v 2.0 2.0 4.5
v 2.0 68.0 4.5
v 2.0 68.0 38.54999923706055
v 2.0 2.0 38.54999923706055
v 35.0 0.0 0.0
v 35.0 20.875 28.549999237060547
v 35.0 0.0 43.54999923706055
v 35.0 70.0 0.0
v 35.0 20.875 33.54999923706055
v 35.0 70.0 43.54999923706055
v 35.0 50.875 28.549999237060547
v 35.0 50.875 33.54999923706055
usemtl Diffuse
f 1 2 3
f 4 5 6
f 2 4 7
f 8 9 10
f 11 12 13
f 9 11 14
f 5 8 15
f 3 16 1
f 6 7 4
f 3 2 7
f 10 15 8
f 13 14 11
f 10 9 14
f 6 5 15
f 17 18 12
f 1 16 19
f 17 20 21
f 22 23 24
f 20 22 25
f 26 27 28
f 29 30 19
f 27 29 31
f 23 26 32
f 21 18 17
f 24 25 22
f 21 20 25
f 28 32 26
f 19 31 29
f 28 27 31
f 24 23 32
f 30 1 19
f 18 13 12
f 33 34 35
f 34 36 35
f 36 34 37
f 36 37 38
f 39 40 41
f 38 37 42
f 41 42 39
f 42 37 39
f 43 44 45
f 46 47 48
f 44 46 49
f 50 51 52
f 53 54 55
f 51 53 56
f 47 50 57
f 45 58 43
f 48 49 46
f 45 44 49
f 52 57 50
f 55 56 53
f 52 51 56
f 48 47 57
f 59 60 54
f 43 58 61
f 59 62 63
f 64 65 66
f 62 64 67
f 68 69 70
f 71 72 61
f 69 71 73
f 65 68 74
f 63 60 59
f 66 67 64
f 63 62 67
f 70 74 68
f 61 73 71
f 70 69 73
f 66 65 74
f 72 43 61
f 60 55 54
f 75 76 77
f 77 78 75
f 79 80 81
f 82 81 83
f 82 79 81
f 84 85 86
f 85 84 83
f 83 84 82
f 87 88 89
f 88 80 90
f 91 88 90
f 89 92 87
f 91 89 88
f 80 79 90
f 93 87 92
f 85 94 95
f 94 85 96
f 97 96 98
f 96 97 94
f 98 96 99
f 100 101 87
f 100 87 102
f 101 99 96
f 103 104 101
f 101 96 103
f 101 100 99
f 87 93 102
f 95 86 85
f 105 106 107
f 108 105 107
f 106 105 109
f 110 106 109
f 111 108 107
f 112 111 113
f 113 114 112
f 112 108 111
f 115 116 117
f 118 119 117
f 117 116 120
f 118 121 122
f 118 117 120
f 119 118 122
f 123 124 125
f 125 126 123
f 127 128 129
f 129 130 127
f 131 132 133
f 131 133 134
f 135 131 136
f 137 131 135
f 138 139 135
f 135 136 138
f 140 134 133
f 134 141 142
f 142 143 134
f 134 143 136
f 144 145 146
f 146 145 138
f 136 146 138
f 136 131 134
f 147 148 149
f 149 150 147
f 151 147 150
f 152 147 153
f 153 154 152
f 147 151 153
f 151 155 153
f 156 153 157
f 158 156 157
f 153 156 159
f 160 161 162
f 161 153 162
f 159 162 153
f 153 155 157
f 163 164 165
f 164 163 166
f 163 165 167
f 168 166 169
f 166 168 164
f 169 166 170
f 171 172 173
f 172 171 163
f 174 172 163
f 172 175 176
f 174 175 172
f 163 167 174
f 177 176 175
f 170 178 179
f 178 170 166
f 179 178 180
f 180 181 182
f 182 181 183
f 180 182 179
f 184 185 176
f 186 184 176
f 183 187 188
f 187 183 181
f 187 185 188
f 185 187 176
f 186 176 177
f 189 190 191
f 192 193 194
f 195 196 189
f 190 189 196
f 194 195 192
f 189 192 195
f 197 198 199
f 200 198 201
f 198 202 199
f 203 204 200
f 202 198 200
f 200 201 203
f 205 206 207
f 207 208 205
f 209 210 211
f 211 212 209
f 213 214 215
f 215 216 213
f 217 218 219
f 219 220 217
f 221 222 223
f 223 224 221
f 225 226 227
f 227 228 225
f 229 230 231
f 230 229 232
f 233 234 235
f 234 230 235
f 236 231 234
f 234 231 230
f 237 238 239
f 239 240 237
f 241 242 243
f 242 241 244
f 243 245 246
f 245 243 242
f 247 244 246
f 244 247 242
f 248 246 245
f 246 248 247
