mtllib tn__Base1_gA_Corpo1_Mesh.mtl
v 10.024999618530273 -38.14841842651367 33.0
v 10.024999618530273 -38.14841842651367 38.0
v 10.024999618530273 -36.14841842651367 38.0
v 10.024999618530273 -36.14841842651367 33.0
v 10.024999618530273 36.14841842651367 33.0
v 10.024999618530273 36.14841842651367 38.0
v 10.024999618530273 38.14841842651367 38.0
v 10.024999618530273 38.14841842651367 33.0
v 5.025000095367432 -36.14841842651367 38.0
v 5.025000095367432 -38.14841842651367 38.0
v 5.025000095367432 -38.14841842651367 28.0
v 5.025000095367432 -36.14841842651367 28.0
v 5.025000095367432 38.14841842651367 38.0
v 5.025000095367432 36.14841842651367 38.0
v 5.025000095367432 36.14841842651367 28.0
v 5.025000095367432 38.14841842651367 28.0
v 5.025000095367432 -36.14841842651367 28.0
v 17.024999618530273 -36.14841842651367 25.5
v 17.024999618530273 -36.14841842651367 5.5
v 16.834699630737305 -36.14841842651367 26.456708908081055
v 14.524999618530273 -36.14841842651367 28.0
v -22.024999618530273 -36.14841842651367 3.0
v 18.56829071044922 -36.14841842651367 3.1903011798858643
v 19.524999618530273 -36.14841842651367 3.0
v 17.215301513671875 -36.14841842651367 4.5432915687561035
v 17.757232666015625 -36.14841842651367 3.7322330474853516
v -22.024999618530273 -36.14841842651367 38.0
v 5.025000095367432 -36.14841842651367 38.0
v 16.292766571044922 -36.14841842651367 27.26776695251465
v 15.481708526611328 -36.14841842651367 27.8096981048584
v 5.025000095367432 36.14841842651367 28.0
v 5.025000095367432 36.14841842651367 38.0
v -22.024999618530273 36.14841842651367 38.0
v -22.024999618530273 36.14841842651367 3.0
v 17.024999618530273 36.14841842651367 5.5
v 17.024999618530273 36.14841842651367 25.5
v 14.524999618530273 36.14841842651367 28.0
v 16.292766571044922 36.14841842651367 27.26776695251465
v 15.481708526611328 36.14841842651367 27.8096981048584
v 16.834699630737305 36.14841842651367 26.456708908081055
v 17.757232666015625 36.14841842651367 3.7322330474853516
v 17.215301513671875 36.14841842651367 4.5432915687561035
v 19.524999618530273 36.14841842651367 3.0
v 18.56829071044922 36.14841842651367 3.1903011798858643
v -22.024999618530273 -38.14841842651367 38.0
v -22.024999618530273 -36.14841842651367 38.0
v -25.024999618530273 -32.952266693115234 38.0
v 5.025000095367432 -38.14841842651367 38.0
v 5.025000095367432 -36.14841842651367 38.0
v -22.024999618530273 36.14841842651367 38.0
v -25.024999618530273 32.952266693115234 38.0
v -22.024999618530273 38.14841842651367 38.0
v 5.025000095367432 38.14841842651367 38.0
v 5.025000095367432 36.14841842651367 38.0
v 16.292766571044922 36.14841842651367 27.26776695251465
v 16.834699630737305 36.14841842651367 26.456708908081055
v 16.834699630737305 38.14841842651367 26.456708908081055
v 16.292766571044922 38.14841842651367 27.26776695251465
v 17.024999618530273 36.14841842651367 25.5
v 17.024999618530273 38.14841842651367 25.5
v 15.481708526611328 38.14841842651367 27.8096981048584
v 14.524999618530273 36.14841842651367 28.0
v 15.481708526611328 36.14841842651367 27.8096981048584
v 14.524999618530273 38.14841842651367 28.0
v 17.024999618530273 38.14841842651367 25.5
v 17.024999618530273 36.14841842651367 25.5
v 17.024999618530273 36.14841842651367 5.5
v 17.024999618530273 38.14841842651367 5.5
v 21.834699630737305 38.14841842651367 31.456708908081055
v 21.834699630737305 36.14841842651367 31.456708908081055
v 21.292766571044922 36.14841842651367 32.26776885986328
v 21.292766571044922 38.14841842651367 32.26776885986328
v 22.024999618530273 38.14841842651367 30.5
v 22.024999618530273 36.14841842651367 30.5
v 20.481708526611328 38.14841842651367 32.80970001220703
v 20.481708526611328 36.14841842651367 32.80970001220703
v 19.524999618530273 36.14841842651367 33.0
v 19.524999618530273 38.14841842651367 33.0
v 19.524999618530273 38.14841842651367 33.0
v 19.524999618530273 36.14841842651367 33.0
v 10.024999618530273 36.14841842651367 33.0
v 10.024999618530273 38.14841842651367 33.0
v 21.834699630737305 -36.14841842651367 31.456708908081055
v 21.834699630737305 -38.14841842651367 31.456708908081055
v 21.292766571044922 -38.14841842651367 32.26776885986328
v 21.292766571044922 -36.14841842651367 32.26776885986328
v 22.024999618530273 -36.14841842651367 30.5
v 22.024999618530273 -38.14841842651367 30.5
v 20.481708526611328 -38.14841842651367 32.80970001220703
v 20.481708526611328 -36.14841842651367 32.80970001220703
v 19.524999618530273 -38.14841842651367 33.0
v 19.524999618530273 -36.14841842651367 33.0
v 22.024999618530273 -36.14841842651367 30.5
v 22.024999618530273 36.14841842651367 30.5
v 22.024999618530273 38.14841842651367 5.5
v 22.024999618530273 38.14841842651367 30.5
v 22.024999618530273 36.14841842651367 38.0
v 22.024999618530273 -36.14841842651367 38.0
v 22.024999618530273 -38.14841842651367 5.5
v 22.024999618530273 -38.14841842651367 30.5
v -22.024999618530273 36.14841842651367 3.0
v -22.024999618530273 -36.14841842651367 3.0
v 19.524999618530273 -36.14841842651367 3.0
v 19.524999618530273 36.14841842651367 3.0
v 16.292766571044922 -38.14841842651367 27.26776695251465
v 16.834699630737305 -38.14841842651367 26.456708908081055
v 16.834699630737305 -36.14841842651367 26.456708908081055
v 16.292766571044922 -36.14841842651367 27.26776695251465
v 17.024999618530273 -38.14841842651367 25.5
v 17.024999618530273 -36.14841842651367 25.5
v 15.481708526611328 -38.14841842651367 27.8096981048584
v 14.524999618530273 -38.14841842651367 28.0
v 15.481708526611328 -36.14841842651367 27.8096981048584
v 14.524999618530273 -36.14841842651367 28.0
v 17.024999618530273 -36.14841842651367 25.5
v 17.024999618530273 -38.14841842651367 5.5
v 17.024999618530273 -36.14841842651367 5.5
v 17.024999618530273 -38.14841842651367 25.5
v 17.757232666015625 -36.14841842651367 3.7322330474853516
v 17.215301513671875 -36.14841842651367 4.5432915687561035
v 17.757232666015625 -38.14841842651367 3.7322330474853516
v 17.215301513671875 -38.14841842651367 4.5432915687561035
v 18.56829071044922 -36.14841842651367 3.1903011798858643
v 17.024999618530273 -36.14841842651367 5.5
v 17.024999618530273 -38.14841842651367 5.5
v 17.757232666015625 38.14841842651367 3.7322330474853516
v 17.215301513671875 38.14841842651367 4.5432915687561035
v 17.757232666015625 36.14841842651367 3.7322330474853516
v 17.215301513671875 36.14841842651367 4.5432915687561035
v 18.56829071044922 36.14841842651367 3.1903011798858643
v 17.024999618530273 38.14841842651367 5.5
v 17.024999618530273 36.14841842651367 5.5
v 22.024999618530273 -38.14841842651367 5.5
v 21.834699630737305 38.14841842651367 4.5432915687561035
v 21.834699630737305 -38.14841842651367 4.5432915687561035
v 21.292766571044922 -38.14841842651367 3.7322330474853516
v 21.292766571044922 38.14841842651367 3.7322330474853516
v 20.481708526611328 -38.14841842651367 3.1903011798858643
v 20.481708526611328 38.14841842651367 3.1903011798858643
v 18.56829071044922 -38.14841842651367 3.1903011798858643
v 19.524999618530273 -38.14841842651367 3.0
v 19.524999618530273 -36.14841842651367 3.0
v 19.524999618530273 36.14841842651367 3.0
v 18.56829071044922 38.14841842651367 3.1903011798858643
v 19.524999618530273 38.14841842651367 3.0
v 22.024999618530273 38.14841842651367 5.5
v 14.524999618530273 -38.14841842651367 28.0
v 16.834699630737305 -38.14841842651367 26.456708908081055
v 16.292766571044922 -38.14841842651367 27.26776695251465
v 5.025000095367432 -38.14841842651367 28.0
v 17.024999618530273 -38.14841842651367 25.5
v 17.024999618530273 -38.14841842651367 5.5
v -22.024999618530273 -38.14841842651367 0.0
v 17.215301513671875 -38.14841842651367 4.5432915687561035
v -22.024999618530273 -38.14841842651367 38.0
v 5.025000095367432 -38.14841842651367 38.0
v 15.481708526611328 -38.14841842651367 27.8096981048584
v 18.56829071044922 -38.14841842651367 3.1903011798858643
v 17.757232666015625 -38.14841842651367 3.7322330474853516
v 22.024999618530273 -38.14841842651367 0.0
v 19.524999618530273 -38.14841842651367 3.0
v 20.481708526611328 -38.14841842651367 3.1903011798858643
v 21.292766571044922 -38.14841842651367 3.7322330474853516
v 21.834699630737305 -38.14841842651367 4.5432915687561035
v 22.024999618530273 -38.14841842651367 5.5
v 5.025000095367432 -36.14841842651367 28.0
v 5.025000095367432 -38.14841842651367 28.0
v 14.524999618530273 -38.14841842651367 28.0
v 14.524999618530273 -36.14841842651367 28.0
v 19.524999618530273 -36.14841842651367 33.0
v 19.524999618530273 -38.14841842651367 33.0
v 10.024999618530273 -38.14841842651367 33.0
v 10.024999618530273 -36.14841842651367 33.0
v 5.025000095367432 38.14841842651367 28.0
v 5.025000095367432 36.14841842651367 28.0
v 14.524999618530273 36.14841842651367 28.0
v 14.524999618530273 38.14841842651367 28.0
v 22.024999618530273 38.14841842651367 30.5
v 21.834699630737305 38.14841842651367 31.456708908081055
v 22.024999618530273 38.14841842651367 38.0
v 21.292766571044922 38.14841842651367 32.26776885986328
v 20.481708526611328 38.14841842651367 32.80970001220703
v 19.524999618530273 38.14841842651367 33.0
v 10.024999618530273 38.14841842651367 38.0
v 10.024999618530273 38.14841842651367 33.0
v 19.524999618530273 36.14841842651367 33.0
v 10.024999618530273 36.14841842651367 38.0
v 10.024999618530273 36.14841842651367 33.0
v 20.481708526611328 36.14841842651367 32.80970001220703
v 22.024999618530273 36.14841842651367 38.0
v 21.834699630737305 36.14841842651367 31.456708908081055
v 21.292766571044922 36.14841842651367 32.26776885986328
v 22.024999618530273 36.14841842651367 30.5
v 22.024999618530273 -38.14841842651367 38.0
v 10.024999618530273 -38.14841842651367 38.0
v 19.524999618530273 -38.14841842651367 33.0
v 10.024999618530273 -38.14841842651367 33.0
v 20.481708526611328 -38.14841842651367 32.80970001220703
v 21.834699630737305 -38.14841842651367 31.456708908081055
v 22.024999618530273 -38.14841842651367 30.5
v 21.292766571044922 -38.14841842651367 32.26776885986328
v 21.834699630737305 -36.14841842651367 31.456708908081055
v 21.292766571044922 -36.14841842651367 32.26776885986328
v 22.024999618530273 -36.14841842651367 38.0
v 20.481708526611328 -36.14841842651367 32.80970001220703
v 22.024999618530273 -36.14841842651367 30.5
v 10.024999618530273 -36.14841842651367 33.0
v 10.024999618530273 -36.14841842651367 38.0
v 19.524999618530273 -36.14841842651367 33.0
v 22.024999618530273 -38.14841842651367 38.0
v 22.024999618530273 -36.14841842651367 38.0
v 10.024999618530273 -38.14841842651367 38.0
v 22.024999618530273 38.14841842651367 38.0
v 10.024999618530273 36.14841842651367 38.0
v 22.024999618530273 36.14841842651367 38.0
v 10.024999618530273 -36.14841842651367 38.0
v 25.024999618530273 -32.952266693115234 38.0
v 25.024999618530273 32.952266693115234 38.0
v 10.024999618530273 38.14841842651367 38.0
v -25.024999618530273 32.952266693115234 15.0
v -25.024999618530273 -32.952266693115234 15.0
v -25.024999618530273 -32.952266693115234 38.0
v -25.024999618530273 32.952266693115234 38.0
v 25.024999618530273 -32.952266693115234 15.0
v 25.024999618530273 32.952266693115234 15.0
v 25.024999618530273 32.952266693115234 38.0
v 25.024999618530273 -32.952266693115234 38.0
v -44.04999923706055 4.440892098500626e-15 15.0
v -25.024999618530273 -32.952266693115234 15.0
v -25.024999618530273 32.952266693115234 15.0
v 25.024999618530273 -32.952266693115234 15.0
v 44.04999923706055 0.0 15.0
v 25.024999618530273 32.952266693115234 15.0
v -22.024999618530273 36.14841842651367 3.0
v -22.024999618530273 36.14841842651367 38.0
v -22.024999618530273 -36.14841842651367 38.0
v -22.024999618530273 -36.14841842651367 3.0
v -44.04999923706055 4.440892098500626e-15 15.0
v -44.04999923706055 4.2804301769727715e-15 0.0
v -25.024999618530273 -32.952266693115234 15.0
v -22.024999618530273 -38.14841842651367 0.0
v -22.024999618530273 -38.14841842651367 38.0
v -25.024999618530273 -32.952266693115234 38.0
v -22.024999618530273 38.14841842651367 0.0
v -25.024999618530273 32.952266693115234 15.0
v -22.024999618530273 38.14841842651367 38.0
v -44.04999923706055 4.2804301769727715e-15 0.0
v -25.024999618530273 32.952266693115234 38.0
v -44.04999923706055 4.440892098500626e-15 15.0
v 22.024999618530273 38.14841842651367 0.0
v 20.481708526611328 38.14841842651367 3.1903011798858643
v 21.292766571044922 38.14841842651367 3.7322330474853516
v 19.524999618530273 38.14841842651367 3.0
v 18.56829071044922 38.14841842651367 3.1903011798858643
v 17.757232666015625 38.14841842651367 3.7322330474853516
v 21.834699630737305 38.14841842651367 4.5432915687561035
v 22.024999618530273 38.14841842651367 5.5
v 17.215301513671875 38.14841842651367 4.5432915687561035
v -22.024999618530273 38.14841842651367 0.0
v 5.025000095367432 38.14841842651367 28.0
v 17.024999618530273 38.14841842651367 25.5
v 17.024999618530273 38.14841842651367 5.5
v 16.834699630737305 38.14841842651367 26.456708908081055
v 14.524999618530273 38.14841842651367 28.0
v 16.292766571044922 38.14841842651367 27.26776695251465
v 15.481708526611328 38.14841842651367 27.8096981048584
v -22.024999618530273 38.14841842651367 38.0
v 5.025000095367432 38.14841842651367 38.0
v 44.04999923706055 0.0 15.0
v 44.04999923706055 0.0 0.0
v 25.024999618530273 32.952266693115234 15.0
v 25.024999618530273 32.952266693115234 38.0
v 22.024999618530273 38.14841842651367 30.5
v 22.024999618530273 38.14841842651367 0.0
v 22.024999618530273 38.14841842651367 5.5
v 22.024999618530273 38.14841842651367 38.0
v 22.024999618530273 -38.14841842651367 5.5
v 22.024999618530273 -38.14841842651367 0.0
v 25.024999618530273 -32.952266693115234 15.0
v 22.024999618530273 -38.14841842651367 38.0
v 22.024999618530273 -38.14841842651367 30.5
v 25.024999618530273 -32.952266693115234 38.0
v 44.04999923706055 0.0 0.0
v 44.04999923706055 0.0 15.0
v 22.024999618530273 38.14841842651367 0.0
v -44.04999923706055 4.2804301769727715e-15 0.0
v -22.024999618530273 38.14841842651367 0.0
v -22.024999618530273 -38.14841842651367 0.0
v 22.024999618530273 -38.14841842651367 0.0
v 44.04999923706055 0.0 0.0
usemtl Diffuse_1
f 1 2 3
f 3 4 1
f 5 6 7
f 7 8 5
f 9 10 11
f 11 12 9
f 13 14 15
f 15 16 13
f 17 18 19
f 20 18 21
f 22 23 24
f 22 25 26
f 22 26 23
f 25 22 19
f 27 28 17
f 29 21 30
f 17 19 22
f 27 17 22
f 21 18 17
f 21 29 20
f 31 32 33
f 34 31 33
f 35 31 34
f 31 36 37
f 37 38 39
f 37 40 38
f 31 35 36
f 40 37 36
f 34 41 42
f 34 43 44
f 34 44 41
f 34 42 35
f 45 46 47
f 45 48 49
f 47 50 51
f 50 47 46
f 51 50 52
f 50 53 52
f 50 54 53
f 46 45 49
f 55 56 57
f 55 57 58
f 56 59 60
f 56 60 57
f 55 58 61
f 62 63 61
f 61 64 62
f 63 55 61
f 65 66 67
f 67 68 65
f 69 70 71
f 72 69 71
f 73 74 70
f 69 73 70
f 75 72 71
f 75 76 77
f 77 78 75
f 75 71 76
f 79 80 81
f 81 82 79
f 83 84 85
f 86 83 85
f 87 88 84
f 83 87 84
f 89 86 85
f 90 89 91
f 91 92 90
f 90 86 89
f 93 94 95
f 96 95 94
f 97 93 98
f 97 94 93
f 93 99 100
f 95 99 93
f 101 102 103
f 103 104 101
f 105 106 107
f 105 107 108
f 106 109 110
f 106 110 107
f 105 108 111
f 112 111 113
f 113 114 112
f 111 108 113
f 115 116 117
f 116 115 118
f 119 120 121
f 122 121 120
f 123 119 121
f 124 125 122
f 120 124 122
f 126 127 128
f 129 128 127
f 130 126 128
f 131 132 129
f 127 131 129
f 133 134 135
f 136 135 137
f 138 136 139
f 123 140 141
f 141 142 123
f 123 121 140
f 138 142 141
f 138 143 142
f 137 135 134
f 139 136 137
f 144 130 143
f 143 145 144
f 144 126 130
f 139 145 143
f 138 139 143
f 133 146 134
f 147 148 149
f 147 150 151
f 151 150 152
f 153 152 150
f 153 154 152
f 155 150 156
f 150 155 153
f 148 147 151
f 149 157 147
f 158 159 160
f 161 160 162
f 160 161 158
f 162 160 163
f 159 153 160
f 164 163 160
f 165 164 160
f 159 154 153
f 166 167 168
f 168 169 166
f 170 171 172
f 172 173 170
f 174 175 176
f 176 177 174
f 178 179 180
f 180 181 182
f 181 180 179
f 183 184 180
f 185 184 183
f 183 180 182
f 186 187 188
f 186 189 190
f 190 187 186
f 191 190 192
f 189 192 190
f 190 191 193
f 194 195 196
f 196 195 197
f 196 198 194
f 199 200 194
f 201 194 198
f 194 201 199
f 202 203 204
f 205 204 203
f 204 206 202
f 207 208 209
f 204 205 209
f 208 204 209
f 210 211 212
f 213 214 215
f 216 212 211
f 211 217 215
f 217 211 210
f 215 218 213
f 218 215 217
f 213 219 214
f 220 221 222
f 222 223 220
f 224 225 226
f 226 227 224
f 228 229 230
f 231 232 233
f 234 235 236
f 236 237 234
f 238 239 240
f 240 239 241
f 240 242 243
f 242 240 241
f 244 245 246
f 245 244 247
f 246 245 248
f 249 245 247
f 250 251 252
f 251 250 253
f 254 253 250
f 250 255 254
f 256 257 250
f 258 255 259
f 256 250 252
f 250 259 255
f 260 261 262
f 263 264 265
f 261 264 263
f 259 260 262
f 262 258 259
f 266 265 264
f 260 267 268
f 267 260 259
f 261 260 264
f 269 270 271
f 272 271 273
f 270 274 271
f 274 275 271
f 273 276 272
f 275 273 271
f 277 278 279
f 280 281 282
f 277 279 281
f 279 283 284
f 283 279 278
f 279 282 281
f 285 286 287
f 288 286 289
f 286 285 290
f 289 286 290
