mtllib Corpo2_Mesh.mtl
v 18.73243522644043 -0.6833217740058899 0.75
v 18.785005569458008 -0.5111886858940125 1.75
v 18.785005569458008 -0.5111886858940125 0.75
v 18.73243522644043 -0.6833217740058899 1.75
v 18.65311622619629 -0.8456696271896362 0.75
v 18.65311622619629 -0.8456696271896362 1.75
v 18.446453094482422 -1.1527966260910034 0.75
v 18.446453094482422 -1.1527966260910034 1.75
v 18.622865676879883 0.8108003735542297 0.75
v 18.622865676879883 0.8108003735542297 1.75
v 18.38335609436035 1.1476808786392212 1.75
v 18.38335609436035 1.1476808786392212 0.75
v 18.714893341064453 0.6317257285118103 0.75
v 18.714893341064453 0.6317257285118103 1.75
v 18.7759952545166 0.4407895505428314 0.75
v 18.7759952545166 0.4407895505428314 1.75
v 17.585857391357422 1.5875651836395264 0.75
v 17.585857391357422 1.5875651836395264 1.75
v 17.273193359375 1.625170350074768 1.75
v 17.273193359375 1.625170350074768 0.75
v 17.879335403442383 1.5052906274795532 0.75
v 17.879335403442383 1.5052906274795532 1.75
v 18.140899658203125 1.34872567653656 0.75
v 18.140899658203125 1.34872567653656 1.75
v 18.38335609436035 1.1476808786392212 0.75
v 18.38335609436035 1.1476808786392212 1.75
v 16.653512954711914 1.487972617149353 0.75
v 16.653512954711914 1.487972617149353 1.75
v 16.466575622558594 1.3796043395996094 1.75
v 16.466575622558594 1.3796043395996094 0.75
v 16.848773956298828 1.5697717666625977 0.75
v 17.273193359375 1.625170350074768 0.75
v 17.273193359375 1.625170350074768 1.75
v 16.848773956298828 1.5697717666625977 1.75
v 16.192502975463867 1.0736825466156006 0.75
v 16.192502975463867 1.0736825466156006 1.75
v 16.04195213317871 0.6906548142433167 1.75
v 16.04195213317871 0.6906548142433167 0.75
v 16.317575454711914 1.2341117858886719 0.75
v 16.466575622558594 1.3796043395996094 0.75
v 16.466575622558594 1.3796043395996094 1.75
v 16.317575454711914 1.2341117858886719 1.75
v 15.61903190612793 1.205661654472351 0.75
v 15.867125511169434 0.9786301851272583 0.75
v 15.61903190612793 1.205661654472351 1.75
v 15.867125511169434 0.9786301851272583 1.75
v 16.04195213317871 0.6906548142433167 0.75
v 16.04195213317871 0.6906548142433167 1.75
v 15.028990745544434 1.3796043395996094 0.75
v 15.336997985839844 1.3365638256072998 0.75
v 15.028990745544434 1.3796043395996094 1.75
v 15.336997985839844 1.3365638256072998 1.75
v 15.61903190612793 1.205661654472351 0.75
v 15.61903190612793 1.205661654472351 1.75
v 14.384379386901855 1.1971352100372314 0.75
v 14.694095611572266 1.333080768585205 0.75
v 14.384379386901855 1.1971352100372314 1.75
v 14.694095611572266 1.333080768585205 1.75
v 15.028990745544434 1.3796043395996094 0.75
v 15.028990745544434 1.3796043395996094 1.75
v 13.905184745788574 0.6701910495758057 0.75
v 14.107224464416504 0.968046247959137 1.75
v 13.905184745788574 0.6701910495758057 1.75
v 14.107224464416504 0.968046247959137 0.75
v 14.384379386901855 1.1971352100372314 0.75
v 14.384379386901855 1.1971352100372314 1.75
v 13.729536056518555 -0.08356064558029175 0.75
v 13.772143363952637 0.30393707752227783 0.75
v 13.729536056518555 -0.08356064558029175 1.75
v 13.772143363952637 0.30393707752227783 1.75
v 13.905184745788574 0.6701910495758057 0.75
v 13.905184745788574 0.6701910495758057 1.75
v 13.921091079711914 -0.8499042391777039 0.75
v 13.921091079711914 -0.8499042391777039 1.75
v 14.06889533996582 -1.0760573148727417 1.75
v 14.06889533996582 -1.0760573148727417 0.75
v 13.808518409729004 -0.6114571690559387 0.75
v 13.808518409729004 -0.6114571690559387 1.75
v 13.752574920654297 -0.3532499372959137 0.75
v 13.752574920654297 -0.3532499372959137 1.75
v 13.729536056518555 -0.08356064558029175 0.75
v 13.729536056518555 -0.08356064558029175 1.75
v 14.755156517028809 -1.5169916152954102 0.75
v 14.755156517028809 -1.5169916152954102 1.75
v 15.025580406188965 -1.587653398513794 1.75
v 15.025580406188965 -1.587653398513794 0.75
v 14.501204490661621 -1.4161616563796997 0.75
v 14.501204490661621 -1.4161616563796997 1.75
v 14.275964736938477 -1.26274836063385 0.75
v 14.275964736938477 -1.26274836063385 1.75
v 14.06889533996582 -1.0760573148727417 0.75
v 14.06889533996582 -1.0760573148727417 1.75
v 15.025580406188965 -1.587653398513794 0.75
v 15.025580406188965 -1.587653398513794 1.75
v 15.134720802307129 -0.9737380146980286 1.75
v 15.134720802307129 -0.9737380146980286 0.75
v 14.459413528442383 -0.6667803525924683 0.75
v 14.770418167114258 -0.8766469359397888 0.75
v 14.459413528442383 -0.6667803525924683 1.75
v 14.770418167114258 -0.8766469359397888 1.75
v 15.134720802307129 -0.9737380146980286 0.75
v 15.134720802307129 -0.9737380146980286 1.75
v 14.234312057495117 -0.06991803646087646 0.75
v 14.28783130645752 -0.3909383714199066 0.75
v 14.234312057495117 -0.06991803646087646 1.75
v 14.28783130645752 -0.3909383714199066 1.75
v 14.459413528442383 -0.6667803525924683 0.75
v 14.459413528442383 -0.6667803525924683 1.75
v 14.456003189086914 0.5201229453086853 0.75
v 14.28576374053955 0.24790506064891815 0.75
v 14.456003189086914 0.5201229453086853 1.75
v 14.28576374053955 0.24790506064891815 1.75
v 14.234312057495117 -0.06991803646087646 0.75
v 14.234312057495117 -0.06991803646087646 1.75
v 15.015348434448242 0.7486358284950256 0.75
v 14.711318016052246 0.6934099793434143 0.75
v 15.015348434448242 0.7486358284950256 1.75
v 14.711318016052246 0.6934099793434143 1.75
v 14.456003189086914 0.5201229453086853 0.75
v 14.456003189086914 0.5201229453086853 1.75
v 15.518600463867188 0.5721231698989868 0.75
v 15.518600463867188 0.5721231698989868 1.75
v 15.646317481994629 0.4348568618297577 1.75
v 15.646317481994629 0.4348568618297577 0.75
v 15.374022483825684 0.676357626914978 0.75
v 15.374022483825684 0.676357626914978 1.75
v 15.202486038208008 0.7277787327766418 0.75
v 15.202486038208008 0.7277787327766418 1.75
v 15.015348434448242 0.7486358284950256 0.75
v 15.015348434448242 0.7486358284950256 1.75
v 15.85095500946045 -0.27114585041999817 0.75
v 15.801050186157227 0.09715133905410767 0.75
v 15.85095500946045 -0.27114585041999817 1.75
v 15.801050186157227 0.09715133905410767 1.75
v 15.646317481994629 0.4348568618297577 0.75
v 15.646317481994629 0.4348568618297577 1.75
v 15.844134330749512 -0.3700543940067291 0.75
v 15.85095500946045 -0.27114585041999817 1.75
v 15.844134330749512 -0.3700543940067291 1.75
v 15.85095500946045 -0.27114585041999817 0.75
v 15.844134330749512 -0.3700543940067291 0.75
v 15.844134330749512 -0.3700543940067291 1.75
v 16.383014678955078 -0.4382672905921936 1.75
v 16.383014678955078 -0.4382672905921936 0.75
v 16.314802169799805 -0.005115866661071777 0.75
v 16.3354434967041 -0.22371934354305267 0.75
v 16.314802169799805 -0.005115866661071777 1.75
v 16.3354434967041 -0.22371934354305267 1.75
v 16.383014678955078 -0.4382672905921936 0.75
v 16.383014678955078 -0.4382672905921936 1.75
v 16.470767974853516 0.5416494607925415 0.75
v 16.470767974853516 0.5416494607925415 1.75
v 16.589359283447266 0.6974762678146362 1.75
v 16.589359283447266 0.6974762678146362 0.75
v 16.379940032958984 0.3748059868812561 0.75
v 16.379940032958984 0.3748059868812561 1.75
v 16.33417510986328 0.1900814026594162 0.75
v 16.33417510986328 0.1900814026594162 1.75
v 16.314802169799805 -0.005115866661071777 0.75
v 16.314802169799805 -0.005115866661071777 1.75
v 17.092628479003906 0.9540625810623169 0.75
v 17.092628479003906 0.9540625810623169 1.75
v 17.286834716796875 0.9737381339073181 1.75
v 17.286834716796875 0.9737381339073181 0.75
v 16.90906524658203 0.9078876972198486 0.75
v 16.90906524658203 0.9078876972198486 1.75
v 16.74363899230957 0.8165586590766907 0.75
v 16.74363899230957 0.8165586590766907 1.75
v 16.589359283447266 0.6974762678146362 0.75
v 16.589359283447266 0.6974762678146362 1.75
v 17.865842819213867 0.8027400970458984 0.75
v 17.865842819213867 0.8027400970458984 1.75
v 18.03035545349121 0.6753069162368774 1.75
v 18.03035545349121 0.6753069162368774 0.75
v 17.689563751220703 0.9010819792747498 0.75
v 17.689563751220703 0.9010819792747498 1.75
v 17.49393081665039 0.9515814781188965 0.75
v 17.49393081665039 0.9515814781188965 1.75
v 17.286834716796875 0.9737381339073181 0.75
v 17.286834716796875 0.9737381339073181 1.75
v 18.3076229095459 0.14810387790203094 0.75
v 18.3076229095459 0.14810387790203094 1.75
v 18.33049201965332 -0.05627542734146118 1.75
v 18.33049201965332 -0.05627542734146118 0.75
v 18.256433486938477 0.34081971645355225 0.75
v 18.256433486938477 0.34081971645355225 1.75
v 18.157739639282227 0.5139713287353516 0.75
v 18.157739639282227 0.5139713287353516 1.75
v 18.03035545349121 0.6753069162368774 0.75
v 18.03035545349121 0.6753069162368774 1.75
v 18.10027313232422 -0.6753069162368774 0.75
v 18.274932861328125 -0.38816380500793457 0.75
v 18.10027313232422 -0.6753069162368774 1.75
v 18.274932861328125 -0.38816380500793457 1.75
v 18.33049201965332 -0.05627542734146118 0.75
v 18.33049201965332 -0.05627542734146118 1.75
v 17.753568649291992 -0.9137083888053894 0.75
v 17.753568649291992 -0.9137083888053894 1.75
v 17.34822654724121 -1.0351295471191406 1.75
v 17.34822654724121 -1.0351295471191406 0.75
v 17.933156967163086 -0.8069493174552917 0.75
v 18.10027313232422 -0.6753069162368774 0.75
v 18.10027313232422 -0.6753069162368774 1.75
v 17.933156967163086 -0.8069493174552917 1.75
v 17.34822654724121 -1.0351295471191406 0.75
v 17.34822654724121 -1.0351295471191406 1.75
v 17.430082321166992 -1.6490449905395508 1.75
v 17.430082321166992 -1.6490449905395508 0.75
v 18.225772857666016 -1.3446578979492188 0.75
v 18.225772857666016 -1.3446578979492188 1.75
v 18.446453094482422 -1.1527966260910034 1.75
v 18.446453094482422 -1.1527966260910034 0.75
v 17.986610412597656 -1.4990156888961792 0.75
v 17.986610412597656 -1.4990156888961792 1.75
v 17.717243194580078 -1.5920835733413696 0.75
v 17.717243194580078 -1.5920835733413696 1.75
v 17.430082321166992 -1.6490449905395508 0.75
v 17.430082321166992 -1.6490449905395508 1.75
v 17.689563751220703 0.9010819792747498 0.75
v 18.38335609436035 1.1476808786392212 0.75
v 18.140899658203125 1.34872567653656 0.75
v 17.879335403442383 1.5052906274795532 0.75
v 17.585857391357422 1.5875651836395264 0.75
v 17.49393081665039 0.9515814781188965 0.75
v 17.286834716796875 0.9737381339073181 0.75
v 18.157739639282227 0.5139713287353516 0.75
v 18.714893341064453 0.6317257285118103 0.75
v 18.622865676879883 0.8108003735542297 0.75
v 17.865842819213867 0.8027400970458984 0.75
v 18.03035545349121 0.6753069162368774 0.75
v 17.273193359375 1.625170350074768 0.75
v 16.848773956298828 1.5697717666625977 0.75
v 17.092628479003906 0.9540625810623169 0.75
v 16.653512954711914 1.487972617149353 0.75
v 16.466575622558594 1.3796043395996094 0.75
v 16.90906524658203 0.9078876972198486 0.75
v 16.192502975463867 1.0736825466156006 0.75
v 16.589359283447266 0.6974762678146362 0.75
v 16.74363899230957 0.8165586590766907 0.75
v 16.04195213317871 0.6906548142433167 0.75
v 16.470767974853516 0.5416494607925415 0.75
v 16.317575454711914 1.2341117858886719 0.75
v 18.750167846679688 -0.0354866087436676 0.75
v 18.7759952545166 0.4407895505428314 0.75
v 18.3076229095459 0.14810387790203094 0.75
v 18.33049201965332 -0.05627542734146118 0.75
v 18.256433486938477 0.34081971645355225 0.75
v 18.274932861328125 -0.38816380500793457 0.75
v 18.73243522644043 -0.6833217740058899 0.75
v 18.785005569458008 -0.5111886858940125 0.75
v 18.446453094482422 -1.1527966260910034 0.75
v 18.65311622619629 -0.8456696271896362 0.75
v 17.933156967163086 -0.8069493174552917 0.75
v 18.10027313232422 -0.6753069162368774 0.75
v 17.753568649291992 -0.9137083888053894 0.75
v 18.225772857666016 -1.3446578979492188 0.75
v 17.986610412597656 -1.4990156888961792 0.75
v 17.717243194580078 -1.5920835733413696 0.75
v 17.34822654724121 -1.0351295471191406 0.75
v 17.430082321166992 -1.6490449905395508 0.75
v 15.202486038208008 0.7277787327766418 0.75
v 15.374022483825684 0.676357626914978 0.75
v 15.867125511169434 0.9786301851272583 0.75
v 15.61903190612793 1.205661654472351 0.75
v 16.379940032958984 0.3748059868812561 0.75
v 15.646317481994629 0.4348568618297577 0.75
v 15.518600463867188 0.5721231698989868 0.75
v 16.33417510986328 0.1900814026594162 0.75
v 15.336997985839844 1.3365638256072998 0.75
v 15.015348434448242 0.7486358284950256 0.75
v 15.028990745544434 1.3796043395996094 0.75
v 14.694095611572266 1.333080768585205 0.75
v 14.384379386901855 1.1971352100372314 0.75
v 14.711318016052246 0.6934099793434143 0.75
v 14.107224464416504 0.968046247959137 0.75
v 14.28576374053955 0.24790506064891815 0.75
v 14.456003189086914 0.5201229453086853 0.75
v 13.905184745788574 0.6701910495758057 0.75
v 13.772143363952637 0.30393707752227783 0.75
v 16.314802169799805 -0.005115866661071777 0.75
v 15.801050186157227 0.09715133905410767 0.75
v 15.85095500946045 -0.27114585041999817 0.75
v 16.3354434967041 -0.22371934354305267 0.75
v 15.844134330749512 -0.3700543940067291 0.75
v 15.134720802307129 -0.9737380146980286 0.75
v 14.755156517028809 -1.5169916152954102 0.75
v 15.025580406188965 -1.587653398513794 0.75
v 14.501204490661621 -1.4161616563796997 0.75
v 14.770418167114258 -0.8766469359397888 0.75
v 16.383014678955078 -0.4382672905921936 0.75
v 14.234312057495117 -0.06991803646087646 0.75
v 13.729536056518555 -0.08356064558029175 0.75
v 13.752574920654297 -0.3532499372959137 0.75
v 14.28783130645752 -0.3909383714199066 0.75
v 13.808518409729004 -0.6114571690559387 0.75
v 14.275964736938477 -1.26274836063385 0.75
v 14.459413528442383 -0.6667803525924683 0.75
v 14.06889533996582 -1.0760573148727417 0.75
v 13.921091079711914 -0.8499042391777039 0.75
v 14.501204490661621 -1.4161616563796997 1.75
v 12.931459426879883 -2.9056906700134277 1.75
v 13.171409606933594 -3.6024162769317627 1.75
v 14.06889533996582 -1.0760573148727417 1.75
v 12.608452796936035 -1.468774676322937 1.75
v 12.743467330932617 -2.1931872367858887 1.75
v 14.275964736938477 -1.26274836063385 1.75
v 14.755156517028809 -1.5169916152954102 1.75
v 13.801694869995117 -4.933506965637207 1.75
v 15.025580406188965 -1.587653398513794 1.75
v 13.462014198303223 -4.279580593109131 1.75
v 14.188608169555664 -5.560643672943115 1.75
v 14.620651245117188 -6.157586574554443 1.75
v 17.430082321166992 -1.6490449905395508 1.75
v 13.921091079711914 -0.8499042391777039 1.75
v 12.52715015411377 -0.7363866567611694 1.75
v 13.752574920654297 -0.3532499372959137 1.75
v 12.5 -3.2162452988550175e-15 1.75
v 13.808518409729004 -0.6114571690559387 1.75
v 13.729536056518555 -0.08356064558029175 1.75
v 13.772143363952637 0.30393707752227783 1.75
v 12.52715015411377 0.7363866567611694 1.75
v 14.28783130645752 -0.3909383714199066 1.75
v 14.459413528442383 -0.6667803525924683 1.75
v 14.234312057495117 -0.06991803646087646 1.75
v 14.28576374053955 0.24790506064891815 1.75
v 14.456003189086914 0.5201229453086853 1.75
v 14.711318016052246 0.6934099793434143 1.75
v 15.844134330749512 -0.3700543940067291 1.75
v 15.134720802307129 -0.9737380146980286 1.75
v 15.095480918884277 -6.72109317779541 1.75
v 15.610516548156738 -7.248104095458984 1.75
v 19.722183227539062 -2.519174337387085 1.75
v 16.162961959838867 -7.735757827758789 1.75
v 16.749818801879883 -8.181406021118164 1.75
v 16.383014678955078 -0.4382672905921936 1.75
v 17.717243194580078 -1.5920835733413696 1.75
v 17.34822654724121 -1.0351295471191406 1.75
v 15.85095500946045 -0.27114585041999817 1.75
v 15.801050186157227 0.09715133905410767 1.75
v 14.770418167114258 -0.8766469359397888 1.75
v 15.646317481994629 0.4348568618297577 1.75
v 16.3354434967041 -0.22371934354305267 1.75
v 16.470767974853516 0.5416494607925415 1.75
v 16.379940032958984 0.3748059868812561 1.75
v 16.33417510986328 0.1900814026594162 1.75
v 16.314802169799805 -0.005115866661071777 1.75
v 17.753568649291992 -0.9137083888053894 1.75
v 17.49393081665039 0.9515814781188965 1.75
v 16.74363899230957 0.8165586590766907 1.75
v 20.04366111755371 -2.8335306644439697 1.75
v 17.367897033691406 -8.582629203796387 1.75
v 15.518600463867188 0.5721231698989868 1.75
v 13.905184745788574 0.6701910495758057 1.75
v 14.107224464416504 0.968046247959137 1.75
v 12.608452796936035 1.468774676322937 1.75
v 14.384379386901855 1.1971352100372314 1.75
v 12.743467330932617 2.1931872367858887 1.75
v 15.015348434448242 0.7486358284950256 1.75
v 15.202486038208008 0.7277787327766418 1.75
v 15.374022483825684 0.676357626914978 1.75
v 12.931459426879883 2.9056906700134277 1.75
v 14.694095611572266 1.333080768585205 1.75
v 13.171409606933594 3.6024162769317627 1.75
v 13.462014198303223 4.279580593109131 1.75
v 13.801694869995117 4.933506965637207 1.75
v 15.028990745544434 1.3796043395996094 1.75
v 15.336997985839844 1.3365638256072998 1.75
v 14.188608169555664 5.560643672943115 1.75
v 16.848773956298828 1.5697717666625977 1.75
v 14.620651245117188 6.157586574554443 1.75
v 15.095480918884277 6.72109317779541 1.75
v 16.653512954711914 1.487972617149353 1.75
v 16.04195213317871 0.6906548142433167 1.75
v 16.192502975463867 1.0736825466156006 1.75
v 15.867125511169434 0.9786301851272583 1.75
v 15.61903190612793 1.205661654472351 1.75
v 16.589359283447266 0.6974762678146362 1.75
v 16.90906524658203 0.9078876972198486 1.75
v 17.092628479003906 0.9540625810623169 1.75
v 17.286834716796875 0.9737381339073181 1.75
v 17.689563751220703 0.9010819792747498 1.75
v 16.317575454711914 1.2341117858886719 1.75
v 16.466575622558594 1.3796043395996094 1.75
v 16.162961959838867 7.735757827758789 1.75
v 15.610516548156738 7.248104095458984 1.75
v 17.273193359375 1.625170350074768 1.75
v 20.01031494140625 2.804276943206787 1.75
v 16.749818801879883 8.181406021118164 1.75
v 17.585857391357422 1.5875651836395264 1.75
v 17.367897033691406 8.582629203796387 1.75
v 19.689640045166016 2.4828171730041504 1.75
v 17.865842819213867 0.8027400970458984 1.75
v 20.400449752807617 -3.1071512699127197 1.75
v 18.013845443725586 -8.937248229980469 1.75
v 18.684152603149414 -9.243338584899902 1.75
v 19.203083038330078 -1.7868520021438599 1.75
v 17.986610412597656 -1.4990156888961792 1.75
v 19.440643310546875 -2.1686015129089355 1.75
v 18.225772857666016 -1.3446578979492188 1.75
v 19.375179290771484 -9.499236106872559 1.75
v 20.787424087524414 -3.3361027240753174 1.75
v 21.199016571044922 -3.5170929431915283 1.75
v 20.083173751831055 -9.703553199768066 1.75
v 18.10027313232422 -0.6753069162368774 1.75
v 18.274932861328125 -0.38816380500793457 1.75
v 18.33049201965332 -0.05627542734146118 1.75
v 17.933156967163086 -0.8069493174552917 1.75
v 18.3076229095459 0.14810387790203094 1.75
v 18.446453094482422 -1.1527966260910034 1.75
v 19.012922286987305 -1.3794143199920654 1.75
v 18.87289047241211 -0.9521456360816956 1.75
v 18.65311622619629 -0.8456696271896362 1.75
v 18.73243522644043 -0.6833217740058899 1.75
v 18.785005569458008 -0.5111886858940125 1.75
v 22.270187377929688 -9.997359275817871 1.75
v 22.072128295898438 -3.7255101203918457 1.75
v 21.534618377685547 -9.953292846679688 1.75
v 20.804292678833008 -9.855179786682129 1.75
v 23.007003784179688 -9.987138748168945 1.75
v 22.521095275878906 -3.7499406337738037 1.75
v 23.741065979003906 -9.922688484191895 1.75
v 22.969757080078125 -3.720460891723633 1.75
v 25.185026168823242 -9.632789611816406 1.75
v 23.411664962768555 -3.6374943256378174 1.75
v 24.4683895111084 -9.80435848236084 1.75
v 25.887081146240234 -9.408914566040039 1.75
v 23.84046745300293 -3.5022342205047607 1.75
v 24.25 -3.316624879837036 1.75
v 26.57074546813965 -9.133949279785156 1.75
v 27.2323055267334 -8.809386253356934 1.75
v 27.868167877197266 -8.43698787689209 1.75
v 21.629314422607422 -3.6475205421447754 1.75
v 28.474882125854492 -8.018776893615723 1.75
v 29.049152374267578 -7.557023525238037 1.75
v 29.587860107421875 -7.054234981536865 1.75
v 18.256433486938477 0.34081971645355225 1.75
v 18.157739639282227 0.5139713287353516 1.75
v 18.03035545349121 0.6753069162368774 1.75
v 18.714893341064453 0.6317257285118103 1.75
v 18.7759952545166 0.4407895505428314 1.75
v 18.856569290161133 0.8876413106918335 1.75
v 18.622865676879883 0.8108003735542297 1.75
v 18.38335609436035 1.1476808786392212 1.75
v 18.990556716918945 1.3214794397354126 1.75
v 18.140899658203125 1.34872567653656 1.75
v 17.879335403442383 1.5052906274795532 1.75
v 19.175996780395508 1.7359435558319092 1.75
v 20.755929946899414 3.319746971130371 1.75
v 18.684152603149414 9.243338584899902 1.75
v 18.013845443725586 8.937248229980469 1.75
v 19.41016960144043 2.124957323074341 1.75
v 20.367490768432617 3.0846235752105713 1.75
v 20.083173751831055 9.703553199768066 1.75
v 19.375179290771484 9.499236106872559 1.75
v 21.169939041137695 3.506200075149536 1.75
v 21.60344886779785 3.641249179840088 1.75
v 22.270187377929688 9.997359275817871 1.75
v 22.05010223388672 3.722914457321167 1.75
v 22.50335121154785 3.7499985694885254 1.75
v 20.804292678833008 9.855179786682129 1.75
v 25.887081146240234 9.408914566040039 1.75
v 23.83632469177246 3.503817319869995 1.75
v 24.25 3.316624879837036 1.75
v 25.185026168823242 9.632789611816406 1.75
v 23.403057098388672 3.639641046524048 1.75
v 22.95655059814453 3.72210431098938 1.75
v 23.741065979003906 9.922688484191895 1.75
v 29.049152374267578 7.557023525238037 1.75
v 29.587860107421875 7.054234981536865 1.75
v 23.007003784179688 9.987138748168945 1.75
v 28.474882125854492 8.018776893615723 1.75
v 21.534618377685547 9.953292846679688 1.75
v 24.4683895111084 9.80435848236084 1.75
v 27.868167877197266 8.43698787689209 1.75
v 27.2323055267334 8.809386253356934 1.75
v 26.57074546813965 9.133949279785156 1.75
v 18.750167846679688 -0.0354866087436676 0.75
v 18.75 4.592425233973236e-16 0.0
v 18.75 4.592425233973236e-16 0.75
v 18.873199462890625 -0.9533184170722961 0.0
v 18.780927658081055 -0.4806230366230011 0.0
v 18.785005569458008 -0.5111886858940125 0.75
v 19.025293350219727 -1.4102891683578491 0.0
v 19.203083038330078 -1.7868520021438599 1.75
v 19.23470115661621 -1.843997836112976 0.0
v 19.497970581054688 -2.24729061126709 0.0
v 19.440643310546875 -2.1686015129089355 1.75
v 19.722183227539062 -2.519174337387085 1.75
v 19.810754776000977 -2.6135151386260986 0.0
v 18.7759952545166 0.4407895505428314 0.75
v 20.167898178100586 -2.936630964279175 0.0
v 20.04366111755371 -2.8335306644439697 1.75
v 20.991060256958008 -3.433016300201416 0.0
v 20.563508987426758 -3.211308240890503 0.0
v 20.787424087524414 -3.3361027240753174 1.75
v 20.400449752807617 -3.1071512699127197 1.75
v 21.913368225097656 -3.7038309574127197 0.0
v 21.443500518798828 -3.5980982780456543 0.0
v 21.629314422607422 -3.6475205421447754 1.75
v 22.874223709106445 -3.73128080368042 0.0
v 22.392911911010742 -3.7484705448150635 0.0
v 22.521095275878906 -3.7499406337738037 1.75
v 23.349361419677734 -3.652545213699341 0.0
v 22.969757080078125 -3.720460891723633 1.75
v 22.072128295898438 -3.7255101203918457 1.75
v 21.199016571044922 -3.5170929431915283 1.75
v 23.810487747192383 -3.5135624408721924 0.0
v 23.411664962768555 -3.6374943256378174 1.75
v 18.785005569458008 -0.5111886858940125 1.75
v 18.87289047241211 -0.9521456360816956 1.75
v 19.012922286987305 -1.3794143199920654 1.75
v 23.84046745300293 -3.5022342205047607 1.75
v 24.25 -3.316624879837036 0.0
v 23.349361419677734 3.652545213699341 0.0
v 23.810487747192383 3.5135624408721924 0.0
v 23.403057098388672 3.639641046524048 1.75
v 24.25 3.316624879837036 0.0
v 23.83632469177246 3.503817319869995 1.75
v 22.392911911010742 3.7484705448150635 0.0
v 22.874223709106445 3.73128080368042 0.0
v 22.50335121154785 3.7499985694885254 1.75
v 21.443500518798828 3.5980982780456543 0.0
v 21.913368225097656 3.7038309574127197 0.0
v 21.60344886779785 3.641249179840088 1.75
v 20.991060256958008 3.433016300201416 0.0
v 21.169939041137695 3.506200075149536 1.75
v 22.05010223388672 3.722914457321167 1.75
v 22.95655059814453 3.72210431098938 1.75
v 20.167898178100586 2.936630964279175 0.0
v 20.563508987426758 3.211308240890503 0.0
v 20.367490768432617 3.0846235752105713 1.75
v 19.497970581054688 2.24729061126709 0.0
v 19.810754776000977 2.6135151386260986 0.0
v 19.689640045166016 2.4828171730041504 1.75
v 20.01031494140625 2.804276943206787 1.75
v 19.025293350219727 1.4102891683578491 0.0
v 19.23470115661621 1.843997836112976 0.0
v 19.175996780395508 1.7359435558319092 1.75
v 18.780927658081055 0.4806230366230011 0.0
v 18.873199462890625 0.9533184170722961 0.0
v 19.41016960144043 2.124957323074341 1.75
v 20.755929946899414 3.319746971130371 1.75
v 18.990556716918945 1.3214794397354126 1.75
v 24.25 3.316624879837036 1.75
v 18.856569290161133 0.8876413106918335 1.75
v 18.7759952545166 0.4407895505428314 1.75
v 24.25 -3.316624879837036 1.75
v 29.587860107421875 -7.054234981536865 0.0
v 24.25 -3.316624879837036 0.0
v 24.25 -3.316624879837036 1.75
v 29.587860107421875 -7.054234981536865 1.75
v 12.5 3.673940187178589e-15 0.0
v 12.52715015411377 -0.7363866567611694 0.0
v 12.52715015411377 -0.7363866567611694 1.75
v 12.608452796936035 -1.468774676322937 0.0
v 12.743467330932617 -2.1931872367858887 0.0
v 12.743467330932617 -2.1931872367858887 1.75
v 12.608452796936035 -1.468774676322937 1.75
v 12.931459426879883 -2.9056906700134277 0.0
v 13.171409606933594 -3.6024162769317627 0.0
v 13.171409606933594 -3.6024162769317627 1.75
v 13.462014198303223 -4.279580593109131 0.0
v 13.801694869995117 -4.933506965637207 0.0
v 13.801694869995117 -4.933506965637207 1.75
v 13.462014198303223 -4.279580593109131 1.75
v 12.931459426879883 -2.9056906700134277 1.75
v 14.188608169555664 -5.560643672943115 0.0
v 14.620651245117188 -6.157586574554443 0.0
v 14.620651245117188 -6.157586574554443 1.75
v 15.095480918884277 -6.72109317779541 0.0
v 15.610516548156738 -7.248104095458984 0.0
v 15.610516548156738 -7.248104095458984 1.75
v 15.095480918884277 -6.72109317779541 1.75
v 16.162961959838867 -7.735757827758789 0.0
v 16.749818801879883 -8.181406021118164 0.0
v 16.749818801879883 -8.181406021118164 1.75
v 17.367897033691406 -8.582629203796387 0.0
v 18.013845443725586 -8.937248229980469 0.0
v 18.013845443725586 -8.937248229980469 1.75
v 17.367897033691406 -8.582629203796387 1.75
v 16.162961959838867 -7.735757827758789 1.75
v 14.188608169555664 -5.560643672943115 1.75
v 18.684152603149414 -9.243338584899902 0.0
v 19.375179290771484 -9.499236106872559 0.0
v 19.375179290771484 -9.499236106872559 1.75
v 20.083173751831055 -9.703553199768066 0.0
v 20.804292678833008 -9.855179786682129 0.0
v 20.804292678833008 -9.855179786682129 1.75
v 20.083173751831055 -9.703553199768066 1.75
v 21.534618377685547 -9.953292846679688 0.0
v 22.270187377929688 -9.997359275817871 0.0
v 22.270187377929688 -9.997359275817871 1.75
v 23.007003784179688 -9.987138748168945 0.0
v 23.741065979003906 -9.922688484191895 0.0
v 23.741065979003906 -9.922688484191895 1.75
v 23.007003784179688 -9.987138748168945 1.75
v 21.534618377685547 -9.953292846679688 1.75
v 24.4683895111084 -9.80435848236084 0.0
v 25.185026168823242 -9.632789611816406 0.0
v 25.185026168823242 -9.632789611816406 1.75
v 25.887081146240234 -9.408914566040039 0.0
v 26.57074546813965 -9.133949279785156 0.0
v 26.57074546813965 -9.133949279785156 1.75
v 25.887081146240234 -9.408914566040039 1.75
v 27.2323055267334 -8.809386253356934 0.0
v 27.868167877197266 -8.43698787689209 0.0
v 27.868167877197266 -8.43698787689209 1.75
v 28.474882125854492 -8.018776893615723 0.0
v 29.049152374267578 -7.557023525238037 0.0
v 29.049152374267578 -7.557023525238037 1.75
v 28.474882125854492 -8.018776893615723 1.75
v 27.2323055267334 -8.809386253356934 1.75
v 24.4683895111084 -9.80435848236084 1.75
v 18.684152603149414 -9.243338584899902 1.75
v 12.5 3.673940187178589e-15 1.75
v 29.587860107421875 -7.054234981536865 1.75
v 29.587860107421875 -7.054234981536865 0.0
v 12.52715015411377 0.7363866567611694 1.75
v 29.587860107421875 7.054234981536865 0.0
v 29.049152374267578 7.557023525238037 0.0
v 29.049152374267578 7.557023525238037 1.75
v 28.474882125854492 8.018776893615723 0.0
v 27.868167877197266 8.43698787689209 0.0
v 27.868167877197266 8.43698787689209 1.75
v 28.474882125854492 8.018776893615723 1.75
v 27.2323055267334 8.809386253356934 0.0
v 26.57074546813965 9.133949279785156 0.0
v 26.57074546813965 9.133949279785156 1.75
v 25.887081146240234 9.408914566040039 0.0
v 25.185026168823242 9.632789611816406 0.0
v 25.185026168823242 9.632789611816406 1.75
v 25.887081146240234 9.408914566040039 1.75
v 27.2323055267334 8.809386253356934 1.75
v 24.4683895111084 9.80435848236084 0.0
v 23.741065979003906 9.922688484191895 0.0
v 23.741065979003906 9.922688484191895 1.75
v 23.007003784179688 9.987138748168945 0.0
v 22.270187377929688 9.997359275817871 0.0
v 22.270187377929688 9.997359275817871 1.75
v 23.007003784179688 9.987138748168945 1.75
v 21.534618377685547 9.953292846679688 0.0
v 20.804292678833008 9.855179786682129 0.0
v 20.804292678833008 9.855179786682129 1.75
v 20.083173751831055 9.703553199768066 0.0
v 19.375179290771484 9.499236106872559 0.0
v 19.375179290771484 9.499236106872559 1.75
v 20.083173751831055 9.703553199768066 1.75
v 21.534618377685547 9.953292846679688 1.75
v 24.4683895111084 9.80435848236084 1.75
v 18.684152603149414 9.243338584899902 0.0
v 18.013845443725586 8.937248229980469 0.0
v 18.013845443725586 8.937248229980469 1.75
v 17.367897033691406 8.582629203796387 0.0
v 16.749818801879883 8.181406021118164 0.0
v 16.749818801879883 8.181406021118164 1.75
v 17.367897033691406 8.582629203796387 1.75
v 16.162961959838867 7.735757827758789 0.0
v 15.610516548156738 7.248104095458984 0.0
v 15.610516548156738 7.248104095458984 1.75
v 15.095480918884277 6.72109317779541 0.0
v 14.620651245117188 6.157586574554443 0.0
v 14.620651245117188 6.157586574554443 1.75
v 15.095480918884277 6.72109317779541 1.75
v 16.162961959838867 7.735757827758789 1.75
v 14.188608169555664 5.560643672943115 0.0
v 13.801694869995117 4.933506965637207 0.0
v 13.801694869995117 4.933506965637207 1.75
v 13.462014198303223 4.279580593109131 0.0
v 13.171409606933594 3.6024162769317627 0.0
v 13.171409606933594 3.6024162769317627 1.75
v 13.462014198303223 4.279580593109131 1.75
v 12.931459426879883 2.9056906700134277 0.0
v 12.743467330932617 2.1931872367858887 0.0
v 12.743467330932617 2.1931872367858887 1.75
v 12.608452796936035 1.468774676322937 0.0
v 12.52715015411377 0.7363866567611694 0.0
v 12.608452796936035 1.468774676322937 1.75
v 12.931459426879883 2.9056906700134277 1.75
v 14.188608169555664 5.560643672943115 1.75
v 18.684152603149414 9.243338584899902 1.75
v 29.587860107421875 7.054234981536865 1.75
v 24.25 3.316624879837036 0.0
v 29.587860107421875 7.054234981536865 0.0
v 29.587860107421875 7.054234981536865 1.75
v 24.25 3.316624879837036 1.75
v 13.462014198303223 -4.279580593109131 0.0
v 19.025293350219727 -1.4102891683578491 0.0
v 13.801694869995117 -4.933506965637207 0.0
v 14.188608169555664 -5.560643672943115 0.0
v 14.620651245117188 -6.157586574554443 0.0
v 19.23470115661621 -1.843997836112976 0.0
v 15.095480918884277 -6.72109317779541 0.0
v 19.497970581054688 -2.24729061126709 0.0
v 15.610516548156738 -7.248104095458984 0.0
v 12.608452796936035 -1.468774676322937 0.0
v 12.52715015411377 -0.7363866567611694 0.0
v 18.780927658081055 -0.4806230366230011 0.0
v 12.743467330932617 -2.1931872367858887 0.0
v 13.171409606933594 -3.6024162769317627 0.0
v 12.931459426879883 -2.9056906700134277 0.0
v 18.873199462890625 -0.9533184170722961 0.0
v 16.162961959838867 -7.735757827758789 0.0
v 16.749818801879883 -8.181406021118164 0.0
v 19.810754776000977 -2.6135151386260986 0.0
v 20.167898178100586 -2.936630964279175 0.0
v 17.367897033691406 -8.582629203796387 0.0
v 18.684152603149414 -9.243338584899902 0.0
v 18.013845443725586 -8.937248229980469 0.0
v 20.563508987426758 -3.211308240890503 0.0
v 19.375179290771484 -9.499236106872559 0.0
v 20.991060256958008 -3.433016300201416 0.0
v 18.75 4.592425233973236e-16 0.0
v 12.5 3.673940187178589e-15 0.0
v 12.608452796936035 1.468774676322937 0.0
v 18.780927658081055 0.4806230366230011 0.0
v 12.52715015411377 0.7363866567611694 0.0
v 12.743467330932617 2.1931872367858887 0.0
v 12.931459426879883 2.9056906700134277 0.0
v 18.873199462890625 0.9533184170722961 0.0
v 13.171409606933594 3.6024162769317627 0.0
v 13.462014198303223 4.279580593109131 0.0
v 13.801694869995117 4.933506965637207 0.0
v 19.025293350219727 1.4102891683578491 0.0
v 14.188608169555664 5.560643672943115 0.0
v 14.620651245117188 6.157586574554443 0.0
v 19.23470115661621 1.843997836112976 0.0
v 15.095480918884277 6.72109317779541 0.0
v 15.610516548156738 7.248104095458984 0.0
v 19.497970581054688 2.24729061126709 0.0
v 16.162961959838867 7.735757827758789 0.0
v 19.810754776000977 2.6135151386260986 0.0
v 16.749818801879883 8.181406021118164 0.0
v 17.367897033691406 8.582629203796387 0.0
v 20.167898178100586 2.936630964279175 0.0
v 18.013845443725586 8.937248229980469 0.0
v 18.684152603149414 9.243338584899902 0.0
v 20.563508987426758 3.211308240890503 0.0
v 19.375179290771484 9.499236106872559 0.0
v 20.991060256958008 3.433016300201416 0.0
v 20.083173751831055 9.703553199768066 0.0
v 20.083173751831055 -9.703553199768066 0.0
v 21.443500518798828 -3.5980982780456543 0.0
v 20.804292678833008 -9.855179786682129 0.0
v 21.913368225097656 -3.7038309574127197 0.0
v 21.534618377685547 -9.953292846679688 0.0
v 22.392911911010742 -3.7484705448150635 0.0
v 23.007003784179688 -9.987138748168945 0.0
v 22.270187377929688 -9.997359275817871 0.0
v 22.874223709106445 -3.73128080368042 0.0
v 23.349361419677734 -3.652545213699341 0.0
v 23.741065979003906 -9.922688484191895 0.0
v 24.4683895111084 -9.80435848236084 0.0
v 23.810487747192383 -3.5135624408721924 0.0
v 25.185026168823242 -9.632789611816406 0.0
v 26.57074546813965 -9.133949279785156 0.0
v 25.887081146240234 -9.408914566040039 0.0
v 24.25 -3.316624879837036 0.0
v 27.2323055267334 -8.809386253356934 0.0
v 27.868167877197266 -8.43698787689209 0.0
v 28.474882125854492 -8.018776893615723 0.0
v 29.587860107421875 -7.054234981536865 0.0
v 29.049152374267578 -7.557023525238037 0.0
v 20.804292678833008 9.855179786682129 0.0
v 21.913368225097656 3.7038309574127197 0.0
v 21.443500518798828 3.5980982780456543 0.0
v 22.270187377929688 9.997359275817871 0.0
v 22.392911911010742 3.7484705448150635 0.0
v 21.534618377685547 9.953292846679688 0.0
v 23.007003784179688 9.987138748168945 0.0
v 22.874223709106445 3.73128080368042 0.0
v 23.741065979003906 9.922688484191895 0.0
v 24.25 3.316624879837036 0.0
v 23.810487747192383 3.5135624408721924 0.0
v 25.887081146240234 9.408914566040039 0.0
v 23.349361419677734 3.652545213699341 0.0
v 24.4683895111084 9.80435848236084 0.0
v 28.474882125854492 8.018776893615723 0.0
v 29.049152374267578 7.557023525238037 0.0
v 29.587860107421875 7.054234981536865 0.0
v 27.868167877197266 8.43698787689209 0.0
v 25.185026168823242 9.632789611816406 0.0
v 26.57074546813965 9.133949279785156 0.0
v 27.2323055267334 8.809386253356934 0.0
usemtl Diffuse_1
f 1 2 3
f 1 4 2
f 5 6 4
f 5 7 6
f 8 6 7
f 1 5 4
f 9 10 11
f 11 12 9
f 10 9 13
f 13 14 10
f 15 16 14
f 13 15 14
f 17 18 19
f 19 20 17
f 18 17 21
f 21 22 18
f 23 24 22
f 23 25 24
f 26 24 25
f 21 23 22
f 27 28 29
f 29 30 27
f 27 31 28
f 32 33 34
f 34 31 32
f 28 31 34
f 35 36 37
f 37 38 35
f 35 39 36
f 40 41 42
f 42 39 40
f 36 39 42
f 43 44 45
f 46 45 44
f 47 48 46
f 44 47 46
f 49 50 51
f 52 51 50
f 53 54 52
f 50 53 52
f 55 56 57
f 58 57 56
f 59 60 58
f 56 59 58
f 61 62 63
f 64 62 61
f 65 66 64
f 62 64 66
f 67 68 69
f 70 69 68
f 71 72 70
f 68 71 70
f 73 74 75
f 75 76 73
f 74 73 77
f 77 78 74
f 79 80 78
f 79 81 80
f 82 80 81
f 77 79 78
f 83 84 85
f 85 86 83
f 84 83 87
f 87 88 84
f 89 90 88
f 89 91 90
f 92 90 91
f 87 89 88
f 93 94 95
f 95 96 93
f 97 98 99
f 100 99 98
f 101 102 100
f 98 101 100
f 103 104 105
f 106 105 104
f 107 108 106
f 104 107 106
f 109 110 111
f 112 111 110
f 113 114 112
f 110 113 112
f 115 116 117
f 118 117 116
f 119 120 118
f 116 119 118
f 121 122 123
f 123 124 121
f 122 121 125
f 125 126 122
f 127 128 126
f 127 129 128
f 130 128 129
f 125 127 126
f 131 132 133
f 134 133 132
f 135 136 134
f 132 135 134
f 137 138 139
f 140 138 137
f 141 142 143
f 143 144 141
f 145 146 147
f 148 147 146
f 149 150 148
f 146 149 148
f 151 152 153
f 153 154 151
f 152 151 155
f 155 156 152
f 157 158 156
f 157 159 158
f 160 158 159
f 155 157 156
f 161 162 163
f 163 164 161
f 162 161 165
f 165 166 162
f 167 168 166
f 167 169 168
f 170 168 169
f 165 167 166
f 171 172 173
f 173 174 171
f 172 171 175
f 175 176 172
f 177 178 176
f 177 179 178
f 180 178 179
f 175 177 176
f 181 182 183
f 183 184 181
f 182 181 185
f 185 186 182
f 187 188 186
f 187 189 188
f 190 188 189
f 185 187 186
f 191 192 193
f 194 193 192
f 195 196 194
f 192 195 194
f 197 198 199
f 199 200 197
f 197 201 198
f 202 203 204
f 204 201 202
f 198 201 204
f 205 206 207
f 207 208 205
f 209 210 211
f 211 212 209
f 210 209 213
f 213 214 210
f 215 216 214
f 215 217 216
f 218 216 217
f 213 215 214
f 219 220 221
f 222 223 224
f 224 223 225
f 222 224 221
f 219 221 224
f 226 227 228
f 229 230 228
f 229 228 220
f 220 219 229
f 230 226 228
f 225 231 232
f 231 225 223
f 233 232 234
f 232 233 225
f 233 234 235
f 236 233 235
f 237 238 239
f 240 241 238
f 239 236 242
f 243 244 245
f 245 246 243
f 247 245 244
f 244 226 247
f 243 246 248
f 249 250 248
f 251 252 253
f 249 254 252
f 248 254 249
f 250 243 248
f 253 252 254
f 255 256 251
f 255 251 253
f 256 255 257
f 258 259 260
f 259 258 257
f 255 259 257
f 244 227 226
f 236 235 242
f 240 238 237
f 261 262 263
f 264 261 263
f 265 240 266
f 265 241 240
f 267 266 240
f 267 240 263
f 263 262 267
f 268 265 266
f 264 269 261
f 237 239 242
f 270 261 269
f 270 271 272
f 270 273 274
f 273 270 272
f 274 273 275
f 276 277 278
f 277 274 275
f 278 277 275
f 270 269 271
f 278 279 276
f 280 281 282
f 281 280 268
f 280 282 283
f 266 281 268
f 283 282 284
f 285 286 287
f 288 286 285
f 288 285 289
f 290 283 284
f 291 292 293
f 291 276 279
f 291 293 294
f 279 292 291
f 294 293 295
f 289 296 288
f 289 297 298
f 289 298 296
f 297 299 298
f 299 297 295
f 297 294 295
f 300 301 302
f 303 304 305
f 301 306 305
f 300 302 307
f 308 309 310
f 311 309 308
f 303 305 306
f 306 301 300
f 311 312 313
f 309 302 310
f 304 303 314
f 315 316 317
f 316 315 318
f 317 319 320
f 319 317 316
f 317 320 321
f 318 315 304
f 322 323 324
f 325 324 326
f 327 324 323
f 304 314 318
f 311 313 309
f 307 302 309
f 309 328 329
f 313 330 331
f 312 330 313
f 332 313 333
f 333 334 332
f 309 313 335
f 332 336 313
f 313 331 333
f 335 313 337
f 338 339 329
f 329 328 338
f 340 339 341
f 340 329 339
f 327 323 340
f 335 337 342
f 328 309 335
f 343 344 345
f 342 345 346
f 345 342 343
f 337 347 348
f 342 337 349
f 350 334 351
f 341 352 340
f 353 321 320
f 354 355 353
f 353 355 321
f 356 357 354
f 326 324 327
f 340 358 327
f 359 352 360
f 358 340 359
f 359 340 352
f 361 356 362
f 357 356 361
f 362 363 361
f 363 362 364
f 354 357 355
f 365 366 367
f 366 365 364
f 364 362 366
f 365 367 368
f 368 369 370
f 371 370 369
f 367 372 368
f 373 374 375
f 375 374 376
f 343 349 377
f 378 349 379
f 337 348 380
f 379 337 380
f 379 349 337
f 349 343 342
f 347 381 348
f 376 382 383
f 382 376 374
f 384 385 386
f 369 368 372
f 372 367 383
f 367 376 383
f 385 371 386
f 384 387 388
f 384 386 389
f 390 388 387
f 389 391 384
f 371 369 386
f 347 392 381
f 393 394 395
f 396 397 398
f 398 336 332
f 397 396 399
f 395 400 401
f 401 393 395
f 402 400 403
f 350 351 393
f 397 336 398
f 334 350 332
f 402 401 400
f 404 405 406
f 404 406 407
f 407 406 408
f 409 410 411
f 410 409 399
f 409 411 412
f 413 412 411
f 414 413 411
f 399 396 410
f 407 392 347
f 415 416 417
f 416 418 417
f 415 419 420
f 421 422 419
f 423 424 425
f 426 427 423
f 428 429 430
f 426 429 428
f 421 425 424
f 430 431 428
f 416 415 420
f 403 432 402
f 419 422 420
f 432 418 416
f 428 433 434
f 428 434 435
f 424 423 427
f 427 426 428
f 424 422 421
f 431 433 428
f 432 403 418
f 408 436 437
f 407 438 392
f 407 437 438
f 437 407 408
f 439 440 441
f 442 439 441
f 443 441 444
f 441 443 442
f 443 444 445
f 446 445 447
f 448 449 450
f 387 384 391
f 447 451 446
f 445 444 447
f 446 451 389
f 450 390 452
f 390 387 452
f 453 454 455
f 448 454 449
f 450 452 448
f 389 451 391
f 455 456 453
f 457 458 459
f 460 456 458
f 453 456 460
f 461 462 463
f 464 465 462
f 466 465 467
f 468 463 469
f 459 466 470
f 468 471 463
f 470 457 459
f 458 472 460
f 465 473 467
f 458 457 472
f 470 466 467
f 463 474 475
f 475 476 463
f 461 464 462
f 463 476 461
f 464 473 465
f 463 471 474
f 455 454 448
f 351 394 393
f 477 478 479
f 480 481 482
f 481 478 477
f 483 484 485
f 482 483 480
f 486 485 487
f 486 488 489
f 490 479 478
f 491 489 492
f 493 494 495
f 494 491 496
f 497 498 499
f 500 501 502
f 503 500 504
f 501 497 505
f 498 493 506
f 507 503 508
f 481 477 482
f 482 509 510
f 510 511 482
f 483 482 511
f 487 485 484
f 488 486 487
f 511 484 483
f 489 488 492
f 496 491 492
f 506 493 495
f 496 495 494
f 505 497 499
f 504 500 502
f 508 503 504
f 505 502 501
f 506 499 498
f 508 512 507
f 512 513 507
f 514 515 516
f 515 517 518
f 519 520 521
f 522 523 524
f 525 522 526
f 523 519 527
f 520 514 528
f 529 530 531
f 532 533 534
f 533 529 535
f 536 537 538
f 490 539 540
f 478 539 490
f 536 490 540
f 541 537 532
f 542 530 525
f 536 543 490
f 515 518 516
f 518 517 544
f 520 528 521
f 523 527 524
f 522 524 526
f 527 519 521
f 528 514 516
f 530 542 531
f 533 535 534
f 535 529 531
f 537 541 538
f 490 543 545
f 490 545 546
f 543 536 538
f 541 532 534
f 542 525 526
f 512 547 513
f 548 549 550
f 550 551 548
f 552 553 554
f 555 556 557
f 553 555 558
f 559 560 561
f 562 563 564
f 560 562 565
f 556 559 566
f 567 568 569
f 570 571 572
f 568 570 573
f 574 575 576
f 577 578 579
f 575 577 580
f 571 574 581
f 563 567 582
f 583 584 585
f 586 587 588
f 584 586 589
f 590 591 592
f 593 594 595
f 591 593 596
f 587 590 597
f 598 599 600
f 601 602 603
f 599 601 604
f 605 606 607
f 608 609 610
f 606 608 611
f 602 605 612
f 594 598 613
f 578 583 614
f 615 552 554
f 558 555 557
f 553 558 554
f 566 559 561
f 565 562 564
f 560 565 561
f 556 566 557
f 582 567 569
f 573 570 572
f 568 573 569
f 581 574 576
f 580 577 579
f 575 580 576
f 571 581 572
f 563 582 564
f 614 583 585
f 589 586 588
f 584 589 585
f 590 592 597
f 597 588 587
f 592 591 596
f 595 596 593
f 579 578 614
f 595 594 613
f 600 599 604
f 598 600 613
f 603 602 612
f 607 606 611
f 611 608 610
f 605 607 612
f 601 603 604
f 616 610 609
f 617 616 609
f 552 615 618
f 619 620 621
f 622 623 624
f 620 622 625
f 626 627 628
f 629 630 631
f 627 629 632
f 623 626 633
f 634 635 636
f 637 638 639
f 635 637 640
f 641 642 643
f 644 645 646
f 642 644 647
f 638 641 648
f 630 634 649
f 650 651 652
f 653 654 655
f 651 653 656
f 657 658 659
f 660 661 662
f 658 660 663
f 654 657 664
f 665 666 667
f 668 669 670
f 666 668 671
f 672 673 674
f 675 676 618
f 673 675 677
f 669 672 678
f 661 665 679
f 645 650 680
f 625 621 620
f 681 619 621
f 633 624 623
f 632 628 627
f 633 626 628
f 625 622 624
f 649 631 630
f 640 636 635
f 649 634 636
f 648 639 638
f 647 643 642
f 648 641 643
f 640 637 639
f 632 629 631
f 680 646 645
f 656 652 651
f 680 650 652
f 664 655 654
f 663 659 658
f 664 657 659
f 656 653 655
f 679 662 661
f 671 667 666
f 679 665 667
f 678 670 669
f 677 674 673
f 618 677 675
f 678 672 674
f 671 668 670
f 663 660 662
f 647 644 646
f 676 552 618
f 682 683 684
f 684 685 682
f 686 687 688
f 687 689 688
f 690 691 692
f 690 689 691
f 692 693 694
f 695 696 697
f 695 697 698
f 699 700 701
f 697 700 698
f 699 701 686
f 693 702 694
f 703 704 705
f 703 705 706
f 707 708 709
f 710 707 711
f 705 708 706
f 702 693 704
f 697 696 712
f 701 700 697
f 691 689 687
f 693 692 691
f 701 687 686
f 702 704 703
f 713 712 696
f 714 715 716
f 715 714 717
f 718 715 717
f 719 718 720
f 721 719 720
f 722 723 721
f 724 723 722
f 724 725 726
f 727 726 725
f 728 729 727
f 716 712 713
f 723 724 726
f 719 721 723
f 730 731 729
f 728 730 729
f 726 727 729
f 730 732 731
f 733 734 732
f 735 734 733
f 736 737 735
f 736 738 739
f 740 739 738
f 732 734 731
f 715 718 719
f 716 715 712
f 741 742 743
f 743 744 745
f 746 747 748
f 749 747 746
f 745 746 748
f 745 744 746
f 711 707 709
f 741 711 742
f 749 750 751
f 744 743 742
f 751 747 749
f 708 705 709
f 752 750 753
f 752 753 754
f 755 756 757
f 753 756 754
f 758 755 757
f 753 757 756
f 759 758 757
f 760 759 757
f 757 761 762
f 760 757 762
f 751 750 752
f 737 736 739
f 763 764 765
f 740 763 765
f 739 740 765
f 766 767 768
f 764 763 768
f 769 770 767
f 771 770 769
f 766 769 767
f 768 767 764
f 734 735 737
f 772 773 774
f 773 775 776
f 777 778 772
f 779 772 778
f 772 780 777
f 776 781 773
f 775 771 776
f 772 782 783
f 782 772 774
f 773 781 774
f 772 783 780
f 770 771 775
f 710 711 741
