mtllib Corpo1_Mesh.mtl
v -5.509891033172607 -1.2499998807907104 1.0
v -5.509891033172607 -1.2499998807907104 2.0
v -7.76432466506958 0.3154844045639038 2.0
v -7.76432466506958 0.3154844045639038 1.0
v -7.76432466506958 0.3154844045639038 1.0
v -7.76432466506958 0.3154844045639038 2.0
v -5.509891033172607 0.3154844045639038 2.0
v -5.509891033172607 0.3154844045639038 1.0
v -5.509891033172607 0.3154844045639038 1.0
v -5.509891033172607 0.3154844045639038 2.0
v -5.509891033172607 -1.2499998807907104 2.0
v -5.509891033172607 -1.2499998807907104 1.0
v -3.75 0.9294000267982483 1.0
v -3.75 0.9294000267982483 2.0
v -4.947134971618652 0.9294000267982483 2.0
v -4.947134971618652 0.9294000267982483 1.0
v -4.947134971618652 0.9294000267982483 1.0
v -4.947134971618652 0.9294000267982483 2.0
v -4.947134971618652 1.6047070026397705 2.0
v -4.947134971618652 1.6047070026397705 1.0
v -4.947134971618652 1.6047070026397705 1.0
v -4.947134971618652 1.6047070026397705 2.0
v -5.509891033172607 1.6047070026397705 2.0
v -5.509891033172607 1.6047070026397705 1.0
v -5.509891033172607 1.6047070026397705 1.0
v -5.509891033172607 1.6047070026397705 2.0
v -5.509891033172607 0.9294000267982483 2.0
v -5.509891033172607 0.9294000267982483 1.0
v -5.509891033172607 0.9294000267982483 1.0
v -5.509891033172607 0.9294000267982483 2.0
v -8.75 0.9294000267982483 2.0
v -8.75 0.9294000267982483 1.0
v -8.75 0.9294000267982483 1.0
v -8.75 0.9294000267982483 2.0
v -8.75 0.42803555727005005 2.0
v -8.75 0.42803555727005005 1.0
v -8.75 0.42803555727005005 1.0
v -8.75 0.42803555727005005 2.0
v -5.509891033172607 -1.8536834716796875 2.0
v -5.509891033172607 -1.8536834716796875 1.0
v -5.509891033172607 -1.8536834716796875 1.0
v -5.509891033172607 -1.8536834716796875 2.0
v -4.947134971618652 -1.8536834716796875 2.0
v -4.947134971618652 -1.8536834716796875 1.0
v -4.947134971618652 -1.8536834716796875 1.0
v -4.947134971618652 -1.8536834716796875 2.0
v -4.947134971618652 0.3154844045639038 2.0
v -4.947134971618652 0.3154844045639038 1.0
v -4.947134971618652 0.3154844045639038 1.0
v -4.947134971618652 0.3154844045639038 2.0
v -3.75 0.3154844045639038 2.0
v -3.75 0.3154844045639038 1.0
v -3.75 0.3154844045639038 1.0
v -3.75 0.3154844045639038 2.0
v -3.75 0.9294000267982483 2.0
v -3.75 0.9294000267982483 1.0
v -5.509891033172607 0.3154844045639038 1.0
v -5.509891033172607 -1.2499998807907104 1.0
v -4.947134971618652 -0.7690995335578918 1.0
v -5.509891033172607 0.9294000267982483 1.0
v -4.947134971618652 0.3154844045639038 1.0
v -7.129945755004883 0.9294000267982483 1.0
v -8.75 0.9294000267982483 1.0
v -7.76432466506958 0.3154844045639038 1.0
v -4.947134971618652 0.9294000267982483 1.0
v -3.75 0.3154844045639038 1.0
v -3.75 0.9294000267982483 1.0
v -5.509891033172607 1.6047070026397705 1.0
v -4.947134971618652 -1.8536834716796875 1.0
v -5.509891033172607 -1.8536834716796875 1.0
v -4.947134971618652 1.6047070026397705 1.0
v -8.75 0.42803555727005005 1.0
v -8.698305130004883 -4.933506965637207 2.0
v -5.509891033172607 -1.8536834716796875 2.0
v -9.037985801696777 -4.279580593109131 2.0
v -8.311391830444336 -5.560643672943115 2.0
v -7.404519557952881 -6.72109317779541 2.0
v -7.879348278045654 -6.157586574554443 2.0
v -6.889483451843262 -7.248104095458984 2.0
v -9.97284984588623 -0.7363866567611694 2.0
v -8.75 0.42803555727005005 2.0
v -10.0 1.2246467996456087e-15 2.0
v -9.891547203063965 -1.468774676322937 2.0
v -9.568540573120117 -2.9056906700134277 2.0
v -9.328590393066406 -3.6024162769317627 2.0
v -9.756532669067383 -2.1931872367858887 2.0
v -6.337038040161133 -7.735757827758789 2.0
v -4.947134971618652 -1.8536834716796875 2.0
v -3.00203013420105 -2.24729061126709 2.0
v -3.2652981281280518 -1.843997836112976 2.0
v -2.6892449855804443 -2.6135151386260986 2.0
v -4.486155033111572 -8.937248229980469 2.0
v -2.332101821899414 -2.936630964279175 2.0
v -5.132102012634277 -8.582629203796387 2.0
v -5.750181674957275 -8.181406021118164 2.0
v -1.9364917278289795 -3.211308240890503 2.0
v -3.8158481121063232 -9.243338584899902 2.0
v -4.947134971618652 0.3154844045639038 2.0
v -3.75 -4.592425233973236e-16 2.0
v -3.75 0.3154844045639038 2.0
v -3.7190725803375244 -0.4806230366230011 2.0
v -3.7190725803375244 0.4806230366230011 2.0
v -3.75 0.6224422454833984 2.0
v -3.626800775527954 -0.9533184170722961 2.0
v -3.4747064113616943 -1.4102891683578491 2.0
v -9.891547203063965 1.468774676322937 2.0
v -8.75 0.9294000267982483 2.0
v -9.756532669067383 2.1931872367858887 2.0
v -9.97284984588623 0.7363866567611694 2.0
v -9.568540573120117 2.9056906700134277 2.0
v -9.328590393066406 3.6024162769317627 2.0
v -5.509891033172607 1.6047070026397705 2.0
v -9.037985801696777 4.279580593109131 2.0
v -8.698305130004883 4.933506965637207 2.0
v -8.311391830444336 5.560643672943115 2.0
v -7.879348278045654 6.157586574554443 2.0
v -7.404519557952881 6.72109317779541 2.0
v -6.889483451843262 7.248104095458984 2.0
v -4.947134971618652 1.6047070026397705 2.0
v -3.626800775527954 0.9533184170722961 2.0
v -3.75 0.9294000267982483 2.0
v -3.4747064113616943 1.4102891683578491 2.0
v -4.947134971618652 0.9294000267982483 2.0
v -5.132102012634277 8.582629203796387 2.0
v -5.750181674957275 8.181406021118164 2.0
v -2.332101821899414 2.936630964279175 2.0
v -6.337038040161133 7.735757827758789 2.0
v -2.6892449855804443 2.6135151386260986 2.0
v -4.486155033111572 8.937248229980469 2.0
v -3.2652981281280518 1.843997836112976 2.0
v -1.9364917278289795 3.211308240890503 2.0
v -3.8158481121063232 9.243338584899902 2.0
v -3.00203013420105 2.24729061126709 2.0
v -5.509891033172607 0.9294000267982483 2.0
v -1.5089398622512817 -3.433016300201416 2.0
v -3.1248209476470947 -9.499236106872559 2.0
v -1.6957074403762817 -9.855179786682129 2.0
v -1.0564987659454346 -3.5980982780456543 2.0
v -2.416826009750366 -9.703553199768066 2.0
v -0.9653813242912292 -9.953292846679688 2.0
v -0.5866311192512512 -3.7038309574127197 2.0
v -0.10708727687597275 -3.7484705448150635 2.0
v 0.5070030093193054 -9.987138748168945 2.0
v 0.37422293424606323 -3.73128080368042 2.0
v -0.2298130989074707 -9.997359275817871 2.0
v 0.8493605256080627 -3.652545213699341 2.0
v 1.2410660982131958 -9.922688484191895 2.0
v 1.9683901071548462 -9.80435848236084 2.0
v 1.310488224029541 -3.5135624408721924 2.0
v 2.685025691986084 -9.632789611816406 2.0
v 3.3870816230773926 -9.408914566040039 2.0
v 4.070745468139648 -9.133949279785156 2.0
v 1.75 -3.316624879837036 2.0
v 4.732305526733398 -8.809386253356934 2.0
v 6.549152374267578 -7.557023525238037 2.0
v 5.97488260269165 -8.018776893615723 2.0
v 7.087860584259033 -7.054234981536865 2.0
v 5.368168354034424 -8.43698787689209 2.0
v -1.5089398622512817 3.433016300201416 2.0
v -3.1248209476470947 9.499236106872559 2.0
v -1.0564987659454346 3.5980982780456543 2.0
v -0.5866311192512512 3.7038309574127197 2.0
v -1.6957074403762817 9.855179786682129 2.0
v -2.416826009750366 9.703553199768066 2.0
v -0.2298130989074707 9.997359275817871 2.0
v -0.10708727687597275 3.7484705448150635 2.0
v 0.5070030093193054 9.987138748168945 2.0
v -0.9653813242912292 9.953292846679688 2.0
v 0.37422293424606323 3.73128080368042 2.0
v 3.3870816230773926 9.408914566040039 2.0
v 1.310488224029541 3.5135624408721924 2.0
v 1.75 3.316624879837036 2.0
v 1.9683901071548462 9.80435848236084 2.0
v 0.8493605256080627 3.652545213699341 2.0
v 6.549152374267578 7.557023525238037 2.0
v 5.97488260269165 8.018776893615723 2.0
v 5.368168354034424 8.43698787689209 2.0
v 7.087860584259033 7.054234981536865 2.0
v 4.732305526733398 8.809386253356934 2.0
v 1.2410660982131958 9.922688484191895 2.0
v 4.070745468139648 9.133949279785156 2.0
v 2.685025691986084 9.632789611816406 2.0
v -3.7190725803375244 -0.4806230366230011 2.0
v -3.7190725803375244 -0.4806230366230011 0.0
v -3.75 1.3777276760710893e-15 0.0
v -3.626800775527954 -0.9533184170722961 2.0
v -3.4747064113616943 -1.4102891683578491 0.0
v -3.626800775527954 -0.9533184170722961 0.0
v -3.2652981281280518 -1.843997836112976 2.0
v -3.00203013420105 -2.24729061126709 0.0
v -3.2652981281280518 -1.843997836112976 0.0
v -2.332101821899414 -2.936630964279175 2.0
v -2.332101821899414 -2.936630964279175 0.0
v -2.6892449855804443 -2.6135151386260986 0.0
v -2.6892449855804443 -2.6135151386260986 2.0
v -3.4747064113616943 -1.4102891683578491 2.0
v -1.5089398622512817 -3.433016300201416 2.0
v -1.5089398622512817 -3.433016300201416 0.0
v -1.9364917278289795 -3.211308240890503 0.0
v -1.0564987659454346 -3.5980982780456543 2.0
v -0.5866311192512512 -3.7038309574127197 0.0
v -1.0564987659454346 -3.5980982780456543 0.0
v -0.10708727687597275 -3.7484705448150635 2.0
v 0.37422293424606323 -3.73128080368042 0.0
v -0.10708727687597275 -3.7484705448150635 0.0
v 0.8493605256080627 -3.652545213699341 2.0
v 1.310488224029541 -3.5135624408721924 0.0
v 0.8493605256080627 -3.652545213699341 0.0
v 0.37422293424606323 -3.73128080368042 2.0
v -0.5866311192512512 -3.7038309574127197 2.0
v -3.75 1.3777276760710893e-15 2.0
v -3.00203013420105 -2.24729061126709 2.0
v -1.9364917278289795 -3.211308240890503 2.0
v 1.310488224029541 -3.5135624408721924 2.0
v 1.75 -3.316624879837036 2.0
v 1.75 -3.316624879837036 0.0
v -3.7190725803375244 0.4806230366230011 2.0
v 1.310488224029541 3.5135624408721924 2.0
v 1.310488224029541 3.5135624408721924 0.0
v 1.75 3.316624879837036 0.0
v 0.37422293424606323 3.73128080368042 2.0
v 0.37422293424606323 3.73128080368042 0.0
v 0.8493605256080627 3.652545213699341 0.0
v 0.8493605256080627 3.652545213699341 2.0
v -0.10708727687597275 3.7484705448150635 2.0
v -0.5866311192512512 3.7038309574127197 0.0
v -0.10708727687597275 3.7484705448150635 0.0
v -1.5089398622512817 3.433016300201416 2.0
v -1.5089398622512817 3.433016300201416 0.0
v -1.0564987659454346 3.5980982780456543 0.0
v -0.5866311192512512 3.7038309574127197 2.0
v -2.332101821899414 2.936630964279175 2.0
v -2.332101821899414 2.936630964279175 0.0
v -1.9364917278289795 3.211308240890503 0.0
v -3.00203013420105 2.24729061126709 2.0
v -3.00203013420105 2.24729061126709 0.0
v -2.6892449855804443 2.6135151386260986 0.0
v -2.6892449855804443 2.6135151386260986 2.0
v -3.4747064113616943 1.4102891683578491 2.0
v -3.4747064113616943 1.4102891683578491 0.0
v -3.2652981281280518 1.843997836112976 0.0
v -3.626800775527954 0.9533184170722961 2.0
v -3.7190725803375244 0.4806230366230011 0.0
v -3.626800775527954 0.9533184170722961 0.0
v -3.2652981281280518 1.843997836112976 2.0
v -1.9364917278289795 3.211308240890503 2.0
v 1.75 3.316624879837036 2.0
v -1.0564987659454346 3.5980982780456543 2.0
v 7.087860584259033 -7.054234981536865 0.0
v 1.75 -3.316624879837036 0.0
v 1.75 -3.316624879837036 2.0
v 7.087860584259033 -7.054234981536865 2.0
v -10.0 3.673940187178589e-15 0.0
v -9.97284984588623 -0.7363866567611694 0.0
v -9.97284984588623 -0.7363866567611694 2.0
v -9.891547203063965 -1.468774676322937 0.0
v -9.756532669067383 -2.1931872367858887 0.0
v -9.756532669067383 -2.1931872367858887 2.0
v -9.891547203063965 -1.468774676322937 2.0
v -9.568540573120117 -2.9056906700134277 0.0
v -9.328590393066406 -3.6024162769317627 0.0
v -9.328590393066406 -3.6024162769317627 2.0
v -9.037985801696777 -4.279580593109131 0.0
v -8.698305130004883 -4.933506965637207 0.0
v -8.698305130004883 -4.933506965637207 2.0
v -9.037985801696777 -4.279580593109131 2.0
v -9.568540573120117 -2.9056906700134277 2.0
v -8.311391830444336 -5.560643672943115 0.0
v -7.879348278045654 -6.157586574554443 0.0
v -7.879348278045654 -6.157586574554443 2.0
v -7.404519557952881 -6.72109317779541 0.0
v -6.889483451843262 -7.248104095458984 0.0
v -6.889483451843262 -7.248104095458984 2.0
v -7.404519557952881 -6.72109317779541 2.0
v -6.337038040161133 -7.735757827758789 0.0
v -5.750181674957275 -8.181406021118164 0.0
v -5.750181674957275 -8.181406021118164 2.0
v -5.132102012634277 -8.582629203796387 0.0
v -4.486155033111572 -8.937248229980469 0.0
v -4.486155033111572 -8.937248229980469 2.0
v -5.132102012634277 -8.582629203796387 2.0
v -6.337038040161133 -7.735757827758789 2.0
v -8.311391830444336 -5.560643672943115 2.0
v -3.8158481121063232 -9.243338584899902 0.0
v -3.1248209476470947 -9.499236106872559 0.0
v -3.1248209476470947 -9.499236106872559 2.0
v -2.416826009750366 -9.703553199768066 0.0
v -1.6957074403762817 -9.855179786682129 0.0
v -1.6957074403762817 -9.855179786682129 2.0
v -2.416826009750366 -9.703553199768066 2.0
v -0.9653813242912292 -9.953292846679688 0.0
v -0.2298130989074707 -9.997359275817871 0.0
v -0.2298130989074707 -9.997359275817871 2.0
v 0.5070030093193054 -9.987138748168945 0.0
v 1.2410660982131958 -9.922688484191895 0.0
v 1.2410660982131958 -9.922688484191895 2.0
v 0.5070030093193054 -9.987138748168945 2.0
v -0.9653813242912292 -9.953292846679688 2.0
v 1.9683901071548462 -9.80435848236084 0.0
v 2.685025691986084 -9.632789611816406 0.0
v 2.685025691986084 -9.632789611816406 2.0
v 3.3870816230773926 -9.408914566040039 0.0
v 4.070745468139648 -9.133949279785156 0.0
v 4.070745468139648 -9.133949279785156 2.0
v 3.3870816230773926 -9.408914566040039 2.0
v 4.732305526733398 -8.809386253356934 0.0
v 5.368168354034424 -8.43698787689209 0.0
v 5.368168354034424 -8.43698787689209 2.0
v 5.97488260269165 -8.018776893615723 0.0
v 6.549152374267578 -7.557023525238037 0.0
v 6.549152374267578 -7.557023525238037 2.0
v 5.97488260269165 -8.018776893615723 2.0
v 4.732305526733398 -8.809386253356934 2.0
v 1.9683901071548462 -9.80435848236084 2.0
v -3.8158481121063232 -9.243338584899902 2.0
v -10.0 3.673940187178589e-15 2.0
v 7.087860584259033 -7.054234981536865 2.0
v 7.087860584259033 -7.054234981536865 0.0
v -9.97284984588623 0.7363866567611694 2.0
v 7.087860584259033 7.054234981536865 0.0
v 6.549152374267578 7.557023525238037 0.0
v 6.549152374267578 7.557023525238037 2.0
v 5.97488260269165 8.018776893615723 0.0
v 5.368168354034424 8.43698787689209 0.0
v 5.368168354034424 8.43698787689209 2.0
v 5.97488260269165 8.018776893615723 2.0
v 4.732305526733398 8.809386253356934 0.0
v 4.070745468139648 9.133949279785156 0.0
v 4.070745468139648 9.133949279785156 2.0
v 3.3870816230773926 9.408914566040039 0.0
v 2.685025691986084 9.632789611816406 0.0
v 2.685025691986084 9.632789611816406 2.0
v 3.3870816230773926 9.408914566040039 2.0
v 4.732305526733398 8.809386253356934 2.0
v 1.9683901071548462 9.80435848236084 0.0
v 1.2410660982131958 9.922688484191895 0.0
v 1.2410660982131958 9.922688484191895 2.0
v 0.5070030093193054 9.987138748168945 0.0
v -0.2298130989074707 9.997359275817871 0.0
v -0.2298130989074707 9.997359275817871 2.0
v 0.5070030093193054 9.987138748168945 2.0
v -0.9653813242912292 9.953292846679688 0.0
v -1.6957074403762817 9.855179786682129 0.0
v -1.6957074403762817 9.855179786682129 2.0
v -2.416826009750366 9.703553199768066 0.0
v -3.1248209476470947 9.499236106872559 0.0
v -3.1248209476470947 9.499236106872559 2.0
v -2.416826009750366 9.703553199768066 2.0
v -0.9653813242912292 9.953292846679688 2.0
v 1.9683901071548462 9.80435848236084 2.0
v -3.8158481121063232 9.243338584899902 0.0
v -4.486155033111572 8.937248229980469 0.0
v -4.486155033111572 8.937248229980469 2.0
v -5.132102012634277 8.582629203796387 0.0
v -5.750181674957275 8.181406021118164 0.0
v -5.750181674957275 8.181406021118164 2.0
v -5.132102012634277 8.582629203796387 2.0
v -6.337038040161133 7.735757827758789 0.0
v -6.889483451843262 7.248104095458984 0.0
v -6.889483451843262 7.248104095458984 2.0
v -7.404519557952881 6.72109317779541 0.0
v -7.879348278045654 6.157586574554443 0.0
v -7.879348278045654 6.157586574554443 2.0
v -7.404519557952881 6.72109317779541 2.0
v -6.337038040161133 7.735757827758789 2.0
v -8.311391830444336 5.560643672943115 0.0
v -8.698305130004883 4.933506965637207 0.0
v -8.698305130004883 4.933506965637207 2.0
v -9.037985801696777 4.279580593109131 0.0
v -9.328590393066406 3.6024162769317627 0.0
v -9.328590393066406 3.6024162769317627 2.0
v -9.037985801696777 4.279580593109131 2.0
v -9.568540573120117 2.9056906700134277 0.0
v -9.756532669067383 2.1931872367858887 0.0
v -9.756532669067383 2.1931872367858887 2.0
v -9.891547203063965 1.468774676322937 0.0
v -9.97284984588623 0.7363866567611694 0.0
v -9.891547203063965 1.468774676322937 2.0
v -9.568540573120117 2.9056906700134277 2.0
v -8.311391830444336 5.560643672943115 2.0
v -3.8158481121063232 9.243338584899902 2.0
v 7.087860584259033 7.054234981536865 2.0
v 1.75 3.316624879837036 0.0
v 7.087860584259033 7.054234981536865 0.0
v 7.087860584259033 7.054234981536865 2.0
v 1.75 3.316624879837036 2.0
v -7.76432466506958 0.3154844045639038 2.0
v -5.509891033172607 -1.2499998807907104 2.0
v -5.509891033172607 0.3154844045639038 2.0
v -9.037985801696777 -4.279580593109131 0.0
v -3.4747064113616943 -1.4102891683578491 0.0
v -8.698305130004883 -4.933506965637207 0.0
v -8.311391830444336 -5.560643672943115 0.0
v -7.879348278045654 -6.157586574554443 0.0
v -3.2652981281280518 -1.843997836112976 0.0
v -7.404519557952881 -6.72109317779541 0.0
v -3.00203013420105 -2.24729061126709 0.0
v -6.889483451843262 -7.248104095458984 0.0
v -9.891547203063965 -1.468774676322937 0.0
v -9.97284984588623 -0.7363866567611694 0.0
v -3.7190725803375244 -0.4806230366230011 0.0
v -9.756532669067383 -2.1931872367858887 0.0
v -9.328590393066406 -3.6024162769317627 0.0
v -9.568540573120117 -2.9056906700134277 0.0
v -3.626800775527954 -0.9533184170722961 0.0
v -6.337038040161133 -7.735757827758789 0.0
v -5.750181674957275 -8.181406021118164 0.0
v -2.6892449855804443 -2.6135151386260986 0.0
v -2.332101821899414 -2.936630964279175 0.0
v -5.132102012634277 -8.582629203796387 0.0
v -4.486155033111572 -8.937248229980469 0.0
v -1.9364917278289795 -3.211308240890503 0.0
v -3.8158481121063232 -9.243338584899902 0.0
v -1.5089398622512817 -3.433016300201416 0.0
v -3.1248209476470947 -9.499236106872559 0.0
v -3.75 1.3777276760710893e-15 0.0
v -9.891547203063965 1.468774676322937 0.0
v -3.7190725803375244 0.4806230366230011 0.0
v -9.97284984588623 0.7363866567611694 0.0
v -9.756532669067383 2.1931872367858887 0.0
v -9.568540573120117 2.9056906700134277 0.0
v -3.626800775527954 0.9533184170722961 0.0
v -9.328590393066406 3.6024162769317627 0.0
v -9.037985801696777 4.279580593109131 0.0
v -8.698305130004883 4.933506965637207 0.0
v -3.4747064113616943 1.4102891683578491 0.0
v -8.311391830444336 5.560643672943115 0.0
v -7.879348278045654 6.157586574554443 0.0
v -3.2652981281280518 1.843997836112976 0.0
v -7.404519557952881 6.72109317779541 0.0
v -6.889483451843262 7.248104095458984 0.0
v -3.00203013420105 2.24729061126709 0.0
v -10.0 3.673940187178589e-15 0.0
v -6.337038040161133 7.735757827758789 0.0
v -2.332101821899414 2.936630964279175 0.0
v -5.750181674957275 8.181406021118164 0.0
v -5.132102012634277 8.582629203796387 0.0
v -2.6892449855804443 2.6135151386260986 0.0
v -1.9364917278289795 3.211308240890503 0.0
v -4.486155033111572 8.937248229980469 0.0
v -3.8158481121063232 9.243338584899902 0.0
v -3.1248209476470947 9.499236106872559 0.0
v -1.5089398622512817 3.433016300201416 0.0
v -2.416826009750366 -9.703553199768066 0.0
v -1.6957074403762817 -9.855179786682129 0.0
v -0.5866311192512512 -3.7038309574127197 0.0
v -0.9653813242912292 -9.953292846679688 0.0
v -0.2298130989074707 -9.997359275817871 0.0
v -0.10708727687597275 -3.7484705448150635 0.0
v 0.37422293424606323 -3.73128080368042 0.0
v 0.5070030093193054 -9.987138748168945 0.0
v 1.2410660982131958 -9.922688484191895 0.0
v 0.8493605256080627 -3.652545213699341 0.0
v -1.0564987659454346 -3.5980982780456543 0.0
v 1.9683901071548462 -9.80435848236084 0.0
v 1.310488224029541 -3.5135624408721924 0.0
v 2.685025691986084 -9.632789611816406 0.0
v 4.070745468139648 -9.133949279785156 0.0
v 3.3870816230773926 -9.408914566040039 0.0
v 1.75 -3.316624879837036 0.0
v 4.732305526733398 -8.809386253356934 0.0
v 5.368168354034424 -8.43698787689209 0.0
v 5.97488260269165 -8.018776893615723 0.0
v 7.087860584259033 -7.054234981536865 0.0
v 6.549152374267578 -7.557023525238037 0.0
v -2.416826009750366 9.703553199768066 0.0
v -1.6957074403762817 9.855179786682129 0.0
v -0.5866311192512512 3.7038309574127197 0.0
v -1.0564987659454346 3.5980982780456543 0.0
v -0.9653813242912292 9.953292846679688 0.0
v 0.5070030093193054 9.987138748168945 0.0
v -0.10708727687597275 3.7484705448150635 0.0
v -0.2298130989074707 9.997359275817871 0.0
v 0.37422293424606323 3.73128080368042 0.0
v 1.2410660982131958 9.922688484191895 0.0
v 1.75 3.316624879837036 0.0
v 1.310488224029541 3.5135624408721924 0.0
v 3.3870816230773926 9.408914566040039 0.0
v 0.8493605256080627 3.652545213699341 0.0
v 1.9683901071548462 9.80435848236084 0.0
v 5.97488260269165 8.018776893615723 0.0
v 6.549152374267578 7.557023525238037 0.0
v 7.087860584259033 7.054234981536865 0.0
v 5.368168354034424 8.43698787689209 0.0
v 2.685025691986084 9.632789611816406 0.0
v 4.070745468139648 9.133949279785156 0.0
v 4.732305526733398 8.809386253356934 0.0
usemtl Diffuse
f 1 2 3
f 3 4 1
f 5 6 7
f 7 8 5
f 9 10 11
f 11 12 9
f 13 14 15
f 15 16 13
f 17 18 19
f 19 20 17
f 21 22 23
f 23 24 21
f 25 26 27
f 27 28 25
f 29 30 31
f 31 32 29
f 33 34 35
f 35 36 33
f 37 38 39
f 39 40 37
f 41 42 43
f 43 44 41
f 45 46 47
f 47 48 45
f 49 50 51
f 51 52 49
f 53 54 55
f 55 56 53
f 57 58 59
f 60 57 61
f 62 63 64
f 65 66 67
f 60 65 68
f 65 61 66
f 69 58 70
f 64 70 58
f 57 62 64
f 59 61 57
f 65 71 68
f 57 60 62
f 63 72 64
f 59 58 69
f 64 72 70
f 61 65 60
f 73 74 75
f 73 76 74
f 77 74 78
f 74 76 78
f 79 74 77
f 80 81 82
f 80 83 81
f 84 85 74
f 74 86 84
f 86 81 83
f 75 74 85
f 79 87 88
f 79 88 74
f 89 90 88
f 91 88 87
f 92 93 94
f 95 94 93
f 95 91 87
f 96 92 97
f 98 99 100
f 99 98 101
f 102 100 99
f 100 102 103
f 104 88 105
f 101 98 88
f 101 88 104
f 88 90 105
f 86 74 81
f 106 107 108
f 107 106 109
f 108 107 110
f 107 109 81
f 111 107 112
f 110 107 111
f 109 82 81
f 111 112 113
f 113 112 114
f 114 112 115
f 115 112 116
f 112 117 116
f 117 112 118
f 119 118 112
f 103 120 121
f 120 122 121
f 123 121 119
f 122 119 121
f 124 125 126
f 127 128 125
f 124 126 129
f 130 119 122
f 131 132 129
f 133 119 130
f 119 128 127
f 118 119 127
f 112 107 134
f 135 97 136
f 120 103 102
f 137 138 139
f 140 141 137
f 142 143 144
f 143 142 145
f 145 142 140
f 142 141 140
f 89 88 91
f 91 95 93
f 141 138 137
f 96 97 135
f 138 135 139
f 92 96 93
f 135 136 139
f 146 144 147
f 148 146 147
f 149 150 151
f 151 152 153
f 148 150 149
f 154 153 152
f 146 148 149
f 149 151 153
f 155 153 156
f 157 153 155
f 156 153 158
f 158 153 154
f 147 144 143
f 131 129 126
f 126 125 128
f 159 160 132
f 161 162 163
f 159 161 164
f 159 132 131
f 161 163 164
f 164 160 159
f 165 166 167
f 165 168 166
f 166 169 167
f 168 163 162
f 168 162 166
f 119 133 128
f 170 171 172
f 173 174 171
f 175 176 172
f 177 172 176
f 172 178 175
f 177 179 172
f 174 173 180
f 167 169 180
f 181 170 172
f 182 171 170
f 182 173 171
f 179 181 172
f 180 169 174
f 183 184 185
f 186 187 188
f 183 188 184
f 189 190 191
f 192 193 194
f 195 194 190
f 196 191 187
f 197 198 199
f 200 201 202
f 200 202 198
f 203 204 205
f 206 207 208
f 209 208 204
f 210 205 201
f 192 199 193
f 183 185 211
f 196 187 186
f 183 186 188
f 212 190 189
f 192 194 195
f 212 195 190
f 196 189 191
f 197 199 213
f 200 210 201
f 198 197 200
f 213 199 192
f 203 205 210
f 206 208 209
f 214 207 206
f 203 209 204
f 214 215 216
f 216 207 214
f 217 211 185
f 218 219 220
f 221 222 223
f 224 223 219
f 225 226 227
f 228 229 230
f 231 230 226
f 225 227 222
f 232 233 234
f 235 236 237
f 238 237 233
f 239 240 241
f 242 243 244
f 239 244 240
f 245 241 236
f 246 234 229
f 219 218 224
f 218 220 247
f 222 221 225
f 230 231 248
f 231 226 225
f 221 223 224
f 229 228 246
f 233 232 238
f 232 234 246
f 236 235 245
f 244 239 242
f 243 242 217
f 239 241 245
f 235 237 238
f 228 230 248
f 217 185 243
f 249 250 251
f 251 252 249
f 253 254 255
f 256 257 258
f 254 256 259
f 260 261 262
f 263 264 265
f 261 263 266
f 257 260 267
f 268 269 270
f 271 272 273
f 269 271 274
f 275 276 277
f 278 279 280
f 276 278 281
f 272 275 282
f 264 268 283
f 284 285 286
f 287 288 289
f 285 287 290
f 291 292 293
f 294 295 296
f 292 294 297
f 288 291 298
f 299 300 301
f 302 303 304
f 300 302 305
f 306 307 308
f 309 310 311
f 307 309 312
f 303 306 313
f 295 299 314
f 279 284 315
f 316 253 255
f 259 256 258
f 254 259 255
f 267 260 262
f 266 263 265
f 261 266 262
f 257 267 258
f 283 268 270
f 274 271 273
f 269 274 270
f 282 275 277
f 281 278 280
f 276 281 277
f 272 282 273
f 264 283 265
f 315 284 286
f 290 287 289
f 285 290 286
f 291 293 298
f 298 289 288
f 293 292 297
f 296 297 294
f 280 279 315
f 296 295 314
f 301 300 305
f 299 301 314
f 304 303 313
f 308 307 312
f 312 309 311
f 306 308 313
f 302 304 305
f 317 311 310
f 318 317 310
f 253 316 319
f 320 321 322
f 323 324 325
f 321 323 326
f 327 328 329
f 330 331 332
f 328 330 333
f 324 327 334
f 335 336 337
f 338 339 340
f 336 338 341
f 342 343 344
f 345 346 347
f 343 345 348
f 339 342 349
f 331 335 350
f 351 352 353
f 354 355 356
f 352 354 357
f 358 359 360
f 361 362 363
f 359 361 364
f 355 358 365
f 366 367 368
f 369 370 371
f 367 369 372
f 373 374 375
f 376 377 319
f 374 376 378
f 370 373 379
f 362 366 380
f 346 351 381
f 326 322 321
f 382 320 322
f 334 325 324
f 333 329 328
f 334 327 329
f 326 323 325
f 350 332 331
f 341 337 336
f 350 335 337
f 349 340 339
f 348 344 343
f 349 342 344
f 341 338 340
f 333 330 332
f 381 347 346
f 357 353 352
f 381 351 353
f 365 356 355
f 364 360 359
f 365 358 360
f 357 354 356
f 380 363 362
f 372 368 367
f 380 366 368
f 379 371 370
f 378 375 374
f 319 378 376
f 379 373 375
f 372 369 371
f 364 361 363
f 348 345 347
f 377 253 319
f 383 384 385
f 385 386 383
f 387 388 389
f 390 391 392
f 391 393 392
f 394 395 396
f 394 393 395
f 396 397 398
f 399 400 401
f 399 401 402
f 403 404 405
f 401 404 402
f 403 405 390
f 397 406 398
f 407 408 409
f 409 410 407
f 411 412 413
f 411 410 409
f 413 414 415
f 405 404 401
f 391 390 405
f 397 396 395
f 408 406 397
f 391 395 393
f 408 407 406
f 416 401 400
f 417 418 419
f 418 417 420
f 421 418 420
f 422 421 423
f 424 422 423
f 425 426 424
f 427 426 425
f 427 428 429
f 430 429 428
f 431 432 430
f 416 433 419
f 422 424 426
f 418 421 422
f 431 434 432
f 429 430 432
f 426 427 429
f 435 436 437
f 434 436 438
f 439 440 441
f 440 435 437
f 441 442 443
f 435 438 436
f 438 432 434
f 416 419 418
f 416 400 433
f 444 415 414
f 445 446 447
f 448 447 449
f 450 451 449
f 448 449 451
f 452 450 453
f 449 447 446
f 412 411 409
f 414 413 412
f 445 454 446
f 414 454 444
f 452 451 450
f 444 454 445
f 455 453 456
f 455 456 457
f 458 459 460
f 456 459 457
f 461 458 460
f 456 460 459
f 462 461 460
f 463 462 460
f 460 464 465
f 463 460 465
f 452 453 455
f 442 466 443
f 439 441 443
f 467 468 469
f 466 469 443
f 467 470 468
f 469 466 467
f 471 472 473
f 470 473 472
f 474 472 471
f 468 470 472
f 471 475 474
f 439 435 440
f 476 477 478
f 477 479 480
f 481 482 476
f 483 476 482
f 476 484 481
f 480 485 477
f 479 475 480
f 476 486 487
f 486 476 478
f 477 485 478
f 476 487 484
f 474 475 479
