mtllib Corpo3_Mesh.mtl
v 41.25 -1.7309004068374634 0.5
v 41.25 -1.7309004068374634 1.5
v 41.25 0.0 1.5
v 41.25 0.0 0.5
v 40.327423095703125 -0.6190313696861267 0.5
v 40.65995788574219 -0.8782400488853455 1.5
v 40.327423095703125 -0.6190313696861267 1.5
v 40.65995788574219 -0.8782400488853455 0.5
v 39.698158264160156 0.09038209915161133 0.5
v 40.327423095703125 -0.6190313696861267 1.5
v 39.698158264160156 0.09038209915161133 1.5
v 40.327423095703125 -0.6190313696861267 0.5
v 38.818214416503906 1.0368350744247437 0.5
v 39.27333068847656 0.5778472423553467 0.5
v 38.818214416503906 1.0368350744247437 1.5
v 39.27333068847656 0.5778472423553467 1.5
v 39.698158264160156 0.09038209915161133 0.5
v 39.698158264160156 0.09038209915161133 1.5
v 38.207706451416016 1.4444068670272827 0.5
v 38.529197692871094 1.265276551246643 0.5
v 38.207706451416016 1.4444068670272827 1.5
v 38.529197692871094 1.265276551246643 1.5
v 38.818214416503906 1.0368350744247437 0.5
v 38.818214416503906 1.0368350744247437 1.5
v 37.61766815185547 1.5671896934509277 0.5
v 37.918880462646484 1.5357401371002197 0.5
v 37.61766815185547 1.5671896934509277 1.5
v 37.918880462646484 1.5357401371002197 1.5
v 38.207706451416016 1.4444068670272827 0.5
v 38.207706451416016 1.4444068670272827 1.5
v 36.84479904174805 1.325541377067566 0.5
v 36.84479904174805 1.325541377067566 1.5
v 36.62858200073242 1.1476808786392212 1.5
v 36.62858200073242 1.1476808786392212 0.5
v 37.07802200317383 1.4634368419647217 0.5
v 37.07802200317383 1.4634368419647217 1.5
v 37.33943176269531 1.5350830554962158 0.5
v 37.33943176269531 1.5350830554962158 1.5
v 37.61766815185547 1.5671896934509277 0.5
v 37.61766815185547 1.5671896934509277 1.5
v 36.253448486328125 0.32090625166893005 0.5
v 36.253448486328125 0.32090625166893005 1.5
v 36.22953414916992 0.008526742458343506 1.5
v 36.22953414916992 0.008526742458343506 0.5
v 36.31704330444336 0.6188504695892334 0.5
v 36.31704330444336 0.6188504695892334 1.5
v 36.450435638427734 0.8914057016372681 0.5
v 36.450435638427734 0.8914057016372681 1.5
v 36.62858200073242 1.1476808786392212 0.5
v 36.62858200073242 1.1476808786392212 1.5
v 36.433624267578125 -0.8682000041007996 0.5
v 36.433624267578125 -0.8682000041007996 1.5
v 36.59959030151367 -1.1272168159484863 1.5
v 36.59959030151367 -1.1272168159484863 0.5
v 36.309757232666016 -0.5949016213417053 0.5
v 36.309757232666016 -0.5949016213417053 1.5
v 36.25115966796875 -0.29945898056030273 0.5
v 36.25115966796875 -0.29945898056030273 1.5
v 36.22953414916992 0.008526742458343506 0.5
v 36.22953414916992 0.008526742458343506 1.5
v 37.373191833496094 -1.5643600225448608 0.5
v 37.373191833496094 -1.5643600225448608 1.5
v 37.6756477355957 -1.6149386167526245 1.5
v 37.6756477355957 -1.6149386167526245 0.5
v 37.08818435668945 -1.4765504598617554 0.5
v 37.08818435668945 -1.4765504598617554 1.5
v 36.83396911621094 -1.323048710823059 0.5
v 36.83396911621094 -1.323048710823059 1.5
v 36.59959030151367 -1.1272168159484863 0.5
v 36.59959030151367 -1.1272168159484863 1.5
v 37.6756477355957 -1.6149386167526245 0.5
v 37.6756477355957 -1.6149386167526245 1.5
v 37.74045181274414 -0.9839699268341064 1.5
v 37.74045181274414 -0.9839699268341064 0.5
v 37.16816711425781 -0.8338614106178284 0.5
v 37.16816711425781 -0.8338614106178284 1.5
v 37.00374984741211 -0.7145293354988098 1.5
v 37.00374984741211 -0.7145293354988098 0.5
v 37.3438835144043 -0.9234705567359924 0.5
v 37.3438835144043 -0.9234705567359924 1.5
v 37.74045181274414 -0.9839699268341064 0.5
v 37.74045181274414 -0.9839699268341064 1.5
v 37.53717803955078 -0.9668428301811218 1.5
v 37.53717803955078 -0.9668428301811218 0.5
v 36.75482940673828 -0.20152966678142548 0.5
v 36.75482940673828 -0.20152966678142548 1.5
v 36.73772048950195 -0.005115866661071777 1.5
v 36.73772048950195 -0.005115866661071777 0.5
v 36.798030853271484 -0.38787591457366943 0.5
v 36.798030853271484 -0.38787591457366943 1.5
v 36.88658905029297 -0.5567204356193542 0.5
v 36.88658905029297 -0.5567204356193542 1.5
v 37.00374984741211 -0.7145293354988098 0.5
v 37.00374984741211 -0.7145293354988098 1.5
v 36.87849807739258 0.5230473279953003 0.5
v 36.87849807739258 0.5230473279953003 1.5
v 36.9884033203125 0.6753069162368774 1.5
v 36.9884033203125 0.6753069162368774 0.5
v 36.795166015625 0.36074817180633545 0.5
v 36.73772048950195 -0.005115866661071777 0.5
v 36.73772048950195 -0.005115866661071777 1.5
v 36.795166015625 0.36074817180633545 1.5
v 37.60402297973633 0.936221182346344 0.5
v 37.268394470214844 0.8713085055351257 0.5
v 37.60402297973633 0.936221182346344 1.5
v 37.268394470214844 0.8713085055351257 1.5
v 36.9884033203125 0.6753069162368774 0.5
v 36.9884033203125 0.6753069162368774 1.5
v 38.342430114746094 0.6497272849082947 0.5
v 37.9952507019043 0.8522045016288757 1.5
v 38.342430114746094 0.6497272849082947 1.5
v 37.9952507019043 0.8522045016288757 0.5
v 37.60402297973633 0.936221182346344 1.5
v 37.60402297973633 0.936221182346344 0.5
v 38.902164459228516 0.1285901665687561 0.5
v 38.902164459228516 0.1285901665687561 1.5
v 39.401432037353516 -0.4519098997116089 1.5
v 39.401432037353516 -0.4519098997116089 0.5
v 38.342430114746094 0.6497272849082947 1.5
v 38.342430114746094 0.6497272849082947 0.5
v 40.15859603881836 -1.2551158666610718 0.5
v 39.76266098022461 -0.8700340390205383 0.5
v 40.15859603881836 -1.2551158666610718 1.5
v 39.76266098022461 -0.8700340390205383 1.5
v 39.401432037353516 -0.4519098997116089 0.5
v 39.401432037353516 -0.4519098997116089 1.5
v 40.82366943359375 -1.6592768430709839 0.5
v 40.473697662353516 -1.4861401319503784 0.5
v 40.82366943359375 -1.6592768430709839 1.5
v 40.473697662353516 -1.4861401319503784 1.5
v 40.15859603881836 -1.2551158666610718 0.5
v 40.15859603881836 -1.2551158666610718 1.5
v 41.25 -1.7309004068374634 0.5
v 41.03322982788086 -1.7165156602859497 0.5
v 41.25 -1.7309004068374634 1.5
v 41.03322982788086 -1.7165156602859497 1.5
v 40.82366943359375 -1.6592768430709839 0.5
v 40.82366943359375 -1.6592768430709839 1.5
v 41.25 1.574011206626892 1.5
v 41.25 1.574011206626892 0.5
v 41.25 1.574011206626892 0.5
v 41.25 1.574011206626892 1.5
v 40.65995788574219 1.574011206626892 1.5
v 40.65995788574219 1.574011206626892 0.5
v 40.65995788574219 1.574011206626892 0.5
v 40.65995788574219 1.574011206626892 1.5
v 40.65995788574219 -0.8782400488853455 1.5
v 40.65995788574219 -0.8782400488853455 0.5
v 40.65995788574219 0.3478855788707733 0.5
v 41.25 1.574011206626892 0.5
v 40.65995788574219 1.574011206626892 0.5
v 39.698158264160156 0.09038209915161133 0.5
v 39.27333068847656 0.5778472423553467 0.5
v 38.902164459228516 0.1285901665687561 0.5
v 38.342430114746094 0.6497272849082947 0.5
v 39.401432037353516 -0.4519098997116089 0.5
v 38.818214416503906 1.0368350744247437 0.5
v 37.60402297973633 0.936221182346344 0.5
v 38.207706451416016 1.4444068670272827 0.5
v 37.918880462646484 1.5357401371002197 0.5
v 37.61766815185547 1.5671896934509277 0.5
v 37.9952507019043 0.8522045016288757 0.5
v 38.529197692871094 1.265276551246643 0.5
v 41.25 -1.7309004068374634 0.5
v 41.25 0.0 0.5
v 40.65995788574219 -0.8782400488853455 0.5
v 40.65995788574219 -0.26517724990844727 0.5
v 40.473697662353516 -1.4861401319503784 0.5
v 40.15859603881836 -1.2551158666610718 0.5
v 40.82366943359375 -1.6592768430709839 0.5
v 41.03322982788086 -1.7165156602859497 0.5
v 40.327423095703125 -0.6190313696861267 0.5
v 39.76266098022461 -0.8700340390205383 0.5
v 37.373191833496094 -1.5643600225448608 0.5
v 37.74045181274414 -0.9839699268341064 0.5
v 37.53717803955078 -0.9668428301811218 0.5
v 37.6756477355957 -1.6149386167526245 0.5
v 37.33943176269531 1.5350830554962158 0.5
v 37.07802200317383 1.4634368419647217 0.5
v 37.268394470214844 0.8713085055351257 0.5
v 36.84479904174805 1.325541377067566 0.5
v 36.62858200073242 1.1476808786392212 0.5
v 36.9884033203125 0.6753069162368774 0.5
v 36.31704330444336 0.6188504695892334 0.5
v 36.87849807739258 0.5230473279953003 0.5
v 36.450435638427734 0.8914057016372681 0.5
v 36.795166015625 0.36074817180633545 0.5
v 36.73772048950195 -0.005115866661071777 0.5
v 36.253448486328125 0.32090625166893005 0.5
v 36.22953414916992 0.008526742458343506 0.5
v 36.75482940673828 -0.20152966678142548 0.5
v 36.59959030151367 -1.1272168159484863 0.5
v 37.16816711425781 -0.8338614106178284 0.5
v 37.00374984741211 -0.7145293354988098 0.5
v 36.83396911621094 -1.323048710823059 0.5
v 37.3438835144043 -0.9234705567359924 0.5
v 37.08818435668945 -1.4765504598617554 0.5
v 36.88658905029297 -0.5567204356193542 0.5
v 36.433624267578125 -0.8682000041007996 0.5
v 36.798030853271484 -0.38787591457366943 0.5
v 36.25115966796875 -0.29945898056030273 0.5
v 36.309757232666016 -0.5949016213417053 0.5
v 36.83396911621094 -1.323048710823059 1.5
v 35.24346923828125 -2.1931872367858887 1.5
v 35.431461334228516 -2.9056906700134277 1.5
v 36.59959030151367 -1.1272168159484863 1.5
v 35.10845184326172 -1.468774676322937 1.5
v 37.08818435668945 -1.4765504598617554 1.5
v 37.6756477355957 -1.6149386167526245 1.5
v 35.962013244628906 -4.279580593109131 1.5
v 36.30169677734375 -4.933506965637207 1.5
v 37.373191833496094 -1.5643600225448608 1.5
v 35.671409606933594 -3.6024162769317627 1.5
v 36.433624267578125 -0.8682000041007996 1.5
v 35.02714920043945 -0.7363866567611694 1.5
v 36.309757232666016 -0.5949016213417053 1.5
v 36.25115966796875 -0.29945898056030273 1.5
v 36.22953414916992 0.008526742458343506 1.5
v 35.0 1.2246467996456087e-15 1.5
v 36.75482940673828 -0.20152966678142548 1.5
v 36.798030853271484 -0.38787591457366943 1.5
v 36.88658905029297 -0.5567204356193542 1.5
v 36.73772048950195 -0.005115866661071777 1.5
v 37.16816711425781 -0.8338614106178284 1.5
v 36.68860626220703 -5.560643672943115 1.5
v 37.12065124511719 -6.157586574554443 1.5
v 40.473697662353516 -1.4861401319503784 1.5
v 37.595481872558594 -6.72109317779541 1.5
v 42.31075668334961 -2.6135151386260986 1.5
v 38.6629638671875 -7.735757827758789 1.5
v 39.24981689453125 -8.181406021118164 1.5
v 40.82366943359375 -1.6592768430709839 1.5
v 38.11051559448242 -7.248104095458984 1.5
v 39.867897033691406 -8.582629203796387 1.5
v 42.66789627075195 -2.936630964279175 1.5
v 40.15859603881836 -1.2551158666610718 1.5
v 37.60402297973633 0.936221182346344 1.5
v 37.3438835144043 -0.9234705567359924 1.5
v 37.268394470214844 0.8713085055351257 1.5
v 37.53717803955078 -0.9668428301811218 1.5
v 39.76266098022461 -0.8700340390205383 1.5
v 39.401432037353516 -0.4519098997116089 1.5
v 37.74045181274414 -0.9839699268341064 1.5
v 37.9952507019043 0.8522045016288757 1.5
v 37.00374984741211 -0.7145293354988098 1.5
v 39.698158264160156 0.09038209915161133 1.5
v 40.65995788574219 -0.26517724990844727 1.5
v 40.65995788574219 0.3478855788707733 1.5
v 38.902164459228516 0.1285901665687561 1.5
v 36.253448486328125 0.32090625166893005 1.5
v 35.02714920043945 0.7363866567611694 1.5
v 35.10845184326172 1.468774676322937 1.5
v 36.31704330444336 0.6188504695892334 1.5
v 36.9884033203125 0.6753069162368774 1.5
v 36.87849807739258 0.5230473279953003 1.5
v 36.450435638427734 0.8914057016372681 1.5
v 36.795166015625 0.36074817180633545 1.5
v 36.62858200073242 1.1476808786392212 1.5
v 41.28092575073242 -0.4806230366230011 1.5
v 41.25 0.0 1.5
v 41.25 -0.43272510170936584 1.5
v 35.431461334228516 2.9056906700134277 1.5
v 35.24346923828125 2.1931872367858887 1.5
v 36.84479904174805 1.325541377067566 1.5
v 37.07802200317383 1.4634368419647217 1.5
v 35.671409606933594 3.6024162769317627 1.5
v 37.33943176269531 1.5350830554962158 1.5
v 35.962013244628906 4.279580593109131 1.5
v 37.61766815185547 1.5671896934509277 1.5
v 36.30169677734375 4.933506965637207 1.5
v 36.68860626220703 5.560643672943115 1.5
v 37.918880462646484 1.5357401371002197 1.5
v 40.65995788574219 1.574011206626892 1.5
v 41.52529525756836 -1.4102891683578491 1.5
v 41.25 -1.29817533493042 1.5
v 41.25 -1.7309004068374634 1.5
v 41.25 -0.8654502034187317 1.5
v 38.342430114746094 0.6497272849082947 1.5
v 38.529197692871094 1.265276551246643 1.5
v 38.818214416503906 1.0368350744247437 1.5
v 38.207706451416016 1.4444068670272827 1.5
v 39.27333068847656 0.5778472423553467 1.5
v 37.12065124511719 6.157586574554443 1.5
v 37.595481872558594 6.72109317779541 1.5
v 38.11051559448242 7.248104095458984 1.5
v 38.6629638671875 7.735757827758789 1.5
v 42.31075668334961 2.6135151386260986 1.5
v 39.24981689453125 8.181406021118164 1.5
v 41.28092575073242 0.4806230366230011 1.5
v 41.25 0.393502801656723 1.5
v 42.66789627075195 2.936630964279175 1.5
v 39.867897033691406 8.582629203796387 1.5
v 41.25 0.787005603313446 1.5
v 41.373199462890625 0.9533184170722961 1.5
v 41.25 1.574011206626892 1.5
v 40.65995788574219 -0.8782400488853455 1.5
v 40.327423095703125 -0.6190313696861267 1.5
v 41.373199462890625 -0.9533184170722961 1.5
v 43.491058349609375 -3.433016300201416 1.5
v 41.18415069580078 -9.243338584899902 1.5
v 41.875179290771484 -9.499236106872559 1.5
v 43.063507080078125 -3.211308240890503 1.5
v 40.51384353637695 -8.937248229980469 1.5
v 42.58317565917969 -9.703553199768066 1.5
v 43.94350051879883 -3.5980982780456543 1.5
v 43.304290771484375 -9.855179786682129 1.5
v 44.413368225097656 -3.7038309574127197 1.5
v 41.03322982788086 -1.7165156602859497 1.5
v 41.99797058105469 -2.24729061126709 1.5
v 41.734703063964844 -1.843997836112976 1.5
v 45.50700378417969 -9.987138748168945 1.5
v 44.892913818359375 -3.7484705448150635 1.5
v 44.77018737792969 -9.997359275817871 1.5
v 46.241065979003906 -9.922688484191895 1.5
v 45.37422180175781 -3.73128080368042 1.5
v 44.03461837768555 -9.953292846679688 1.5
v 46.310489654541016 -3.5135624408721924 1.5
v 46.96839141845703 -9.80435848236084 1.5
v 47.68502426147461 -9.632789611816406 1.5
v 46.75 -3.316624879837036 1.5
v 48.387081146240234 -9.408914566040039 1.5
v 49.07074737548828 -9.133949279785156 1.5
v 45.849361419677734 -3.652545213699341 1.5
v 49.732303619384766 -8.809386253356934 1.5
v 50.368167877197266 -8.43698787689209 1.5
v 50.974884033203125 -8.018776893615723 1.5
v 51.54915237426758 -7.557023525238037 1.5
v 52.087860107421875 -7.054234981536865 1.5
v 41.99797058105469 2.24729061126709 1.5
v 41.734703063964844 1.843997836112976 1.5
v 41.52529525756836 1.4102891683578491 1.5
v 41.18415069580078 9.243338584899902 1.5
v 40.51384353637695 8.937248229980469 1.5
v 43.063507080078125 3.211308240890503 1.5
v 43.491058349609375 3.433016300201416 1.5
v 41.875179290771484 9.499236106872559 1.5
v 42.58317565917969 9.703553199768066 1.5
v 43.94350051879883 3.5980982780456543 1.5
v 43.304290771484375 9.855179786682129 1.5
v 44.413368225097656 3.7038309574127197 1.5
v 45.50700378417969 9.987138748168945 1.5
v 44.892913818359375 3.7484705448150635 1.5
v 45.37422180175781 3.73128080368042 1.5
v 45.849361419677734 3.652545213699341 1.5
v 46.241065979003906 9.922688484191895 1.5
v 44.03461837768555 9.953292846679688 1.5
v 48.387081146240234 9.408914566040039 1.5
v 46.310489654541016 3.5135624408721924 1.5
v 46.75 3.316624879837036 1.5
v 51.54915237426758 7.557023525238037 1.5
v 50.974884033203125 8.018776893615723 1.5
v 52.087860107421875 7.054234981536865 1.5
v 46.96839141845703 9.80435848236084 1.5
v 50.368167877197266 8.43698787689209 1.5
v 44.77018737792969 9.997359275817871 1.5
v 49.732303619384766 8.809386253356934 1.5
v 49.07074737548828 9.133949279785156 1.5
v 47.68502426147461 9.632789611816406 1.5
v 41.25 0.0 0.5
v 41.28092575073242 -0.4806230366230011 0.0
v 41.25 1.3777276760710893e-15 0.0
v 41.52529525756836 -1.4102891683578491 1.5
v 41.52529525756836 -1.4102891683578491 0.0
v 41.373199462890625 -0.9533184170722961 0.0
v 41.99797058105469 -2.24729061126709 1.5
v 41.99797058105469 -2.24729061126709 0.0
v 41.734703063964844 -1.843997836112976 0.0
v 42.66789627075195 -2.936630964279175 1.5
v 42.66789627075195 -2.936630964279175 0.0
v 42.31075668334961 -2.6135151386260986 0.0
v 42.31075668334961 -2.6135151386260986 1.5
v 41.734703063964844 -1.843997836112976 1.5
v 43.491058349609375 -3.433016300201416 1.5
v 43.491058349609375 -3.433016300201416 0.0
v 43.063507080078125 -3.211308240890503 0.0
v 44.413368225097656 -3.7038309574127197 1.5
v 44.413368225097656 -3.7038309574127197 0.0
v 43.94350051879883 -3.5980982780456543 0.0
v 43.94350051879883 -3.5980982780456543 1.5
v 45.37422180175781 -3.73128080368042 1.5
v 45.37422180175781 -3.73128080368042 0.0
v 44.892913818359375 -3.7484705448150635 0.0
v 46.310489654541016 -3.5135624408721924 1.5
v 46.310489654541016 -3.5135624408721924 0.0
v 45.849361419677734 -3.652545213699341 0.0
v 45.849361419677734 -3.652545213699341 1.5
v 44.892913818359375 -3.7484705448150635 1.5
v 43.063507080078125 -3.211308240890503 1.5
v 41.28092575073242 0.4806230366230011 1.5
v 41.25 0.0 1.5
v 41.28092575073242 -0.4806230366230011 1.5
v 41.373199462890625 -0.9533184170722961 1.5
v 46.75 -3.316624879837036 1.5
v 46.75 -3.316624879837036 0.0
v 41.28092575073242 0.4806230366230011 0.0
v 45.849361419677734 3.652545213699341 1.5
v 45.849361419677734 3.652545213699341 0.0
v 46.310489654541016 3.5135624408721924 0.0
v 46.310489654541016 3.5135624408721924 1.5
v 46.75 3.316624879837036 0.0
v 44.892913818359375 3.7484705448150635 1.5
v 44.892913818359375 3.7484705448150635 0.0
v 45.37422180175781 3.73128080368042 0.0
v 43.94350051879883 3.5980982780456543 1.5
v 43.94350051879883 3.5980982780456543 0.0
v 44.413368225097656 3.7038309574127197 0.0
v 44.413368225097656 3.7038309574127197 1.5
v 45.37422180175781 3.73128080368042 1.5
v 43.063507080078125 3.211308240890503 1.5
v 43.063507080078125 3.211308240890503 0.0
v 43.491058349609375 3.433016300201416 0.0
v 42.66789627075195 2.936630964279175 1.5
v 42.31075668334961 2.6135151386260986 0.0
v 42.66789627075195 2.936630964279175 0.0
v 41.734703063964844 1.843997836112976 1.5
v 41.734703063964844 1.843997836112976 0.0
v 41.99797058105469 2.24729061126709 0.0
v 41.52529525756836 1.4102891683578491 1.5
v 41.373199462890625 0.9533184170722961 0.0
v 41.52529525756836 1.4102891683578491 0.0
v 41.373199462890625 0.9533184170722961 1.5
v 41.99797058105469 2.24729061126709 1.5
v 43.491058349609375 3.433016300201416 1.5
v 46.75 3.316624879837036 1.5
v 42.31075668334961 2.6135151386260986 1.5
v 52.087860107421875 -7.054234981536865 0.0
v 46.75 -3.316624879837036 0.0
v 46.75 -3.316624879837036 1.5
v 52.087860107421875 -7.054234981536865 1.5
v 35.0 3.673940187178589e-15 0.0
v 35.02714920043945 -0.7363866567611694 0.0
v 35.02714920043945 -0.7363866567611694 1.5
v 35.10845184326172 -1.468774676322937 0.0
v 35.24346923828125 -2.1931872367858887 0.0
v 35.24346923828125 -2.1931872367858887 1.5
v 35.10845184326172 -1.468774676322937 1.5
v 35.431461334228516 -2.9056906700134277 0.0
v 35.671409606933594 -3.6024162769317627 0.0
v 35.671409606933594 -3.6024162769317627 1.5
v 35.962013244628906 -4.279580593109131 0.0
v 36.30169677734375 -4.933506965637207 0.0
v 36.30169677734375 -4.933506965637207 1.5
v 35.962013244628906 -4.279580593109131 1.5
v 35.431461334228516 -2.9056906700134277 1.5
v 36.68860626220703 -5.560643672943115 0.0
v 37.12065124511719 -6.157586574554443 0.0
v 37.12065124511719 -6.157586574554443 1.5
v 37.595481872558594 -6.72109317779541 0.0
v 38.11051559448242 -7.248104095458984 0.0
v 38.11051559448242 -7.248104095458984 1.5
v 37.595481872558594 -6.72109317779541 1.5
v 38.6629638671875 -7.735757827758789 0.0
v 39.24981689453125 -8.181406021118164 0.0
v 39.24981689453125 -8.181406021118164 1.5
v 39.867897033691406 -8.582629203796387 0.0
v 40.51384353637695 -8.937248229980469 0.0
v 40.51384353637695 -8.937248229980469 1.5
v 39.867897033691406 -8.582629203796387 1.5
v 38.6629638671875 -7.735757827758789 1.5
v 36.68860626220703 -5.560643672943115 1.5
v 41.18415069580078 -9.243338584899902 0.0
v 41.875179290771484 -9.499236106872559 0.0
v 41.875179290771484 -9.499236106872559 1.5
v 42.58317565917969 -9.703553199768066 0.0
v 43.304290771484375 -9.855179786682129 0.0
v 43.304290771484375 -9.855179786682129 1.5
v 42.58317565917969 -9.703553199768066 1.5
v 44.03461837768555 -9.953292846679688 0.0
v 44.77018737792969 -9.997359275817871 0.0
v 44.77018737792969 -9.997359275817871 1.5
v 45.50700378417969 -9.987138748168945 0.0
v 46.241065979003906 -9.922688484191895 0.0
v 46.241065979003906 -9.922688484191895 1.5
v 45.50700378417969 -9.987138748168945 1.5
v 44.03461837768555 -9.953292846679688 1.5
v 46.96839141845703 -9.80435848236084 0.0
v 47.68502426147461 -9.632789611816406 0.0
v 47.68502426147461 -9.632789611816406 1.5
v 48.387081146240234 -9.408914566040039 0.0
v 49.07074737548828 -9.133949279785156 0.0
v 49.07074737548828 -9.133949279785156 1.5
v 48.387081146240234 -9.408914566040039 1.5
v 49.732303619384766 -8.809386253356934 0.0
v 50.368167877197266 -8.43698787689209 0.0
v 50.368167877197266 -8.43698787689209 1.5
v 50.974884033203125 -8.018776893615723 0.0
v 51.54915237426758 -7.557023525238037 0.0
v 51.54915237426758 -7.557023525238037 1.5
v 50.974884033203125 -8.018776893615723 1.5
v 49.732303619384766 -8.809386253356934 1.5
v 46.96839141845703 -9.80435848236084 1.5
v 41.18415069580078 -9.243338584899902 1.5
v 35.0 3.673940187178589e-15 1.5
v 52.087860107421875 -7.054234981536865 1.5
v 52.087860107421875 -7.054234981536865 0.0
v 35.02714920043945 0.7363866567611694 1.5
v 52.087860107421875 7.054234981536865 0.0
v 51.54915237426758 7.557023525238037 0.0
v 51.54915237426758 7.557023525238037 1.5
v 50.974884033203125 8.018776893615723 0.0
v 50.368167877197266 8.43698787689209 0.0
v 50.368167877197266 8.43698787689209 1.5
v 50.974884033203125 8.018776893615723 1.5
v 49.732303619384766 8.809386253356934 0.0
v 49.07074737548828 9.133949279785156 0.0
v 49.07074737548828 9.133949279785156 1.5
v 48.387081146240234 9.408914566040039 0.0
v 47.68502426147461 9.632789611816406 0.0
v 47.68502426147461 9.632789611816406 1.5
v 48.387081146240234 9.408914566040039 1.5
v 49.732303619384766 8.809386253356934 1.5
v 46.96839141845703 9.80435848236084 0.0
v 46.241065979003906 9.922688484191895 0.0
v 46.241065979003906 9.922688484191895 1.5
v 45.50700378417969 9.987138748168945 0.0
v 44.77018737792969 9.997359275817871 0.0
v 44.77018737792969 9.997359275817871 1.5
v 45.50700378417969 9.987138748168945 1.5
v 44.03461837768555 9.953292846679688 0.0
v 43.304290771484375 9.855179786682129 0.0
v 43.304290771484375 9.855179786682129 1.5
v 42.58317565917969 9.703553199768066 0.0
v 41.875179290771484 9.499236106872559 0.0
v 41.875179290771484 9.499236106872559 1.5
v 42.58317565917969 9.703553199768066 1.5
v 44.03461837768555 9.953292846679688 1.5
v 46.96839141845703 9.80435848236084 1.5
v 41.18415069580078 9.243338584899902 0.0
v 40.51384353637695 8.937248229980469 0.0
v 40.51384353637695 8.937248229980469 1.5
v 39.867897033691406 8.582629203796387 0.0
v 39.24981689453125 8.181406021118164 0.0
v 39.24981689453125 8.181406021118164 1.5
v 39.867897033691406 8.582629203796387 1.5
v 38.6629638671875 7.735757827758789 0.0
v 38.11051559448242 7.248104095458984 0.0
v 38.11051559448242 7.248104095458984 1.5
v 37.595481872558594 6.72109317779541 0.0
v 37.12065124511719 6.157586574554443 0.0
v 37.12065124511719 6.157586574554443 1.5
v 37.595481872558594 6.72109317779541 1.5
v 38.6629638671875 7.735757827758789 1.5
v 36.68860626220703 5.560643672943115 0.0
v 36.30169677734375 4.933506965637207 0.0
v 36.30169677734375 4.933506965637207 1.5
v 35.962013244628906 4.279580593109131 0.0
v 35.671409606933594 3.6024162769317627 0.0
v 35.671409606933594 3.6024162769317627 1.5
v 35.962013244628906 4.279580593109131 1.5
v 35.431461334228516 2.9056906700134277 0.0
v 35.24346923828125 2.1931872367858887 0.0
v 35.24346923828125 2.1931872367858887 1.5
v 35.10845184326172 1.468774676322937 0.0
v 35.02714920043945 0.7363866567611694 0.0
v 35.10845184326172 1.468774676322937 1.5
v 35.431461334228516 2.9056906700134277 1.5
v 36.68860626220703 5.560643672943115 1.5
v 41.18415069580078 9.243338584899902 1.5
v 52.087860107421875 7.054234981536865 1.5
v 46.75 3.316624879837036 0.0
v 52.087860107421875 7.054234981536865 0.0
v 52.087860107421875 7.054234981536865 1.5
v 46.75 3.316624879837036 1.5
v 35.962013244628906 -4.279580593109131 0.0
v 41.52529525756836 -1.4102891683578491 0.0
v 36.30169677734375 -4.933506965637207 0.0
v 36.68860626220703 -5.560643672943115 0.0
v 37.12065124511719 -6.157586574554443 0.0
v 41.734703063964844 -1.843997836112976 0.0
v 37.595481872558594 -6.72109317779541 0.0
v 41.99797058105469 -2.24729061126709 0.0
v 38.11051559448242 -7.248104095458984 0.0
v 35.10845184326172 -1.468774676322937 0.0
v 35.02714920043945 -0.7363866567611694 0.0
v 41.28092575073242 -0.4806230366230011 0.0
v 35.24346923828125 -2.1931872367858887 0.0
v 35.671409606933594 -3.6024162769317627 0.0
v 35.431461334228516 -2.9056906700134277 0.0
v 41.373199462890625 -0.9533184170722961 0.0
v 38.6629638671875 -7.735757827758789 0.0
v 39.24981689453125 -8.181406021118164 0.0
v 42.31075668334961 -2.6135151386260986 0.0
v 42.66789627075195 -2.936630964279175 0.0
v 39.867897033691406 -8.582629203796387 0.0
v 40.51384353637695 -8.937248229980469 0.0
v 43.063507080078125 -3.211308240890503 0.0
v 41.18415069580078 -9.243338584899902 0.0
v 43.491058349609375 -3.433016300201416 0.0
v 41.875179290771484 -9.499236106872559 0.0
v 41.25 1.3777276760710893e-15 0.0
v 35.10845184326172 1.468774676322937 0.0
v 41.28092575073242 0.4806230366230011 0.0
v 35.02714920043945 0.7363866567611694 0.0
v 35.24346923828125 2.1931872367858887 0.0
v 35.431461334228516 2.9056906700134277 0.0
v 41.373199462890625 0.9533184170722961 0.0
v 35.671409606933594 3.6024162769317627 0.0
v 35.962013244628906 4.279580593109131 0.0
v 36.30169677734375 4.933506965637207 0.0
v 41.52529525756836 1.4102891683578491 0.0
v 36.68860626220703 5.560643672943115 0.0
v 37.12065124511719 6.157586574554443 0.0
v 41.734703063964844 1.843997836112976 0.0
v 37.595481872558594 6.72109317779541 0.0
v 38.11051559448242 7.248104095458984 0.0
v 41.99797058105469 2.24729061126709 0.0
v 35.0 3.673940187178589e-15 0.0
v 38.6629638671875 7.735757827758789 0.0
v 42.66789627075195 2.936630964279175 0.0
v 39.24981689453125 8.181406021118164 0.0
v 39.867897033691406 8.582629203796387 0.0
v 42.31075668334961 2.6135151386260986 0.0
v 43.063507080078125 3.211308240890503 0.0
v 40.51384353637695 8.937248229980469 0.0
v 41.18415069580078 9.243338584899902 0.0
v 41.875179290771484 9.499236106872559 0.0
v 43.491058349609375 3.433016300201416 0.0
v 42.58317565917969 -9.703553199768066 0.0
v 43.304290771484375 -9.855179786682129 0.0
v 44.413368225097656 -3.7038309574127197 0.0
v 44.03461837768555 -9.953292846679688 0.0
v 44.77018737792969 -9.997359275817871 0.0
v 44.892913818359375 -3.7484705448150635 0.0
v 45.37422180175781 -3.73128080368042 0.0
v 45.50700378417969 -9.987138748168945 0.0
v 46.241065979003906 -9.922688484191895 0.0
v 45.849361419677734 -3.652545213699341 0.0
v 43.94350051879883 -3.5980982780456543 0.0
v 46.96839141845703 -9.80435848236084 0.0
v 46.310489654541016 -3.5135624408721924 0.0
v 47.68502426147461 -9.632789611816406 0.0
v 49.07074737548828 -9.133949279785156 0.0
v 48.387081146240234 -9.408914566040039 0.0
v 46.75 -3.316624879837036 0.0
v 49.732303619384766 -8.809386253356934 0.0
v 50.368167877197266 -8.43698787689209 0.0
v 50.974884033203125 -8.018776893615723 0.0
v 52.087860107421875 -7.054234981536865 0.0
v 51.54915237426758 -7.557023525238037 0.0
v 42.58317565917969 9.703553199768066 0.0
v 43.304290771484375 9.855179786682129 0.0
v 44.413368225097656 3.7038309574127197 0.0
v 43.94350051879883 3.5980982780456543 0.0
v 44.03461837768555 9.953292846679688 0.0
v 45.50700378417969 9.987138748168945 0.0
v 44.892913818359375 3.7484705448150635 0.0
v 44.77018737792969 9.997359275817871 0.0
v 45.37422180175781 3.73128080368042 0.0
v 46.241065979003906 9.922688484191895 0.0
v 46.75 3.316624879837036 0.0
v 46.310489654541016 3.5135624408721924 0.0
v 48.387081146240234 9.408914566040039 0.0
v 45.849361419677734 3.652545213699341 0.0
v 46.96839141845703 9.80435848236084 0.0
v 50.974884033203125 8.018776893615723 0.0
v 51.54915237426758 7.557023525238037 0.0
v 52.087860107421875 7.054234981536865 0.0
v 50.368167877197266 8.43698787689209 0.0
v 47.68502426147461 9.632789611816406 0.0
v 49.07074737548828 9.133949279785156 0.0
v 49.732303619384766 8.809386253356934 0.0
usemtl Diffuse_2
f 1 2 3
f 3 4 1
f 5 6 7
f 8 6 5
f 9 10 11
f 12 10 9
f 13 14 15
f 16 15 14
f 17 18 16
f 14 17 16
f 19 20 21
f 22 21 20
f 23 24 22
f 20 23 22
f 25 26 27
f 28 27 26
f 29 30 28
f 26 29 28
f 31 32 33
f 33 34 31
f 32 31 35
f 35 36 32
f 37 38 36
f 37 39 38
f 40 38 39
f 35 37 36
f 41 42 43
f 43 44 41
f 42 41 45
f 45 46 42
f 47 48 46
f 47 49 48
f 50 48 49
f 45 47 46
f 51 52 53
f 53 54 51
f 52 51 55
f 55 56 52
f 57 58 56
f 57 59 58
f 60 58 59
f 55 57 56
f 61 62 63
f 63 64 61
f 62 61 65
f 65 66 62
f 67 68 66
f 67 69 68
f 70 68 69
f 65 67 66
f 71 72 73
f 73 74 71
f 75 76 77
f 77 78 75
f 76 75 79
f 79 80 76
f 81 82 83
f 80 84 83
f 81 83 84
f 79 84 80
f 85 86 87
f 87 88 85
f 86 85 89
f 89 90 86
f 91 92 90
f 91 93 92
f 94 92 93
f 89 91 90
f 95 96 97
f 97 98 95
f 95 99 96
f 100 101 102
f 102 99 100
f 96 99 102
f 103 104 105
f 106 105 104
f 107 108 106
f 104 107 106
f 109 110 111
f 112 110 109
f 113 112 114
f 110 112 113
f 115 116 117
f 117 118 115
f 115 119 116
f 115 120 119
f 121 122 123
f 124 123 122
f 125 126 124
f 122 125 124
f 127 128 129
f 130 129 128
f 131 132 130
f 128 131 130
f 133 134 135
f 136 135 134
f 137 138 136
f 134 137 136
f 4 3 139
f 139 140 4
f 141 142 143
f 143 144 141
f 145 146 147
f 147 148 145
f 149 150 151
f 152 153 154
f 155 154 153
f 152 154 156
f 153 157 155
f 158 159 160
f 158 160 161
f 162 157 163
f 157 162 155
f 162 163 159
f 159 158 162
f 164 165 166
f 165 167 166
f 168 166 169
f 170 166 168
f 164 170 171
f 170 164 166
f 172 156 173
f 173 169 166
f 174 175 176
f 175 174 177
f 173 166 172
f 152 156 172
f 158 161 178
f 150 149 165
f 158 179 180
f 180 179 181
f 182 183 180
f 184 185 183
f 182 180 181
f 186 184 183
f 185 184 187
f 188 187 189
f 189 190 188
f 187 184 189
f 188 190 191
f 186 183 182
f 192 193 194
f 195 196 193
f 176 197 174
f 176 196 197
f 195 197 196
f 194 198 199
f 200 191 201
f 201 191 190
f 200 201 202
f 193 192 195
f 194 199 192
f 202 199 198
f 200 202 198
f 178 179 158
f 165 149 167
f 203 204 205
f 206 207 204
f 203 205 208
f 209 210 211
f 203 206 204
f 210 212 213
f 213 208 205
f 207 206 214
f 215 216 217
f 215 207 216
f 218 219 217
f 217 219 215
f 220 221 222
f 223 220 224
f 220 222 224
f 207 214 216
f 209 211 225
f 209 226 227
f 212 210 209
f 226 228 227
f 212 208 213
f 229 230 231
f 232 228 233
f 230 232 233
f 228 232 227
f 231 234 235
f 236 209 227
f 237 224 238
f 239 223 224
f 238 240 237
f 241 242 209
f 242 243 209
f 240 243 244
f 236 241 209
f 245 224 222
f 246 247 248
f 226 209 225
f 249 243 242
f 250 251 219
f 252 251 253
f 253 251 250
f 250 219 218
f 254 255 239
f 252 253 256
f 257 223 255
f 252 256 258
f 259 260 261
f 262 263 264
f 265 266 262
f 263 252 258
f 266 267 268
f 268 269 270
f 271 270 272
f 273 246 248
f 265 267 266
f 265 262 264
f 258 264 263
f 274 275 276
f 261 277 259
f 237 239 224
f 255 223 239
f 244 237 240
f 243 249 278
f 279 280 273
f 281 279 273
f 280 282 273
f 278 244 243
f 272 283 271
f 270 269 272
f 284 283 281
f 283 272 281
f 268 267 269
f 284 273 285
f 281 273 284
f 273 286 285
f 286 287 288
f 260 289 290
f 288 291 292
f 293 294 295
f 289 294 293
f 273 282 246
f 296 247 297
f 298 259 277
f 299 300 301
f 302 303 300
f 301 304 299
f 305 299 304
f 305 306 307
f 235 303 302
f 302 300 299
f 306 305 304
f 235 229 231
f 276 308 309
f 275 298 277
f 308 232 229
f 229 309 308
f 298 275 274
f 310 274 276
f 309 310 276
f 230 229 232
f 311 312 313
f 311 314 315
f 316 313 312
f 317 318 319
f 320 321 322
f 319 321 317
f 314 318 323
f 320 322 324
f 312 311 315
f 323 318 317
f 314 323 315
f 307 316 312
f 325 326 320
f 320 327 328
f 327 320 326
f 320 317 321
f 325 320 324
f 316 307 306
f 247 246 297
f 289 293 290
f 273 295 329
f 330 329 295
f 331 330 295
f 294 331 295
f 273 329 287
f 332 333 334
f 288 287 291
f 332 335 336
f 337 336 335
f 291 333 292
f 335 332 334
f 337 338 339
f 337 335 338
f 339 338 340
f 334 333 291
f 286 273 287
f 341 342 343
f 343 344 345
f 346 340 342
f 347 348 349
f 349 350 351
f 350 349 352
f 344 348 353
f 351 354 349
f 353 345 344
f 342 341 355
f 341 343 345
f 355 346 342
f 356 357 349
f 347 358 348
f 349 357 347
f 358 353 348
f 354 356 349
f 340 346 339
f 235 234 303
f 359 360 361
f 362 363 364
f 359 364 360
f 365 366 367
f 368 369 370
f 371 370 366
f 372 367 363
f 373 374 375
f 376 377 378
f 379 378 374
f 380 381 382
f 383 384 385
f 386 385 381
f 387 382 377
f 388 375 369
f 389 390 359
f 391 359 390
f 359 391 392
f 359 392 364
f 362 364 392
f 365 367 372
f 362 372 363
f 366 365 371
f 368 370 371
f 373 375 388
f 368 388 369
f 376 378 379
f 380 382 387
f 386 381 380
f 376 387 377
f 373 379 374
f 386 383 385
f 384 393 394
f 395 359 361
f 396 397 398
f 399 398 400
f 401 402 403
f 404 405 406
f 407 406 402
f 408 403 397
f 409 410 411
f 412 413 414
f 409 414 410
f 415 416 417
f 418 419 420
f 359 419 421
f 418 420 416
f 422 417 413
f 423 411 405
f 398 399 396
f 399 400 424
f 403 408 401
f 406 407 404
f 407 402 401
f 408 397 396
f 411 423 409
f 413 412 425
f 412 414 409
f 417 422 415
f 419 418 421
f 421 389 359
f 418 416 415
f 422 413 425
f 423 405 404
f 395 419 359
f 384 383 393
f 426 427 428
f 428 429 426
f 430 431 432
f 433 434 435
f 431 433 436
f 437 438 439
f 440 441 442
f 438 440 443
f 434 437 444
f 445 446 447
f 448 449 450
f 446 448 451
f 452 453 454
f 455 456 457
f 453 455 458
f 449 452 459
f 441 445 460
f 461 462 463
f 464 465 466
f 462 464 467
f 468 469 470
f 471 472 473
f 469 471 474
f 465 468 475
f 476 477 478
f 479 480 481
f 477 479 482
f 483 484 485
f 486 487 488
f 484 486 489
f 480 483 490
f 472 476 491
f 456 461 492
f 493 430 432
f 436 433 435
f 431 436 432
f 444 437 439
f 443 440 442
f 438 443 439
f 434 444 435
f 460 445 447
f 451 448 450
f 446 451 447
f 459 452 454
f 458 455 457
f 453 458 454
f 449 459 450
f 441 460 442
f 492 461 463
f 467 464 466
f 462 467 463
f 468 470 475
f 475 466 465
f 470 469 474
f 473 474 471
f 457 456 492
f 473 472 491
f 478 477 482
f 476 478 491
f 481 480 490
f 485 484 489
f 489 486 488
f 483 485 490
f 479 481 482
f 494 488 487
f 495 494 487
f 430 493 496
f 497 498 499
f 500 501 502
f 498 500 503
f 504 505 506
f 507 508 509
f 505 507 510
f 501 504 511
f 512 513 514
f 515 516 517
f 513 515 518
f 519 520 521
f 522 523 524
f 520 522 525
f 516 519 526
f 508 512 527
f 528 529 530
f 531 532 533
f 529 531 534
f 535 536 537
f 538 539 540
f 536 538 541
f 532 535 542
f 543 544 545
f 546 547 548
f 544 546 549
f 550 551 552
f 553 554 496
f 551 553 555
f 547 550 556
f 539 543 557
f 523 528 558
f 503 499 498
f 559 497 499
f 511 502 501
f 510 506 505
f 511 504 506
f 503 500 502
f 527 509 508
f 518 514 513
f 527 512 514
f 526 517 516
f 525 521 520
f 526 519 521
f 518 515 517
f 510 507 509
f 558 524 523
f 534 530 529
f 558 528 530
f 542 533 532
f 541 537 536
f 542 535 537
f 534 531 533
f 557 540 539
f 549 545 544
f 557 543 545
f 556 548 547
f 555 552 551
f 496 555 553
f 556 550 552
f 549 546 548
f 541 538 540
f 525 522 524
f 554 430 496
f 560 561 562
f 562 563 560
f 564 565 566
f 565 567 566
f 568 569 570
f 568 567 569
f 570 571 572
f 573 574 575
f 573 575 576
f 577 578 579
f 575 578 576
f 577 579 564
f 571 580 572
f 581 582 583
f 583 584 581
f 585 586 587
f 585 584 583
f 587 588 589
f 579 578 575
f 565 564 579
f 571 570 569
f 582 580 571
f 565 569 567
f 582 581 580
f 590 575 574
f 591 592 593
f 592 591 594
f 595 592 594
f 596 595 597
f 598 596 597
f 599 600 598
f 601 600 599
f 601 602 603
f 604 603 602
f 605 606 604
f 590 607 593
f 596 598 600
f 592 595 596
f 605 608 606
f 603 604 606
f 600 601 603
f 609 610 611
f 608 610 612
f 613 614 615
f 614 609 611
f 615 616 617
f 609 612 610
f 612 606 608
f 590 593 592
f 590 574 607
f 618 589 588
f 619 620 621
f 622 621 623
f 624 625 623
f 622 623 625
f 626 624 627
f 623 621 620
f 586 585 583
f 588 587 586
f 619 628 620
f 588 628 618
f 626 625 624
f 618 628 619
f 629 627 630
f 629 630 631
f 632 633 634
f 630 633 631
f 635 632 634
f 630 634 633
f 636 635 634
f 637 636 634
f 634 638 639
f 637 634 639
f 626 627 629
f 616 640 617
f 613 615 617
f 641 642 643
f 640 643 617
f 641 644 642
f 643 640 641
f 645 646 647
f 644 647 646
f 648 646 645
f 642 644 646
f 645 649 648
f 613 609 614
f 650 651 652
f 651 653 654
f 655 656 650
f 657 650 656
f 650 658 655
f 654 659 651
f 653 649 654
f 650 660 661
f 660 650 652
f 651 659 652
f 650 661 658
f 648 649 653
