mtllib Corpo4_Mesh.mtl
v 58.72953414916992 0.6599590182304382 0.0
v 58.72953414916992 0.6599590182304382 1.0
v 58.72953414916992 0.2643248438835144 1.0
v 58.72953414916992 0.2643248438835144 0.0
v 59.39802169799805 -0.28137773275375366 0.0
v 59.08914566040039 0.023099087178707123 1.0
v 59.39802169799805 -0.28137773275375366 1.0
v 59.08914566040039 0.023099087178707123 0.0
v 58.72953414916992 0.2643248438835144 1.0
v 58.72953414916992 0.2643248438835144 0.0
v 59.98465347290039 -1.181787133216858 0.0
v 59.72408676147461 -0.7101629972457886 1.0
v 59.98465347290039 -1.181787133216858 1.0
v 59.72408676147461 -0.7101629972457886 0.0
v 59.39802169799805 -0.28137773275375366 0.0
v 59.39802169799805 -0.28137773275375366 1.0
v 59.98465347290039 -1.181787133216858 0.0
v 59.98465347290039 -1.181787133216858 1.0
v 60.578102111816406 -1.181787133216858 1.0
v 60.578102111816406 -1.181787133216858 0.0
v 60.26091384887695 -0.5354705452919006 0.0
v 60.43362808227539 -0.8517584204673767 1.0
v 60.26091384887695 -0.5354705452919006 1.0
v 60.43362808227539 -0.8517584204673767 0.0
v 60.578102111816406 -1.181787133216858 0.0
v 60.578102111816406 -1.181787133216858 1.0
v 59.83799362182617 0.04604369401931763 0.0
v 60.065879821777344 -0.2326558381319046 0.0
v 59.83799362182617 0.04604369401931763 1.0
v 60.065879821777344 -0.2326558381319046 1.0
v 60.26091384887695 -0.5354705452919006 0.0
v 60.26091384887695 -0.5354705452919006 1.0
v 59.83799362182617 0.04604369401931763 0.0
v 59.83799362182617 0.04604369401931763 1.0
v 63.75 0.04604369401931763 1.0
v 63.75 0.04604369401931763 0.0
v 63.75 0.04604369401931763 0.0
v 63.75 0.04604369401931763 1.0
v 63.75 0.6599590182304382 1.0
v 63.75 0.6599590182304382 0.0
v 63.75 0.6599590182304382 0.0
v 63.75 0.6599590182304382 1.0
v 58.72953414916992 0.6599590182304382 1.0
v 58.72953414916992 0.6599590182304382 0.0
v 63.78092575073242 -0.4806230366230011 1.0
v 63.78092575073242 -0.4806230366230011 0.0
v 63.75 1.3777276760710893e-15 0.0
v 63.873199462890625 -0.9533184170722961 1.0
v 64.0252914428711 -1.4102891683578491 0.0
v 63.873199462890625 -0.9533184170722961 0.0
v 64.23470306396484 -1.843997836112976 1.0
v 64.49797058105469 -2.24729061126709 0.0
v 64.23470306396484 -1.843997836112976 0.0
v 65.16790008544922 -2.936630964279175 1.0
v 65.16790008544922 -2.936630964279175 0.0
v 64.81075286865234 -2.6135151386260986 0.0
v 64.81075286865234 -2.6135151386260986 1.0
v 64.0252914428711 -1.4102891683578491 1.0
v 65.56350708007812 -3.211308240890503 1.0
v 65.99105834960938 -3.433016300201416 0.0
v 65.56350708007812 -3.211308240890503 0.0
v 66.4435043334961 -3.5980982780456543 1.0
v 66.91336822509766 -3.7038309574127197 0.0
v 66.4435043334961 -3.5980982780456543 0.0
v 67.87422180175781 -3.73128080368042 1.0
v 67.87422180175781 -3.73128080368042 0.0
v 67.39291381835938 -3.7484705448150635 0.0
v 68.81048583984375 -3.5135624408721924 1.0
v 68.81048583984375 -3.5135624408721924 0.0
v 68.34935760498047 -3.652545213699341 0.0
v 68.34935760498047 -3.652545213699341 1.0
v 66.91336822509766 -3.7038309574127197 1.0
v 63.75 1.3777276760710893e-15 1.0
v 64.49797058105469 -2.24729061126709 1.0
v 65.99105834960938 -3.433016300201416 1.0
v 67.39291381835938 -3.7484705448150635 1.0
v 69.25 -3.316624879837036 1.0
v 69.25 -3.316624879837036 0.0
v 63.78092575073242 0.4806230366230011 0.0
v 68.81048583984375 3.5135624408721924 1.0
v 68.81048583984375 3.5135624408721924 0.0
v 69.25 3.316624879837036 0.0
v 67.87422180175781 3.73128080368042 1.0
v 67.87422180175781 3.73128080368042 0.0
v 68.34935760498047 3.652545213699341 0.0
v 68.34935760498047 3.652545213699341 1.0
v 67.39291381835938 3.7484705448150635 1.0
v 66.91336822509766 3.7038309574127197 0.0
v 67.39291381835938 3.7484705448150635 0.0
v 65.99105834960938 3.433016300201416 1.0
v 65.99105834960938 3.433016300201416 0.0
v 66.4435043334961 3.5980982780456543 0.0
v 66.91336822509766 3.7038309574127197 1.0
v 65.16790008544922 2.936630964279175 1.0
v 65.16790008544922 2.936630964279175 0.0
v 65.56350708007812 3.211308240890503 0.0
v 64.49797058105469 2.24729061126709 1.0
v 64.49797058105469 2.24729061126709 0.0
v 64.81075286865234 2.6135151386260986 0.0
v 64.81075286865234 2.6135151386260986 1.0
v 64.23470306396484 1.843997836112976 1.0
v 64.0252914428711 1.4102891683578491 0.0
v 64.23470306396484 1.843997836112976 0.0
v 63.78092575073242 0.4806230366230011 1.0
v 63.873199462890625 0.9533184170722961 0.0
v 64.0252914428711 1.4102891683578491 1.0
v 65.56350708007812 3.211308240890503 1.0
v 69.25 3.316624879837036 1.0
v 66.4435043334961 3.5980982780456543 1.0
v 63.873199462890625 0.9533184170722961 1.0
v 74.58786010742188 -7.054234981536865 0.0
v 69.25 -3.316624879837036 0.0
v 69.25 -3.316624879837036 1.0
v 74.58786010742188 -7.054234981536865 1.0
v 57.5 3.673940187178589e-15 0.0
v 57.52714920043945 -0.7363866567611694 0.0
v 57.52714920043945 -0.7363866567611694 1.0
v 57.60845184326172 -1.468774676322937 0.0
v 57.74346923828125 -2.1931872367858887 0.0
v 57.74346923828125 -2.1931872367858887 1.0
v 57.60845184326172 -1.468774676322937 1.0
v 57.931461334228516 -2.9056906700134277 0.0
v 58.171409606933594 -3.6024162769317627 0.0
v 58.171409606933594 -3.6024162769317627 1.0
v 58.462013244628906 -4.279580593109131 0.0
v 58.80169677734375 -4.933506965637207 0.0
v 58.80169677734375 -4.933506965637207 1.0
v 58.462013244628906 -4.279580593109131 1.0
v 57.931461334228516 -2.9056906700134277 1.0
v 59.18860626220703 -5.560643672943115 0.0
v 59.62065124511719 -6.157586574554443 0.0
v 59.62065124511719 -6.157586574554443 1.0
v 60.095481872558594 -6.72109317779541 0.0
v 60.61051559448242 -7.248104095458984 0.0
v 60.61051559448242 -7.248104095458984 1.0
v 60.095481872558594 -6.72109317779541 1.0
v 61.1629638671875 -7.735757827758789 0.0
v 61.74981689453125 -8.181406021118164 0.0
v 61.74981689453125 -8.181406021118164 1.0
v 62.367897033691406 -8.582629203796387 0.0
v 63.01384353637695 -8.937248229980469 0.0
v 63.01384353637695 -8.937248229980469 1.0
v 62.367897033691406 -8.582629203796387 1.0
v 61.1629638671875 -7.735757827758789 1.0
v 59.18860626220703 -5.560643672943115 1.0
v 63.68415069580078 -9.243338584899902 0.0
v 64.37517547607422 -9.499236106872559 0.0
v 64.37517547607422 -9.499236106872559 1.0
v 65.08317565917969 -9.703553199768066 0.0
v 65.80429077148438 -9.855179786682129 0.0
v 65.80429077148438 -9.855179786682129 1.0
v 65.08317565917969 -9.703553199768066 1.0
v 66.53462219238281 -9.953292846679688 0.0
v 67.27018737792969 -9.997359275817871 0.0
v 67.27018737792969 -9.997359275817871 1.0
v 68.00700378417969 -9.987138748168945 0.0
v 68.7410659790039 -9.922688484191895 0.0
v 68.7410659790039 -9.922688484191895 1.0
v 68.00700378417969 -9.987138748168945 1.0
v 66.53462219238281 -9.953292846679688 1.0
v 69.46839141845703 -9.80435848236084 0.0
v 70.18502807617188 -9.632789611816406 0.0
v 70.18502807617188 -9.632789611816406 1.0
v 70.8870849609375 -9.408914566040039 0.0
v 71.57074737548828 -9.133949279785156 0.0
v 71.57074737548828 -9.133949279785156 1.0
v 70.8870849609375 -9.408914566040039 1.0
v 72.23230743408203 -8.809386253356934 0.0
v 72.86817169189453 -8.43698787689209 0.0
v 72.86817169189453 -8.43698787689209 1.0
v 73.47488403320312 -8.018776893615723 0.0
v 74.04915618896484 -7.557023525238037 0.0
v 74.04915618896484 -7.557023525238037 1.0
v 73.47488403320312 -8.018776893615723 1.0
v 72.23230743408203 -8.809386253356934 1.0
v 69.46839141845703 -9.80435848236084 1.0
v 63.68415069580078 -9.243338584899902 1.0
v 57.5 3.673940187178589e-15 1.0
v 74.58786010742188 -7.054234981536865 1.0
v 74.58786010742188 -7.054234981536865 0.0
v 57.52714920043945 0.7363866567611694 1.0
v 74.58786010742188 7.054234981536865 0.0
v 74.04915618896484 7.557023525238037 0.0
v 74.04915618896484 7.557023525238037 1.0
v 73.47488403320312 8.018776893615723 0.0
v 72.86817169189453 8.43698787689209 0.0
v 72.86817169189453 8.43698787689209 1.0
v 73.47488403320312 8.018776893615723 1.0
v 72.23230743408203 8.809386253356934 0.0
v 71.57074737548828 9.133949279785156 0.0
v 71.57074737548828 9.133949279785156 1.0
v 70.8870849609375 9.408914566040039 0.0
v 70.18502807617188 9.632789611816406 0.0
v 70.18502807617188 9.632789611816406 1.0
v 70.8870849609375 9.408914566040039 1.0
v 72.23230743408203 8.809386253356934 1.0
v 69.46839141845703 9.80435848236084 0.0
v 68.7410659790039 9.922688484191895 0.0
v 68.7410659790039 9.922688484191895 1.0
v 68.00700378417969 9.987138748168945 0.0
v 67.27018737792969 9.997359275817871 0.0
v 67.27018737792969 9.997359275817871 1.0
v 68.00700378417969 9.987138748168945 1.0
v 66.53462219238281 9.953292846679688 0.0
v 65.80429077148438 9.855179786682129 0.0
v 65.80429077148438 9.855179786682129 1.0
v 65.08317565917969 9.703553199768066 0.0
v 64.37517547607422 9.499236106872559 0.0
v 64.37517547607422 9.499236106872559 1.0
v 65.08317565917969 9.703553199768066 1.0
v 66.53462219238281 9.953292846679688 1.0
v 69.46839141845703 9.80435848236084 1.0
v 63.68415069580078 9.243338584899902 0.0
v 63.01384353637695 8.937248229980469 0.0
v 63.01384353637695 8.937248229980469 1.0
v 62.367897033691406 8.582629203796387 0.0
v 61.74981689453125 8.181406021118164 0.0
v 61.74981689453125 8.181406021118164 1.0
v 62.367897033691406 8.582629203796387 1.0
v 61.1629638671875 7.735757827758789 0.0
v 60.61051559448242 7.248104095458984 0.0
v 60.61051559448242 7.248104095458984 1.0
v 60.095481872558594 6.72109317779541 0.0
v 59.62065124511719 6.157586574554443 0.0
v 59.62065124511719 6.157586574554443 1.0
v 60.095481872558594 6.72109317779541 1.0
v 61.1629638671875 7.735757827758789 1.0
v 59.18860626220703 5.560643672943115 0.0
v 58.80169677734375 4.933506965637207 0.0
v 58.80169677734375 4.933506965637207 1.0
v 58.462013244628906 4.279580593109131 0.0
v 58.171409606933594 3.6024162769317627 0.0
v 58.171409606933594 3.6024162769317627 1.0
v 58.462013244628906 4.279580593109131 1.0
v 57.931461334228516 2.9056906700134277 0.0
v 57.74346923828125 2.1931872367858887 0.0
v 57.74346923828125 2.1931872367858887 1.0
v 57.60845184326172 1.468774676322937 0.0
v 57.52714920043945 0.7363866567611694 0.0
v 57.60845184326172 1.468774676322937 1.0
v 57.931461334228516 2.9056906700134277 1.0
v 59.18860626220703 5.560643672943115 1.0
v 63.68415069580078 9.243338584899902 1.0
v 74.58786010742188 7.054234981536865 1.0
v 69.25 3.316624879837036 0.0
v 74.58786010742188 7.054234981536865 0.0
v 74.58786010742188 7.054234981536865 1.0
v 69.25 3.316624879837036 1.0
v 59.98465347290039 -1.181787133216858 1.0
v 57.931461334228516 -2.9056906700134277 1.0
v 58.171409606933594 -3.6024162769317627 1.0
v 58.462013244628906 -4.279580593109131 1.0
v 60.578102111816406 -1.181787133216858 1.0
v 58.80169677734375 -4.933506965637207 1.0
v 59.18860626220703 -5.560643672943115 1.0
v 57.60845184326172 -1.468774676322937 1.0
v 59.08914566040039 0.023099087178707123 1.0
v 57.52714920043945 -0.7363866567611694 1.0
v 59.72408676147461 -0.7101629972457886 1.0
v 57.74346923828125 -2.1931872367858887 1.0
v 59.39802169799805 -0.28137773275375366 1.0
v 59.62065124511719 -6.157586574554443 1.0
v 60.095481872558594 -6.72109317779541 1.0
v 64.49797058105469 -2.24729061126709 1.0
v 60.61051559448242 -7.248104095458984 1.0
v 65.16790008544922 -2.936630964279175 1.0
v 61.74981689453125 -8.181406021118164 1.0
v 62.367897033691406 -8.582629203796387 1.0
v 64.81075286865234 -2.6135151386260986 1.0
v 61.1629638671875 -7.735757827758789 1.0
v 63.01384353637695 -8.937248229980469 1.0
v 61.79399871826172 0.04604369401931763 1.0
v 60.81599426269531 0.04604369401931763 1.0
v 64.23470306396484 -1.843997836112976 1.0
v 64.0252914428711 -1.4102891683578491 1.0
v 63.78092575073242 -0.4806230366230011 1.0
v 63.873199462890625 -0.9533184170722961 1.0
v 60.43362808227539 -0.8517584204673767 1.0
v 63.68415069580078 -9.243338584899902 1.0
v 65.56350708007812 -3.211308240890503 1.0
v 63.75 0.04604369401931763 1.0
v 63.75 1.3777276760710893e-15 1.0
v 57.52714920043945 0.7363866567611694 1.0
v 58.72953414916992 0.6599590182304382 1.0
v 57.60845184326172 1.468774676322937 1.0
v 58.72953414916992 0.2643248438835144 1.0
v 57.5 3.673940187178589e-15 1.0
v 58.462013244628906 4.279580593109131 1.0
v 61.239768981933594 0.6599590182304382 1.0
v 58.80169677734375 4.933506965637207 1.0
v 64.0252914428711 1.4102891683578491 1.0
v 64.23470306396484 1.843997836112976 1.0
v 57.74346923828125 2.1931872367858887 1.0
v 57.931461334228516 2.9056906700134277 1.0
v 58.171409606933594 3.6024162769317627 1.0
v 59.18860626220703 5.560643672943115 1.0
v 59.62065124511719 6.157586574554443 1.0
v 60.26091384887695 -0.5354705452919006 1.0
v 59.83799362182617 0.04604369401931763 1.0
v 60.065879821777344 -0.2326558381319046 1.0
v 63.78092575073242 0.4806230366230011 1.0
v 63.75 0.6599590182304382 1.0
v 63.873199462890625 0.9533184170722961 1.0
v 60.095481872558594 6.72109317779541 1.0
v 64.49797058105469 2.24729061126709 1.0
v 60.61051559448242 7.248104095458984 1.0
v 61.1629638671875 7.735757827758789 1.0
v 64.81075286865234 2.6135151386260986 1.0
v 61.74981689453125 8.181406021118164 1.0
v 65.16790008544922 2.936630964279175 1.0
v 62.367897033691406 8.582629203796387 1.0
v 63.01384353637695 8.937248229980469 1.0
v 65.56350708007812 3.211308240890503 1.0
v 63.68415069580078 9.243338584899902 1.0
v 65.08317565917969 -9.703553199768066 1.0
v 65.99105834960938 -3.433016300201416 1.0
v 64.37517547607422 -9.499236106872559 1.0
v 65.80429077148438 -9.855179786682129 1.0
v 66.4435043334961 -3.5980982780456543 1.0
v 66.53462219238281 -9.953292846679688 1.0
v 67.27018737792969 -9.997359275817871 1.0
v 67.39291381835938 -3.7484705448150635 1.0
v 68.00700378417969 -9.987138748168945 1.0
v 67.87422180175781 -3.73128080368042 1.0
v 66.91336822509766 -3.7038309574127197 1.0
v 68.34935760498047 -3.652545213699341 1.0
v 68.7410659790039 -9.922688484191895 1.0
v 69.46839141845703 -9.80435848236084 1.0
v 68.81048583984375 -3.5135624408721924 1.0
v 70.18502807617188 -9.632789611816406 1.0
v 70.8870849609375 -9.408914566040039 1.0
v 71.57074737548828 -9.133949279785156 1.0
v 69.25 -3.316624879837036 1.0
v 72.23230743408203 -8.809386253356934 1.0
v 74.04915618896484 -7.557023525238037 1.0
v 73.47488403320312 -8.018776893615723 1.0
v 74.58786010742188 -7.054234981536865 1.0
v 72.86817169189453 -8.43698787689209 1.0
v 65.99105834960938 3.433016300201416 1.0
v 64.37517547607422 9.499236106872559 1.0
v 66.4435043334961 3.5980982780456543 1.0
v 66.91336822509766 3.7038309574127197 1.0
v 65.80429077148438 9.855179786682129 1.0
v 65.08317565917969 9.703553199768066 1.0
v 67.27018737792969 9.997359275817871 1.0
v 67.39291381835938 3.7484705448150635 1.0
v 68.00700378417969 9.987138748168945 1.0
v 66.53462219238281 9.953292846679688 1.0
v 67.87422180175781 3.73128080368042 1.0
v 70.8870849609375 9.408914566040039 1.0
v 68.81048583984375 3.5135624408721924 1.0
v 69.25 3.316624879837036 1.0
v 69.46839141845703 9.80435848236084 1.0
v 68.34935760498047 3.652545213699341 1.0
v 74.04915618896484 7.557023525238037 1.0
v 73.47488403320312 8.018776893615723 1.0
v 72.86817169189453 8.43698787689209 1.0
v 74.58786010742188 7.054234981536865 1.0
v 72.23230743408203 8.809386253356934 1.0
v 68.7410659790039 9.922688484191895 1.0
v 71.57074737548828 9.133949279785156 1.0
v 70.18502807617188 9.632789611816406 1.0
v 58.171409606933594 -3.6024162769317627 0.0
v 57.931461334228516 -2.9056906700134277 0.0
v 59.98465347290039 -1.181787133216858 0.0
v 58.462013244628906 -4.279580593109131 0.0
v 58.80169677734375 -4.933506965637207 0.0
v 60.578102111816406 -1.181787133216858 0.0
v 59.18860626220703 -5.560643672943115 0.0
v 57.52714920043945 -0.7363866567611694 0.0
v 59.08914566040039 0.023099087178707123 0.0
v 57.60845184326172 -1.468774676322937 0.0
v 57.74346923828125 -2.1931872367858887 0.0
v 59.72408676147461 -0.7101629972457886 0.0
v 59.39802169799805 -0.28137773275375366 0.0
v 59.62065124511719 -6.157586574554443 0.0
v 64.49797058105469 -2.24729061126709 0.0
v 60.095481872558594 -6.72109317779541 0.0
v 60.61051559448242 -7.248104095458984 0.0
v 62.367897033691406 -8.582629203796387 0.0
v 61.74981689453125 -8.181406021118164 0.0
v 65.16790008544922 -2.936630964279175 0.0
v 61.1629638671875 -7.735757827758789 0.0
v 64.81075286865234 -2.6135151386260986 0.0
v 63.01384353637695 -8.937248229980469 0.0
v 64.0252914428711 -1.4102891683578491 0.0
v 61.79399871826172 0.04604369401931763 0.0
v 60.43362808227539 -0.8517584204673767 0.0
v 64.23470306396484 -1.843997836112976 0.0
v 63.873199462890625 -0.9533184170722961 0.0
v 63.78092575073242 -0.4806230366230011 0.0
v 63.75 0.6599590182304382 0.0
v 61.239768981933594 0.6599590182304382 0.0
v 63.873199462890625 0.9533184170722961 0.0
v 65.56350708007812 -3.211308240890503 0.0
v 63.68415069580078 -9.243338584899902 0.0
v 63.75 1.3777276760710893e-15 0.0
v 57.60845184326172 1.468774676322937 0.0
v 58.72953414916992 0.6599590182304382 0.0
v 57.52714920043945 0.7363866567611694 0.0
v 57.5 3.673940187178589e-15 0.0
v 58.72953414916992 0.2643248438835144 0.0
v 60.26091384887695 -0.5354705452919006 0.0
v 60.065879821777344 -0.2326558381319046 0.0
v 57.74346923828125 2.1931872367858887 0.0
v 57.931461334228516 2.9056906700134277 0.0
v 58.171409606933594 3.6024162769317627 0.0
v 59.18860626220703 5.560643672943115 0.0
v 58.80169677734375 4.933506965637207 0.0
v 59.62065124511719 6.157586574554443 0.0
v 58.462013244628906 4.279580593109131 0.0
v 59.83799362182617 0.04604369401931763 0.0
v 63.78092575073242 0.4806230366230011 0.0
v 63.75 0.04604369401931763 0.0
v 64.0252914428711 1.4102891683578491 0.0
v 60.095481872558594 6.72109317779541 0.0
v 64.23470306396484 1.843997836112976 0.0
v 60.61051559448242 7.248104095458984 0.0
v 64.49797058105469 2.24729061126709 0.0
v 61.1629638671875 7.735757827758789 0.0
v 61.74981689453125 8.181406021118164 0.0
v 64.81075286865234 2.6135151386260986 0.0
v 62.367897033691406 8.582629203796387 0.0
v 65.16790008544922 2.936630964279175 0.0
v 63.01384353637695 8.937248229980469 0.0
v 63.68415069580078 9.243338584899902 0.0
v 65.56350708007812 3.211308240890503 0.0
v 64.37517547607422 -9.499236106872559 0.0
v 65.99105834960938 -3.433016300201416 0.0
v 65.08317565917969 -9.703553199768066 0.0
v 66.4435043334961 -3.5980982780456543 0.0
v 65.80429077148438 -9.855179786682129 0.0
v 67.39291381835938 -3.7484705448150635 0.0
v 67.27018737792969 -9.997359275817871 0.0
v 66.53462219238281 -9.953292846679688 0.0
v 67.87422180175781 -3.73128080368042 0.0
v 68.00700378417969 -9.987138748168945 0.0
v 66.91336822509766 -3.7038309574127197 0.0
v 68.7410659790039 -9.922688484191895 0.0
v 68.34935760498047 -3.652545213699341 0.0
v 69.46839141845703 -9.80435848236084 0.0
v 70.8870849609375 -9.408914566040039 0.0
v 70.18502807617188 -9.632789611816406 0.0
v 68.81048583984375 -3.5135624408721924 0.0
v 69.25 -3.316624879837036 0.0
v 71.57074737548828 -9.133949279785156 0.0
v 72.23230743408203 -8.809386253356934 0.0
v 73.47488403320312 -8.018776893615723 0.0
v 74.04915618896484 -7.557023525238037 0.0
v 74.58786010742188 -7.054234981536865 0.0
v 72.86817169189453 -8.43698787689209 0.0
v 64.37517547607422 9.499236106872559 0.0
v 65.99105834960938 3.433016300201416 0.0
v 65.80429077148438 9.855179786682129 0.0
v 66.91336822509766 3.7038309574127197 0.0
v 66.4435043334961 3.5980982780456543 0.0
v 65.08317565917969 9.703553199768066 0.0
v 68.00700378417969 9.987138748168945 0.0
v 67.39291381835938 3.7484705448150635 0.0
v 67.27018737792969 9.997359275817871 0.0
v 66.53462219238281 9.953292846679688 0.0
v 67.87422180175781 3.73128080368042 0.0
v 69.25 3.316624879837036 0.0
v 68.81048583984375 3.5135624408721924 0.0
v 70.8870849609375 9.408914566040039 0.0
v 68.34935760498047 3.652545213699341 0.0
v 69.46839141845703 9.80435848236084 0.0
v 73.47488403320312 8.018776893615723 0.0
v 74.04915618896484 7.557023525238037 0.0
v 72.86817169189453 8.43698787689209 0.0
v 74.58786010742188 7.054234981536865 0.0
v 72.23230743408203 8.809386253356934 0.0
v 68.7410659790039 9.922688484191895 0.0
v 71.57074737548828 9.133949279785156 0.0
v 70.18502807617188 9.632789611816406 0.0
usemtl Diffuse_3
f 1 2 3
f 3 4 1
f 5 6 7
f 8 6 5
f 9 8 10
f 6 8 9
f 11 12 13
f 14 12 11
f 15 16 14
f 12 14 16
f 17 18 19
f 19 20 17
f 21 22 23
f 24 22 21
f 25 26 24
f 22 24 26
f 27 28 29
f 30 29 28
f 31 32 30
f 28 31 30
f 33 34 35
f 35 36 33
f 37 38 39
f 39 40 37
f 41 42 43
f 43 44 41
f 45 46 47
f 48 49 50
f 45 50 46
f 51 52 53
f 54 55 56
f 57 56 52
f 58 53 49
f 59 60 61
f 62 63 64
f 62 64 60
f 65 66 67
f 68 69 70
f 71 70 66
f 72 67 63
f 54 61 55
f 45 47 73
f 58 49 48
f 45 48 50
f 74 52 51
f 54 56 57
f 74 57 52
f 58 51 53
f 75 60 59
f 62 72 63
f 60 75 62
f 59 61 54
f 76 67 72
f 71 66 65
f 68 70 71
f 76 65 67
f 69 68 77
f 77 78 69
f 79 73 47
f 80 81 82
f 83 84 85
f 86 85 81
f 87 88 89
f 90 91 92
f 93 92 88
f 87 89 84
f 94 95 96
f 97 98 99
f 100 99 95
f 101 102 103
f 104 79 105
f 106 105 102
f 97 103 98
f 107 96 91
f 81 80 86
f 80 82 108
f 84 83 87
f 92 93 109
f 93 88 87
f 83 85 86
f 91 90 107
f 95 94 100
f 94 96 107
f 103 97 101
f 105 106 110
f 105 110 104
f 106 102 101
f 97 99 100
f 90 92 109
f 104 73 79
f 111 112 113
f 113 114 111
f 115 116 117
f 118 119 120
f 116 118 121
f 122 123 124
f 125 126 127
f 123 125 128
f 119 122 129
f 130 131 132
f 133 134 135
f 131 133 136
f 137 138 139
f 140 141 142
f 138 140 143
f 134 137 144
f 126 130 145
f 146 147 148
f 149 150 151
f 147 149 152
f 153 154 155
f 156 157 158
f 154 156 159
f 150 153 160
f 161 162 163
f 164 165 166
f 162 164 167
f 168 169 170
f 171 172 173
f 169 171 174
f 165 168 175
f 157 161 176
f 141 146 177
f 178 115 117
f 121 118 120
f 116 121 117
f 129 122 124
f 128 125 127
f 123 128 124
f 119 129 120
f 145 130 132
f 136 133 135
f 131 136 132
f 144 137 139
f 143 140 142
f 138 143 139
f 134 144 135
f 126 145 127
f 177 146 148
f 152 149 151
f 147 152 148
f 153 155 160
f 160 151 150
f 155 154 159
f 158 159 156
f 142 141 177
f 158 157 176
f 163 162 167
f 161 163 176
f 166 165 175
f 170 169 174
f 174 171 173
f 168 170 175
f 164 166 167
f 179 173 172
f 180 179 172
f 115 178 181
f 182 183 184
f 185 186 187
f 183 185 188
f 189 190 191
f 192 193 194
f 190 192 195
f 186 189 196
f 197 198 199
f 200 201 202
f 198 200 203
f 204 205 206
f 207 208 209
f 205 207 210
f 201 204 211
f 193 197 212
f 213 214 215
f 216 217 218
f 214 216 219
f 220 221 222
f 223 224 225
f 221 223 226
f 217 220 227
f 228 229 230
f 231 232 233
f 229 231 234
f 235 236 237
f 238 239 181
f 236 238 240
f 232 235 241
f 224 228 242
f 208 213 243
f 188 184 183
f 244 182 184
f 196 187 186
f 195 191 190
f 196 189 191
f 188 185 187
f 212 194 193
f 203 199 198
f 212 197 199
f 211 202 201
f 210 206 205
f 211 204 206
f 203 200 202
f 195 192 194
f 243 209 208
f 219 215 214
f 243 213 215
f 227 218 217
f 226 222 221
f 227 220 222
f 219 216 218
f 242 225 224
f 234 230 229
f 242 228 230
f 241 233 232
f 240 237 236
f 181 240 238
f 241 235 237
f 234 231 233
f 226 223 225
f 210 207 209
f 239 115 181
f 245 246 247
f 247 248 245
f 249 250 251
f 252 249 251
f 253 249 254
f 252 254 249
f 255 253 254
f 256 257 258
f 259 256 260
f 259 261 256
f 259 260 249
f 260 250 249
f 257 256 261
f 253 255 262
f 263 264 253
f 263 265 264
f 266 267 268
f 267 269 270
f 270 264 265
f 271 266 268
f 253 272 273
f 274 275 253
f 276 272 277
f 277 272 275
f 274 253 264
f 273 278 253
f 271 279 280
f 253 262 263
f 281 272 282
f 283 284 285
f 286 283 287
f 288 289 290
f 289 291 292
f 286 284 283
f 284 293 285
f 286 287 258
f 257 286 258
f 284 294 293
f 284 295 294
f 282 272 276
f 295 284 289
f 288 295 289
f 296 290 289
f 289 297 296
f 298 278 273
f 273 299 300
f 272 253 275
f 273 300 298
f 281 282 301
f 302 281 301
f 289 302 303
f 301 303 302
f 292 304 297
f 289 303 291
f 297 289 292
f 304 305 306
f 306 305 307
f 307 308 309
f 309 310 311
f 310 312 311
f 312 313 314
f 292 305 304
f 315 316 317
f 318 319 315
f 320 321 322
f 323 324 322
f 322 321 323
f 318 320 325
f 320 322 325
f 264 270 269
f 269 267 266
f 325 319 318
f 280 279 316
f 319 316 315
f 271 280 266
f 326 324 327
f 328 326 327
f 329 330 331
f 331 332 333
f 328 330 329
f 334 333 332
f 326 328 329
f 329 331 333
f 335 333 336
f 337 333 335
f 336 333 338
f 338 333 334
f 327 324 323
f 313 312 310
f 310 309 308
f 339 340 314
f 341 342 343
f 339 341 344
f 339 314 313
f 341 343 344
f 344 340 339
f 345 346 347
f 345 348 346
f 346 349 347
f 348 343 342
f 348 342 346
f 307 305 308
f 350 351 352
f 353 354 351
f 355 356 352
f 357 352 356
f 352 358 355
f 357 359 352
f 354 353 360
f 347 349 360
f 361 350 352
f 362 351 350
f 362 353 351
f 359 361 352
f 360 349 354
f 317 316 279
f 363 364 365
f 363 365 366
f 367 365 368
f 365 367 366
f 367 368 369
f 370 371 372
f 373 372 374
f 372 375 374
f 365 373 374
f 365 364 373
f 375 372 371
f 376 369 368
f 368 377 378
f 377 379 378
f 380 381 382
f 383 384 381
f 379 377 383
f 380 382 385
f 386 368 387
f 368 388 387
f 368 386 389
f 390 387 391
f 386 387 390
f 377 368 389
f 392 393 394
f 395 396 385
f 378 376 368
f 387 397 391
f 398 399 400
f 401 400 402
f 403 387 388
f 387 403 404
f 400 399 402
f 398 405 399
f 370 401 402
f 370 402 371
f 405 406 399
f 406 407 399
f 393 399 407
f 408 393 409
f 408 410 393
f 411 409 393
f 411 393 407
f 412 387 404
f 413 397 414
f 413 414 392
f 393 415 394
f 392 394 413
f 410 416 417
f 417 415 393
f 410 417 393
f 418 419 416
f 420 419 418
f 421 422 420
f 423 424 421
f 423 425 424
f 426 427 425
f 416 419 417
f 414 397 387
f 428 429 430
f 430 431 432
f 433 434 435
f 433 436 437
f 437 434 433
f 438 435 432
f 438 433 435
f 384 383 377
f 382 381 384
f 432 431 438
f 429 396 395
f 430 429 431
f 382 395 385
f 439 436 440
f 439 440 441
f 442 443 444
f 445 446 442
f 444 443 441
f 446 445 447
f 444 441 440
f 445 442 444
f 448 445 449
f 449 445 450
f 451 445 448
f 447 445 451
f 437 436 439
f 424 425 427
f 422 421 424
f 426 452 453
f 454 455 456
f 457 456 453
f 427 426 453
f 457 454 456
f 453 452 457
f 458 459 460
f 459 461 460
f 458 462 459
f 455 454 461
f 459 455 461
f 422 419 420
f 463 464 465
f 464 466 467
f 463 468 469
f 468 463 470
f 469 471 463
f 463 472 470
f 473 467 466
f 473 462 458
f 463 465 474
f 465 464 475
f 464 467 475
f 463 474 472
f 466 462 473
f 396 429 428
