mtllib Mesh_1.mtl
v -0.013999999448657041 0.01149970982596926 0.04699971093983102
v -0.014119259995536648 0.010593839647013546 0.04699971093983102
v -0.01446890917862409 0.009749709745875522 0.04699971093983102
v -0.015025130174492363 0.009024829662781285 0.04699971093983102
v -0.015750000124797214 0.008468619991795266 0.04699971093983102
v -0.016594129429888804 0.008118969616614955 0.04699971093983102
v -0.01749999960884452 0.007999709665781783 0.04699971093983102
v -0.018405869787800233 0.008118969616614955 0.04699971093983102
v -0.019249999092891823 0.008468619991795266 0.04699971093983102
v -0.019974869043196675 0.009024829662781285 0.04699971093983102
v -0.02053108884697208 0.009749709745875522 0.04699971093983102
v -0.02088073922215239 0.010593839647013546 0.04699971093983102
v -0.020999998576939127 0.01149970982596926 0.04699971093983102
v -0.02088073922215239 0.012405569276089155 0.04699971093983102
v -0.02053108884697208 0.013249709310016565 0.04699971093983102
v -0.019974869043196675 0.013974579260321416 0.04699971093983102
v -0.019249999092891823 0.01453080025618969 0.04699971093983102
v -0.018405869787800233 0.01488044943927713 0.04699971093983102
v -0.01749999960884452 0.014999709986156738 0.04699971093983102
v -0.016594129429888804 0.01488044943927713 0.04699971093983102
v -0.015750000124797214 0.01453080025618969 0.04699971093983102
v -0.015025130174492363 0.013974579260321416 0.04699971093983102
v -0.01446890917862409 0.013249709310016565 0.04699971093983102
v -0.014119259995536648 0.012405569276089155 0.04699971093983102
v -0.013999999448657041 0.01149970982596926 0.03899970921129636
v -0.014119259995536648 0.012405569276089155 0.03899970921129636
v -0.01446890917862409 0.013249709310016565 0.03899970921129636
v -0.015025130174492363 0.013974579260321416 0.03899970921129636
v -0.015750000124797214 0.01453080025618969 0.03899970921129636
v -0.016594129429888804 0.01488044943927713 0.03899970921129636
v -0.01749999960884452 0.014999709986156738 0.03899970921129636
v -0.018405869787800233 0.01488044943927713 0.03899970921129636
v -0.019249999092891823 0.01453080025618969 0.03899970921129636
v -0.019974869043196675 0.013974579260321416 0.03899970921129636
v -0.02053108884697208 0.013249709310016565 0.03899970921129636
v -0.02088073922215239 0.012405569276089155 0.03899970921129636
v -0.020999998576939127 0.01149970982596926 0.03899970921129636
v -0.02088073922215239 0.010593839647013546 0.03899970921129636
v -0.02053108884697208 0.009749709745875522 0.03899970921129636
v -0.019974869043196675 0.009024829662781285 0.03899970921129636
v -0.019249999092891823 0.008468619991795266 0.03899970921129636
v -0.018405869787800233 0.008118969616614955 0.03899970921129636
v -0.01749999960884452 0.007999709665781783 0.03899970921129636
v -0.016594129429888804 0.008118969616614955 0.03899970921129636
v -0.015750000124797214 0.008468619991795266 0.03899970921129636
v -0.015025130174492363 0.009024829662781285 0.03899970921129636
v -0.01446890917862409 0.009749709745875522 0.03899970921129636
v -0.014119259995536648 0.010593839647013546 0.03899970921129636
v -0.02324999995715915 0.01149970982596926 0.03199970889092141
v -0.023054069957418655 0.012987919755550024 0.03199970889092141
v -0.022479650471814328 0.014374710000126576 0.03199970889092141
v -0.021565858835745022 0.01556557024496263 0.03199970889092141
v -0.020374998590908966 0.016479349960103248 0.03199970889092141
v -0.018988209538425282 0.017053780174543395 0.03199970889092141
v -0.01749999960884452 0.01724971017428389 0.03199970889092141
v -0.016011789679263755 0.017053780174543395 0.03199970889092141
v -0.014624999434687203 0.016479349960103248 0.03199970889092141
v -0.013434139189851146 0.01556557024496263 0.03199970889092141
v -0.012520349937967579 0.014374710000126576 0.03199970889092141
v -0.011945929260270383 0.012987919755550024 0.03199970889092141
v -0.011749999260529886 0.01149970982596926 0.03199970889092141
v -0.011945929260270383 0.010011499896388497 0.03199970889092141
v -0.012520349937967579 0.008624709651811944 0.03199970889092141
v -0.013434139189851146 0.007433839870232938 0.03199970889092141
v -0.014624999434687203 0.006520059559045887 0.03199970889092141
v -0.016011789679263755 0.005945629940652174 0.03199970889092141
v -0.01749999960884452 0.005749710073701063 0.03199970889092141
v -0.018988209538425282 0.005945629940652174 0.03199970889092141
v -0.020374998590908966 0.006520059559045887 0.03199970889092141
v -0.021565858835745022 0.007433839870232938 0.03199970889092141
v -0.022479650471814328 0.008624709651811944 0.03199970889092141
v -0.023054069957418655 0.010011499896388497 0.03199970889092141
v -0.007685049600488325 0.01149970982596926 0.04699971093983102
v -0.012592519240248512 0.0029997100755637103 0.04699971093983102
v -0.022407478785347656 0.0029997100755637103 0.04699971093983102
v -0.027314948425107843 0.01149970982596926 0.04699971093983102
v -0.022407478785347656 0.019999709874398027 0.04699971093983102
v -0.012592519240248512 0.019999709874398027 0.04699971093983102
v -0.027314948425107843 0.01149970982596926 0.049499710883951664
v -0.022407478785347656 0.019999709874398027 0.049499710883951664
v -0.022407478785347656 0.0029997100755637103 0.049499710883951664
v -0.012592519240248512 0.0029997100755637103 0.049499710883951664
v -0.02324999995715915 0.01149970982596926 0.03899970921129636
v -0.023054069957418655 0.012987919755550024 0.03899970921129636
v -0.022479650471814328 0.014374710000126576 0.03899970921129636
v -0.021565858835745022 0.01556557024496263 0.03899970921129636
v -0.020374998590908966 0.016479349960103248 0.03899970921129636
v -0.018988209538425282 0.017053780174543395 0.03899970921129636
v -0.01749999960884452 0.01724971017428389 0.03899970921129636
v -0.016011789679263755 0.017053780174543395 0.03899970921129636
v -0.014624999434687203 0.016479349960103248 0.03899970921129636
v -0.013434139189851146 0.01556557024496263 0.03899970921129636
v -0.012520349937967579 0.014374710000126576 0.03899970921129636
v -0.011945929260270383 0.012987919755550024 0.03899970921129636
v -0.011749999260529886 0.01149970982596926 0.03899970921129636
v -0.011945929260270383 0.010011499896388497 0.03899970921129636
v -0.012520349937967579 0.008624709651811944 0.03899970921129636
v -0.013434139189851146 0.007433839870232938 0.03899970921129636
v -0.014624999434687203 0.006520059559045887 0.03899970921129636
v -0.016011789679263755 0.005945629940652174 0.03899970921129636
v -0.01749999960884452 0.005749710073701063 0.03899970921129636
v -0.018988209538425282 0.005945629940652174 0.03899970921129636
v -0.020374998590908966 0.006520059559045887 0.03899970921129636
v -0.021565858835745022 0.007433839870232938 0.03899970921129636
v -0.022479650471814328 0.008624709651811944 0.03899970921129636
v -0.023054069957418655 0.010011499896388497 0.03899970921129636
v -0.01749999960884452 0.01649970971421055 0.049499710883951664
v -0.01879409986449554 0.016329339377671333 0.049499710883951664
v -0.019999999552965164 0.015829829815853454 0.049499710883951664
v -0.021035530096988442 0.015035239122020313 0.049499710883951664
v -0.021830129135471665 0.013999709770089906 0.049499710883951664
v -0.022329630352639462 0.012793799352784461 0.049499710883951664
v -0.02249999949708581 0.01149970982596926 0.049499710883951664
v -0.022329630352639462 0.01020560957031824 0.049499710883951664
v -0.021830129135471665 0.008999709881848615 0.049499710883951664
v -0.021035530096988442 0.007964169801082386 0.049499710883951664
v -0.019999999552965164 0.00716957970329568 0.049499710883951664
v -0.01879409986449554 0.006670079678220752 0.049499710883951664
v -0.01749999960884452 0.00649970993772797 0.049499710883951664
v -0.016205899353193498 0.006670079678220752 0.049499710883951664
v -0.014999999664723873 0.00716957970329568 0.049499710883951664
v -0.013964469120700596 0.007964169801082386 0.049499710883951664
v -0.013169870082217372 0.008999709881848615 0.049499710883951664
v -0.012670370057142444 0.01020560957031824 0.049499710883951664
v -0.012499999720603228 0.01149970982596926 0.049499710883951664
v -0.012670370057142444 0.012793799352784461 0.049499710883951664
v -0.013169870082217372 0.013999709770089906 0.049499710883951664
v -0.013964469120700596 0.015035239122020313 0.049499710883951664
v -0.014999999664723873 0.015829829815853454 0.049499710883951664
v -0.016205899353193498 0.016329339377671333 0.049499710883951664
v -0.01749999960884452 0.00649970993772797 0.05149970893189959
v -0.01879409986449554 0.006670079678220752 0.05149970893189959
v -0.019999999552965164 0.00716957970329568 0.05149970893189959
v -0.021035530096988442 0.007964169801082386 0.05149970893189959
v -0.021830129135471665 0.008999709881848615 0.05149970893189959
v -0.022329630352639462 0.01020560957031824 0.05149970893189959
v -0.02249999949708581 0.01149970982596926 0.05149970893189959
v -0.022329630352639462 0.012793799352784461 0.05149970893189959
v -0.021830129135471665 0.013999709770089906 0.05149970893189959
v -0.021035530096988442 0.015035239122020313 0.05149970893189959
v -0.019999999552965164 0.015829829815853454 0.05149970893189959
v -0.01879409986449554 0.016329339377671333 0.05149970893189959
v -0.01749999960884452 0.01649970971421055 0.05149970893189959
v -0.016205899353193498 0.016329339377671333 0.05149970893189959
v -0.014999999664723873 0.015829829815853454 0.05149970893189959
v -0.013964469120700596 0.015035239122020313 0.05149970893189959
v -0.013169870082217372 0.013999709770089906 0.05149970893189959
v -0.012670370057142444 0.012793799352784461 0.05149970893189959
v -0.012499999720603228 0.01149970982596926 0.05149970893189959
v -0.012670370057142444 0.01020560957031824 0.05149970893189959
v -0.013169870082217372 0.008999709881848615 0.05149970893189959
v -0.013964469120700596 0.007964169801082386 0.05149970893189959
v -0.014999999664723873 0.00716957970329568 0.05149970893189959
v -0.016205899353193498 0.006670079678220752 0.05149970893189959
v -0.007685049600488325 0.01149970982596926 0.049499710883951664
v -0.012592519240248512 0.019999709874398027 0.049499710883951664
v -0.023749999469146132 0.01149970982596926 0.0569997107163136
v -0.023537039230681067 0.009882089870823394 0.0569997107163136
v -0.022912659132942714 0.008374709895818453 0.0569997107163136
v -0.0219194192755352 0.007080289563232144 0.0569997107163136
v -0.020624999538995326 0.006087049705824631 0.0569997107163136
v -0.019117619563990385 0.005462669608086278 0.0569997107163136
v -0.01749999960884452 0.005249709965667647 0.0569997107163136
v -0.015882379653698653 0.005462669608086278 0.0569997107163136
v -0.014374999678693712 0.006087049705824631 0.0569997107163136
v -0.013080579942153836 0.007080289563232144 0.0569997107163136
v -0.012087340084746323 0.008374709895818453 0.0569997107163136
v -0.01146295998700797 0.009882089870823394 0.0569997107163136
v -0.011249999748542905 0.01149970982596926 0.0569997107163136
v -0.01146295998700797 0.013117329781115126 0.0569997107163136
v -0.012087340084746323 0.014624709756120067 0.0569997107163136
v -0.013080579942153836 0.01591911995591699 0.0569997107163136
v -0.014374999678693712 0.016912369350067454 0.0569997107163136
v -0.015882379653698653 0.017536739911062856 0.0569997107163136
v -0.01749999960884452 0.017749709686270872 0.0569997107163136
v -0.019117619563990385 0.017536739911062856 0.0569997107163136
v -0.020624999538995326 0.016912369350067454 0.0569997107163136
v -0.0219194192755352 0.01591911995591699 0.0569997107163136
v -0.022912659132942714 0.014624709756120067 0.0569997107163136
v -0.023537039230681067 0.013117329781115126 0.0569997107163136
v -0.01749999960884452 0.005499709721661138 0.0569997107163136
v -0.019052909186789924 0.0057041500723924434 0.0569997107163136
v -0.020499999064952146 0.0063035498640637835 0.0569997107163136
v -0.02174263905564011 0.007257069783127234 0.0569997107163136
v -0.022696148841914177 0.008499709773815199 0.0569997107163136
v -0.023295549825678386 0.009946789519188036 0.0569997107163136
v -0.023499998521059773 0.01149970982596926 0.0569997107163136
v -0.023295549825678386 0.013052619403914665 0.0569997107163136
v -0.022696148841914177 0.014499709282076887 0.0569997107163136
v -0.02174263905564011 0.01574234927276485 0.0569997107163136
v -0.020499999064952146 0.016695859059038917 0.0569997107163136
v -0.019052909186789924 0.017295260042803125 0.0569997107163136
v -0.01749999960884452 0.01749970993027738 0.0569997107163136
v -0.015947090030899114 0.017295260042803125 0.0569997107163136
v -0.014500000152736892 0.016695859059038917 0.0569997107163136
v -0.013257360162048926 0.01574234927276485 0.0569997107163136
v -0.012303849183681992 0.014499709282076887 0.0569997107163136
v -0.011704449392010652 0.013052619403914665 0.0569997107163136
v -0.011499999504536396 0.01149970982596926 0.0569997107163136
v -0.011704449392010652 0.009946789519188036 0.0569997107163136
v -0.012303849183681992 0.008499709773815199 0.0569997107163136
v -0.013257360162048926 0.007257069783127234 0.0569997107163136
v -0.014500000152736892 0.0063035498640637835 0.0569997107163136
v -0.015947090030899114 0.0057041500723924434 0.0569997107163136
v -0.01749999960884452 0.015499709498143718 0.0634997067563301
v -0.016464719404323702 0.01536340917579659 0.0634997067563301
v -0.015499999176710855 0.014963810109410945 0.0634997067563301
v -0.014671569734702183 0.014328130163368645 0.0634997067563301
v -0.014035899325402834 0.013499710258102924 0.0634997067563301
v -0.013636300259017187 0.012534979301654257 0.0634997067563301
v -0.01349999993667006 0.01149970982596926 0.0634997067563301
v -0.013636300259017187 0.010464429621448444 0.0634997067563301
v -0.014035899325402834 0.00949970998988203 0.0634997067563301
v -0.014671569734702183 0.008671279951826925 0.0634997067563301
v -0.015499999176710855 0.008035609542527576 0.0634997067563301
v -0.016464719404323702 0.007635999747306109 0.0634997067563301
v -0.01749999960884452 0.007499709557748368 0.0634997067563301
v -0.018535279813365335 0.007635999747306109 0.0634997067563301
v -0.019500000040978183 0.008035609542527576 0.0634997067563301
v -0.020328430675079723 0.008671279951826925 0.0634997067563301
v -0.020964099892286203 0.00949970998988203 0.0634997067563301
v -0.02136369895867185 0.010464429621448444 0.0634997067563301
v -0.021500000473111847 0.01149970982596926 0.0634997067563301
v -0.02136369895867185 0.012534979301654257 0.0634997067563301
v -0.020964099892286203 0.013499710258102924 0.0634997067563301
v -0.020328430675079723 0.014328130163368645 0.0634997067563301
v -0.019500000040978183 0.014963810109410945 0.0634997067563301
v -0.018535279813365335 0.01536340917579659 0.0634997067563301
v -0.021500000473111847 0.01149970982596926 0.06299970962852885
v -0.02136369895867185 0.010464429621448444 0.06299970962852885
v -0.020964099892286203 0.00949970998988203 0.06299970962852885
v -0.020328430675079723 0.008671279951826925 0.06299970962852885
v -0.019500000040978183 0.008035609542527576 0.06299970962852885
v -0.018535279813365335 0.007635999747306109 0.06299970962852885
v -0.01749999960884452 0.007499709557748368 0.06299970962852885
v -0.016464719404323702 0.007635999747306109 0.06299970962852885
v -0.015499999176710855 0.008035609542527576 0.06299970962852885
v -0.014671569734702183 0.008671279951826925 0.06299970962852885
v -0.014035899325402834 0.00949970998988203 0.06299970962852885
v -0.013636300259017187 0.010464429621448444 0.06299970962852885
v -0.01349999993667006 0.01149970982596926 0.06299970962852885
v -0.013636300259017187 0.012534979301654257 0.06299970962852885
v -0.014035899325402834 0.013499710258102924 0.06299970962852885
v -0.014671569734702183 0.014328130163368645 0.06299970962852885
v -0.015499999176710855 0.014963810109410945 0.06299970962852885
v -0.016464719404323702 0.01536340917579659 0.06299970962852885
v -0.01749999960884452 0.015499709498143718 0.06299970962852885
v -0.018535279813365335 0.01536340917579659 0.06299970962852885
v -0.019500000040978183 0.014963810109410945 0.06299970962852885
v -0.020328430675079723 0.014328130163368645 0.06299970962852885
v -0.020964099892286203 0.013499710258102924 0.06299970962852885
v -0.02136369895867185 0.012534979301654257 0.06299970962852885
v 0.022056350215009957 0.001999710008508487 0.06705605833852157
v 0.022056350215009957 0.001999710008508487 0.07005606017881494
v 0.014298989453189304 0.001999710008508487 0.07005606017881494
v 0.012746079875243899 0.001999710008508487 0.06985160671506208
v 0.011298989997081677 0.001999710008508487 0.0692522081154836
v 0.01005635000639371 0.001999710008508487 0.06829870071339528
v -0.0028639599040755637 0.001999710008508487 0.05537838812071705
v -0.0034852798994195466 0.001999710008508487 0.05490162726711567
v -0.004208819772105965 0.001999710008508487 0.05460193035151217
v -0.004985279925496577 0.001999710008508487 0.054499710772192955
v -0.022007598385044957 0.001999710008508487 0.054499710772192955
v -0.022007598385044957 0.001999710008508487 0.05149970893189959
v -0.004985279925496577 0.001999710008508487 0.05149970893189959
v -0.003432370049527955 0.001999710008508487 0.05170414809053803
v -0.0019852800223541245 0.001999710008508487 0.0523035466901165
v -0.0007426399571603542 0.001999710008508487 0.05325706839731925
v 0.012177669729791507 0.001999710008508487 0.066177376221626
v 0.01279898972513549 0.001999710008508487 0.06665412753848443
v 0.013522529299798691 0.001999710008508487 0.0669538292224594
v 0.014298989453189304 0.001999710008508487 0.06705605833852157
v 0.022056350215009957 0.02099971009046486 0.07005606017881494
v 0.014298989453189304 0.02099971009046486 0.07005606017881494
v -0.0274999993853271 0.008370079807115792 0.05149970893189959
v -0.0274999993853271 0.014629339844822729 0.05149970893189959
v -0.027388598306731904 0.01470257010975695 0.05149970893189959
v -0.027287928448142207 0.014789979127273421 0.05149970893189959
v -0.02719978033304704 0.014889999295249588 0.05149970893189959
v -0.02280021854936587 0.02060941888519929 0.05149970893189959
v -0.022641300649017815 0.0207732887393246 0.05149970893189959
v -0.02244934985527358 0.020896839628439242 0.05149970893189959
v -0.022234379748231614 0.020973648556165788 0.05149970893189959
v -0.022007598385044957 0.02099971009046486 0.05149970893189959
v -0.004985279925496577 0.02099971009046486 0.05149970893189959
v -0.022234379748231614 0.0020257599199020866 0.05149970893189959
v -0.02244934985527358 0.002102569890709893 0.05149970893189959
v -0.022641300649017815 0.0022261300185442696 0.05149970893189959
v -0.02280021854936587 0.002389999872669579 0.05149970893189959
v -0.02719978033304704 0.008109419760642498 0.05149970893189959
v -0.027287928448142207 0.008209439928618665 0.05149970893189959
v -0.027388598306731904 0.00829684000543862 0.05149970893189959
v -0.004985279925496577 0.02099971009046486 0.054499710772192955
v -0.022007598385044957 0.02099971009046486 0.054499710772192955
v -0.022234379748231614 0.020973648556165788 0.054499710772192955
v -0.02244934985527358 0.020896839628439242 0.054499710772192955
v -0.022641300649017815 0.0207732887393246 0.054499710772192955
v -0.02280021854936587 0.02060941888519929 0.054499710772192955
v -0.02719978033304704 0.014889999295249588 0.054499710772192955
v -0.027287928448142207 0.014789979127273421 0.054499710772192955
v -0.027388598306731904 0.01470257010975695 0.054499710772192955
v -0.0274999993853271 0.014629339844822729 0.054499710772192955
v -0.0274999993853271 0.008370079807115792 0.054499710772192955
v -0.027388598306731904 0.00829684000543862 0.054499710772192955
v -0.027287928448142207 0.008209439928618665 0.054499710772192955
v -0.02719978033304704 0.008109419760642498 0.054499710772192955
v -0.02280021854936587 0.002389999872669579 0.054499710772192955
v -0.022641300649017815 0.0022261300185442696 0.054499710772192955
v -0.02244934985527358 0.002102569890709893 0.054499710772192955
v -0.022234379748231614 0.0020257599199020866 0.054499710772192955
v -0.023749999469146132 0.01149970982596926 0.054499710772192955
v -0.023537039230681067 0.013117329781115126 0.054499710772192955
v -0.022912659132942714 0.014624709756120067 0.054499710772192955
v -0.0219194192755352 0.01591911995591699 0.054499710772192955
v -0.020624999538995326 0.016912369350067454 0.054499710772192955
v -0.019117619563990385 0.017536739911062856 0.054499710772192955
v -0.01749999960884452 0.017749709686270872 0.054499710772192955
v -0.015882379653698653 0.017536739911062856 0.054499710772192955
v -0.014374999678693712 0.016912369350067454 0.054499710772192955
v -0.013080579942153836 0.01591911995591699 0.054499710772192955
v -0.012087340084746323 0.014624709756120067 0.054499710772192955
v -0.01146295998700797 0.013117329781115126 0.054499710772192955
v -0.011249999748542905 0.01149970982596926 0.054499710772192955
v -0.01146295998700797 0.009882089870823394 0.054499710772192955
v -0.012087340084746323 0.008374709895818453 0.054499710772192955
v -0.013080579942153836 0.007080289563232144 0.054499710772192955
v -0.014374999678693712 0.006087049705824631 0.054499710772192955
v -0.015882379653698653 0.005462669608086278 0.054499710772192955
v -0.01749999960884452 0.005249709965667647 0.054499710772192955
v -0.019117619563990385 0.005462669608086278 0.054499710772192955
v -0.020624999538995326 0.006087049705824631 0.054499710772192955
v -0.0219194192755352 0.007080289563232144 0.054499710772192955
v -0.022912659132942714 0.008374709895818453 0.054499710772192955
v -0.023537039230681067 0.009882089870823394 0.054499710772192955
v 0.022056350215009957 0.02099971009046486 0.06705605833852157
v 0.014298989453189304 0.02099971009046486 0.06705605833852157
v 0.012746079875243899 0.02099971009046486 0.06985160671506208
v 0.011298989997081677 0.02099971009046486 0.0692522081154836
v 0.01005635000639371 0.02099971009046486 0.06829870071339528
v -0.0028639599040755637 0.02099971009046486 0.05537838812071705
v -0.0034852798994195466 0.02099971009046486 0.05490162726711567
v -0.004208819772105965 0.02099971009046486 0.05460193035151217
v -0.0034852798994195466 0.01149970982596926 0.05490162726711567
v -0.004208819772105965 0.01149970982596926 0.05460193035151217
v -0.003432370049527955 0.02099971009046486 0.05170414809053803
v -0.0019852800223541245 0.02099971009046486 0.0523035466901165
v -0.0007426399571603542 0.02099971009046486 0.05325706839731925
v 0.012177669729791507 0.02099971009046486 0.066177376221626
v 0.01279898972513549 0.02099971009046486 0.06665412753848443
v 0.013522529299798691 0.02099971009046486 0.0669538292224594
v 0.01279898972513549 0.01149970982596926 0.06665412753848443
v 0.013522529299798691 0.01149970982596926 0.0669538292224594
v -0.027992400497367953 0.008499709773815199 0.05447946903527967
v -0.027992400497367953 0.008499709773815199 0.05145902041809958
v -0.027868038985102483 0.008491719771361648 0.05147693042136137
v -0.027741789197732736 0.008467559625188413 0.05148982886620246
v -0.027617809155185302 0.008426899721617252 0.051497386734991046
v -0.027617480137553496 0.00842675965070516 0.054498556826295896
v -0.02774125990849896 0.008467429687065707 0.05449478981283029
v -0.030499998841434728 0.00949970998988203 0.03749970829114968
v -0.030499998841434728 0.009240889938751827 0.03753377830534177
v -0.030499998841434728 0.008999709881848615 0.03763367807193818
v -0.030499998841434728 0.008792599839137492 0.037792598356471974
v -0.030499998841434728 0.0086336795546037 0.0379997101873224
v -0.030499998841434728 0.008533779788007288 0.03824088964817918
v -0.030499998841434728 0.008499709773815199 0.03849970969930938
v -0.033499998297542355 0.008499709773815199 0.03849970969930938
v -0.033499998297542355 0.008533779788007288 0.03824088964817918
v -0.033499998297542355 0.0086336795546037 0.0379997101873224
v -0.033499998297542355 0.008792599839137492 0.037792598356471974
v -0.033499998297542355 0.008999709881848615 0.03763367807193818
v -0.033499998297542355 0.009240889938751827 0.03753377830534177
v -0.033499998297542355 0.00949970998988203 0.03749970829114968
v -0.030499998841434728 0.014499709282076887 0.03849970969930938
v -0.030499998841434728 0.014465629731141847 0.03824088964817918
v -0.030499998841434728 0.014365729964545436 0.0379997101873224
v -0.030499998841434728 0.014206809680011643 0.037792598356471974
v -0.030499998841434728 0.013999709770089906 0.03763367807193818
v -0.030499998841434728 0.01375852911714026 0.03753377830534177
v -0.030499998841434728 0.013499710258102924 0.03749970829114968
v -0.033499998297542355 0.013499710258102924 0.03749970829114968
v -0.033499998297542355 0.01375852911714026 0.03753377830534177
v -0.033499998297542355 0.013999709770089906 0.03763367807193818
v -0.033499998297542355 0.014206809680011643 0.037792598356471974
v -0.033499998297542355 0.014365729964545436 0.0379997101873224
v -0.033499998297542355 0.014465629731141847 0.03824088964817918
v -0.033499998297542355 0.014499709282076887 0.03849970969930938
v -0.029445769128670474 0.008499709773815199 0.05417544720674794
v -0.03077996900424429 0.008499709773815199 0.05352383017114182
v -0.031913298847229044 0.008499709773815199 0.05256452919771082
v -0.03277635024242809 0.008499709773815199 0.051356300159775436
v -0.033316280097150486 0.008499709773815199 0.0499731195724058
v -0.033499998297542355 0.008499709773815199 0.048499707091606226
v -0.030499998841434728 0.008499709773815199 0.048499707091606226
v -0.030418018614843056 0.008499709773815199 0.04919624695488256
v -0.030176548283326277 0.008499709773815199 0.04985472090867038
v -0.029788798620057122 0.008499709773815199 0.05043913728507299
v -0.029275948346943803 0.008499709773815199 0.05091755753194782
v -0.02866604025663344 0.008499709773815199 0.05126381759500909
v -0.027992400497367953 0.014499709282076887 0.05447946903527967
v -0.029445769128670474 0.014499709282076887 0.05417544720674794
v -0.03077996900424429 0.014499709282076887 0.05352383017114182
v -0.031913298847229044 0.014499709282076887 0.05256452919771082
v -0.03277635024242809 0.014499709282076887 0.051356300159775436
v -0.033316280097150486 0.014499709282076887 0.0499731195724058
v -0.033499998297542355 0.014499709282076887 0.048499707091606226
v -0.027617480137553496 0.014572649868443975 0.054498556826295896
v -0.02774125990849896 0.014531989964872814 0.05449478981283029
v -0.030499998841434728 0.014499709282076887 0.048499707091606226
v -0.030418018614843056 0.014499709282076887 0.04919624695488256
v -0.030176548283326277 0.014499709282076887 0.04985472090867038
v -0.029788798620057122 0.014499709282076887 0.05043913728507299
v -0.029275948346943803 0.014499709282076887 0.05091755753194782
v -0.02866604025663344 0.014499709282076887 0.05126381759500909
v -0.027992400497367953 0.014499709282076887 0.05145902041809958
v -0.027868038985102483 0.014507689151741053 0.05147693042136137
v -0.027741789197732736 0.014531849297914288 0.05148982886620246
v -0.027617809155185302 0.014572519930321269 0.051497386734991046
v 0.09568347717038961 -2.900000007438937e-07 0.0683060583105819
v 0.09568347717038961 -2.900000007438937e-07 0.06880606020675462
v 0.022056350215009957 -2.900000007438937e-07 0.06880606020675462
v 0.022056350215009957 -2.900000007438937e-07 0.0683060583105819
v 0.09568506980646241 6.202999829433858e-05 0.06943947636843895
v 0.0956897904942231 0.0002473100033258644 0.07005029044932964
v 0.09569740081509792 0.0005467500042896713 0.07061062654978123
v 0.09570764327702719 0.0009514099891913678 0.0711039574942598
v 0.09572006011634926 0.001443729964411333 0.07150807697680417
v 0.09573410773871593 0.002004059955386966 0.07180786925983718
v 0.09574932838046557 0.0026147800099526326 0.0719934304358043
v 0.09576504493284865 0.003249709831557201 0.07205605822676286
v 0.022056350215009957 0.003249709831557201 0.07205605822676286
v 0.022056350215009957 0.002408549880790339 0.07194531756761702
v 0.022056350215009957 0.0016247099274834251 0.07162063915385364
v 0.022056350215009957 0.0009516099627701194 0.07110414822911881
v 0.022056350215009957 0.00043512000661075073 0.07043105921675874
v 0.022056350215009957 0.00011044999337680646 0.06964722000850987
v 0.07733787840594619 0.00011044999337680646 0.06964722000850987
v 0.058910697573929305 0.00011044999337680646 0.06964722000850987
v 0.040483531047026844 0.00011044999337680646 0.06964722000850987
v 0.07733787840594619 0.00043512000661075073 0.07043105921675874
v 0.058910697573929305 0.00043512000661075073 0.07043105921675874
v 0.040483531047026844 0.00043512000661075073 0.07043105921675874
v 0.07733787840594619 0.0009514599825860557 0.07110400994634603
v 0.058910697573929305 0.0009515099759807436 0.07110405763006078
v 0.040483531047026844 0.0009515599693754315 0.07110410054540406
v 0.07733787840594619 0.0016247099274834251 0.07162063915385364
v 0.058910697573929305 0.0016247099274834251 0.07162063915385364
v 0.040483531047026844 0.0016247099274834251 0.07162063915385364
v 0.07733787840594619 0.002408549880790339 0.07194531756761702
v 0.058910697573929305 0.002408549880790339 0.07194531756761702
v 0.040483531047026844 0.002408549880790339 0.07194531756761702
v 0.022056350215009957 0.003249709831557201 0.06505606029057365
v 0.09576504493284865 0.003249709831557201 0.06505606029057365
v 0.09574937606418032 0.002616670073196214 0.06511829707507122
v 0.09573416495917364 0.002006379917121381 0.0653032669729754
v 0.09572012687354992 0.001446669963449165 0.0656020674347415
v 0.09570769096074194 0.0009528399790933726 0.0660066875962908
v 0.09569748664578448 0.0005500699829294533 0.06649659008167852
v 0.09568981910445196 0.00024824998717941355 0.06705945818738357
v 0.09568509841669126 6.306999687694016e-05 0.0676674875393326
v 0.022056350215009957 0.00011044999337680646 0.06746488897208369
v 0.022056350215009957 0.00043512000661075073 0.06668105930057777
v 0.022056350215009957 0.0009516099627701194 0.06600796075147475
v 0.022056350215009957 0.0016247099274834251 0.06549146982673992
v 0.022056350215009957 0.002408549880790339 0.06516679618134802
v 0.07733787840594619 0.002408549880790339 0.06516679618134802
v 0.058910697573929305 0.002408549880790339 0.06516679618134802
v 0.040483531047026844 0.002408549880790339 0.06516679618134802
v 0.07733787840594619 0.0016247099274834251 0.06549146982673992
v 0.058910697573929305 0.0016247099274834251 0.06549146982673992
v 0.040483531047026844 0.0016247099274834251 0.06549146982673992
v 0.07733787840594619 0.0009525500025030218 0.06600701661392261
v 0.058910697573929305 0.0009522300000735365 0.06600734086318294
v 0.040483531047026844 0.000951919981421828 0.06600765080732884
v 0.07733787840594619 0.00043512000661075073 0.06668105930057777
v 0.058910697573929305 0.00043512000661075073 0.06668105930057777
v 0.040483531047026844 0.00043512000661075073 0.06668105930057777
v 0.07733787840594619 0.00011044999337680646 0.06746488897208369
v 0.058910697573929305 0.00011044999337680646 0.06746488897208369
v 0.040483531047026844 0.00011044999337680646 0.06746488897208369
v 0.022056350215009957 0.019749710118404536 0.06505606029057365
v 0.09576504493284865 0.019749710118404536 0.06505606029057365
v 0.09673156522069348 0.015674929268473466 0.06505606029057365
v 0.09705634853862932 0.01149970982596926 0.06505606029057365
v 0.09673156522069348 0.007324479654629234 0.06505606029057365
v 0.022056350215009957 0.022999710522598523 0.0683060583105819
v 0.09568347717038961 0.022999710522598523 0.0683060583105819
v 0.09568506980646241 0.022937378370671443 0.06767262784378314
v 0.0956897904942231 0.022752098528621364 0.06706181853126392
v 0.09569740081509792 0.02245266864182049 0.06650147766244086
v 0.09570764327702719 0.022047998412370703 0.06600815625470524
v 0.09572006011634926 0.021555690283573622 0.06560402723541792
v 0.09573410773871593 0.02099534941475056 0.06530424925749934
v 0.09574932838046557 0.020384640238032322 0.06511867854478925
v 0.022056350215009957 0.02059086992015979 0.06516679618134802
v 0.022056350215009957 0.02137470912840866 0.06549146982673992
v 0.022056350215009957 0.02204780052495447 0.06600796075147475
v 0.022056350215009957 0.02256428906550356 0.06668105930057777
v 0.022056350215009957 0.022888969863452676 0.06746488897208369
v 0.07733787840594619 0.022888969863452676 0.06746488897208369
v 0.058910697573929305 0.022888969863452676 0.06746488897208369
v 0.040483531047026844 0.022888969863452676 0.06746488897208369
v 0.07733787840594619 0.02256428906550356 0.06668105930057777
v 0.058910697573929305 0.02256428906550356 0.06668105930057777
v 0.040483531047026844 0.02256428906550356 0.06668105930057777
v 0.07733787840594619 0.02204794834447021 0.06600810857099049
v 0.058910697573929305 0.022047900660755456 0.06600806088727573
v 0.040483531047026844 0.022047850592854964 0.0660080084351895
v 0.07733787840594619 0.02137470912840866 0.06549146982673992
v 0.058910697573929305 0.02137470912840866 0.06549146982673992
v 0.040483531047026844 0.02137470912840866 0.06549146982673992
v 0.07733787840594619 0.02059086992015979 0.06516679618134802
v 0.058910697573929305 0.02059086992015979 0.06516679618134802
v 0.040483531047026844 0.02059086992015979 0.06516679618134802
v 0.022056350215009957 0.022999710522598523 0.06880606020675462
v 0.09568347717038961 0.022999710522598523 0.06880606020675462
v 0.022056350215009957 0.019749710118404536 0.07205605822676286
v 0.09576504493284865 0.019749710118404536 0.07205605822676286
v 0.09574937606418032 0.020382749578742306 0.07199380713715087
v 0.09573416495917364 0.020993029602027754 0.07180883723924669
v 0.09572012687354992 0.02155273866163032 0.07151004631422353
v 0.09570769096074194 0.022046579821856756 0.07110541661593128
v 0.09569748664578448 0.022449340318530627 0.07061551889891504
v 0.09568981910445196 0.0227511591594407 0.07005265079320999
v 0.09568509841669126 0.022936338865689795 0.06944461667288948
v 0.022056350215009957 0.022888969863452676 0.06964722000850987
v 0.022056350215009957 0.02256428906550356 0.07043105921675874
v 0.022056350215009957 0.02204780052495447 0.07110414822911881
v 0.022056350215009957 0.02137470912840866 0.07162063915385364
v 0.022056350215009957 0.02059086992015979 0.07194531756761702
v 0.07733787840594619 0.02059086992015979 0.07194531756761702
v 0.058910697573929305 0.02059086992015979 0.07194531756761702
v 0.040483531047026844 0.02059086992015979 0.07194531756761702
v 0.07733787840594619 0.02137470912840866 0.07162063915385364
v 0.058910697573929305 0.02137470912840866 0.07162063915385364
v 0.040483531047026844 0.02137470912840866 0.07162063915385364
v 0.07733787840594619 0.02204687069251676 0.07110508759829948
v 0.058910697573929305 0.022047180636662663 0.07110477765415357
v 0.040483531047026844 0.022047490580808567 0.07110446771000767
v 0.07733787840594619 0.02256428906550356 0.07043105921675874
v 0.058910697573929305 0.02256428906550356 0.07043105921675874
v 0.040483531047026844 0.02256428906550356 0.07043105921675874
v 0.07733787840594619 0.022888969863452676 0.06964722000850987
v 0.058910697573929305 0.022888969863452676 0.06964722000850987
v 0.040483531047026844 0.022888969863452676 0.06964722000850987
v 0.09673156522069348 0.007324479654629234 0.07205605822676286
v 0.09705634853862932 0.01149970982596926 0.07205605822676286
v 0.09673156522069348 0.015674929268473466 0.07205605822676286
v 0.09642600797654666 9.305000097192816e-05 0.0683060583105819
v 0.0971223141896207 0.00036726999206982547 0.0683060583105819
v 0.09772909899661464 0.0008053000091321759 0.0683060583105819
v 0.09820858735869997 0.0013798799802389736 0.0683060583105819
v 0.09853093880718333 0.002055259897069783 0.0683060583105819
v 0.09853093880718333 0.002055259897069783 0.06880606020675462
v 0.09820858735869997 0.0013798799802389736 0.06880606020675462
v 0.09772909899661464 0.0008053000091321759 0.06880606020675462
v 0.0971223141896207 0.00036726999206982547 0.06880606020675462
v 0.09642600797654666 9.305000097192816e-05 0.06880606020675462
v 0.09853093880718333 0.020944149026032918 0.06880606020675462
v 0.09853093880718333 0.020944149026032918 0.0683060583105819
v 0.09820858735869997 0.021619529240886944 0.0683060583105819
v 0.09772909899661464 0.022194120387864388 0.0683060583105819
v 0.0971223141896207 0.022632150144156423 0.0683060583105819
v 0.09642600797654666 0.022906369650966592 0.0683060583105819
v 0.09642600797654666 0.022906369650966592 0.06880606020675462
v 0.0971223141896207 0.022632150144156423 0.06880606020675462
v 0.09772909899661464 0.022194120387864388 0.06880606020675462
v 0.09820858735869997 0.021619529240886944 0.06880606020675462
v 0.09862157601218868 0.002333039887256027 0.06805605736249554
v 0.0996954895624036 0.006860569562154194 0.06805605736249554
v 0.10005635037892269 0.01149970982596926 0.06805605736249554
v 0.0996954895624036 0.016138839360948506 0.06805605736249554
v 0.09862157601218868 0.020666369929916325 0.06805605736249554
v 0.09860523957151379 0.02071713878101544 0.06806016769870737
v 0.09858918923312743 0.020766698849945527 0.0680726894422019
v 0.0985741021057791 0.020813028347200998 0.06809342708974864
v 0.0985602547550144 0.02085529996033086 0.0681226476701502
v 0.09854581612618674 0.020899168977905 0.0681696685812696
v 0.0985401131539021 0.020916430482646128 0.06819716777956852
v 0.09853568810517288 0.02092982960649214 0.068226889038975
v 0.0985321499735381 0.0209405202953401 0.06826569881441369
v 0.09853196877542203 0.020941059121316826 0.06884321058891985
v 0.09853492516573681 0.020932108888057407 0.06887893045964244
v 0.09853935975120898 0.020918750295368934 0.06891048754206697
v 0.09854520577463788 0.020901019106037474 0.06893983686849836
v 0.0985603119754721 0.020855140219886433 0.06898962820344501
v 0.09857343453377254 0.02081502867903495 0.06901759947052
v 0.09858775872168479 0.020771090520074417 0.06903790796463394
v 0.09860448616882067 0.020719449056995295 0.06905155981216815
v 0.09862157601218868 0.020666369929916325 0.0690560563864695
v 0.0996954895624036 0.016138839360948506 0.0690560563864695
v 0.10005635037892269 0.01149970982596926 0.0690560563864695
v 0.0996954895624036 0.006860569562154194 0.0690560563864695
v 0.09862157601218868 0.002333039887256027 0.0690560563864695
v 0.09860523957151379 0.002282279976853429 0.06905193651351471
v 0.09858918923312743 0.0022327099241455646 0.06903941953839166
v 0.0985741021057791 0.002186379979855268 0.06901867712247345
v 0.0985602547550144 0.0021441199896308767 0.06898945654207189
v 0.09854581612618674 0.002100239945197701 0.06894244039932396
v 0.0985401131539021 0.0020829899143504356 0.06891493643265356
v 0.09853568810517288 0.002069579912656993 0.06888522947836151
v 0.0985321499735381 0.0020588999526448544 0.06884641016617987
v 0.09853196877542203 0.0020583599345752597 0.06826889839167372
v 0.09853492516573681 0.0020673100188230704 0.06823318805769407
v 0.09853935975120898 0.0020806699526160206 0.06820162620689807
v 0.09854520577463788 0.002098399949854612 0.06817227688046668
v 0.0985603119754721 0.002144279879086913 0.06812248077714855
v 0.09857343453377254 0.002184379946044534 0.06809450951007356
v 0.09858775872168479 0.0022283298769221467 0.06807419624758815
v 0.09860448616882067 0.002279969998896791 0.06806054916842541
v 0.09650438093011715 0.0030124598068194115 0.06515827986989287
v 0.09719331524089014 0.0027913697930119215 0.06545797678549636
v 0.09778491755310625 0.0026015298977152264 0.06593473763909774
v 0.09823887605431203 0.0024558498906526722 0.06655605644234885
v 0.09852423447688885 0.002364279872977437 0.06727959959329066
v 0.098125646305256 0.0012792999756492671 0.06799527969966945
v 0.09659092687239657 0.00022581999616727228 0.06757760850539185
v 0.09626247190842463 0.0026548098924425996 0.0651554379204935
v 0.09836523789841145 0.001663449965489283 0.0681192287478023
v 0.09838520783815063 0.0017277399809418612 0.06794410076862345
v 0.09841680306754697 0.0018300298937403423 0.06778913823241428
v 0.0984584786342424 0.001965949938462302 0.0676614078657014
v 0.09848466653038557 0.0020519598859855544 0.06760584680126946
v 0.09851304787740744 0.002145709943494722 0.06756124822285958
v 0.09854280251541425 0.002244489887852446 0.06752920953491603
v 0.09815309305146869 0.0013819700170613067 0.06770266858407847
v 0.09819688577509922 0.0015462799024668348 0.06744140951093858
v 0.09825526971544463 0.0017664900027254957 0.06722287027784724
v 0.09829234857203772 0.001906930016571356 0.06712615816758216
v 0.09833289880306495 0.0020609800056894108 0.0670470985685192
v 0.09837575692588629 0.002224379877201171 0.06698867648120199
v 0.09744979640581164 0.0006290999659352008 0.06776153889831438
v 0.09748022815256796 0.0008101899740802497 0.06724886743913139
v 0.09752905627647657 0.0011000499628473074 0.06679119914491771
v 0.09759474536192236 0.0014885499740716066 0.06640851826052696
v 0.09763681193507878 0.0017363299041316669 0.06623926968337734
v 0.09768312235884835 0.002008099958119541 0.06610101075244668
v 0.0977324463933904 0.0022963599347391723 0.06599898667635795
v 0.09810333986349384 0.00224088991640009 0.0664674791738209
v 0.09805375833689212 0.0020131399777574828 0.0665503963854075
v 0.09800711412711927 0.0017987899080189327 0.06666189998398941
v 0.09796466608424481 0.0016036699353828285 0.06679771750872465
v 0.09789820452261999 0.0012983499177169064 0.06710337012030099
v 0.09784868975321892 0.0010710099845153834 0.06746747819779486
v 0.09781776209582915 0.0009291799903844293 0.06787437764090942
v 0.09703516743253537 0.00039197999107882375 0.06766139832895846
v 0.09706186077605494 0.0006114999813251197 0.06705634920918158
v 0.09710462353144678 0.0009615399473561351 0.06651967853636265
v 0.0971621110179548 0.0014280900039950748 0.06607573838362679
v 0.09719888469877347 0.001724089941589013 0.06588188977803533
v 0.09723933956237119 0.0020473499138500546 0.06572567792849959
v 0.0972823979567945 0.002388609892384485 0.06561289640636225
v 0.09613548063929045 0.00013287000061117102 0.0675123962570936
v 0.09614971899651614 0.00042220997611708966 0.06677600711339693
v 0.09617226385685207 0.0008773999465093023 0.06613823742855551
v 0.09620203756834478 0.0014722700087963778 0.06563149782348798
v 0.0962207772682433 0.0018427300041303771 0.0654210266749331
v 0.09624111914095757 0.002241139957879334 0.06526059004827012
v 0.09678172848861522 0.0025112100874362104 0.06532930704960282
v 0.09674884579892051 0.0021275099636425816 0.06544301840417788
v 0.09671783231084419 0.0017614098989648384 0.06560661646112909
v 0.09668951772102297 0.0014239199141281853 0.06581430764911378
v 0.09664503835189997 0.0008876500080306076 0.06629999966248867
v 0.09661175511900133 0.00048183000500880136 0.066897290641875
v 0.09650438093011715 0.019986959249072674 0.06515827986989287
v 0.09719331524089014 0.020208038832067562 0.06545797678549636
v 0.09778491755310625 0.02039788915817686 0.06593473763909774
v 0.09823887605431203 0.020543560522566114 0.06655605644234885
v 0.09852423447688885 0.020635139480937866 0.06727959959329066
v 0.0974986912869209 0.007204409676691669 0.06515827986989287
v 0.09821352739154854 0.007092529972809624 0.06545797678549636
v 0.0988273789250691 0.006996449671765047 0.06593473763909774
v 0.09929839865941403 0.006922719919918773 0.06655605644234885
v 0.09959448591781062 0.006876379693827483 0.06727959959329066
v 0.09783281107620567 0.01149970982596926 0.06515827986989287
v 0.09855634469040453 0.01149970982596926 0.06545797678549636
v 0.09917766349365564 0.01149970982596926 0.06593473763909774
v 0.09965442434725702 0.01149970982596926 0.06655605644234885
v 0.099954126031232 0.01149970982596926 0.06727959959329066
v 0.0974986912869209 0.01579499924641103 0.06515827986989287
v 0.09821352739154854 0.01590688908308246 0.06545797678549636
v 0.0988273789250691 0.016002969384127038 0.06593473763909774
v 0.09929839865941403 0.01607668959923036 0.06655605644234885
v 0.09959448591781062 0.016123039362064603 0.06727959959329066
v 0.09836245316946979 0.021344918727615788 0.06816183891530692
v 0.09812183160807564 0.021734370699501678 0.06806623783559562
v 0.09658802770253949 0.02280930944958381 0.06774363843179554
v 0.09613348746001371 0.022907039607158893 0.06769302693695511
v 0.09854095238728178 0.02076106978741876 0.06753077832913146
v 0.09850939530485725 0.0208657999143198 0.067566216865937
v 0.0984797455710229 0.02096364928118177 0.06761513082053217
v 0.09845248002292628 0.021053120619361373 0.06767644730933497
v 0.09842781800565525 0.021133589272195327 0.06774939862453788
v 0.09840643662795934 0.021203028681806565 0.06783199635523562
v 0.09838846940423984 0.021261150361720823 0.06792381611636689
v 0.09837453622278858 0.02130606842101956 0.06802207794736148
v 0.09837308663786004 0.020785228741499125 0.06699159949291644
v 0.09832765359444195 0.020958370693958447 0.06705599634969239
v 0.09828535813945471 0.021119000439666188 0.0671424087775705
v 0.09824682016119013 0.021264888764957576 0.06724883882890254
v 0.09821223993125017 0.021395339487597195 0.06737382738201703
v 0.09818246621975746 0.021507310386583708 0.0675139888931664
v 0.09815759439414151 0.02160059880612941 0.06766863671685819
v 0.0981384064673243 0.021672420017292634 0.06783320752159039
v 0.0981002404220348 0.020772740376604922 0.06647164673049044
v 0.09804773111534715 0.021014019973262684 0.06656298965447416
v 0.09799909372629756 0.02123748016571669 0.06668475955684272
v 0.09795500536363555 0.021440109727380193 0.06683410971982529
v 0.09791563768873424 0.02162100982023007 0.06700899928043036
v 0.0978818680819451 0.021776079644797438 0.06720462648858216
v 0.09785375376372585 0.021905118929480324 0.0674201187323007
v 0.09783212443071321 0.022004379734299025 0.06764910069892327
v 0.09781347056150125 0.02208991955019712 0.06797296848953582
v 0.09727970859528234 0.020632040039478824 0.06561843725401673
v 0.09723409435374819 0.02099380923076399 0.06574313016809974
v 0.09719194194990521 0.021331099987079934 0.06591429086221101
v 0.09715375683112981 0.02163886975559137 0.06612811894428461
v 0.09711970112205215 0.021915158735621883 0.06638176769654969
v 0.0970905186886224 0.022153119545732732 0.06666828960176652
v 0.0970662381410694 0.022351948715330302 0.06698620646477771
v 0.09704755566162859 0.022505399677781753 0.06732591955380318
v 0.09703146717627043 0.02263796994154221 0.06780848828386166
v 0.09744558116542734 0.02239546010504378 0.06788586941616526
v 0.09746392985886487 0.022286209561984013 0.06747758714532281
v 0.09748522540587423 0.022159509163509835 0.06718925802731679
v 0.09751293918088955 0.021994950279706323 0.06691832869682468
v 0.09754627009750294 0.021797420491335814 0.06667284816489705
v 0.09758518954548556 0.02156727027370175 0.06645397037743095
v 0.09762885829145773 0.021309859276342543 0.06626769871411398
v 0.09767711421078928 0.021026470191185084 0.06611657948531402
v 0.09772935648867431 0.020721039308882357 0.06600408883383668
v 0.09677967808888077 0.02051198913502716 0.06533472868797041
v 0.09674484036688114 0.0209190387818432 0.0654610571534695
v 0.09671249173479168 0.0213014383323169 0.06564104887155331
v 0.09668307088278816 0.021652800552856896 0.06587100835432835
v 0.09665672086201482 0.02197019051082005 0.06614803643193756
v 0.09663408063424939 0.02224504897940793 0.06646455616210645
v 0.0966151788097207 0.022475749943947406 0.06681879847901762
v 0.09660060666649173 0.022654449433361364 0.06719974844456278
v 0.09626114630115445 0.02037013962037548 0.0651601776817401
v 0.09623849653664607 0.02080936862209359 0.06527792784695485
v 0.09621724867335146 0.02122607898951889 0.06545549723232913
v 0.09619774603401687 0.02161242913576 0.06568980070151831
v 0.09618013166978656 0.02196423958321869 0.06597815842975319
v 0.09616485380757922 0.02227103898813487 0.06631275982455698
v 0.09615203642505321 0.022530078384352944 0.06669158786479557
v 0.09614210867564132 0.022731680361963488 0.06710247843483508
v 0.09852423447688885 0.002364279872977437 0.0698325093873029
v 0.09823887605431203 0.0024558498906526722 0.07055605730661618
v 0.09778491755310625 0.0026015298977152264 0.0711773761098673
v 0.09719331524089014 0.0027913697930119215 0.07165412742672572
v 0.09650438093011715 0.0030124598068194115 0.0719538291107007
v 0.09836245316946979 0.0016545000302530808 0.06895027006528665
v 0.09812183160807564 0.0012650400117403258 0.06904586637662646
v 0.09658802770253949 0.0001901099974637478 0.06936848008554097
v 0.09613348746001371 9.236999580927197e-05 0.06941908681200992
v 0.09614210867564132 0.0002677399977801739 0.07000963054575848
v 0.09615203642505321 0.00046932997995622467 0.07042051634742652
v 0.09616485380757922 0.0007283700094736361 0.07079934915603658
v 0.09618013166978656 0.0010351799942140275 0.07113395055084037
v 0.09619774603401687 0.0013869799363543098 0.07142230827907525
v 0.09621724867335146 0.001773339917361588 0.07165660697989296
v 0.09623849653664607 0.002190040002985893 0.07183417636526723
v 0.09626114630115445 0.002629280031563041 0.07195192653048199
v 0.09660060666649173 0.00034495997402906453 0.06991237007277373
v 0.0966151788097207 0.0005236599849836528 0.07029331050157595
v 0.09663408063424939 0.0007543600182005754 0.07064755758685859
v 0.09665672086201482 0.001029219976904541 0.07096406778028452
v 0.09668307088278816 0.0013466100093734998 0.07124110062626521
v 0.09671249173479168 0.0016979799785171443 0.07147106010904025
v 0.09674484036688114 0.00208037997602567 0.07165104705875258
v 0.09677967808888077 0.002487419937087148 0.0717773898293661
v 0.09744558116542734 0.0006039499728988858 0.0692262395644283
v 0.09746392985886487 0.0007132100154487036 0.06963452660364222
v 0.09748522540587423 0.0008398999831102787 0.0699228461849053
v 0.09751293918088955 0.0010044599845008548 0.07019378028376888
v 0.09754627009750294 0.001201999980166554 0.07043925604732504
v 0.09758518954548556 0.0014321499742832031 0.07065813860316261
v 0.09762885829145773 0.0016895599285611516 0.07084441026647958
v 0.09767711421078928 0.0019729399240104857 0.07099553903202249
v 0.09772935648867431 0.002278379896021337 0.07110802014675688
v 0.09727970859528234 0.0023673799104829136 0.07149366695820536
v 0.09723409435374819 0.0020056099741397044 0.07136897881249382
v 0.09719194194990521 0.0016683099791040266 0.07119781811838255
v 0.09715375683112981 0.001360539912569375 0.07098399003630895
v 0.09711970112205215 0.001084259947741181 0.0707303365156724
v 0.0970905186886224 0.000846289973416403 0.07044382891557
v 0.0970662381410694 0.000647459984254986 0.07012589774744438
v 0.09704755566162859 0.0004940199741567674 0.06978619896353333
v 0.09703146717627043 0.0003614399873888493 0.0693036206967319
v 0.09781347056150125 0.0009094899689520152 0.06913914049105774
v 0.09783212443071321 0.0009950300083675227 0.06946300828167029
v 0.09785375376372585 0.0010942999774001536 0.06969199024829287
v 0.0978818680819451 0.0012233400071410825 0.06990747772363992
v 0.09791563768873424 0.0013783999969422809 0.07010311923690615
v 0.09795500536363555 0.0015592999407805506 0.07027799926076828
v 0.09799909372629756 0.0017619399332566563 0.07042735896049379
v 0.09804773111534715 0.0019853899929212766 0.07054912886286235
v 0.0981002404220348 0.002226680020391641 0.07064045748173164
v 0.09837453622278858 0.0016933498898144825 0.0690900262648606
v 0.09838846940423984 0.0017382599024863552 0.0691882880958552
v 0.09840643662795934 0.0017963799432729186 0.06928011739372941
v 0.09842781800565525 0.0018658199489305913 0.06936271035605568
v 0.09845248002292628 0.001946299926646799 0.06943565690288711
v 0.0984797455710229 0.002035759939944148 0.06949698769680435
v 0.09850939530485725 0.0021336198866303275 0.06954589688302804
v 0.09854095238728178 0.00223835001353137 0.0695813306514621
v 0.09837308663786004 0.0022141900163697432 0.07012050948767712
v 0.09832765359444195 0.0020410500010613337 0.07005610786252969
v 0.09828535813945471 0.0018804199573303755 0.06996970020302307
v 0.09824682016119013 0.0017345200091335165 0.06986327968843398
v 0.09821223993125017 0.0016040700315519405 0.06973827683020506
v 0.09818246621975746 0.001492100026635079 0.06959812962417011
v 0.09815759439414151 0.0013988199517394604 0.0694434674953639
v 0.0981384064673243 0.001326989948891327 0.0692788966906317
v 0.09852423447688885 0.020635139480937866 0.0698325093873029
v 0.09823887605431203 0.020543560522566114 0.07055605730661618
v 0.09778491755310625 0.02039788915817686 0.0711773761098673
v 0.09719331524089014 0.020208038832067562 0.07165412742672572
v 0.09650438093011715 0.019986959249072674 0.0719538291107007
v 0.09959448591781062 0.006876379693827483 0.0698325093873029
v 0.09929839865941403 0.006922719919918773 0.07055605730661618
v 0.0988273789250691 0.006996449671765047 0.0711773761098673
v 0.09821352739154854 0.007092529972809624 0.07165412742672572
v 0.0974986912869209 0.007204409676691669 0.0719538291107007
v 0.099954126031232 0.01149970982596926 0.0698325093873029
v 0.09965442434725702 0.01149970982596926 0.07055605730661618
v 0.09917766349365564 0.01149970982596926 0.0711773761098673
v 0.09855634469040453 0.01149970982596926 0.07165412742672572
v 0.09783281107620567 0.01149970982596926 0.0719538291107007
v 0.09959448591781062 0.016123039362064603 0.0698325093873029
v 0.09929839865941403 0.01607668959923036 0.07055605730661618
v 0.0988273789250691 0.016002969384127038 0.0711773761098673
v 0.09821352739154854 0.01590688908308246 0.07165412742672572
v 0.0974986912869209 0.01579499924641103 0.0719538291107007
v 0.098125646305256 0.021720108500418608 0.06911682928092411
v 0.09659092687239657 0.022773599115604167 0.06953450047520171
v 0.09626247190842463 0.02034460975949592 0.07195668059684301
v 0.09624111914095757 0.020758268369176932 0.07185151893232344
v 0.0962207772682433 0.021156689647808143 0.07169108707403193
v 0.09620203756834478 0.021527139659364366 0.0714806063887341
v 0.09617226385685207 0.02212202022696985 0.07097386678366657
v 0.09614971899651614 0.02257719943127334 0.07033609709882516
v 0.09613548063929045 0.02286654898077511 0.06959970795512849
v 0.09678172848861522 0.020488209266479093 0.07178279716261926
v 0.09674884579892051 0.0208718986614369 0.07166909057641568
v 0.09671783231084419 0.021238009454950465 0.071505487751093
v 0.09668951772102297 0.02157548856193969 0.0712977965631083
v 0.09664503835189997 0.02211177061248337 0.07081210931810489
v 0.09661175511900133 0.02251759001945874 0.07021482787546152
v 0.0972823979567945 0.020610799328741432 0.07149920780585983
v 0.09723933956237119 0.02095205975431069 0.07138642628372249
v 0.09719888469877347 0.021275319577560122 0.07123021920255823
v 0.0971621110179548 0.021571330542013097 0.07103637059696677
v 0.09710462353144678 0.022037879928099798 0.07059243044423091
v 0.09706186077605494 0.022387918925555358 0.07005575977141199
v 0.09703516743253537 0.022607440443170642 0.0694507106516351
v 0.09810333986349384 0.020758518708679393 0.07064462980677266
v 0.09805375833689212 0.020986270435461304 0.07056170782681459
v 0.09800711412711927 0.021200630190954414 0.07045020899660415
v 0.09796466608424481 0.021395740030801132 0.07031438670349743
v 0.09789820452261999 0.021701068393117137 0.07000873886029257
v 0.09784868975321892 0.02192841003995216 0.0696446307827987
v 0.09781776209582915 0.02207024048111794 0.06923772657131266
v 0.09744979640581164 0.022370318866439472 0.06935057008227918
v 0.09748022815256796 0.022189230422916314 0.0698632367730907
v 0.09752905627647657 0.02189937065766667 0.07032090983567585
v 0.09759474536192236 0.02151086997589013 0.0707035907200666
v 0.09763681193507878 0.021263088704725593 0.07087283929721622
v 0.09768312235884835 0.020991310604110854 0.07101109822814688
v 0.0977324463933904 0.020703060164234174 0.07111311753586413
v 0.09837575692588629 0.02077503873165609 0.07012343726776304
v 0.09833289880306495 0.020938438901191066 0.07006501994881731
v 0.09829234857203772 0.021092490678448424 0.0699859508130114
v 0.09825526971544463 0.021232928755143373 0.06988923870274633
v 0.09819688577509922 0.02145312976569391 0.06967070900639794
v 0.09815309305146869 0.021617440694180697 0.06940944993325804
v 0.09854280251541425 0.020754930509144117 0.06958289944567753
v 0.09851304787740744 0.020853709708443798 0.06955087029447693
v 0.09848466653038557 0.020947460660022618 0.06950625741095262
v 0.0984584786342424 0.021033470160511044 0.06945069634652068
v 0.09841680306754697 0.021169390205233004 0.06932297074817928
v 0.09838520783815063 0.021271669389195665 0.06916801774871306
v 0.09836523789841145 0.021335958957613418 0.06899288976953422
v -0.01749999960884452 0.005499709721661138 0.06299970962852885
v -0.015947090030899114 0.0057041500723924434 0.06299970962852885
v -0.014500000152736892 0.0063035498640637835 0.06299970962852885
v -0.013257360162048926 0.007257069783127234 0.06299970962852885
v -0.012303849183681992 0.008499709773815199 0.06299970962852885
v -0.011704449392010652 0.009946789519188036 0.06299970962852885
v -0.011499999504536396 0.01149970982596926 0.06299970962852885
v -0.011704449392010652 0.013052619403914665 0.06299970962852885
v -0.012303849183681992 0.014499709282076887 0.06299970962852885
v -0.013257360162048926 0.01574234927276485 0.06299970962852885
v -0.014500000152736892 0.016695859059038917 0.06299970962852885
v -0.015947090030899114 0.017295260042803125 0.06299970962852885
v -0.01749999960884452 0.01749970993027738 0.06299970962852885
v -0.019052909186789924 0.017295260042803125 0.06299970962852885
v -0.020499999064952146 0.016695859059038917 0.06299970962852885
v -0.02174263905564011 0.01574234927276485 0.06299970962852885
v -0.022696148841914177 0.014499709282076887 0.06299970962852885
v -0.023295549825678386 0.013052619403914665 0.06299970962852885
v -0.023499998521059773 0.01149970982596926 0.06299970962852885
v -0.023295549825678386 0.009946789519188036 0.06299970962852885
v -0.022696148841914177 0.008499709773815199 0.06299970962852885
v -0.02174263905564011 0.007257069783127234 0.06299970962852885
v -0.020499999064952146 0.0063035498640637835 0.06299970962852885
v -0.019052909186789924 0.0057041500723924434 0.06299970962852885
v -0.021252779485595674 0.017999709442264363 0.06259630063333432
v -0.021252779485595674 0.017999709442264363 0.05786893715257335
v -0.02224240968579627 0.016285609834962852 0.0574255596676716
v -0.023129169423971252 0.014749710230163247 0.05728837838869438
v -0.02401591962540328 0.013213809433270772 0.0574255596676716
v -0.02500554982560388 0.01149970982596926 0.05786893715257335
v -0.02500554982560388 0.01149970982596926 0.06259630063333432
v -0.023129169423971252 0.014749710230163247 0.06286572792681167
v -0.02401591962540328 0.009785609622621315 0.0574255596676716
v -0.023129169423971252 0.008249710017821708 0.05728837838869438
v -0.02224240968579627 0.006713809816975668 0.0574255596676716
v -0.021252779485595674 0.004999709911650939 0.05786893715257335
v -0.021252779485595674 0.004999709911650939 0.06259630063333432
v -0.023129169423971252 0.008249710017821708 0.06286572792681167
v -0.019273500011708578 0.004999709911650939 0.0574255596676716
v -0.01749999960884452 0.004999709911650939 0.05728837838869438
v -0.01572649920598046 0.004999709911650939 0.0574255596676716
v -0.013747219732093363 0.004999709911650939 0.05786893715257335
v -0.013747219732093363 0.004999709911650939 0.06259630063333432
v -0.01749999960884452 0.004999709911650939 0.06286572792681167
v -0.012757589531892766 0.006713809816975668 0.0574255596676716
v -0.011870829793717785 0.008249710017821708 0.05728837838869438
v -0.010984079592285756 0.009785609622621315 0.0574255596676716
v -0.009994449988131593 0.01149970982596926 0.05786893715257335
v -0.009994449988131593 0.01149970982596926 0.06259630063333432
v -0.011870829793717785 0.008249710017821708 0.06286572792681167
v -0.010984079592285756 0.013213809433270772 0.0574255596676716
v -0.011870829793717785 0.014749710230163247 0.05728837838869438
v -0.012757589531892766 0.016285609834962852 0.0574255596676716
v -0.013747219732093363 0.017999709442264363 0.05786893715257335
v -0.013747219732093363 0.017999709442264363 0.06259630063333432
v -0.011870829793717785 0.014749710230163247 0.06286572792681167
v -0.01572649920598046 0.017999709442264363 0.0574255596676716
v -0.01749999960884452 0.017999709442264363 0.05728837838869438
v -0.019273500011708578 0.017999709442264363 0.0574255596676716
v -0.01749999960884452 0.017999709442264363 0.06286572792681167
usemtl Material
f 2 48 1
f 1 48 25
f 1 25 24
f 24 25 26
f 24 26 23
f 23 26 27
f 23 27 22
f 22 27 28
f 22 28 21
f 21 28 29
f 21 29 20
f 20 29 30
f 20 30 19
f 19 30 31
f 19 31 18
f 18 31 32
f 18 32 17
f 17 32 33
f 17 33 16
f 16 33 34
f 16 34 15
f 15 34 35
f 15 35 14
f 14 35 36
f 14 36 13
f 13 36 37
f 13 37 12
f 12 37 38
f 12 38 11
f 11 38 39
f 11 39 10
f 10 39 40
f 10 40 9
f 9 40 41
f 9 41 8
f 8 41 42
f 8 42 7
f 7 42 43
f 7 43 6
f 6 43 44
f 6 44 5
f 5 44 45
f 5 45 4
f 4 45 46
f 4 46 3
f 3 46 47
f 3 47 2
f 2 47 48
f 50 60 49
f 49 60 61
f 49 61 72
f 72 61 62
f 72 62 71
f 71 62 63
f 71 63 70
f 70 63 64
f 70 64 69
f 69 64 65
f 69 65 68
f 68 65 66
f 68 66 67
f 60 50 59
f 59 50 51
f 59 51 58
f 58 51 52
f 58 52 57
f 57 52 53
f 57 53 56
f 56 53 54
f 56 54 55
f 2 1 73
f 73 1 24
f 73 24 23
f 73 23 78
f 78 23 22
f 78 22 21
f 21 20 78
f 78 20 19
f 78 19 77
f 77 19 18
f 77 18 17
f 17 16 77
f 77 16 15
f 77 15 76
f 76 15 14
f 76 14 13
f 13 12 76
f 76 12 11
f 76 11 75
f 75 11 10
f 75 10 9
f 9 8 75
f 75 8 7
f 75 7 74
f 74 7 6
f 74 6 5
f 5 4 74
f 74 4 3
f 74 3 73
f 73 3 2
f 77 76 80
f 80 76 79
f 76 75 79
f 79 75 81
f 75 74 81
f 81 74 82
f 72 106 49
f 49 106 83
f 49 83 50
f 50 83 84
f 50 84 51
f 51 84 85
f 51 85 52
f 52 85 86
f 52 86 53
f 53 86 87
f 53 87 54
f 54 87 88
f 54 88 55
f 55 88 89
f 55 89 56
f 56 89 90
f 56 90 57
f 57 90 91
f 57 91 58
f 58 91 92
f 58 92 59
f 59 92 93
f 59 93 60
f 60 93 94
f 60 94 61
f 61 94 95
f 61 95 62
f 62 95 96
f 62 96 63
f 63 96 97
f 63 97 64
f 64 97 98
f 64 98 65
f 65 98 99
f 65 99 66
f 66 99 100
f 66 100 67
f 67 100 101
f 67 101 68
f 68 101 102
f 68 102 69
f 69 102 103
f 69 103 70
f 70 103 104
f 70 104 71
f 71 104 105
f 71 105 72
f 72 105 106
f 26 25 95
f 95 25 48
f 95 48 96
f 96 48 47
f 96 47 97
f 97 47 46
f 97 46 98
f 98 46 45
f 98 45 99
f 99 45 44
f 99 44 100
f 100 44 43
f 100 43 101
f 101 43 102
f 102 43 42
f 102 42 103
f 103 42 41
f 103 41 104
f 104 41 40
f 104 40 105
f 105 40 39
f 105 39 106
f 106 39 38
f 106 38 83
f 83 38 37
f 83 37 84
f 84 37 36
f 84 36 35
f 84 35 85
f 85 35 34
f 85 34 86
f 86 34 33
f 86 33 87
f 87 33 32
f 87 32 88
f 88 32 31
f 88 31 89
f 89 31 90
f 90 31 30
f 90 30 91
f 91 30 29
f 91 29 92
f 92 29 28
f 92 28 93
f 93 28 27
f 93 27 94
f 94 27 26
f 94 26 95
f 108 142 107
f 107 142 143
f 107 143 130
f 130 143 144
f 130 144 129
f 129 144 145
f 129 145 128
f 128 145 146
f 128 146 127
f 127 146 147
f 127 147 126
f 126 147 148
f 126 148 125
f 125 148 149
f 125 149 124
f 124 149 150
f 124 150 123
f 123 150 151
f 123 151 122
f 122 151 152
f 122 152 121
f 121 152 153
f 121 153 120
f 120 153 154
f 120 154 119
f 119 154 131
f 119 131 118
f 118 131 132
f 118 132 117
f 117 132 133
f 117 133 116
f 116 133 134
f 116 134 115
f 115 134 135
f 115 135 114
f 114 135 136
f 114 136 113
f 113 136 137
f 113 137 112
f 112 137 138
f 112 138 111
f 111 138 139
f 111 139 110
f 110 139 140
f 110 140 109
f 109 140 141
f 109 141 108
f 108 141 142
f 155 123 82
f 82 123 122
f 82 122 121
f 156 127 155
f 155 127 126
f 155 126 125
f 80 107 156
f 156 107 130
f 156 130 129
f 79 111 80
f 80 111 110
f 80 110 109
f 81 115 79
f 79 115 114
f 79 114 113
f 82 119 81
f 81 119 118
f 81 118 117
f 129 128 156
f 156 128 127
f 125 124 155
f 155 124 123
f 121 120 82
f 82 120 119
f 117 116 81
f 81 116 115
f 113 112 79
f 79 112 111
f 109 108 80
f 80 108 107
f 74 73 82
f 82 73 155
f 73 78 155
f 155 78 156
f 78 77 156
f 156 77 80
f 180 157 187
f 187 157 158
f 187 158 186
f 186 158 159
f 186 159 185
f 185 159 160
f 185 160 184
f 184 160 161
f 184 161 183
f 183 161 162
f 183 162 182
f 182 162 181
f 181 162 163
f 181 163 204
f 204 163 164
f 204 164 203
f 203 164 165
f 203 165 202
f 202 165 166
f 202 166 201
f 201 166 167
f 201 167 200
f 200 167 168
f 200 168 199
f 199 168 169
f 199 169 170
f 199 170 198
f 198 170 171
f 198 171 197
f 197 171 172
f 197 172 196
f 196 172 173
f 196 173 195
f 195 173 174
f 195 174 194
f 194 174 175
f 194 175 193
f 193 175 192
f 192 175 176
f 192 176 191
f 191 176 177
f 191 177 190
f 190 177 178
f 190 178 189
f 189 178 179
f 189 179 188
f 188 179 180
f 188 180 187
f 206 246 205
f 205 246 247
f 205 247 228
f 228 247 248
f 228 248 227
f 227 248 249
f 227 249 226
f 226 249 250
f 226 250 225
f 225 250 251
f 225 251 224
f 224 251 252
f 224 252 223
f 223 252 229
f 223 229 222
f 222 229 230
f 222 230 221
f 221 230 231
f 221 231 220
f 220 231 232
f 220 232 219
f 219 232 233
f 219 233 218
f 218 233 234
f 218 234 217
f 217 234 235
f 217 235 216
f 216 235 236
f 216 236 215
f 215 236 237
f 215 237 214
f 214 237 238
f 214 238 213
f 213 238 239
f 213 239 212
f 212 239 240
f 212 240 211
f 211 240 241
f 211 241 210
f 210 241 242
f 210 242 209
f 209 242 243
f 209 243 208
f 208 243 244
f 208 244 207
f 207 244 245
f 207 245 206
f 206 245 246
f 254 255 253
f 253 255 272
f 272 255 256
f 272 256 257
f 257 258 272
f 272 258 271
f 271 258 270
f 270 258 269
f 269 258 259
f 269 259 268
f 268 259 260
f 268 260 261
f 261 262 268
f 268 262 267
f 267 262 266
f 266 262 265
f 265 262 264
f 264 262 263
f 254 273 255
f 255 273 274
f 132 131 264
f 264 131 154
f 264 154 265
f 265 154 153
f 265 153 152
f 152 151 265
f 265 151 150
f 265 150 149
f 265 149 285
f 285 149 148
f 285 148 147
f 147 146 285
f 285 146 145
f 285 145 144
f 285 144 284
f 284 144 143
f 284 143 142
f 284 142 280
f 280 142 141
f 280 141 140
f 280 140 279
f 279 140 139
f 279 139 138
f 137 276 138
f 138 276 277
f 138 277 278
f 276 137 275
f 275 137 136
f 275 136 292
f 292 136 291
f 291 136 290
f 290 136 135
f 290 135 134
f 290 134 289
f 289 134 133
f 289 133 132
f 289 132 264
f 278 279 138
f 280 281 284
f 284 281 282
f 284 282 283
f 286 287 264
f 264 287 288
f 264 288 289
f 294 318 293
f 293 318 319
f 293 319 320
f 295 296 294
f 294 296 297
f 294 297 298
f 299 314 298
f 298 314 315
f 298 315 294
f 294 315 316
f 294 316 317
f 300 312 299
f 299 312 313
f 299 313 314
f 300 301 312
f 312 301 302
f 312 302 311
f 311 302 303
f 311 303 334
f 334 303 304
f 334 304 305
f 305 306 334
f 334 306 333
f 333 306 332
f 332 306 307
f 332 307 331
f 331 307 263
f 331 263 330
f 330 263 329
f 329 263 328
f 328 263 262
f 328 262 327
f 327 262 326
f 326 262 325
f 325 262 324
f 324 262 323
f 323 262 293
f 323 293 322
f 322 293 321
f 321 293 320
f 307 308 263
f 263 308 309
f 263 309 310
f 317 318 294
f 335 253 336
f 336 253 272
f 255 274 256
f 256 274 337
f 256 337 257
f 257 337 338
f 257 338 258
f 258 338 339
f 340 259 339
f 339 259 258
f 259 340 343
f 343 340 341
f 343 341 344
f 344 341 342
f 344 342 293
f 293 262 344
f 344 262 261
f 344 261 343
f 343 261 260
f 343 260 259
f 265 285 266
f 266 285 345
f 266 345 267
f 267 345 346
f 267 346 268
f 268 346 347
f 348 269 347
f 347 269 268
f 269 348 351
f 351 348 349
f 351 349 352
f 352 349 350
f 352 350 336
f 336 272 352
f 352 272 271
f 352 271 351
f 351 271 270
f 351 270 269
f 273 335 274
f 274 335 336
f 274 336 337
f 337 336 338
f 338 336 339
f 339 336 350
f 339 350 349
f 349 348 339
f 339 348 340
f 340 348 347
f 340 347 341
f 341 347 342
f 342 347 293
f 293 347 346
f 293 346 345
f 345 285 293
f 293 285 284
f 293 284 294
f 280 279 298
f 298 279 299
f 290 289 306
f 306 289 307
f 180 312 157
f 157 312 311
f 157 311 158
f 158 311 334
f 158 334 159
f 159 334 333
f 159 333 160
f 160 333 332
f 160 332 161
f 161 332 331
f 161 331 162
f 162 331 330
f 162 330 163
f 163 330 329
f 163 329 164
f 164 329 328
f 164 328 165
f 165 328 327
f 165 327 166
f 166 327 326
f 166 326 167
f 167 326 325
f 167 325 168
f 168 325 324
f 168 324 169
f 169 324 323
f 169 323 170
f 170 323 322
f 170 322 171
f 171 322 321
f 171 321 172
f 172 321 320
f 172 320 173
f 173 320 319
f 173 319 174
f 174 319 318
f 174 318 175
f 175 318 317
f 175 317 176
f 176 317 316
f 176 316 177
f 177 316 315
f 177 315 178
f 178 315 314
f 178 314 179
f 179 314 313
f 179 313 180
f 180 313 312
f 228 218 205
f 205 218 217
f 205 217 206
f 206 217 216
f 206 216 207
f 207 216 215
f 207 215 208
f 208 215 214
f 208 214 209
f 209 214 213
f 209 213 210
f 210 213 212
f 210 212 211
f 218 228 219
f 219 228 227
f 219 227 220
f 220 227 226
f 220 226 221
f 221 226 225
f 221 225 222
f 222 225 224
f 222 224 223
f 294 284 295
f 295 284 283
f 295 283 296
f 296 283 282
f 296 282 297
f 297 282 281
f 297 281 298
f 298 281 280
f 307 289 308
f 308 289 288
f 308 288 309
f 309 288 287
f 309 287 310
f 310 287 286
f 310 286 263
f 263 286 264
f 354 355 353
f 353 355 359
f 359 355 356
f 359 356 357
f 359 357 358
f 358 357 275
f 358 275 303
f 303 275 304
f 304 275 292
f 304 292 291
f 290 306 291
f 291 306 305
f 291 305 304
f 373 360 372
f 372 360 361
f 372 361 371
f 371 361 362
f 371 362 370
f 370 362 363
f 370 363 369
f 369 363 364
f 369 364 368
f 368 364 365
f 368 365 367
f 367 365 366
f 387 374 386
f 386 374 375
f 386 375 385
f 385 375 376
f 385 376 384
f 384 376 377
f 384 377 383
f 383 377 378
f 383 378 382
f 382 378 379
f 382 379 381
f 381 379 380
f 354 353 399
f 399 353 388
f 399 388 398
f 398 388 397
f 397 388 389
f 397 389 396
f 396 389 395
f 395 389 390
f 395 390 394
f 394 390 391
f 394 391 392
f 392 393 394
f 394 393 366
f 366 393 367
f 408 400 353
f 353 400 401
f 353 401 388
f 388 401 402
f 388 402 389
f 389 402 403
f 389 403 390
f 390 403 404
f 390 404 391
f 391 404 405
f 391 405 392
f 392 405 393
f 393 405 406
f 353 359 408
f 408 359 358
f 408 358 407
f 407 358 302
f 302 358 303
f 394 409 395
f 395 409 410
f 395 410 411
f 395 411 396
f 396 411 412
f 396 412 397
f 397 412 413
f 397 413 398
f 398 413 414
f 398 414 399
f 399 414 415
f 399 415 354
f 354 415 355
f 355 415 416
f 355 416 356
f 356 416 417
f 356 417 357
f 357 417 418
f 357 418 275
f 275 418 276
f 380 394 360
f 360 394 366
f 360 366 361
f 361 366 362
f 362 366 363
f 363 366 364
f 364 366 365
f 379 374 380
f 380 374 409
f 380 409 394
f 379 378 374
f 374 378 377
f 374 377 376
f 376 375 374
f 373 381 360
f 360 381 380
f 387 381 406
f 406 381 373
f 406 373 393
f 393 373 367
f 367 373 372
f 367 372 371
f 386 385 387
f 387 385 384
f 387 384 383
f 383 382 387
f 387 382 381
f 371 370 367
f 367 370 369
f 367 369 368
f 418 407 276
f 276 407 302
f 276 302 277
f 277 302 301
f 277 301 300
f 407 418 408
f 408 418 417
f 408 417 416
f 415 400 416
f 416 400 408
f 299 279 300
f 300 279 278
f 300 278 277
f 415 414 400
f 400 414 401
f 401 414 413
f 401 413 412
f 401 412 402
f 402 412 411
f 402 411 410
f 402 410 403
f 403 410 409
f 403 409 404
f 404 409 405
f 405 409 406
f 406 409 387
f 387 409 374
f 419 420 422
f 422 420 421
f 420 438 421
f 421 438 439
f 421 439 436
f 436 439 435
f 435 439 442
f 435 442 445
f 445 442 444
f 445 444 447
f 447 444 446
f 447 446 450
f 450 446 449
f 450 449 431
f 431 449 429
f 431 429 430
f 438 420 437
f 437 420 423
f 437 423 424
f 437 424 440
f 440 424 425
f 440 425 443
f 443 425 426
f 443 426 427
f 443 427 446
f 446 427 428
f 446 428 449
f 449 428 429
f 450 431 451
f 451 431 432
f 451 432 448
f 448 432 433
f 448 433 434
f 448 434 445
f 445 434 435
f 442 439 438
f 438 437 441
f 441 437 440
f 441 440 443
f 444 442 441
f 441 442 438
f 444 441 443
f 446 444 443
f 448 445 447
f 451 448 447
f 451 447 450
f 453 467 452
f 452 467 468
f 452 468 465
f 465 468 464
f 464 468 471
f 464 471 474
f 474 471 473
f 474 473 476
f 476 473 475
f 476 475 479
f 479 475 478
f 479 478 422
f 422 478 460
f 422 460 419
f 467 453 466
f 466 453 454
f 466 454 455
f 466 455 469
f 469 455 456
f 469 456 472
f 472 456 457
f 472 457 458
f 472 458 475
f 475 458 459
f 475 459 478
f 478 459 460
f 479 422 480
f 480 422 461
f 480 461 477
f 477 461 462
f 477 462 463
f 477 463 474
f 474 463 464
f 471 468 467
f 467 466 470
f 470 466 469
f 470 469 472
f 473 471 470
f 470 471 467
f 473 470 472
f 475 473 472
f 477 474 476
f 480 477 476
f 480 476 479
f 482 483 481
f 481 483 484
f 481 484 452
f 452 484 485
f 452 485 453
f 487 501 486
f 486 501 502
f 486 502 499
f 499 502 498
f 498 502 505
f 498 505 508
f 508 505 507
f 508 507 510
f 510 507 509
f 510 509 513
f 513 509 512
f 513 512 481
f 481 512 494
f 481 494 482
f 501 487 500
f 500 487 488
f 500 488 489
f 500 489 503
f 503 489 490
f 503 490 506
f 506 490 491
f 506 491 492
f 506 492 509
f 509 492 493
f 509 493 512
f 512 493 494
f 513 481 514
f 514 481 495
f 514 495 511
f 511 495 496
f 511 496 497
f 511 497 508
f 508 497 498
f 505 502 501
f 501 500 504
f 504 500 503
f 504 503 506
f 507 505 504
f 504 505 501
f 507 504 506
f 509 507 506
f 511 508 510
f 514 511 510
f 514 510 513
f 515 516 486
f 486 516 487
f 518 532 517
f 517 532 533
f 517 533 530
f 530 533 529
f 529 533 536
f 529 536 539
f 539 536 538
f 539 538 541
f 541 538 540
f 541 540 544
f 544 540 543
f 544 543 515
f 515 543 525
f 515 525 516
f 532 518 531
f 531 518 519
f 531 519 520
f 531 520 534
f 534 520 521
f 534 521 537
f 537 521 522
f 537 522 523
f 537 523 540
f 540 523 524
f 540 524 543
f 543 524 525
f 544 515 545
f 545 515 526
f 545 526 542
f 542 526 527
f 542 527 528
f 542 528 539
f 539 528 529
f 536 533 532
f 532 531 535
f 535 531 534
f 535 534 537
f 538 536 535
f 535 536 532
f 538 535 537
f 540 538 537
f 542 539 541
f 545 542 541
f 545 541 544
f 430 546 431
f 431 546 547
f 431 547 517
f 517 547 548
f 517 548 518
f 254 517 273
f 273 517 529
f 273 529 528
f 253 421 254
f 254 421 436
f 254 436 435
f 335 452 253
f 253 452 464
f 253 464 463
f 273 515 335
f 335 515 486
f 335 486 499
f 435 434 254
f 254 434 433
f 254 433 431
f 431 433 432
f 431 517 254
f 517 530 529
f 528 527 273
f 273 527 526
f 273 526 515
f 499 498 335
f 335 498 497
f 335 497 496
f 495 481 496
f 496 481 335
f 481 452 335
f 452 465 464
f 463 462 253
f 253 462 461
f 253 461 422
f 422 421 253
f 419 549 420
f 420 549 558
f 558 549 557
f 557 549 550
f 557 550 556
f 556 550 551
f 556 551 555
f 555 551 552
f 555 552 554
f 554 552 553
f 559 560 568
f 568 560 561
f 568 561 567
f 567 561 562
f 567 562 566
f 566 562 563
f 566 563 565
f 565 563 564
f 565 564 516
f 516 564 487
f 610 569 594
f 594 569 570
f 594 570 593
f 593 570 592
f 592 570 571
f 592 571 591
f 591 571 572
f 591 572 573
f 574 589 573
f 573 589 590
f 573 590 591
f 574 575 589
f 589 575 588
f 588 575 576
f 588 576 587
f 587 576 586
f 586 576 577
f 586 577 585
f 585 577 578
f 585 578 584
f 584 578 579
f 584 579 583
f 583 579 580
f 583 580 559
f 559 580 560
f 560 580 581
f 559 582 583
f 594 595 610
f 610 595 596
f 610 596 609
f 609 596 597
f 609 597 608
f 608 597 607
f 607 597 598
f 607 598 606
f 606 598 599
f 606 599 605
f 605 599 600
f 605 600 604
f 604 600 601
f 604 601 553
f 553 601 554
f 554 601 602
f 553 603 604
f 603 553 619
f 619 553 552
f 619 552 616
f 616 552 551
f 616 551 645
f 645 551 632
f 645 632 633
f 633 632 647
f 633 647 648
f 648 647 663
f 648 663 662
f 662 663 656
f 662 656 657
f 657 656 455
f 657 455 658
f 658 455 454
f 658 454 618
f 618 454 453
f 618 453 611
f 551 550 632
f 632 550 646
f 632 646 647
f 647 646 664
f 647 664 663
f 663 664 655
f 663 655 656
f 656 655 456
f 656 456 455
f 646 550 617
f 617 550 549
f 617 549 653
f 653 549 460
f 653 460 459
f 549 419 460
f 653 459 654
f 654 459 458
f 654 458 655
f 655 458 457
f 655 457 456
f 618 611 659
f 659 611 612
f 659 612 652
f 652 612 613
f 652 613 638
f 638 613 639
f 638 639 640
f 640 639 630
f 640 630 629
f 629 630 623
f 629 623 622
f 622 623 608
f 622 608 607
f 613 614 639
f 639 614 631
f 639 631 630
f 630 631 624
f 630 624 623
f 623 624 609
f 623 609 608
f 614 615 631
f 631 615 625
f 631 625 624
f 624 625 610
f 624 610 609
f 615 569 625
f 625 569 610
f 622 607 621
f 621 607 606
f 621 606 620
f 620 606 605
f 620 605 619
f 619 605 604
f 619 604 603
f 620 619 626
f 626 619 616
f 626 616 644
f 644 616 645
f 644 645 633
f 621 620 627
f 627 620 626
f 627 626 643
f 643 626 644
f 643 644 634
f 634 644 633
f 634 633 648
f 622 621 628
f 628 621 627
f 628 627 642
f 642 627 643
f 642 643 635
f 635 643 634
f 635 634 649
f 649 634 648
f 649 648 662
f 622 628 629
f 629 628 641
f 629 641 640
f 640 641 637
f 640 637 638
f 638 637 652
f 641 628 642
f 641 642 636
f 636 642 635
f 636 635 650
f 650 635 649
f 650 649 661
f 661 649 662
f 661 662 657
f 641 636 637
f 637 636 651
f 637 651 652
f 652 651 659
f 651 636 650
f 651 650 660
f 660 650 661
f 660 661 658
f 658 661 657
f 653 654 617
f 617 654 664
f 617 664 646
f 654 655 664
f 658 618 660
f 660 618 659
f 660 659 651
f 569 615 570
f 570 615 674
f 570 674 571
f 571 674 679
f 571 679 572
f 572 679 684
f 572 684 573
f 573 684 669
f 669 684 683
f 669 683 668
f 668 683 682
f 668 682 667
f 667 682 681
f 667 681 666
f 666 681 680
f 666 680 665
f 665 680 483
f 665 483 482
f 615 614 674
f 674 614 673
f 674 673 679
f 679 673 678
f 679 678 684
f 684 678 683
f 614 613 673
f 673 613 672
f 673 672 678
f 678 672 677
f 678 677 683
f 683 677 682
f 613 612 672
f 672 612 671
f 672 671 677
f 677 671 676
f 677 676 682
f 682 676 681
f 612 611 671
f 671 611 670
f 671 670 676
f 676 670 675
f 676 675 681
f 681 675 680
f 611 453 670
f 670 453 485
f 670 485 675
f 675 485 484
f 675 484 680
f 680 484 483
f 669 689 573
f 573 689 690
f 573 690 574
f 574 690 691
f 574 691 575
f 575 691 692
f 575 692 576
f 576 692 693
f 576 693 577
f 577 693 694
f 577 694 578
f 578 694 695
f 578 695 696
f 696 695 704
f 696 704 686
f 686 704 713
f 686 713 562
f 562 713 723
f 562 723 563
f 563 723 722
f 563 722 687
f 687 722 721
f 687 721 739
f 739 721 720
f 739 720 738
f 738 720 719
f 738 719 737
f 737 719 718
f 737 718 736
f 736 718 717
f 736 717 735
f 735 717 716
f 735 716 734
f 734 716 715
f 734 715 733
f 733 715 714
f 733 714 732
f 732 714 666
f 732 666 665
f 689 669 697
f 697 669 668
f 697 668 705
f 705 668 667
f 705 667 731
f 731 667 714
f 731 714 715
f 667 666 714
f 732 665 740
f 740 665 482
f 740 482 494
f 740 494 741
f 741 494 493
f 741 493 742
f 742 493 492
f 742 492 743
f 743 492 491
f 743 491 744
f 744 491 745
f 744 745 736
f 736 745 737
f 491 490 745
f 745 490 746
f 745 746 737
f 737 746 738
f 490 489 746
f 746 489 747
f 746 747 738
f 738 747 739
f 489 488 747
f 747 488 688
f 747 688 739
f 739 688 687
f 488 487 688
f 688 487 564
f 688 564 687
f 687 564 563
f 562 561 686
f 686 561 685
f 686 685 696
f 696 685 580
f 696 580 579
f 561 560 685
f 685 560 581
f 685 581 580
f 579 578 696
f 690 689 698
f 698 689 697
f 698 697 706
f 706 697 705
f 706 705 730
f 730 705 731
f 730 731 715
f 691 690 699
f 699 690 698
f 699 698 707
f 707 698 706
f 707 706 729
f 729 706 730
f 729 730 716
f 716 730 715
f 692 691 700
f 700 691 699
f 700 699 708
f 708 699 707
f 708 707 728
f 728 707 729
f 728 729 717
f 717 729 716
f 693 692 701
f 701 692 700
f 701 700 709
f 709 700 708
f 709 708 727
f 727 708 728
f 727 728 718
f 718 728 717
f 694 693 702
f 702 693 701
f 702 701 710
f 710 701 709
f 710 709 726
f 726 709 727
f 726 727 719
f 719 727 718
f 695 694 703
f 703 694 702
f 703 702 711
f 711 702 710
f 711 710 725
f 725 710 726
f 725 726 720
f 720 726 719
f 695 703 704
f 704 703 712
f 704 712 713
f 713 712 723
f 712 703 711
f 712 711 724
f 724 711 725
f 724 725 721
f 721 725 720
f 721 722 724
f 724 722 723
f 724 723 712
f 740 741 732
f 732 741 733
f 741 742 733
f 733 742 734
f 744 736 735
f 742 743 734
f 734 743 735
f 743 744 735
f 423 420 756
f 756 420 558
f 756 558 755
f 755 558 557
f 755 557 790
f 790 557 773
f 790 773 774
f 774 773 792
f 774 792 793
f 793 792 814
f 793 814 813
f 813 814 802
f 813 802 803
f 803 802 598
f 803 598 597
f 557 556 773
f 773 556 791
f 773 791 792
f 792 791 815
f 792 815 814
f 814 815 801
f 814 801 802
f 802 801 599
f 802 599 598
f 791 556 754
f 754 556 555
f 754 555 753
f 753 555 554
f 753 554 602
f 602 601 753
f 753 601 800
f 753 800 754
f 754 800 815
f 754 815 791
f 601 600 800
f 800 600 599
f 800 599 801
f 803 597 804
f 804 597 596
f 804 596 805
f 805 596 595
f 805 595 806
f 806 595 594
f 806 594 807
f 807 594 748
f 807 748 808
f 808 748 749
f 808 749 799
f 799 749 750
f 799 750 781
f 781 750 782
f 781 782 783
f 783 782 771
f 783 771 770
f 770 771 762
f 770 762 761
f 761 762 427
f 761 427 426
f 750 751 782
f 782 751 772
f 782 772 771
f 771 772 763
f 771 763 762
f 762 763 428
f 762 428 427
f 751 752 772
f 772 752 764
f 772 764 763
f 763 764 429
f 763 429 428
f 752 430 764
f 764 430 429
f 425 759 426
f 426 759 760
f 426 760 761
f 761 760 769
f 761 769 770
f 770 769 784
f 770 784 783
f 783 784 780
f 783 780 781
f 781 780 799
f 759 425 758
f 758 425 424
f 758 424 757
f 757 424 423
f 757 423 756
f 757 756 765
f 765 756 755
f 765 755 789
f 789 755 790
f 789 790 774
f 758 757 766
f 766 757 765
f 766 765 788
f 788 765 789
f 788 789 775
f 775 789 774
f 775 774 793
f 759 758 767
f 767 758 766
f 767 766 787
f 787 766 788
f 787 788 776
f 776 788 775
f 776 775 794
f 794 775 793
f 794 793 813
f 760 759 768
f 768 759 767
f 768 767 786
f 786 767 787
f 786 787 777
f 777 787 776
f 777 776 795
f 795 776 794
f 795 794 812
f 812 794 813
f 812 813 803
f 760 768 769
f 769 768 785
f 769 785 784
f 784 785 779
f 784 779 780
f 780 779 798
f 780 798 799
f 799 798 808
f 785 768 786
f 785 786 778
f 778 786 777
f 778 777 796
f 796 777 795
f 796 795 811
f 811 795 812
f 811 812 804
f 804 812 803
f 785 778 779
f 779 778 797
f 779 797 798
f 798 797 809
f 798 809 808
f 808 809 807
f 797 778 796
f 797 796 810
f 810 796 811
f 810 811 805
f 805 811 804
f 800 801 815
f 805 806 810
f 810 806 809
f 810 809 797
f 806 807 809
f 430 752 546
f 546 752 825
f 546 825 547
f 547 825 830
f 547 830 548
f 548 830 835
f 548 835 518
f 518 835 820
f 820 835 834
f 820 834 819
f 819 834 833
f 819 833 818
f 818 833 832
f 818 832 817
f 817 832 831
f 817 831 816
f 816 831 591
f 816 591 590
f 752 751 825
f 825 751 824
f 825 824 830
f 830 824 829
f 830 829 835
f 835 829 834
f 751 750 824
f 824 750 823
f 824 823 829
f 829 823 828
f 829 828 834
f 834 828 833
f 750 749 823
f 823 749 822
f 823 822 828
f 828 822 827
f 828 827 833
f 833 827 832
f 749 748 822
f 822 748 821
f 822 821 827
f 827 821 826
f 827 826 832
f 832 826 831
f 748 594 821
f 821 594 593
f 821 593 826
f 826 593 592
f 826 592 831
f 831 592 591
f 519 518 838
f 838 518 820
f 838 820 845
f 845 820 819
f 845 819 851
f 851 819 818
f 851 818 871
f 871 818 858
f 871 858 859
f 859 858 873
f 859 873 874
f 874 873 880
f 874 880 881
f 881 880 587
f 881 587 586
f 818 817 858
f 858 817 872
f 858 872 873
f 873 872 879
f 873 879 880
f 880 879 588
f 880 588 587
f 817 816 872
f 872 816 878
f 872 878 879
f 879 878 589
f 879 589 588
f 816 590 878
f 878 590 589
f 881 586 882
f 882 586 585
f 882 585 883
f 883 585 584
f 883 584 884
f 884 584 583
f 884 583 582
f 582 559 884
f 884 559 568
f 884 568 836
f 836 568 567
f 836 567 864
f 864 567 865
f 864 865 866
f 866 865 856
f 866 856 855
f 855 856 849
f 855 849 848
f 848 849 841
f 848 841 840
f 840 841 520
f 840 520 839
f 839 520 519
f 839 519 838
f 567 566 865
f 865 566 857
f 865 857 856
f 856 857 850
f 856 850 849
f 849 850 842
f 849 842 841
f 841 842 521
f 841 521 520
f 857 566 837
f 837 566 565
f 837 565 844
f 844 565 525
f 844 525 524
f 565 516 525
f 844 524 843
f 843 524 523
f 843 523 842
f 842 523 522
f 842 522 521
f 839 838 846
f 846 838 845
f 846 845 852
f 852 845 851
f 852 851 870
f 870 851 871
f 870 871 859
f 840 839 847
f 847 839 846
f 847 846 853
f 853 846 852
f 853 852 869
f 869 852 870
f 869 870 860
f 860 870 859
f 860 859 874
f 837 844 843
f 837 843 850
f 850 843 842
f 840 847 848
f 848 847 854
f 848 854 855
f 855 854 867
f 855 867 866
f 866 867 863
f 866 863 864
f 864 863 836
f 854 847 853
f 857 837 850
f 854 853 868
f 868 853 869
f 868 869 861
f 861 869 860
f 861 860 875
f 875 860 874
f 875 874 881
f 861 862 868
f 868 862 867
f 868 867 854
f 867 862 863
f 863 862 877
f 863 877 836
f 836 877 884
f 862 861 876
f 876 861 875
f 876 875 882
f 882 875 881
f 862 876 877
f 877 876 883
f 877 883 884
f 883 876 882
f 886 236 885
f 885 236 235
f 885 235 908
f 908 235 234
f 908 234 233
f 236 886 237
f 237 886 887
f 237 887 238
f 238 887 888
f 238 888 239
f 239 888 889
f 239 889 240
f 240 889 890
f 240 890 241
f 241 890 891
f 241 891 892
f 241 892 242
f 242 892 893
f 242 893 243
f 243 893 894
f 243 894 244
f 244 894 895
f 244 895 245
f 245 895 896
f 245 896 246
f 246 896 897
f 246 897 247
f 247 897 248
f 248 897 898
f 248 898 249
f 249 898 899
f 249 899 250
f 250 899 900
f 250 900 251
f 251 900 901
f 251 901 252
f 252 901 902
f 252 902 229
f 229 902 903
f 229 903 904
f 229 904 230
f 230 904 905
f 230 905 231
f 231 905 906
f 231 906 232
f 232 906 907
f 232 907 233
f 233 907 908
f 910 911 909
f 909 911 916
f 916 911 912
f 916 912 913
f 914 915 913
f 913 915 916
f 914 917 915
f 915 917 922
f 922 917 918
f 922 918 919
f 920 921 919
f 919 921 922
f 920 923 921
f 921 923 928
f 928 923 924
f 928 924 925
f 926 927 925
f 925 927 928
f 926 929 927
f 927 929 934
f 934 929 930
f 934 930 931
f 932 933 931
f 931 933 934
f 932 935 933
f 933 935 940
f 940 935 936
f 940 936 937
f 938 939 937
f 937 939 940
f 938 941 939
f 939 941 944
f 944 941 942
f 944 942 943
f 910 909 943
f 943 909 944
f 886 885 928
f 928 885 908
f 928 908 921
f 921 908 907
f 921 907 906
f 921 906 922
f 922 906 905
f 922 905 904
f 922 904 915
f 915 904 903
f 915 903 902
f 915 902 916
f 916 902 901
f 916 901 900
f 916 900 909
f 909 900 899
f 909 899 898
f 909 898 944
f 944 898 897
f 944 897 896
f 944 896 939
f 939 896 895
f 939 895 894
f 939 894 940
f 940 894 893
f 940 893 892
f 940 892 933
f 933 892 891
f 933 891 890
f 933 890 934
f 934 890 889
f 934 889 888
f 934 888 927
f 927 888 887
f 927 887 886
f 927 886 928
f 182 181 924
f 924 181 204
f 924 204 925
f 925 204 203
f 925 203 926
f 926 203 929
f 929 203 202
f 929 202 930
f 930 202 201
f 930 201 200
f 930 200 931
f 931 200 199
f 931 199 932
f 932 199 935
f 935 199 198
f 935 198 936
f 936 198 197
f 936 197 196
f 936 196 937
f 937 196 195
f 937 195 938
f 938 195 941
f 941 195 194
f 941 194 942
f 942 194 193
f 942 193 192
f 942 192 943
f 943 192 191
f 943 191 910
f 910 191 911
f 911 191 190
f 911 190 912
f 912 190 189
f 912 189 188
f 912 188 913
f 913 188 187
f 913 187 914
f 914 187 917
f 917 187 186
f 917 186 918
f 918 186 185
f 918 185 184
f 918 184 919
f 919 184 183
f 919 183 920
f 920 183 923
f 923 183 182
f 923 182 924
