mtllib Mesh_21.mtl
v -0.005444719669713383 -0.005444719669713383 0.1016999984897673
v -0.0066684000193685256 -0.0038499998185783646 0.1016999984897673
v -0.007437630129509487 -0.0019929100127612787 0.1016999984897673
v -0.007699999637156729 0.0 0.1016999984897673
v -0.007437630129509487 0.0019929100127612787 0.1016999984897673
v -0.0066684000193685256 0.0038499998185783646 0.1016999984897673
v -0.005444719669713383 0.005444719669713383 0.1016999984897673
v -0.0038499998185783646 0.0066684000193685256 0.1016999984897673
v -0.0019929100127612787 0.007437630129509487 0.1016999984897673
v 0.0 0.007699999637156729 0.1016999984897673
v 0.0019929100127612787 0.007437630129509487 0.1016999984897673
v 0.0038499998185783646 0.0066684000193685256 0.1016999984897673
v 0.005444719669713383 0.005444719669713383 0.1016999984897673
v 0.0066684000193685256 0.0038499998185783646 0.1016999984897673
v 0.007437630129509487 0.0019929100127612787 0.1016999984897673
v 0.007699999637156729 0.0 0.1016999984897673
v 0.007437630129509487 -0.0019929100127612787 0.1016999984897673
v 0.0066684000193685256 -0.0038499998185783646 0.1016999984897673
v 0.005444719669713383 -0.005444719669713383 0.1016999984897673
v 0.0038499998185783646 -0.0066684000193685256 0.1016999984897673
v 0.0019929100127612787 -0.007437630129509487 0.1016999984897673
v 0.0 -0.007699999637156729 0.1016999984897673
v -0.0019929100127612787 -0.007437630129509487 0.1016999984897673
v -0.0038499998185783646 -0.0066684000193685256 0.1016999984897673
v 0.0 0.012499999720603228 0.1016999984897673
v 0.0032352399102917317 0.012074069706930146 0.1016999984897673
v 0.006249999860301614 0.01082532024028926 0.1016999984897673
v 0.008838829796638414 0.008838829796638414 0.1016999984897673
v 0.01082532024028926 0.006249999860301614 0.1016999984897673
v 0.012074069706930146 0.0032352399102917317 0.1016999984897673
v 0.012499999720603228 0.0 0.1016999984897673
v 0.012074069706930146 -0.0032352399102917317 0.1016999984897673
v 0.01082532024028926 -0.006249999860301614 0.1016999984897673
v 0.008838829796638414 -0.008838829796638414 0.1016999984897673
v 0.006249999860301614 -0.01082532024028926 0.1016999984897673
v 0.0032352399102917317 -0.012074069706930146 0.1016999984897673
v 0.0 -0.012499999720603228 0.1016999984897673
v -0.0032352399102917317 -0.012074069706930146 0.1016999984897673
v -0.006249999860301614 -0.01082532024028926 0.1016999984897673
v -0.008838829796638414 -0.008838829796638414 0.1016999984897673
v -0.01082532024028926 -0.006249999860301614 0.1016999984897673
v -0.012074069706930146 -0.0032352399102917317 0.1016999984897673
v -0.012499999720603228 0.0 0.1016999984897673
v -0.012074069706930146 0.0032352399102917317 0.1016999984897673
v -0.01082532024028926 0.006249999860301614 0.1016999984897673
v -0.008838829796638414 0.008838829796638414 0.1016999984897673
v -0.006249999860301614 0.01082532024028926 0.1016999984897673
v -0.0032352399102917317 0.012074069706930146 0.1016999984897673
usemtl Opaque_255_0_0_
f 24 39 1
f 1 39 40
f 1 40 2
f 2 40 41
f 2 41 3
f 3 41 42
f 3 42 4
f 4 42 43
f 4 43 44
f 39 24 38
f 38 24 23
f 38 23 37
f 37 23 22
f 37 22 21
f 37 21 36
f 36 21 20
f 36 20 35
f 35 20 19
f 35 19 34
f 34 19 18
f 34 18 33
f 33 18 17
f 33 17 32
f 32 17 16
f 32 16 31
f 31 16 30
f 30 16 15
f 30 15 29
f 29 15 14
f 29 14 28
f 28 14 13
f 28 13 27
f 27 13 12
f 27 12 26
f 26 12 11
f 26 11 25
f 25 11 10
f 25 10 48
f 48 10 9
f 48 9 8
f 48 8 47
f 47 8 7
f 47 7 46
f 46 7 6
f 46 6 45
f 45 6 5
f 45 5 44
f 44 5 4
