# WaveFront *.obj file (generated by Autodesk ATF)

mtllib aruco_cell_marker_black.mtl

g aruco_cell_marker_black

v -2.357412 4.746990 0.000000
v -1.565663 4.746990 0.000000
v -1.565663 4.746990 0.200000
v -2.357412 4.746990 0.200000
v -2.357412 3.955241 0.000000
v -2.357412 3.955241 0.200000
v -1.565663 3.955241 0.000000
v -1.565663 3.955241 0.200000
v -1.565663 3.163491 0.000000
v -1.565663 3.163491 0.200000
v -0.773914 3.163491 0.000000
v -0.773914 3.163491 0.200000
v -0.773914 1.579993 0.000000
v -0.773914 1.579993 0.200000
v 0.017836 1.579993 0.000000
v 0.017836 1.579993 0.200000
v 0.017836 2.371742 0.000000
v 0.017836 2.371742 0.200000
v 0.809585 2.371742 0.000000
v 0.809585 2.371742 0.200000
v 0.809585 4.746990 0.000000
v 0.809585 4.746990 0.200000
v -0.773914 4.746990 0.000000
v -0.773914 4.746990 0.200000
v -0.773914 3.955241 0.000000
v -0.773914 3.955241 0.200000
v -3.149162 0.788243 0.000000
v 1.601335 0.788243 0.000000
v 1.601335 0.788243 0.200000
v -3.149162 0.788243 0.200000
v -3.149162 5.538740 0.000000
v -3.149162 5.538740 0.200000
v 1.601335 5.538740 0.000000
v 1.601335 5.538740 0.200000
v 0.017836 3.955241 0.000000
v 0.017836 3.955241 0.200000
v 0.017836 3.163491 0.000000
v 0.017836 3.163491 0.200000
vt 0.000000 0.000000 0.000000
vt 0.791749 0.000000 0.000000
vt 0.000000 0.200000 0.000000
vt 0.791749 0.200000 0.000000
vt 0.000000 0.000000 0.000000
vt 0.791749 0.000000 0.000000
vt 0.000000 0.200000 0.000000
vt 0.791749 0.200000 0.000000
vt 0.000000 0.000000 0.000000
vt 0.791749 0.000000 0.000000
vt 0.000000 0.200000 0.000000
vt 0.791749 0.200000 0.000000
vt 0.000000 0.000000 0.000000
vt 0.791749 0.000000 0.000000
vt 0.000000 0.200000 0.000000
vt 0.791749 0.200000 0.000000
vt 0.000000 0.000000 0.000000
vt 0.791749 0.000000 0.000000
vt 0.000000 0.200000 0.000000
vt 0.791749 0.200000 0.000000
vt 0.000000 0.000000 0.000000
vt 1.583499 0.000000 0.000000
vt 0.000000 0.200000 0.000000
vt 1.583499 0.200000 0.000000
vt 0.000000 0.000000 0.000000
vt 0.791749 0.000000 0.000000
vt -0.000000 0.200000 0.000000
vt 0.791749 0.200000 0.000000
vt -0.000000 0.000000 0.000000
vt 0.791749 0.000000 0.000000
vt 0.000000 0.200000 0.000000
vt 0.791749 0.200000 0.000000
vt 0.000000 0.000000 0.000000
vt 0.791749 0.000000 0.000000
vt 0.000000 0.200000 0.000000
vt 0.791749 0.200000 0.000000
vt 0.000000 0.000000 0.000000
vt 2.375248 0.000000 0.000000
vt 0.000000 0.200000 0.000000
vt 2.375248 0.200000 0.000000
vt 0.000000 0.000000 0.000000
vt 1.583499 0.000000 0.000000
vt 0.000000 0.200000 0.000000
vt 1.583499 0.200000 0.000000
vt 0.000000 0.000000 0.000000
vt 0.791749 0.000000 0.000000
vt 0.000000 0.200000 0.000000
vt 0.791749 0.200000 0.000000
vt 0.000000 0.000000 0.000000
vt 0.791749 0.000000 0.000000
vt 0.000000 0.200000 0.000000
vt 0.791749 0.200000 0.000000
vt 0.000000 0.000000 0.000000
vt 0.791749 0.000000 0.000000
vt 0.000000 0.200000 0.000000
vt 0.791749 0.200000 0.000000
vt 0.000000 0.000000 0.000000
vt 4.750496 0.000000 0.000000
vt 0.000000 0.200000 0.000000
vt 4.750496 0.200000 0.000000
vt 0.000000 0.000000 0.000000
vt 4.750496 0.000000 0.000000
vt 0.000000 0.200000 0.000000
vt 4.750496 0.200000 0.000000
vt -0.000000 0.000000 0.000000
vt 4.750496 0.000000 0.000000
vt -0.000000 0.200000 0.000000
vt 4.750496 0.200000 0.000000
vt 0.000000 0.000000 0.000000
vt 4.750496 0.000000 0.000000
vt 0.000000 0.200000 0.000000
vt 4.750496 0.200000 0.000000
vt -0.791749 0.791749 0.000000
vt 0.000000 0.791749 0.000000
vt -0.791749 1.583499 0.000000
vt -0.000000 1.583499 0.000000
vt -2.375248 2.375248 0.000000
vt 2.375248 2.375248 0.000000
vt 1.583499 1.583499 0.000000
vt 1.583499 -0.791749 0.000000
vt 0.791749 -0.791749 0.000000
vt 0.791749 -1.583499 0.000000
vt 2.375248 -2.375248 0.000000
vt 0.000000 -1.583499 0.000000
vt -2.375248 -2.375248 0.000000
vt -0.791749 0.000000 0.000000
vt -1.583499 0.791749 0.000000
vt 0.000000 -0.000000 0.000000
vt -1.583499 1.583499 0.000000
vt -0.000000 0.791749 0.000000
vt 0.791749 0.791749 0.000000
vt 0.000000 1.583499 0.000000
vt 0.791749 1.583499 0.000000
vt 2.375248 2.375248 0.000000
vt 1.583499 1.583499 0.000000
vt 1.583499 0.791749 0.000000
vt 0.791749 0.000000 0.000000
vt 2.375248 -2.375248 0.000000
vt -0.000000 -0.000000 0.000000
vt -0.000000 -1.583499 0.000000
vt -2.375248 -2.375248 0.000000
vt -0.791749 -1.583499 0.000000
vt -1.583499 -0.791749 0.000000
vt -0.791749 -0.791749 0.000000
vt -2.375248 2.375248 0.000000
vt -1.583499 1.583499 0.000000
vt 0.000000 0.000000 0.000000
vt 0.791749 0.000000 0.000000
vt 0.000000 0.200000 0.000000
vt 0.791749 0.200000 0.000000
vt 0.000000 0.000000 0.000000
vt 0.791749 0.000000 0.000000
vt 0.000000 0.200000 0.000000
vt 0.791749 0.200000 0.000000
vt -0.000000 0.000000 0.000000
vt 0.791749 0.000000 0.000000
vt -0.000000 0.200000 0.000000
vt 0.791749 0.200000 0.000000
vt 0.000000 0.000000 0.000000
vt 0.791749 0.000000 0.000000
vt 0.000000 0.200000 0.000000
vt 0.791749 0.200000 0.000000
vt -0.395875 -0.395875 0.000000
vt 0.395875 -0.395875 0.000000
vt -0.395875 0.395875 0.000000
vt 0.395875 0.395875 0.000000
vt -0.395875 -0.395875 0.000000
vt 0.395875 -0.395875 0.000000
vt -0.395875 0.395875 0.000000
vt 0.395875 0.395875 0.000000
vn 0.000000 -1.000000 0.000000
vn 0.000000 -1.000000 0.000000
vn 0.000000 -1.000000 0.000000
vn 0.000000 -1.000000 0.000000
vn 1.000000 0.000000 -0.000000
vn 1.000000 0.000000 -0.000000
vn 1.000000 0.000000 -0.000000
vn 1.000000 0.000000 -0.000000
vn -0.000000 1.000000 0.000000
vn -0.000000 1.000000 0.000000
vn -0.000000 1.000000 0.000000
vn -0.000000 1.000000 0.000000
vn 1.000000 0.000000 -0.000000
vn 1.000000 0.000000 -0.000000
vn 1.000000 0.000000 -0.000000
vn 1.000000 0.000000 -0.000000
vn 0.000000 1.000000 -0.000000
vn 0.000000 1.000000 -0.000000
vn 0.000000 1.000000 -0.000000
vn 0.000000 1.000000 -0.000000
vn 1.000000 0.000000 -0.000000
vn 1.000000 0.000000 -0.000000
vn 1.000000 0.000000 -0.000000
vn 1.000000 0.000000 -0.000000
vn 0.000000 1.000000 -0.000000
vn 0.000000 1.000000 -0.000000
vn 0.000000 1.000000 -0.000000
vn 0.000000 1.000000 -0.000000
vn -1.000000 -0.000000 0.000000
vn -1.000000 -0.000000 0.000000
vn -1.000000 -0.000000 0.000000
vn -1.000000 -0.000000 0.000000
vn 0.000000 1.000000 -0.000000
vn 0.000000 1.000000 -0.000000
vn 0.000000 1.000000 -0.000000
vn 0.000000 1.000000 -0.000000
vn -1.000000 -0.000000 0.000000
vn -1.000000 -0.000000 0.000000
vn -1.000000 -0.000000 0.000000
vn -1.000000 -0.000000 0.000000
vn 0.000000 -1.000000 0.000000
vn 0.000000 -1.000000 0.000000
vn 0.000000 -1.000000 0.000000
vn 0.000000 -1.000000 0.000000
vn 1.000000 0.000000 -0.000000
vn 1.000000 0.000000 -0.000000
vn 1.000000 0.000000 -0.000000
vn 1.000000 0.000000 -0.000000
vn 0.000000 -1.000000 0.000000
vn 0.000000 -1.000000 0.000000
vn 0.000000 -1.000000 0.000000
vn 0.000000 -1.000000 0.000000
vn -1.000000 -0.000000 0.000000
vn -1.000000 -0.000000 0.000000
vn -1.000000 -0.000000 0.000000
vn -1.000000 -0.000000 0.000000
vn 0.000000 -1.000000 0.000000
vn 0.000000 -1.000000 0.000000
vn 0.000000 -1.000000 0.000000
vn 0.000000 -1.000000 0.000000
vn -1.000000 -0.000000 0.000000
vn -1.000000 -0.000000 0.000000
vn -1.000000 -0.000000 0.000000
vn -1.000000 -0.000000 0.000000
vn -0.000000 1.000000 0.000000
vn -0.000000 1.000000 0.000000
vn -0.000000 1.000000 0.000000
vn -0.000000 1.000000 0.000000
vn 1.000000 0.000000 -0.000000
vn 1.000000 0.000000 -0.000000
vn 1.000000 0.000000 -0.000000
vn 1.000000 0.000000 -0.000000
vn 0.000000 0.000000 1.000000
vn 0.000000 0.000000 1.000000
vn 0.000000 0.000000 1.000000
vn 0.000000 0.000000 1.000000
vn 0.000000 0.000000 1.000000
vn 0.000000 0.000000 1.000000
vn 0.000000 0.000000 1.000000
vn 0.000000 0.000000 1.000000
vn 0.000000 0.000000 1.000000
vn 0.000000 0.000000 1.000000
vn 0.000000 0.000000 1.000000
vn 0.000000 0.000000 1.000000
vn 0.000000 0.000000 1.000000
vn 0.000000 0.000000 1.000000
vn 0.000000 0.000000 1.000000
vn 0.000000 0.000000 1.000000
vn 0.000000 0.000000 1.000000
vn 0.000000 -0.000000 -1.000000
vn 0.000000 -0.000000 -1.000000
vn 0.000000 -0.000000 -1.000000
vn 0.000000 -0.000000 -1.000000
vn 0.000000 -0.000000 -1.000000
vn 0.000000 -0.000000 -1.000000
vn 0.000000 -0.000000 -1.000000
vn 0.000000 -0.000000 -1.000000
vn 0.000000 -0.000000 -1.000000
vn 0.000000 -0.000000 -1.000000
vn 0.000000 -0.000000 -1.000000
vn 0.000000 -0.000000 -1.000000
vn 0.000000 -0.000000 -1.000000
vn 0.000000 -0.000000 -1.000000
vn 0.000000 -0.000000 -1.000000
vn 0.000000 -0.000000 -1.000000
vn 0.000000 -0.000000 -1.000000
vn -1.000000 0.000000 0.000000
vn -1.000000 0.000000 0.000000
vn -1.000000 0.000000 0.000000
vn -1.000000 0.000000 0.000000
vn -0.000000 1.000000 0.000000
vn -0.000000 1.000000 0.000000
vn -0.000000 1.000000 0.000000
vn -0.000000 1.000000 0.000000
vn 1.000000 0.000000 -0.000000
vn 1.000000 0.000000 -0.000000
vn 1.000000 0.000000 -0.000000
vn 1.000000 0.000000 -0.000000
vn 0.000000 -1.000000 0.000000
vn 0.000000 -1.000000 0.000000
vn 0.000000 -1.000000 0.000000
vn 0.000000 -1.000000 0.000000
vn 0.000000 0.000000 1.000000
vn 0.000000 0.000000 1.000000
vn -0.000000 0.000000 -1.000000
vn -0.000000 0.000000 -1.000000
usemtl black_pla
f 1/1/1 2/2/2 4/3/3
f 4/3/3 2/2/2 3/4/4
f 5/5/5 1/6/6 6/7/7
f 6/7/7 1/6/6 4/8/8
f 7/9/9 5/10/10 8/11/11
f 8/11/11 5/10/10 6/12/12
f 9/13/13 7/14/14 10/15/15
f 10/15/15 7/14/14 8/16/16
f 11/17/17 9/18/18 12/19/19
f 12/19/19 9/18/18 10/20/20
f 13/21/21 11/22/22 14/23/23
f 14/23/23 11/22/22 12/24/24
f 15/25/25 13/26/26 16/27/27
f 16/27/27 13/26/26 14/28/28
f 17/29/29 15/30/30 18/31/31
f 18/31/31 15/30/30 16/32/32
f 19/33/33 17/34/34 20/35/35
f 20/35/35 17/34/34 18/36/36
f 21/37/37 19/38/38 22/39/39
f 22/39/39 19/38/38 20/40/40
f 23/41/41 21/42/42 24/43/43
f 24/43/43 21/42/42 22/44/44
f 25/45/45 23/46/46 26/47/47
f 26/47/47 23/46/46 24/48/48
f 7/49/49 25/50/50 8/51/51
f 8/51/51 25/50/50 26/52/52
f 2/53/53 7/54/54 3/55/55
f 3/55/55 7/54/54 8/56/56
f 27/57/57 28/58/58 30/59/59
f 30/59/59 28/58/58 29/60/60
f 31/61/61 27/62/62 32/63/63
f 32/63/63 27/62/62 30/64/64
f 33/65/65 31/66/66 34/67/67
f 34/67/67 31/66/66 32/68/68
f 28/69/69 33/70/70 29/71/71
f 29/71/71 33/70/70 34/72/72
f 8/73/73 26/74/74 3/75/75
f 3/75/75 26/74/74 24/76/76
f 3/75/75 24/76/76 32/77/77
f 32/77/77 24/76/76 34/78/78
f 34/78/78 24/76/76 22/79/79
f 34/78/78 22/79/79 20/80/80
f 18/81/81 16/82/82 20/80/80
f 20/80/80 16/82/82 29/83/83
f 20/80/80 29/83/83 34/78/78
f 16/82/82 14/84/84 29/83/83
f 29/83/83 14/84/84 30/85/85
f 30/85/85 14/84/84 10/86/86
f 30/85/85 10/86/86 6/87/87
f 6/87/87 10/86/86 8/73/73
f 14/84/84 12/88/88 10/86/86
f 30/85/85 6/87/87 32/77/77
f 32/77/77 6/87/87 4/89/89
f 32/77/77 4/89/89 3/75/75
f 25/90/90 7/91/91 23/92/92
f 23/92/92 7/91/91 2/93/93
f 23/92/92 2/93/93 31/94/94
f 31/94/94 2/93/93 1/95/95
f 31/94/94 1/95/95 5/96/96
f 7/91/91 9/97/97 5/96/96
f 5/96/96 9/97/97 27/98/98
f 5/96/96 27/98/98 31/94/94
f 11/99/99 13/100/100 9/97/97
f 9/97/97 13/100/100 27/98/98
f 27/98/98 13/100/100 28/101/101
f 28/101/101 13/100/100 15/102/102
f 28/101/101 15/102/102 19/103/103
f 19/103/103 15/102/102 17/104/104
f 28/101/101 19/103/103 33/105/105
f 33/105/105 19/103/103 21/106/106
f 33/105/105 21/106/106 23/92/92
f 31/94/94 33/105/105 23/92/92
f 25/107/107 11/108/108 26/109/109
f 26/109/109 11/108/108 12/110/110
f 35/111/111 25/112/112 36/113/113
f 36/113/113 25/112/112 26/114/114
f 37/115/115 35/116/116 38/117/117
f 38/117/117 35/116/116 36/118/118
f 11/119/119 37/120/120 12/121/121
f 12/121/121 37/120/120 38/122/122
f 12/123/88 38/124/123 26/125/74
f 26/125/74 38/124/123 36/126/124
f 37/127/125 11/128/99 35/129/126
f 35/129/126 11/128/99 25/130/90
# 38 vertices
# 130 texture params
# 126 normals
# 84 facets

# 1 groups
