# WaveFront *.obj file (generated by Autodesk ATF)

mtllib aruco_cell_base_white.mtl

g aruco_cell_base_white

v -1.000000 -3.307830 1.500000
v -1.000000 -3.814842 1.500000
v -1.000000 -3.814842 2.200000
v -1.000000 -3.307830 2.200000
v 1.000000 -3.307830 1.500000
v 1.000000 -3.307830 2.200000
v 1.000000 -3.814842 1.500000
v 1.000000 -3.814842 2.200000
v -1.000000 3.314842 1.500000
v 1.000000 3.314842 1.500000
v 1.000000 3.314842 2.200000
v -1.000000 3.314842 2.200000
v -1.000000 3.814842 1.500000
v -1.000000 3.814842 2.200000
v 1.000000 3.814842 1.500000
v 1.000000 3.814842 2.200000
v -0.809585 0.795255 1.500000
v -0.017836 0.795255 1.500000
v -0.017836 0.795255 1.300000
v -0.809585 0.795255 1.300000
v -0.017836 1.587005 1.500000
v -0.017836 1.587005 1.300000
v 1.565663 1.587005 1.500000
v 1.565663 1.587005 1.300000
v 1.565663 -0.788243 1.500000
v 1.565663 -0.788243 1.300000
v 0.773914 -0.788243 1.500000
v 0.773914 -0.788243 1.300000
v 0.773914 -1.579993 1.500000
v 0.773914 -1.579993 1.300000
v -0.017836 -1.579993 1.500000
v -0.017836 -1.579993 1.300000
v -0.017836 0.003506 1.500000
v -0.017836 0.003506 1.300000
v -0.809585 0.003506 1.500000
v -0.809585 0.003506 1.300000
v -1.601335 0.795255 1.500000
v -1.601335 0.795255 1.300000
v -1.601335 1.587005 1.500000
v -1.601335 1.587005 1.300000
v -0.809585 1.587005 1.500000
v -0.809585 1.587005 1.300000
v 2.357412 -2.371742 1.500000
v 2.357412 2.378754 1.500000
v 2.357412 2.378754 1.300000
v 2.357412 -2.371742 1.300000
v -2.393084 2.378754 1.500000
v -2.393084 2.378754 1.300000
v -2.393084 -2.371742 1.500000
v -2.393084 -2.371742 1.300000
v 0.773914 0.003506 1.500000
v 0.773914 0.795255 1.500000
v 0.773914 0.795255 1.300000
v 0.773914 0.003506 1.300000
v -2.202500 -3.814842 0.000000
v 2.202500 -3.814842 0.000000
v 2.202500 -3.814842 1.500000
v -2.202500 -3.814842 1.500000
v -4.405000 0.000000 0.000000
v -4.405000 0.000000 1.500000
v -2.202500 3.814842 0.000000
v -2.202500 3.814842 1.500000
v 2.202500 3.814842 0.000000
v 2.202500 3.814842 1.500000
v 4.405000 0.000000 0.000000
v 4.405000 0.000000 1.500000
vt 0.000000 0.000000 0.000000
vt 0.507012 0.000000 0.000000
vt 0.000000 0.700000 0.000000
vt 0.507012 0.700000 0.000000
vt 0.000000 0.000000 0.000000
vt 2.000000 0.000000 0.000000
vt -0.000000 0.700000 0.000000
vt 2.000000 0.700000 0.000000
vt 0.000000 0.000000 0.000000
vt 0.507012 0.000000 0.000000
vt -0.000000 0.700000 0.000000
vt 0.507012 0.700000 0.000000
vt -1.000000 -0.253506 0.000000
vt 1.000000 -0.253506 0.000000
vt -1.000000 0.253506 0.000000
vt 1.000000 0.253506 0.000000
vt 0.000000 0.000000 0.000000
vt 2.000000 0.000000 0.000000
vt 0.000000 0.700000 0.000000
vt 2.000000 0.700000 0.000000
vt -0.000000 0.000000 0.000000
vt 0.500000 0.000000 0.000000
vt -0.000000 0.700000 0.000000
vt 0.500000 0.700000 0.000000
vt 0.000000 0.000000 0.000000
vt 0.500000 0.000000 0.000000
vt 0.000000 0.700000 0.000000
vt 0.500000 0.700000 0.000000
vt 1.000000 0.250000 0.000000
vt -1.000000 0.250000 0.000000
vt 1.000000 -0.250000 0.000000
vt -1.000000 -0.250000 0.000000
vt -0.791749 0.000000 0.000000
vt 0.000000 0.000000 0.000000
vt -0.791749 0.200000 0.000000
vt -0.000000 0.200000 0.000000
vt -0.791749 0.000000 0.000000
vt -0.000000 0.000000 0.000000
vt -0.791749 0.200000 0.000000
vt -0.000000 0.200000 0.000000
vt -1.583499 0.000000 0.000000
vt 0.000000 0.000000 0.000000
vt -1.583499 0.200000 0.000000
vt -0.000000 0.200000 0.000000
vt -2.375248 0.000000 0.000000
vt -0.000000 0.000000 0.000000
vt -2.375248 0.200000 0.000000
vt -0.000000 0.200000 0.000000
vt -0.791749 0.000000 0.000000
vt -0.000000 0.000000 0.000000
vt -0.791749 0.200000 0.000000
vt 0.000000 0.200000 0.000000
vt -0.791749 0.000000 0.000000
vt -0.000000 0.000000 0.000000
vt -0.791749 0.200000 0.000000
vt -0.000000 0.200000 0.000000
vt -0.791749 0.000000 0.000000
vt -0.000000 0.000000 0.000000
vt -0.791749 0.200000 0.000000
vt -0.000000 0.200000 0.000000
vt -1.583499 0.000000 0.000000
vt -0.000000 0.000000 0.000000
vt -1.583499 0.200000 0.000000
vt -0.000000 0.200000 0.000000
vt -0.791749 0.000000 0.000000
vt -0.000000 0.000000 0.000000
vt -0.791749 0.200000 0.000000
vt 0.000000 0.200000 0.000000
vt -0.791749 0.000000 0.000000
vt -0.000000 0.000000 0.000000
vt -0.791749 0.200000 0.000000
vt -0.000000 0.200000 0.000000
vt -0.791749 0.000000 0.000000
vt -0.000000 0.000000 0.000000
vt -0.791749 0.200000 0.000000
vt -0.000000 0.200000 0.000000
vt -0.791749 0.000000 0.000000
vt 0.000000 0.000000 0.000000
vt -0.791749 0.200000 0.000000
vt -0.000000 0.200000 0.000000
vt -0.791749 0.000000 0.000000
vt 0.000000 0.000000 0.000000
vt -0.791749 0.200000 0.000000
vt -0.000000 0.200000 0.000000
vt -0.791749 0.000000 0.000000
vt -0.000000 0.000000 0.000000
vt -0.791749 0.200000 0.000000
vt -0.000000 0.200000 0.000000
vt -4.750496 0.000000 0.000000
vt -0.000000 0.000000 0.000000
vt -4.750496 0.200000 0.000000
vt -0.000000 0.200000 0.000000
vt -4.750496 0.000000 0.000000
vt 0.000000 0.000000 0.000000
vt -4.750496 0.200000 0.000000
vt 0.000000 0.200000 0.000000
vt -4.750496 0.000000 0.000000
vt -0.000000 0.000000 0.000000
vt -4.750496 0.200000 0.000000
vt 0.000000 0.200000 0.000000
vt -4.750496 0.000000 0.000000
vt -0.000000 0.000000 0.000000
vt -4.750496 0.200000 0.000000
vt 0.000000 0.200000 0.000000
vt -0.791749 0.791749 0.000000
vt 0.000000 0.791749 0.000000
vt -0.791749 1.583499 0.000000
vt -0.000000 1.583499 0.000000
vt -2.375248 2.375248 0.000000
vt 2.375248 2.375248 0.000000
vt 1.583499 1.583499 0.000000
vt 1.583499 -0.791749 0.000000
vt 0.791749 -0.791749 0.000000
vt 0.791749 -1.583499 0.000000
vt 2.375248 -2.375248 0.000000
vt 0.000000 -1.583499 0.000000
vt -2.375248 -2.375248 0.000000
vt -0.791749 0.000000 0.000000
vt -1.583499 0.791749 0.000000
vt 0.000000 -0.000000 0.000000
vt -1.583499 1.583499 0.000000
vt -0.791749 0.000000 0.000000
vt -0.000000 0.000000 0.000000
vt -0.791749 0.200000 0.000000
vt -0.000000 0.200000 0.000000
vt -0.791749 0.000000 0.000000
vt -0.000000 0.000000 0.000000
vt -0.791749 0.200000 0.000000
vt -0.000000 0.200000 0.000000
vt -0.791749 0.000000 0.000000
vt 0.000000 -0.000000 0.000000
vt -0.791749 0.200000 0.000000
vt 0.000000 0.200000 0.000000
vt -0.791749 -0.000000 0.000000
vt 0.000000 0.000000 0.000000
vt -0.791749 0.200000 0.000000
vt -0.000000 0.200000 0.000000
vt -0.395875 -0.395875 0.000000
vt 0.395875 -0.395875 0.000000
vt -0.395875 0.395875 0.000000
vt 0.395875 0.395875 0.000000
vt -0.017836 0.795255 0.000000
vt -0.809585 0.795255 0.000000
vt -0.017836 0.003506 0.000000
vt -0.809585 0.003506 0.000000
vt -0.809585 1.587005 0.000000
vt -1.601335 1.587005 0.000000
vt -0.809585 0.795255 0.000000
vt -1.601335 0.795255 0.000000
vt 0.773914 0.003506 0.000000
vt 1.565663 -0.788243 0.000000
vt 0.773914 0.795255 0.000000
vt 1.565663 1.587005 0.000000
vt -0.017836 1.587005 0.000000
vt 0.773914 -0.788243 0.000000
vt -0.017836 0.003506 0.000000
vt -0.017836 -1.579993 0.000000
vt 0.773914 -1.579993 0.000000
vt -0.017836 0.795255 0.000000
vt 0.000000 1.500000 0.000000
vt 0.000000 0.000000 0.000000
vt 1.202500 1.500000 0.000000
vt 4.405000 0.000000 0.000000
vt 3.202500 1.500000 0.000000
vt 4.405000 1.500000 0.000000
vt 3.202500 2.200000 0.000000
vt 1.202500 2.200000 0.000000
vt 0.000000 0.000000 0.000000
vt 4.405000 0.000000 0.000000
vt -0.000000 1.500000 0.000000
vt 4.405000 1.500000 0.000000
vt 0.000000 0.000000 0.000000
vt 4.405000 0.000000 0.000000
vt -0.000000 1.500000 0.000000
vt 4.405000 1.500000 0.000000
vt 0.000000 1.500000 0.000000
vt 0.000000 0.000000 0.000000
vt 1.202500 1.500000 0.000000
vt 4.405000 0.000000 0.000000
vt 3.202500 1.500000 0.000000
vt 4.405000 1.500000 0.000000
vt 3.202500 2.200000 0.000000
vt 1.202500 2.200000 0.000000
vt -0.000000 0.000000 0.000000
vt 4.405000 0.000000 0.000000
vt -0.000000 1.500000 0.000000
vt 4.405000 1.500000 0.000000
vt 0.000000 0.000000 0.000000
vt 4.405000 0.000000 0.000000
vt 0.000000 1.500000 0.000000
vt 4.405000 1.500000 0.000000
vt 1.000000 -3.814842 0.000000
vt 2.202500 -3.814842 0.000000
vt 1.000000 -3.307830 0.000000
vt 2.357412 -2.371742 0.000000
vt -1.000000 -3.307830 0.000000
vt -2.393084 -2.371742 0.000000
vt -2.202500 -3.814842 0.000000
vt -4.405000 -0.000000 0.000000
vt -2.393084 2.378754 0.000000
vt -2.202500 3.814842 0.000000
vt -1.000000 3.314842 0.000000
vt -1.000000 3.814842 0.000000
vt 4.405000 -0.000000 0.000000
vt 2.357412 2.378754 0.000000
vt 2.202500 3.814842 0.000000
vt 1.000000 3.314842 0.000000
vt 1.000000 3.814842 0.000000
vt -1.000000 -3.814842 0.000000
vt -2.202500 -3.814842 0.000000
vt 2.202500 -3.814842 0.000000
vt -4.405000 -0.000000 0.000000
vt 4.405000 -0.000000 0.000000
vt -2.202500 3.814842 0.000000
vt 2.202500 3.814842 0.000000
vn -1.000000 -0.000000 0.000000
vn -1.000000 -0.000000 0.000000
vn -1.000000 -0.000000 0.000000
vn -1.000000 -0.000000 0.000000
vn -0.000000 1.000000 0.000000
vn -0.000000 1.000000 0.000000
vn -0.000000 1.000000 0.000000
vn -0.000000 1.000000 0.000000
vn 1.000000 0.000000 -0.000000
vn 1.000000 0.000000 -0.000000
vn 1.000000 0.000000 -0.000000
vn 1.000000 0.000000 -0.000000
vn 0.000000 0.000000 1.000000
vn 0.000000 0.000000 1.000000
vn 0.000000 0.000000 1.000000
vn 0.000000 0.000000 1.000000
vn 0.000000 -1.000000 0.000000
vn 0.000000 -1.000000 0.000000
vn 0.000000 -1.000000 0.000000
vn 0.000000 -1.000000 0.000000
vn -1.000000 0.000000 0.000000
vn -1.000000 0.000000 0.000000
vn -1.000000 0.000000 0.000000
vn -1.000000 0.000000 0.000000
vn 1.000000 0.000000 -0.000000
vn 1.000000 0.000000 -0.000000
vn 1.000000 0.000000 -0.000000
vn 1.000000 0.000000 -0.000000
vn 0.000000 0.000000 1.000000
vn 0.000000 0.000000 1.000000
vn 0.000000 0.000000 1.000000
vn 0.000000 0.000000 1.000000
vn -0.000000 1.000000 -0.000000
vn -0.000000 1.000000 -0.000000
vn -0.000000 1.000000 -0.000000
vn -0.000000 1.000000 -0.000000
vn -1.000000 -0.000000 -0.000000
vn -1.000000 -0.000000 -0.000000
vn -1.000000 -0.000000 -0.000000
vn -1.000000 -0.000000 -0.000000
vn -0.000000 1.000000 -0.000000
vn -0.000000 1.000000 -0.000000
vn -0.000000 1.000000 -0.000000
vn -0.000000 1.000000 -0.000000
vn 1.000000 0.000000 0.000000
vn 1.000000 0.000000 0.000000
vn 1.000000 0.000000 0.000000
vn 1.000000 0.000000 0.000000
vn 0.000000 -1.000000 -0.000000
vn 0.000000 -1.000000 -0.000000
vn 0.000000 -1.000000 -0.000000
vn 0.000000 -1.000000 -0.000000
vn 1.000000 0.000000 0.000000
vn 1.000000 0.000000 0.000000
vn 1.000000 0.000000 0.000000
vn 1.000000 0.000000 0.000000
vn -0.000000 -1.000000 -0.000000
vn -0.000000 -1.000000 -0.000000
vn -0.000000 -1.000000 -0.000000
vn -0.000000 -1.000000 -0.000000
vn -1.000000 -0.000000 -0.000000
vn -1.000000 -0.000000 -0.000000
vn -1.000000 -0.000000 -0.000000
vn -1.000000 -0.000000 -0.000000
vn -0.000000 -1.000000 -0.000000
vn -0.000000 -1.000000 -0.000000
vn -0.000000 -1.000000 -0.000000
vn -0.000000 -1.000000 -0.000000
vn -1.000000 -0.000000 -0.000000
vn -1.000000 -0.000000 -0.000000
vn -1.000000 -0.000000 -0.000000
vn -1.000000 -0.000000 -0.000000
vn 0.000000 -1.000000 -0.000000
vn 0.000000 -1.000000 -0.000000
vn 0.000000 -1.000000 -0.000000
vn 0.000000 -1.000000 -0.000000
vn -1.000000 0.000000 -0.000000
vn -1.000000 0.000000 -0.000000
vn -1.000000 0.000000 -0.000000
vn -1.000000 0.000000 -0.000000
vn -0.000000 1.000000 -0.000000
vn -0.000000 1.000000 -0.000000
vn -0.000000 1.000000 -0.000000
vn -0.000000 1.000000 -0.000000
vn 1.000000 0.000000 0.000000
vn 1.000000 0.000000 0.000000
vn 1.000000 0.000000 0.000000
vn 1.000000 0.000000 0.000000
vn -1.000000 -0.000000 -0.000000
vn -1.000000 -0.000000 -0.000000
vn -1.000000 -0.000000 -0.000000
vn -1.000000 -0.000000 -0.000000
vn 0.000000 -1.000000 -0.000000
vn 0.000000 -1.000000 -0.000000
vn 0.000000 -1.000000 -0.000000
vn 0.000000 -1.000000 -0.000000
vn 1.000000 0.000000 0.000000
vn 1.000000 0.000000 0.000000
vn 1.000000 0.000000 0.000000
vn 1.000000 0.000000 0.000000
vn 0.000000 1.000000 0.000000
vn 0.000000 1.000000 0.000000
vn 0.000000 1.000000 0.000000
vn 0.000000 1.000000 0.000000
vn -0.000000 -0.000000 1.000000
vn -0.000000 -0.000000 1.000000
vn -0.000000 -0.000000 1.000000
vn -0.000000 -0.000000 1.000000
vn -0.000000 -0.000000 1.000000
vn -0.000000 -0.000000 1.000000
vn -0.000000 -0.000000 1.000000
vn -0.000000 -0.000000 1.000000
vn -0.000000 -0.000000 1.000000
vn -0.000000 -0.000000 1.000000
vn -0.000000 -0.000000 1.000000
vn -0.000000 -0.000000 1.000000
vn -0.000000 -0.000000 1.000000
vn -0.000000 -0.000000 1.000000
vn -0.000000 -0.000000 1.000000
vn -0.000000 -0.000000 1.000000
vn -0.000000 -0.000000 1.000000
vn -1.000000 -0.000000 -0.000000
vn -1.000000 -0.000000 -0.000000
vn -1.000000 -0.000000 -0.000000
vn -1.000000 -0.000000 -0.000000
vn -0.000000 -1.000000 -0.000000
vn -0.000000 -1.000000 -0.000000
vn -0.000000 -1.000000 -0.000000
vn -0.000000 -1.000000 -0.000000
vn 1.000000 -0.000000 -0.000000
vn 1.000000 -0.000000 -0.000000
vn 1.000000 -0.000000 -0.000000
vn 1.000000 -0.000000 -0.000000
vn -0.000000 1.000000 -0.000000
vn -0.000000 1.000000 -0.000000
vn -0.000000 1.000000 -0.000000
vn -0.000000 1.000000 -0.000000
vn -0.000000 -0.000000 1.000000
vn -0.000000 -0.000000 1.000000
vn 0.000000 0.000000 1.000000
vn 0.000000 0.000000 1.000000
vn 0.000000 0.000000 1.000000
vn 0.000000 0.000000 1.000000
vn 0.000000 0.000000 1.000000
vn 0.000000 0.000000 1.000000
vn 0.000000 0.000000 1.000000
vn 0.000000 0.000000 1.000000
vn 0.000000 0.000000 1.000000
vn 0.000000 0.000000 1.000000
vn 0.000000 0.000000 1.000000
vn 0.000000 0.000000 1.000000
vn 0.000000 0.000000 1.000000
vn 0.000000 0.000000 1.000000
vn 0.000000 0.000000 1.000000
vn -0.000000 -1.000000 0.000000
vn -0.000000 -1.000000 0.000000
vn -0.000000 -1.000000 0.000000
vn -0.000000 -1.000000 0.000000
vn -0.000000 -1.000000 0.000000
vn -0.000000 -1.000000 0.000000
vn -0.000000 -1.000000 0.000000
vn -0.000000 -1.000000 0.000000
vn -0.866025 -0.500000 0.000000
vn -0.866025 -0.500000 0.000000
vn -0.866025 -0.500000 0.000000
vn -0.866025 -0.500000 0.000000
vn -0.866025 0.500000 0.000000
vn -0.866025 0.500000 0.000000
vn -0.866025 0.500000 0.000000
vn -0.866025 0.500000 0.000000
vn 0.000000 1.000000 -0.000000
vn 0.000000 1.000000 -0.000000
vn 0.000000 1.000000 -0.000000
vn 0.000000 1.000000 -0.000000
vn 0.000000 1.000000 -0.000000
vn 0.000000 1.000000 -0.000000
vn 0.000000 1.000000 -0.000000
vn 0.000000 1.000000 -0.000000
vn 0.866025 0.500000 -0.000000
vn 0.866025 0.500000 -0.000000
vn 0.866025 0.500000 -0.000000
vn 0.866025 0.500000 -0.000000
vn 0.866025 -0.500000 0.000000
vn 0.866025 -0.500000 0.000000
vn 0.866025 -0.500000 0.000000
vn 0.866025 -0.500000 0.000000
vn 0.000000 0.000000 1.000000
vn 0.000000 0.000000 1.000000
vn 0.000000 0.000000 1.000000
vn 0.000000 0.000000 1.000000
vn 0.000000 0.000000 1.000000
vn 0.000000 0.000000 1.000000
vn 0.000000 0.000000 1.000000
vn 0.000000 0.000000 1.000000
vn 0.000000 0.000000 1.000000
vn 0.000000 0.000000 1.000000
vn 0.000000 0.000000 1.000000
vn 0.000000 0.000000 1.000000
vn 0.000000 0.000000 1.000000
vn 0.000000 0.000000 1.000000
vn 0.000000 0.000000 1.000000
vn 0.000000 0.000000 1.000000
vn 0.000000 0.000000 1.000000
vn 0.000000 0.000000 1.000000
vn -0.000000 -0.000000 -1.000000
vn -0.000000 -0.000000 -1.000000
vn -0.000000 -0.000000 -1.000000
vn -0.000000 -0.000000 -1.000000
vn -0.000000 -0.000000 -1.000000
vn -0.000000 -0.000000 -1.000000
usemtl white_pla
f 1/1/1 2/2/2 4/3/3
f 4/3/3 2/2/2 3/4/4
f 5/5/5 1/6/6 6/7/7
f 6/7/7 1/6/6 4/8/8
f 7/9/9 5/10/10 8/11/11
f 8/11/11 5/10/10 6/12/12
f 3/13/13 8/14/14 4/15/15
f 4/15/15 8/14/14 6/16/16
f 9/17/17 10/18/18 12/19/19
f 12/19/19 10/18/18 11/20/20
f 13/21/21 9/22/22 14/23/23
f 14/23/23 9/22/22 12/24/24
f 10/25/25 15/26/26 11/27/27
f 11/27/27 15/26/26 16/28/28
f 16/29/29 14/30/30 11/31/31
f 11/31/31 14/30/30 12/32/32
f 17/33/33 18/34/34 20/35/35
f 20/35/35 18/34/34 19/36/36
f 18/37/37 21/38/38 19/39/39
f 19/39/39 21/38/38 22/40/40
f 21/41/41 23/42/42 22/43/43
f 22/43/43 23/42/42 24/44/44
f 23/45/45 25/46/46 24/47/47
f 24/47/47 25/46/46 26/48/48
f 25/49/49 27/50/50 26/51/51
f 26/51/51 27/50/50 28/52/52
f 27/53/53 29/54/54 28/55/55
f 28/55/55 29/54/54 30/56/56
f 29/57/57 31/58/58 30/59/59
f 30/59/59 31/58/58 32/60/60
f 31/61/61 33/62/62 32/63/63
f 32/63/63 33/62/62 34/64/64
f 33/65/65 35/66/66 34/67/67
f 34/67/67 35/66/66 36/68/68
f 35/69/69 17/70/70 36/71/71
f 36/71/71 17/70/70 20/72/72
f 17/73/73 37/74/74 20/75/75
f 20/75/75 37/74/74 38/76/76
f 37/77/77 39/78/78 38/79/79
f 38/79/79 39/78/78 40/80/80
f 39/81/81 41/82/82 40/83/83
f 40/83/83 41/82/82 42/84/84
f 41/85/85 17/86/86 42/87/87
f 42/87/87 17/86/86 20/88/88
f 43/89/89 44/90/90 46/91/91
f 46/91/91 44/90/90 45/92/92
f 44/93/93 47/94/94 45/95/95
f 45/95/95 47/94/94 48/96/96
f 47/97/97 49/98/98 48/99/99
f 48/99/99 49/98/98 50/100/100
f 49/101/101 43/102/102 50/103/103
f 50/103/103 43/102/102 46/104/104
f 20/105/105 19/106/106 42/107/107
f 42/107/107 19/106/106 22/108/108
f 42/107/107 22/108/108 48/109/109
f 48/109/109 22/108/108 45/110/110
f 45/110/110 22/108/108 24/111/111
f 45/110/110 24/111/111 26/112/112
f 28/113/113 30/114/114 26/112/112
f 26/112/112 30/114/114 46/115/115
f 26/112/112 46/115/115 45/110/110
f 30/114/114 32/116/116 46/115/115
f 46/115/115 32/116/116 50/117/117
f 50/117/117 32/116/116 36/118/118
f 50/117/117 36/118/118 38/119/119
f 38/119/119 36/118/118 20/105/105
f 32/116/116 34/120/120 36/118/118
f 50/117/117 38/119/119 48/109/109
f 48/109/109 38/119/119 40/121/121
f 48/109/109 40/121/121 42/107/107
f 51/122/122 52/123/123 54/124/124
f 54/124/124 52/123/123 53/125/125
f 52/126/126 18/127/127 53/128/128
f 53/128/128 18/127/127 19/129/129
f 18/130/130 33/131/131 19/132/132
f 19/132/132 33/131/131 34/133/133
f 33/134/134 51/135/135 34/136/136
f 34/136/136 51/135/135 54/137/137
f 34/138/120 54/139/138 19/140/106
f 19/140/106 54/139/138 53/141/139
f 18/142/140 17/143/141 33/144/142
f 33/144/142 17/143/141 35/145/143
f 41/146/144 39/147/145 17/148/141
f 17/148/141 39/147/145 37/149/146
f 51/150/147 25/151/148 52/152/149
f 52/152/149 25/151/148 23/153/150
f 52/152/149 23/153/150 21/154/151
f 25/151/148 51/150/147 27/155/152
f 27/155/152 51/150/147 33/156/142
f 27/155/152 33/156/142 31/157/153
f 31/157/153 29/158/154 27/155/152
f 21/154/151 18/159/140 52/152/149
f 58/160/155 55/161/156 2/162/157
f 2/162/157 55/161/156 56/163/158
f 2/162/157 56/163/158 7/164/159
f 7/164/159 56/163/158 57/165/160
f 8/166/161 3/167/162 7/164/159
f 7/164/159 3/167/162 2/162/157
f 59/168/163 55/169/164 60/170/165
f 60/170/165 55/169/164 58/171/166
f 61/172/167 59/173/168 62/174/169
f 62/174/169 59/173/168 60/175/170
f 64/176/171 63/177/172 15/178/173
f 15/178/173 63/177/172 61/179/174
f 15/178/173 61/179/174 13/180/175
f 13/180/175 61/179/174 62/181/176
f 14/182/177 16/183/178 13/180/175
f 13/180/175 16/183/178 15/178/173
f 65/184/179 63/185/180 66/186/181
f 66/186/181 63/185/180 64/187/182
f 56/188/183 65/189/184 57/190/185
f 57/190/185 65/189/184 66/191/186
f 7/192/187 57/193/188 5/194/189
f 5/194/189 57/193/188 43/195/190
f 5/194/189 43/195/190 1/196/191
f 1/196/191 43/195/190 49/197/192
f 1/196/191 49/197/192 58/198/193
f 58/198/193 49/197/192 60/199/194
f 60/199/194 49/197/192 47/200/195
f 60/199/194 47/200/195 62/201/196
f 62/201/196 47/200/195 9/202/197
f 62/201/196 9/202/197 13/203/198
f 57/193/188 66/204/199 43/195/190
f 43/195/190 66/204/199 44/205/200
f 44/205/200 66/204/199 64/206/201
f 44/205/200 64/206/201 10/207/202
f 10/207/202 64/206/201 15/208/203
f 10/207/202 9/202/197 44/205/200
f 44/205/200 9/202/197 47/200/195
f 58/198/193 2/209/204 1/196/191
f 56/210/205 55/211/206 65/212/207
f 65/212/207 55/211/206 59/213/208
f 65/212/207 59/213/208 63/214/209
f 63/214/209 59/213/208 61/215/210
# 66 vertices
# 215 texture params
# 210 normals
# 134 facets

# 1 groups
