mtllib tn__Tampa1_dC_Corpo1_Mesh.mtl
v 0.015 0.053 -0.015
v 0.015 0.053 -0.012
v 0.015 0.056 -0.012
v 0.015 0.056 -0.015
v 0.035 0.053 -0.015
v 0.015 0.053 -0.015
v 0.015 0.056 -0.015
v 0.035 0.056 -0.015
v 0.035 0.053 -0.012
v 0.035 0.053 -0.015
v 0.035 0.056 -0.015
v 0.035 0.056 -0.012
v 0.015 0.053 -0.012
v 0.035 0.053 -0.012
v 0.035 0.056 -0.012
v 0.015 0.056 -0.012
v 0.015 0.056 -0.015
v 0.015 0.056 -0.012
v 0.035 0.056 -0.012
v 0.035 0.056 -0.015
v 0.02 -0.007560660362243653 -0.019560659408569336
v 0.02 -0.00707402515411377 -0.019885818481445314
v 0.03 -0.00707402515411377 -0.019885818481445314
v 0.03 -0.007560660362243653 -0.019560659408569336
v 0.03 -0.006500000000000001 -0.02
v 0.02 -0.006500000000000001 -0.02
v 0.02 -0.007885819435119628 -0.019074024200439455
v 0.02 -0.008 -0.0185
v 0.03 -0.007885819435119628 -0.019074024200439455
v 0.03 -0.008 -0.0185
v 0.02 -0.006500000000000001 -0.015
v 0.02 -0.003 -0.015
v 0.02 -0.005021645545959473 -0.016345149993896486
v 0.02 -0.004616116523742676 -0.01661611557006836
v 0.02 -0.0055 -0.01625
v 0.02 -0.00425 -0.0175
v 0.02 -0.004345150470733643 -0.01702164649963379
v 0.02 -0.003 -0.02
v 0.02 -0.005978354454040527 -0.016345149993896486
v 0.02 -0.00707402515411377 -0.015114180564880371
v 0.02 -0.006383883476257324 -0.01661611557006836
v 0.02 -0.007560660362243653 -0.015439339637756348
v 0.02 -0.006654849529266357 -0.01702164649963379
v 0.02 -0.008 -0.0165
v 0.02 -0.007885819435119628 -0.01592597484588623
v 0.02 -0.00675 -0.0175
v 0.02 -0.004616116523742676 -0.018383884429931642
v 0.02 -0.004345150470733643 -0.017978353500366213
v 0.02 -0.0055 -0.01875
v 0.02 -0.005021645545959473 -0.018654850006103518
v 0.02 -0.006500000000000001 -0.02
v 0.02 -0.005978354454040527 -0.018654850006103518
v 0.02 -0.006383883476257324 -0.018383884429931642
v 0.02 -0.006654849529266357 -0.017978353500366213
v 0.02 -0.008 -0.0185
v 0.02 -0.007885819435119628 -0.019074024200439455
v 0.02 -0.007560660362243653 -0.019560659408569336
v 0.02 -0.00707402515411377 -0.019885818481445314
v 0.02 -0.008 -0.0165
v 0.02 -0.008 -0.0185
v 0.03 -0.008 -0.0185
v 0.03 -0.008 -0.0165
v 0.03 -0.007560660362243653 -0.015439339637756348
v 0.03 -0.00707402515411377 -0.015114180564880371
v 0.02 -0.00707402515411377 -0.015114180564880371
v 0.02 -0.007560660362243653 -0.015439339637756348
v 0.03 -0.006500000000000001 -0.015
v 0.02 -0.006500000000000001 -0.015
v 0.02 -0.007885819435119628 -0.01592597484588623
v 0.03 -0.008 -0.0165
v 0.03 -0.007885819435119628 -0.01592597484588623
v 0.02 -0.008 -0.0165
v 0.03 -0.006654849529266357 -0.017978353500366213
v 0.02 -0.006654849529266357 -0.017978353500366213
v 0.02 -0.00675 -0.0175
v 0.03 -0.005978354454040527 -0.018654850006103518
v 0.02 -0.005978354454040527 -0.018654850006103518
v 0.02 -0.006383883476257324 -0.018383884429931642
v 0.03 -0.006383883476257324 -0.018383884429931642
v 0.03 -0.005021645545959473 -0.018654850006103518
v 0.02 -0.005021645545959473 -0.018654850006103518
v 0.02 -0.0055 -0.01875
v 0.03 -0.004345150470733643 -0.017978353500366213
v 0.02 -0.004345150470733643 -0.017978353500366213
v 0.02 -0.004616116523742676 -0.018383884429931642
v 0.03 -0.004616116523742676 -0.018383884429931642
v 0.03 -0.0055 -0.01875
v 0.03 -0.00675 -0.0175
v 0.03 -0.00425 -0.0175
v 0.02 -0.00425 -0.0175
v 0.03 -0.006654849529266357 -0.01702164649963379
v 0.03 -0.004345150470733643 -0.01702164649963379
v 0.02 -0.004345150470733643 -0.01702164649963379
v 0.03 -0.005021645545959473 -0.016345149993896486
v 0.02 -0.005021645545959473 -0.016345149993896486
v 0.02 -0.004616116523742676 -0.01661611557006836
v 0.03 -0.004616116523742676 -0.01661611557006836
v 0.03 -0.005978354454040527 -0.016345149993896486
v 0.02 -0.005978354454040527 -0.016345149993896486
v 0.02 -0.0055 -0.01625
v 0.02 -0.006654849529266357 -0.01702164649963379
v 0.02 -0.006383883476257324 -0.01661611557006836
v 0.03 -0.006383883476257324 -0.01661611557006836
v 0.03 -0.0055 -0.01625
v 0.03 -0.006500000000000001 -0.02
v 0.03 -0.003 -0.02
v 0.03 -0.005021645545959473 -0.018654850006103518
v 0.03 -0.004616116523742676 -0.018383884429931642
v 0.03 -0.0055 -0.01875
v 0.03 -0.00425 -0.0175
v 0.03 -0.004345150470733643 -0.017978353500366213
v 0.03 -0.003 -0.015
v 0.03 -0.005978354454040527 -0.018654850006103518
v 0.03 -0.00707402515411377 -0.019885818481445314
v 0.03 -0.006383883476257324 -0.018383884429931642
v 0.03 -0.007560660362243653 -0.019560659408569336
v 0.03 -0.006654849529266357 -0.017978353500366213
v 0.03 -0.008 -0.0185
v 0.03 -0.007885819435119628 -0.019074024200439455
v 0.03 -0.00675 -0.0175
v 0.03 -0.004616116523742676 -0.01661611557006836
v 0.03 -0.004345150470733643 -0.01702164649963379
v 0.03 -0.0055 -0.01625
v 0.03 -0.005021645545959473 -0.016345149993896486
v 0.03 -0.006500000000000001 -0.015
v 0.03 -0.005978354454040527 -0.016345149993896486
v 0.03 -0.006383883476257324 -0.01661611557006836
v 0.03 -0.006654849529266357 -0.01702164649963379
v 0.03 -0.008 -0.0165
v 0.03 -0.007560660362243653 -0.015439339637756348
v 0.03 -0.007885819435119628 -0.01592597484588623
v 0.03 -0.00707402515411377 -0.015114180564880371
v 0.03 -0.003 -0.015
v 0.02 -0.003 -0.015
v 0.02 -0.006500000000000001 -0.015
v 0.03 -0.006500000000000001 -0.015
v -0.003 -0.003 -0.02
v 0.02 -0.003 -0.02
v 0.02 -0.003 -0.015
v -0.003 -0.003 0.003
v 0.053 -0.003 0.003
v 0.03 -0.003 -0.02
v 0.053 -0.003 -0.02
v 0.03 -0.003 -0.015
v 0.05 0.05 0.0
v 0.0 0.05 0.0
v 0.0 0.05 -0.02
v 0.05 0.05 -0.02
v 0.05 0.0 0.0
v 0.05 0.05 0.0
v 0.05 0.05 -0.02
v 0.05 0.0 -0.02
v 0.0 0.0 0.0
v 0.05 0.0 0.0
v 0.05 0.0 -0.02
v 0.0 0.0 -0.02
v 0.0 0.05 0.0
v 0.0 0.0 0.0
v 0.0 0.0 -0.02
v 0.0 0.05 -0.02
v 0.025 0.0 -0.02
v 0.02 -0.003 -0.02
v 0.0085 -0.003 -0.02
v 0.03 -0.006500000000000001 -0.02
v 0.02 -0.006500000000000001 -0.02
v 0.0415 -0.003 -0.02
v 0.03 -0.003 -0.02
v 0.053 0.053 -0.02
v 0.05 0.0 -0.02
v 0.05 0.05 -0.02
v 0.053 -0.003 -0.02
v 0.0 0.05 -0.02
v 0.0 0.0 -0.02
v -0.003 0.053 -0.02
v -0.003 -0.003 -0.02
v -0.003 0.053 -0.02
v -0.003 -0.003 -0.02
v -0.003 -0.003 0.003
v -0.003 0.053 0.003
v 0.053 0.053 -0.02
v 0.035 0.053 -0.015
v 0.035 0.053 -0.012
v 0.015 0.053 -0.015
v 0.053 0.053 0.003
v 0.015 0.053 -0.012
v -0.003 0.053 -0.02
v -0.003 0.053 0.003
v 0.053 -0.003 -0.02
v 0.053 0.053 -0.02
v 0.053 0.053 0.003
v 0.053 -0.003 0.003
v -0.003 -0.003 0.003
v 0.053 -0.003 0.003
v 0.053 0.053 0.003
v -0.003 0.053 0.003
v 0.05 0.05 0.0
v 0.05 0.0 0.0
v 0.0 0.0 0.0
v 0.0 0.05 0.0
usemtl Diffuse_1
f 1 2 3
f 3 4 1
f 5 6 7
f 7 8 5
f 9 10 11
f 11 12 9
f 13 14 15
f 15 16 13
f 17 18 19
f 19 20 17
f 21 22 23
f 21 23 24
f 25 23 22
f 25 22 26
f 21 24 27
f 28 27 29
f 29 30 28
f 27 24 29
f 31 32 33
f 33 32 34
f 35 31 33
f 36 37 32
f 37 34 32
f 32 38 36
f 31 35 39
f 40 41 42
f 41 40 31
f 41 43 44
f 44 45 41
f 43 46 44
f 41 45 42
f 31 39 41
f 47 48 38
f 49 50 51
f 38 50 47
f 51 52 49
f 51 50 38
f 48 36 38
f 53 52 51
f 46 54 55
f 54 53 55
f 46 55 44
f 56 53 57
f 53 56 55
f 58 57 53
f 53 51 58
f 59 60 61
f 61 62 59
f 63 64 65
f 63 65 66
f 64 67 68
f 64 68 65
f 63 66 69
f 70 71 69
f 69 72 70
f 71 63 69
f 73 74 75
f 76 77 78
f 79 78 74
f 80 81 82
f 83 84 85
f 86 85 81
f 87 82 77
f 75 88 73
f 78 79 76
f 79 74 73
f 82 87 80
f 85 86 83
f 86 81 80
f 87 77 76
f 84 89 90
f 91 88 75
f 92 93 90
f 94 95 96
f 97 96 93
f 98 99 100
f 91 101 102
f 103 102 99
f 104 100 95
f 90 89 92
f 96 97 94
f 97 93 92
f 100 104 98
f 102 103 91
f 103 99 98
f 104 95 94
f 91 75 101
f 84 83 89
f 105 106 107
f 107 106 108
f 109 105 107
f 110 111 106
f 111 108 106
f 106 112 110
f 105 109 113
f 114 115 116
f 115 114 105
f 115 117 118
f 118 119 115
f 117 120 118
f 115 119 116
f 105 113 115
f 121 122 112
f 123 124 125
f 112 124 121
f 125 126 123
f 125 124 112
f 122 110 112
f 127 126 125
f 120 128 129
f 128 127 129
f 120 129 118
f 127 130 131
f 127 131 129
f 127 132 130
f 127 125 132
f 133 134 135
f 135 136 133
f 137 138 139
f 140 139 141
f 139 140 137
f 142 143 144
f 144 141 139
f 141 144 143
f 145 146 147
f 147 148 145
f 149 150 151
f 151 152 149
f 153 154 155
f 155 156 153
f 157 158 159
f 159 160 157
f 161 162 163
f 164 165 161
f 161 166 167
f 168 169 170
f 169 168 171
f 166 161 169
f 168 170 172
f 162 161 165
f 173 174 172
f 174 173 175
f 172 174 168
f 163 173 161
f 169 171 166
f 161 167 164
f 175 173 163
f 176 177 178
f 178 179 176
f 180 181 182
f 181 180 183
f 184 182 185
f 182 184 180
f 183 186 185
f 186 183 180
f 185 187 184
f 187 185 186
f 188 189 190
f 190 191 188
f 192 193 194
f 194 195 192
f 196 197 198
f 198 199 196
