mtllib tn__botao1_dC_Corpo1_Mesh.mtl
v -0.010899999618530274 0.010899999618530274 -0.0035999999046325685
v -0.010899999618530274 -0.010899999618530274 -0.0035999999046325685
v -0.0145 -0.0145 0.0
v -0.0145 0.0145 0.0
v 0.010899999618530274 -0.010899999618530274 -0.0035999999046325685
v 0.0145 -0.0145 0.0
v -0.010899999618530274 -0.010899999618530274 -0.0035999999046325685
v -0.0145 -0.0145 0.0
v 0.0145 0.0145 0.0
v 0.0145 -0.0145 0.0
v 0.010899999618530274 -0.010899999618530274 -0.0035999999046325685
v 0.010899999618530274 0.010899999618530274 -0.0035999999046325685
v 0.0145 0.0145 0.0
v 0.010899999618530274 0.010899999618530274 -0.0035999999046325685
v -0.010899999618530274 0.010899999618530274 -0.0035999999046325685
v -0.0145 0.0145 0.0
v 0.010899999618530274 -0.010899999618530274 -0.0035999999046325685
v -0.010899999618530274 -0.010899999618530274 -0.0035999999046325685
v -0.010899999618530274 0.010899999618530274 -0.0035999999046325685
v 0.010899999618530274 0.010899999618530274 -0.0035999999046325685
v -0.011961753845214845 0.003628558397293091 0.0
v -0.011548494338989258 0.004783543109893799 0.0
v -0.0145 0.0145 0.0
v -0.011024015426635742 0.005892459392547607 0.0
v -0.010393370628356933 0.0069446277618408206 0.0
v -0.009662631034851075 0.00792991590499878 0.0
v -0.0125 -1.5308084466174517e-18 0.0
v -0.01243980884552002 0.0012252142429351807 0.0
v -0.01225981616973877 0.002438628911972046 0.0
v -0.0145 -0.0145 0.0
v -0.004783543109893799 0.011548494338989258 0.0
v -0.003628558397293091 0.011961753845214845 0.0
v -0.002438628911972046 0.01225981616973877 0.0
v -0.0012252142429351807 0.01243980884552002 0.0
v -0.008838834762573243 0.008838834762573243 0.0
v -0.00792991590499878 0.009662631034851075 0.0
v -0.0069446277618408206 0.010393370628356933 0.0
v -0.005892459392547607 0.011024015426635742 0.0
v 7.654042233087259e-19 0.0125 0.0
v -0.01225981616973877 -0.002438628911972046 0.0
v -0.01243980884552002 -0.0012252142429351807 0.0
v -0.011548494338989258 -0.004783543109893799 0.0
v -0.011961753845214845 -0.003628558397293091 0.0
v -0.010393370628356933 -0.0069446277618408206 0.0
v -0.011024015426635742 -0.005892459392547607 0.0
v -0.009662631034851075 -0.00792991590499878 0.0
v -0.008838834762573243 -0.008838834762573243 0.0
v -0.00792991590499878 -0.009662631034851075 0.0
v -0.005892459392547607 -0.011024015426635742 0.0
v -0.0069446277618408206 -0.010393370628356933 0.0
v -0.003628558397293091 -0.011961753845214845 0.0
v -0.004783543109893799 -0.011548494338989258 0.0
v -2.296212722865737e-18 -0.0125 0.0
v -0.0012252142429351807 -0.01243980884552002 0.0
v -0.002438628911972046 -0.01225981616973877 0.0
v 0.0145 -0.0145 0.0
v 0.0145 0.0145 0.0
v 0.0012252142429351807 0.01243980884552002 0.0
v 0.002438628911972046 0.01225981616973877 0.0
v 0.003628558397293091 0.011961753845214845 0.0
v 0.004783543109893799 0.011548494338989258 0.0
v 0.005892459392547607 0.011024015426635742 0.0
v 0.0069446277618408206 0.010393370628356933 0.0
v 0.00792991590499878 0.009662631034851075 0.0
v 0.008838834762573243 0.008838834762573243 0.0
v 0.009662631034851075 0.00792991590499878 0.0
v 0.011024015426635742 0.005892459392547607 0.0
v 0.010393370628356933 0.0069446277618408206 0.0
v 0.011548494338989258 0.004783543109893799 0.0
v 0.011961753845214845 0.003628558397293091 0.0
v 0.01225981616973877 0.002438628911972046 0.0
v 0.01243980884552002 0.0012252142429351807 0.0
v 0.0125 -3.0616168932349035e-18 0.0
v 0.0069446277618408206 -0.010393370628356933 0.0
v 0.005892459392547607 -0.011024015426635742 0.0
v 0.008838834762573243 -0.008838834762573243 0.0
v 0.00792991590499878 -0.009662631034851075 0.0
v 0.002438628911972046 -0.01225981616973877 0.0
v 0.0012252142429351807 -0.01243980884552002 0.0
v 0.004783543109893799 -0.011548494338989258 0.0
v 0.003628558397293091 -0.011961753845214845 0.0
v 0.01225981616973877 -0.002438628911972046 0.0
v 0.011961753845214845 -0.003628558397293091 0.0
v 0.01243980884552002 -0.0012252142429351807 0.0
v 0.010393370628356933 -0.0069446277618408206 0.0
v 0.009662631034851075 -0.00792991590499878 0.0
v 0.011548494338989258 -0.004783543109893799 0.0
v 0.011024015426635742 -0.005892459392547607 0.0
v 0.0225 -5.5109107042843575e-18 0.01
v 0.02239165687561035 0.0022053856849670412 0.01
v 0.022296045303344728 0.0021959688663482665 0.010975451469421386
v 0.02197344207763672 0.0043707890510559086 0.010975451469421386
v 0.021694379806518557 0.004315280437469483 0.011913416862487793
v 0.022067668914794922 0.004389532089233398 0.01
v 0.022012886047363282 0.0021680800914764403 0.011913416862487793
v 0.022296045303344728 -0.0021959688663482665 0.010975451469421386
v 0.021531158447265625 0.006531405448913574 0.01
v 0.0214392204284668 0.006503516674041749 0.010975451469421386
v 0.020787288665771484 0.008610377311706543 0.01
v 0.02069852828979492 0.00857361125946045 0.010975451469421386
v 0.019843229293823244 0.010606426239013672 0.01
v 0.02116694450378418 0.00642092227935791 0.011913416862487793
v 0.020724790573120117 0.006286796092987061 0.012777851104736329
v 0.020435659408569336 0.008464727401733398 0.011913416862487793
v 0.021241209030151368 0.004225139141082764 0.012777851104736329
v 0.019758499145507813 0.010561138153076173 0.010975451469421386
v 0.019507566452026368 0.010427011489868165 0.011913416862487793
v 0.018628183364868163 0.012446954727172851 0.010975451469421386
v 0.018391607284545898 0.012288878440856934 0.011913416862487793
v 0.01910007667541504 0.010209202766418457 0.012777851104736329
v 0.020008781433105468 0.008287908554077149 0.012777851104736329
v 0.01870806694030762 0.012500329971313477 0.01
v 0.021553062438964845 0.002122791290283203 0.012777851104736329
v 0.022012886047363282 -0.0021680800914764403 0.011913416862487793
v 0.01739273452758789 0.014273848533630371 0.01
v 0.017318470001220703 0.014212900161743165 0.010975451469421386
v 0.015909902572631838 0.015909902572631838 0.01
v 0.014273848533630371 0.01739273452758789 0.01
v 0.015841968536376955 0.015841968536376955 0.010975451469421386
v 0.012500329971313477 0.01870806694030762 0.01
v 0.010606426239013672 0.019843229293823244 0.01
v 0.010561138153076173 0.019758499145507813 0.010975451469421386
v 0.008610377311706543 0.020787288665771484 0.01
v 0.006531405448913574 0.021531158447265625 0.01
v 0.006503516674041749 0.0214392204284668 0.010975451469421386
v 0.004389532089233398 0.022067668914794922 0.01
v 0.00857361125946045 0.02069852828979492 0.010975451469421386
v 0.014212900161743165 0.017318470001220703 0.010975451469421386
v 0.017098526000976562 0.014032397270202637 0.011913416862487793
v 0.014032397270202637 0.017098526000976562 0.011913416862487793
v 0.015640775680541993 0.015640775680541993 0.011913416862487793
v 0.012288878440856934 0.018391607284545898 0.011913416862487793
v 0.012446954727172851 0.018628183364868163 0.010975451469421386
v 0.008464727401733398 0.020435659408569336 0.011913416862487793
v 0.0043707890510559086 0.02197344207763672 0.010975451469421386
v 0.00642092227935791 0.02116694450378418 0.011913416862487793
v 0.010427011489868165 0.019507566452026368 0.011913416862487793
v 0.004315280437469483 0.021694379806518557 0.011913416862487793
v 0.0022053856849670412 0.02239165687561035 0.01
v 0.01800742721557617 0.012032177925109864 0.012777851104736329
v 0.0206313419342041 0.00410382890701294 0.013535533905029297
v 0.01943429946899414 0.00804995059967041 0.013535533905029297
v 0.020129751205444336 0.0061062932014465336 0.013535533905029297
v 0.015314057350158691 0.015314057350158691 0.012777851104736329
v 0.017490407943725587 0.011686716079711914 0.013535533905029297
v 0.016741355895996093 0.013739275932312013 0.012777851104736329
v 0.016260686874389647 0.013344801902770997 0.013535533905029297
v 0.018551685333251952 0.009916082382202148 0.013535533905029297
v 0.020934242248535156 0.0020618429183959963 0.013535533905029297
v 0.01988821792602539 0.003956012487411499 0.014157347679138184
v 0.018734291076660158 0.007759997844696045 0.014157347679138184
v 0.019404693603515627 0.005886349678039551 0.014157347679138184
v 0.0156749906539917 0.012864132881164551 0.014157347679138184
v 0.01487436866760254 0.01487436866760254 0.013535533905029297
v 0.014338605880737305 0.014338605880737305 0.014157347679138184
v 0.013739275932312013 0.016741355895996093 0.012777851104736329
v 0.013344801902770997 0.016260686874389647 0.013535533905029297
v 0.016860416412353516 0.01126577091217041 0.014157347679138184
v 0.017883468627929687 0.009558913230895996 0.014157347679138184
v 0.021553062438964845 -0.002122791290283203 0.012777851104736329
v 0.012032177925109864 0.01800742721557617 0.012777851104736329
v 0.011686716079711914 0.017490407943725587 0.013535533905029297
v 0.010209202766418457 0.01910007667541504 0.012777851104736329
v 0.008287908554077149 0.020008781433105468 0.012777851104736329
v 0.006286796092987061 0.020724790573120117 0.012777851104736329
v 0.004225139141082764 0.021241209030151368 0.012777851104736329
v 0.009916082382202148 0.018551685333251952 0.013535533905029297
v 0.00804995059967041 0.01943429946899414 0.013535533905029297
v 0.009558913230895996 0.017883468627929687 0.014157347679138184
v 0.01126577091217041 0.016860416412353516 0.014157347679138184
v 0.00410382890701294 0.0206313419342041 0.013535533905029297
v 0.0061062932014465336 0.020129751205444336 0.013535533905029297
v 0.005886349678039551 0.019404693603515627 0.014157347679138184
v 0.003956012487411499 0.01988821792602539 0.014157347679138184
v 0.002122791290283203 0.021553062438964845 0.012777851104736329
v 0.0020618429183959963 0.020934242248535156 0.013535533905029297
v 0.007759997844696045 0.018734291076660158 0.014157347679138184
v 0.0021680800914764403 0.022012886047363282 0.011913416862487793
v 0.012864132881164551 0.0156749906539917 0.014157347679138184
v 0.0021959688663482665 0.022296045303344728 0.010975451469421386
v 0.020180208206176758 0.001987576961517334 0.014157347679138184
v 0.020934242248535156 -0.0020618429183959963 0.013535533905029297
v 4.133182816455031e-18 0.0225 0.01
v -0.0022053856849670412 0.02239165687561035 0.01
v -0.004389532089233398 0.022067668914794922 0.01
v -0.0021959688663482665 0.022296045303344728 0.010975451469421386
v 1.3718448204941715e-18 0.022403926849365235 0.010975451469421386
v -0.006531405448913574 0.021531158447265625 0.01
v -0.008610377311706543 0.020787288665771484 0.01
v -0.006503516674041749 0.0214392204284668 0.010975451469421386
v -0.010606426239013672 0.019843229293823244 0.01
v -0.012500329971313477 0.01870806694030762 0.01
v -0.010561138153076173 0.019758499145507813 0.010975451469421386
v -0.0043707890510559086 0.02197344207763672 0.010975451469421386
v 1.3544225174394529e-18 0.02211939811706543 0.011913416862487793
v -0.004315280437469483 0.021694379806518557 0.011913416862487793
v -0.0021680800914764403 0.022012886047363282 0.011913416862487793
v -0.00857361125946045 0.02069852828979492 0.010975451469421386
v -0.008464727401733398 0.020435659408569336 0.011913416862487793
v -0.012446954727172851 0.018628183364868163 0.010975451469421386
v -0.012288878440856934 0.018391607284545898 0.011913416862487793
v -0.014212900161743165 0.017318470001220703 0.010975451469421386
v -0.014032397270202637 0.017098526000976562 0.011913416862487793
v -0.010427011489868165 0.019507566452026368 0.011913416862487793
v -0.00642092227935791 0.02116694450378418 0.011913416862487793
v -0.014273848533630371 0.01739273452758789 0.01
v -0.015909902572631838 0.015909902572631838 0.01
v -0.015841968536376955 0.015841968536376955 0.010975451469421386
v -0.01739273452758789 0.014273848533630371 0.01
v -0.01870806694030762 0.012500329971313477 0.01
v -0.018628183364868163 0.012446954727172851 0.010975451469421386
v -0.017318470001220703 0.014212900161743165 0.010975451469421386
v -0.019843229293823244 0.010606426239013672 0.01
v -0.020787288665771484 0.008610377311706543 0.01
v -0.02069852828979492 0.00857361125946045 0.010975451469421386
v -0.021531158447265625 0.006531405448913574 0.01
v -0.022067668914794922 0.004389532089233398 0.01
v -0.0214392204284668 0.006503516674041749 0.010975451469421386
v -0.02239165687561035 0.0022053856849670412 0.01
v -0.022296045303344728 0.0021959688663482665 0.010975451469421386
v -0.019758499145507813 0.010561138153076173 0.010975451469421386
v -0.017098526000976562 0.014032397270202637 0.011913416862487793
v -0.019507566452026368 0.010427011489868165 0.011913416862487793
v -0.018391607284545898 0.012288878440856934 0.011913416862487793
v -0.02197344207763672 0.0043707890510559086 0.010975451469421386
v -0.021694379806518557 0.004315280437469483 0.011913416862487793
v -0.022012886047363282 0.0021680800914764403 0.011913416862487793
v -0.0225 -2.7554553521421788e-18 0.01
v -0.022403926849365235 -2.743689640988343e-18 0.010975451469421386
v -0.02116694450378418 0.00642092227935791 0.011913416862487793
v -0.020435659408569336 0.008464727401733398 0.011913416862487793
v -0.015640775680541993 0.015640775680541993 0.011913416862487793
v 1.3261301346935016e-18 0.0216573486328125 0.012777851104736329
v -0.004225139141082764 0.021241209030151368 0.012777851104736329
v -0.002122791290283203 0.021553062438964845 0.012777851104736329
v -0.008287908554077149 0.020008781433105468 0.012777851104736329
v -0.012032177925109864 0.01800742721557617 0.012777851104736329
v -0.013739275932312013 0.016741355895996093 0.012777851104736329
v -0.010209202766418457 0.01910007667541504 0.012777851104736329
v -0.006286796092987061 0.020724790573120117 0.012777851104736329
v -0.0020618429183959963 0.020934242248535156 0.013535533905029297
v 1.2880549449232368e-18 0.021035533905029297 0.013535533905029297
v -0.0061062932014465336 0.020129751205444336 0.013535533905029297
v -0.009916082382202148 0.018551685333251952 0.013535533905029297
v -0.011686716079711914 0.017490407943725587 0.013535533905029297
v -0.00804995059967041 0.01943429946899414 0.013535533905029297
v -0.00410382890701294 0.0206313419342041 0.013535533905029297
v -0.015314057350158691 0.015314057350158691 0.012777851104736329
v -0.016741355895996093 0.013739275932312013 0.012777851104736329
v -0.01910007667541504 0.010209202766418457 0.012777851104736329
v -0.01800742721557617 0.012032177925109864 0.012777851104736329
v -0.02211939811706543 -2.7088450348789058e-18 0.011913416862487793
v -0.022012886047363282 -0.0021680800914764403 0.011913416862487793
v -0.020724790573120117 0.006286796092987061 0.012777851104736329
v -0.021241209030151368 0.004225139141082764 0.012777851104736329
v -0.020008781433105468 0.008287908554077149 0.012777851104736329
v -0.01487436866760254 0.01487436866760254 0.013535533905029297
v -0.017490407943725587 0.011686716079711914 0.013535533905029297
v -0.016260686874389647 0.013344801902770997 0.013535533905029297
v -0.020129751205444336 0.0061062932014465336 0.013535533905029297
v -0.021553062438964845 0.002122791290283203 0.012777851104736329
v -0.0206313419342041 0.00410382890701294 0.013535533905029297
v -0.0216573486328125 -2.652260269387003e-18 0.012777851104736329
v -0.01943429946899414 0.00804995059967041 0.013535533905029297
v -0.018551685333251952 0.009916082382202148 0.013535533905029297
v -0.021035533905029297 -2.5761098898464737e-18 0.013535533905029297
v -0.020934242248535156 0.0020618429183959963 0.013535533905029297
v -0.013344801902770997 0.016260686874389647 0.013535533905029297
v -0.02239165687561035 -0.0022053856849670412 0.01
v 0.019040393829345702 0.003787369728088379 0.01461939811706543
v 0.017935659408569338 0.007429193019866944 0.01461939811706543
v 0.018577482223510744 0.005635417461395264 0.01461939811706543
v 0.016141666412353515 0.010785516738891603 0.01461939811706543
v 0.0137273588180542 0.0137273588180542 0.01461939811706543
v 0.015006773948669434 0.012315741539001465 0.01461939811706543
v 0.017121105194091796 0.009151421546936035 0.01461939811706543
v 0.019319936752319335 0.0019028476476669312 0.01461939811706543
v 0.018120450973510744 0.003604381799697876 0.014903926849365234
v 0.017069091796875 0.007070249080657959 0.014903926849365234
v 0.017679904937744143 0.00536314058303833 0.014903926849365234
v 0.01428171730041504 0.011720702171325684 0.014903926849365234
v 0.013064117431640626 0.013064117431640626 0.014903926849365234
v 0.012315741539001465 0.015006773948669434 0.01461939811706543
v 0.01536177635192871 0.010264410972595214 0.014903926849365234
v 0.016293893814086913 0.008709267616271972 0.014903926849365234
v 0.01838648796081543 0.0018109109401702882 0.014903926849365234
v 0.019319936752319335 -0.0019028476476669312 0.01461939811706543
v 0.009151421546936035 0.017121105194091796 0.01461939811706543
v 0.005635417461395264 0.018577482223510744 0.01461939811706543
v 0.007429193019866944 0.017935659408569338 0.01461939811706543
v 1.2416603034241585e-18 0.02027785110473633 0.014157347679138184
v 0.001987576961517334 0.020180208206176758 0.014157347679138184
v -0.001987576961517334 0.020180208206176758 0.014157347679138184
v 0.0019028476476669312 0.019319936752319335 0.01461939811706543
v 0.003787369728088379 0.019040393829345702 0.01461939811706543
v 0.010785516738891603 0.016141666412353515 0.01461939811706543
v 0.010264410972595214 0.01536177635192871 0.014903926849365234
v 0.007070249080657959 0.017069091796875 0.014903926849365234
v 0.008709267616271972 0.016293893814086913 0.014903926849365234
v 1.1887290027920006e-18 0.01941341781616211 0.01461939811706543
v 0.003604381799697876 0.018120450973510744 0.014903926849365234
v 0.0018109109401702882 0.01838648796081543 0.014903926849365234
v -0.0019028476476669312 0.019319936752319335 0.01461939811706543
v 0.00536314058303833 0.017679904937744143 0.014903926849365234
v -0.003956012487411499 0.01988821792602539 0.014157347679138184
v 0.011720702171325684 0.01428171730041504 0.014903926849365234
v 0.017415733337402345 0.001715299963951111 0.015
v 0.016746456146240235 0.005079981803894043 0.015
v 0.015433622360229493 0.008249443054199218 0.015
v 0.01352768325805664 0.011101882934570312 0.015
v 0.01237436866760254 0.01237436866760254 0.015
v 0.014550718307495117 0.009722478866577148 0.015
v 0.016167892456054687 0.006696959972381592 0.015
v 0.0175 -4.286263692880512e-18 0.015
v 0.01716374206542969 0.003414080619812012 0.015
v 0.011101882934570312 0.01352768325805664 0.015
v 0.01838648796081543 -0.0018109109401702882 0.014903926849365234
v 0.008249443054199218 0.015433622360229493 0.015
v 0.005079981803894043 0.016746456146240235 0.015
v -0.0018109109401702882 0.01838648796081543 0.014903926849365234
v 0.001715299963951111 0.017415733337402345 0.015
v 1.1312950867704755e-18 0.018475452423095704 0.014903926849365234
v 0.003414080619812012 0.01716374206542969 0.015
v 0.009722478866577148 0.014550718307495117 0.015
v 0.006696959972381592 0.016167892456054687 0.015
v -1.071565923220128e-18 0.0175 0.015
v -0.001715299963951111 0.017415733337402345 0.015
v -0.003787369728088379 0.019040393829345702 0.01461939811706543
v -0.003604381799697876 0.018120450973510744 0.014903926849365234
v 0.020180208206176758 -0.001987576961517334 0.014157347679138184
v -0.005886349678039551 0.019404693603515627 0.014157347679138184
v -0.005635417461395264 0.018577482223510744 0.01461939811706543
v -0.007759997844696045 0.018734291076660158 0.014157347679138184
v -0.01126577091217041 0.016860416412353516 0.014157347679138184
v -0.009558913230895996 0.017883468627929687 0.014157347679138184
v -0.012864132881164551 0.0156749906539917 0.014157347679138184
v -0.007429193019866944 0.017935659408569338 0.01461939811706543
v -0.007070249080657959 0.017069091796875 0.014903926849365234
v -0.009151421546936035 0.017121105194091796 0.01461939811706543
v -0.00536314058303833 0.017679904937744143 0.014903926849365234
v -0.010785516738891603 0.016141666412353515 0.01461939811706543
v -0.012315741539001465 0.015006773948669434 0.01461939811706543
v -0.010264410972595214 0.01536177635192871 0.014903926849365234
v -0.008709267616271972 0.016293893814086913 0.014903926849365234
v -0.014338605880737305 0.014338605880737305 0.014157347679138184
v -0.0156749906539917 0.012864132881164551 0.014157347679138184
v -0.016860416412353516 0.01126577091217041 0.014157347679138184
v -0.0137273588180542 0.0137273588180542 0.01461939811706543
v -0.017883468627929687 0.009558913230895996 0.014157347679138184
v -0.019404693603515627 0.005886349678039551 0.014157347679138184
v -0.01988821792602539 0.003956012487411499 0.014157347679138184
v -0.018734291076660158 0.007759997844696045 0.014157347679138184
v -0.020180208206176758 0.001987576961517334 0.014157347679138184
v -0.015006773948669434 0.012315741539001465 0.01461939811706543
v -0.013064117431640626 0.013064117431640626 0.014903926849365234
v -0.016141666412353515 0.010785516738891603 0.01461939811706543
v -0.017121105194091796 0.009151421546936035 0.01461939811706543
v -0.018577482223510744 0.005635417461395264 0.01461939811706543
v -0.019040393829345702 0.003787369728088379 0.01461939811706543
v -0.017935659408569338 0.007429193019866944 0.01461939811706543
v -0.019319936752319335 0.0019028476476669312 0.01461939811706543
v -0.02027785110473633 -2.483320606848317e-18 0.014157347679138184
v -0.011720702171325684 0.01428171730041504 0.014903926849365234
v -0.005079981803894043 0.016746456146240235 0.015
v -0.006696959972381592 0.016167892456054687 0.015
v -0.01237436866760254 0.01237436866760254 0.015
v -0.01428171730041504 0.011720702171325684 0.014903926849365234
v -0.01352768325805664 0.011101882934570312 0.015
v -0.01536177635192871 0.010264410972595214 0.014903926849365234
v -0.009722478866577148 0.014550718307495117 0.015
v -0.008249443054199218 0.015433622360229493 0.015
v -0.003414080619812012 0.01716374206542969 0.015
v -0.011101882934570312 0.01352768325805664 0.015
v -0.016293893814086913 0.008709267616271972 0.014903926849365234
v -0.014550718307495117 0.009722478866577148 0.015
v -0.017069091796875 0.007070249080657959 0.014903926849365234
v -0.017679904937744143 0.00536314058303833 0.014903926849365234
v -0.018120450973510744 0.003604381799697876 0.014903926849365234
v -0.01838648796081543 0.0018109109401702882 0.014903926849365234
v -0.015433622360229493 0.008249443054199218 0.015
v -0.016167892456054687 0.006696959972381592 0.015
v -0.016746456146240235 0.005079981803894043 0.015
v -0.01716374206542969 0.003414080619812012 0.015
v -0.017415733337402345 0.001715299963951111 0.015
v -0.018475452423095704 -2.262590173540951e-18 0.014903926849365234
v -0.01941341781616211 -2.377458005584001e-18 0.01461939811706543
v -0.022067668914794922 -0.004389532089233398 0.01
v -0.022296045303344728 -0.0021959688663482665 0.010975451469421386
v -0.02197344207763672 -0.0043707890510559086 0.010975451469421386
v -0.021694379806518557 -0.004315280437469483 0.011913416862487793
v -0.021531158447265625 -0.006531405448913574 0.01
v -0.0214392204284668 -0.006503516674041749 0.010975451469421386
v -0.02069852828979492 -0.00857361125946045 0.010975451469421386
v -0.020787288665771484 -0.008610377311706543 0.01
v -0.019843229293823244 -0.010606426239013672 0.01
v -0.019758499145507813 -0.010561138153076173 0.010975451469421386
v -0.01870806694030762 -0.012500329971313477 0.01
v -0.02116694450378418 -0.00642092227935791 0.011913416862487793
v -0.020724790573120117 -0.006286796092987061 0.012777851104736329
v -0.020435659408569336 -0.008464727401733398 0.011913416862487793
v -0.021241209030151368 -0.004225139141082764 0.012777851104736329
v -0.019507566452026368 -0.010427011489868165 0.011913416862487793
v -0.018628183364868163 -0.012446954727172851 0.010975451469421386
v -0.018391607284545898 -0.012288878440856934 0.011913416862487793
v -0.01910007667541504 -0.010209202766418457 0.012777851104736329
v -0.020008781433105468 -0.008287908554077149 0.012777851104736329
v -0.01739273452758789 -0.014273848533630371 0.01
v -0.015909902572631838 -0.015909902572631838 0.01
v -0.015841968536376955 -0.015841968536376955 0.010975451469421386
v -0.014273848533630371 -0.01739273452758789 0.01
v -0.014212900161743165 -0.017318470001220703 0.010975451469421386
v -0.017318470001220703 -0.014212900161743165 0.010975451469421386
v -0.017098526000976562 -0.014032397270202637 0.011913416862487793
v -0.012446954727172851 -0.018628183364868163 0.010975451469421386
v -0.012500329971313477 -0.01870806694030762 0.01
v -0.010561138153076173 -0.019758499145507813 0.010975451469421386
v -0.010606426239013672 -0.019843229293823244 0.01
v -0.008610377311706543 -0.020787288665771484 0.01
v -0.00857361125946045 -0.02069852828979492 0.010975451469421386
v -0.006531405448913574 -0.021531158447265625 0.01
v -0.0043707890510559086 -0.02197344207763672 0.010975451469421386
v -0.004389532089233398 -0.022067668914794922 0.01
v -0.015640775680541993 -0.015640775680541993 0.011913416862487793
v -0.016741355895996093 -0.013739275932312013 0.012777851104736329
v -0.014032397270202637 -0.017098526000976562 0.011913416862487793
v -0.012288878440856934 -0.018391607284545898 0.011913416862487793
v -0.008464727401733398 -0.020435659408569336 0.011913416862487793
v -0.006503516674041749 -0.0214392204284668 0.010975451469421386
v -0.00642092227935791 -0.02116694450378418 0.011913416862487793
v -0.010427011489868165 -0.019507566452026368 0.011913416862487793
v -0.004315280437469483 -0.021694379806518557 0.011913416862487793
v -0.0022053856849670412 -0.02239165687561035 0.01
v -0.0021959688663482665 -0.022296045303344728 0.010975451469421386
v -0.01800742721557617 -0.012032177925109864 0.012777851104736329
v -0.021553062438964845 -0.002122791290283203 0.012777851104736329
v -0.020129751205444336 -0.0061062932014465336 0.013535533905029297
v -0.0206313419342041 -0.00410382890701294 0.013535533905029297
v -0.017490407943725587 -0.011686716079711914 0.013535533905029297
v -0.016260686874389647 -0.013344801902770997 0.013535533905029297
v -0.015314057350158691 -0.015314057350158691 0.012777851104736329
v -0.018551685333251952 -0.009916082382202148 0.013535533905029297
v -0.01943429946899414 -0.00804995059967041 0.013535533905029297
v -0.020934242248535156 -0.0020618429183959963 0.013535533905029297
v -0.019404693603515627 -0.005886349678039551 0.014157347679138184
v -0.01988821792602539 -0.003956012487411499 0.014157347679138184
v -0.016860416412353516 -0.01126577091217041 0.014157347679138184
v -0.0156749906539917 -0.012864132881164551 0.014157347679138184
v -0.01487436866760254 -0.01487436866760254 0.013535533905029297
v -0.017883468627929687 -0.009558913230895996 0.014157347679138184
v -0.018734291076660158 -0.007759997844696045 0.014157347679138184
v -0.013739275932312013 -0.016741355895996093 0.012777851104736329
v -0.012032177925109864 -0.01800742721557617 0.012777851104736329
v -0.011686716079711914 -0.017490407943725587 0.013535533905029297
v -0.010209202766418457 -0.01910007667541504 0.012777851104736329
v -0.013344801902770997 -0.016260686874389647 0.013535533905029297
v -0.008287908554077149 -0.020008781433105468 0.012777851104736329
v -0.006286796092987061 -0.020724790573120117 0.012777851104736329
v -0.004225139141082764 -0.021241209030151368 0.012777851104736329
v -0.009916082382202148 -0.018551685333251952 0.013535533905029297
v -0.012864132881164551 -0.0156749906539917 0.014157347679138184
v -0.009558913230895996 -0.017883468627929687 0.014157347679138184
v -0.01126577091217041 -0.016860416412353516 0.014157347679138184
v -0.0061062932014465336 -0.020129751205444336 0.013535533905029297
v -0.00804995059967041 -0.01943429946899414 0.013535533905029297
v -0.00410382890701294 -0.0206313419342041 0.013535533905029297
v -0.005886349678039551 -0.019404693603515627 0.014157347679138184
v -0.007759997844696045 -0.018734291076660158 0.014157347679138184
v -0.0021680800914764403 -0.022012886047363282 0.011913416862487793
v -0.002122791290283203 -0.021553062438964845 0.012777851104736329
v -0.014338605880737305 -0.014338605880737305 0.014157347679138184
v -1.3777276760710894e-18 -0.0225 0.01
v -4.1155344614825146e-18 -0.022403926849365235 0.010975451469421386
v 0.0022053856849670412 -0.02239165687561035 0.01
v 0.004389532089233398 -0.022067668914794922 0.01
v 0.0021959688663482665 -0.022296045303344728 0.010975451469421386
v 0.006531405448913574 -0.021531158447265625 0.01
v 0.008610377311706543 -0.020787288665771484 0.01
v 0.00857361125946045 -0.02069852828979492 0.010975451469421386
v 0.010606426239013672 -0.019843229293823244 0.01
v 0.012500329971313477 -0.01870806694030762 0.01
v 0.012446954727172851 -0.018628183364868163 0.010975451469421386
v 0.010561138153076173 -0.019758499145507813 0.010975451469421386
v 0.0043707890510559086 -0.02197344207763672 0.010975451469421386
v -4.0632674464392406e-18 -0.02211939811706543 0.011913416862487793
v 0.0021680800914764403 -0.022012886047363282 0.011913416862487793
v 0.004315280437469483 -0.021694379806518557 0.011913416862487793
v 0.006503516674041749 -0.0214392204284668 0.010975451469421386
v 0.008464727401733398 -0.020435659408569336 0.011913416862487793
v 0.010427011489868165 -0.019507566452026368 0.011913416862487793
v 0.00642092227935791 -0.02116694450378418 0.011913416862487793
v 0.012288878440856934 -0.018391607284545898 0.011913416862487793
v 0.014273848533630371 -0.01739273452758789 0.01
v 0.015909902572631838 -0.015909902572631838 0.01
v 0.014212900161743165 -0.017318470001220703 0.010975451469421386
v 0.01739273452758789 -0.014273848533630371 0.01
v 0.01870806694030762 -0.012500329971313477 0.01
v 0.018628183364868163 -0.012446954727172851 0.010975451469421386
v 0.017318470001220703 -0.014212900161743165 0.010975451469421386
v 0.019843229293823244 -0.010606426239013672 0.01
v 0.020787288665771484 -0.008610377311706543 0.01
v 0.019758499145507813 -0.010561138153076173 0.010975451469421386
v 0.021531158447265625 -0.006531405448913574 0.01
v 0.022067668914794922 -0.004389532089233398 0.01
v 0.02197344207763672 -0.0043707890510559086 0.010975451469421386
v 0.02239165687561035 -0.0022053856849670412 0.01
v 0.02069852828979492 -0.00857361125946045 0.010975451469421386
v 0.014032397270202637 -0.017098526000976562 0.011913416862487793
v 0.015841968536376955 -0.015841968536376955 0.010975451469421386
v 0.017098526000976562 -0.014032397270202637 0.011913416862487793
v 0.015640775680541993 -0.015640775680541993 0.011913416862487793
v 0.019507566452026368 -0.010427011489868165 0.011913416862487793
v 0.02116694450378418 -0.00642092227935791 0.011913416862487793
v 0.0214392204284668 -0.006503516674041749 0.010975451469421386
v 0.021694379806518557 -0.004315280437469483 0.011913416862487793
v 0.020435659408569336 -0.008464727401733398 0.011913416862487793
v 0.018391607284545898 -0.012288878440856934 0.011913416862487793
v 0.002122791290283203 -0.021553062438964845 0.012777851104736329
v -3.97839008644315e-18 -0.0216573486328125 0.012777851104736329
v -3.864164728890592e-18 -0.021035533905029297 0.013535533905029297
v -0.0020618429183959963 -0.020934242248535156 0.013535533905029297
v 0.004225139141082764 -0.021241209030151368 0.012777851104736329
v 0.008287908554077149 -0.020008781433105468 0.012777851104736329
v 0.010209202766418457 -0.01910007667541504 0.012777851104736329
v 0.006286796092987061 -0.020724790573120117 0.012777851104736329
v 0.012032177925109864 -0.01800742721557617 0.012777851104736329
v 0.0020618429183959963 -0.020934242248535156 0.013535533905029297
v -3.724980698514239e-18 -0.02027785110473633 0.014157347679138184
v -0.001987576961517334 -0.020180208206176758 0.014157347679138184
v 0.00410382890701294 -0.0206313419342041 0.013535533905029297
v 0.00804995059967041 -0.01943429946899414 0.013535533905029297
v 0.009916082382202148 -0.018551685333251952 0.013535533905029297
v 0.0061062932014465336 -0.020129751205444336 0.013535533905029297
v 0.011686716079711914 -0.017490407943725587 0.013535533905029297
v 0.013739275932312013 -0.016741355895996093 0.012777851104736329
v 0.015314057350158691 -0.015314057350158691 0.012777851104736329
v 0.01800742721557617 -0.012032177925109864 0.012777851104736329
v 0.016741355895996093 -0.013739275932312013 0.012777851104736329
v 0.020008781433105468 -0.008287908554077149 0.012777851104736329
v 0.021241209030151368 -0.004225139141082764 0.012777851104736329
v 0.020724790573120117 -0.006286796092987061 0.012777851104736329
v 0.01910007667541504 -0.010209202766418457 0.012777851104736329
v 0.013344801902770997 -0.016260686874389647 0.013535533905029297
v 0.016260686874389647 -0.013344801902770997 0.013535533905029297
v 0.01487436866760254 -0.01487436866760254 0.013535533905029297
v 0.018551685333251952 -0.009916082382202148 0.013535533905029297
v 0.020129751205444336 -0.0061062932014465336 0.013535533905029297
v 0.0206313419342041 -0.00410382890701294 0.013535533905029297
v 0.01943429946899414 -0.00804995059967041 0.013535533905029297
v 0.017490407943725587 -0.011686716079711914 0.013535533905029297
v -0.003956012487411499 -0.01988821792602539 0.014157347679138184
v -0.020180208206176758 -0.001987576961517334 0.014157347679138184
v -0.019040393829345702 -0.003787369728088379 0.01461939811706543
v -0.017935659408569338 -0.007429193019866944 0.01461939811706543
v -0.018577482223510744 -0.005635417461395264 0.01461939811706543
v -0.016141666412353515 -0.010785516738891603 0.01461939811706543
v -0.0137273588180542 -0.0137273588180542 0.01461939811706543
v -0.015006773948669434 -0.012315741539001465 0.01461939811706543
v -0.017121105194091796 -0.009151421546936035 0.01461939811706543
v -0.019319936752319335 -0.0019028476476669312 0.01461939811706543
v -0.018120450973510744 -0.003604381799697876 0.014903926849365234
v -0.017069091796875 -0.007070249080657959 0.014903926849365234
v -0.01536177635192871 -0.010264410972595214 0.014903926849365234
v -0.01428171730041504 -0.011720702171325684 0.014903926849365234
v -0.016293893814086913 -0.008709267616271972 0.014903926849365234
v -0.017679904937744143 -0.00536314058303833 0.014903926849365234
v -0.010785516738891603 -0.016141666412353515 0.01461939811706543
v -0.007429193019866944 -0.017935659408569338 0.01461939811706543
v -0.009151421546936035 -0.017121105194091796 0.01461939811706543
v -0.0019028476476669312 -0.019319936752319335 0.01461939811706543
v -3.5661870083760016e-18 -0.01941341781616211 0.01461939811706543
v 0.001987576961517334 -0.020180208206176758 0.014157347679138184
v -0.003787369728088379 -0.019040393829345702 0.01461939811706543
v -0.005635417461395264 -0.018577482223510744 0.01461939811706543
v -0.012315741539001465 -0.015006773948669434 0.01461939811706543
v -0.011720702171325684 -0.01428171730041504 0.014903926849365234
v -0.008709267616271972 -0.016293893814086913 0.014903926849365234
v -0.010264410972595214 -0.01536177635192871 0.014903926849365234
v -0.003604381799697876 -0.018120450973510744 0.014903926849365234
v -0.0018109109401702882 -0.01838648796081543 0.014903926849365234
v 0.0019028476476669312 -0.019319936752319335 0.01461939811706543
v -0.00536314058303833 -0.017679904937744143 0.014903926849365234
v -0.007070249080657959 -0.017069091796875 0.014903926849365234
v 0.003956012487411499 -0.01988821792602539 0.014157347679138184
v -0.013064117431640626 -0.013064117431640626 0.014903926849365234
v -0.01838648796081543 -0.0018109109401702882 0.014903926849365234
v -0.017415733337402345 -0.001715299963951111 0.015
v -0.016746456146240235 -0.005079981803894043 0.015
v -0.01716374206542969 -0.003414080619812012 0.015
v -0.015433622360229493 -0.008249443054199218 0.015
v -0.01352768325805664 -0.011101882934570312 0.015
v -0.01237436866760254 -0.01237436866760254 0.015
v -0.014550718307495117 -0.009722478866577148 0.015
v -0.016167892456054687 -0.006696959972381592 0.015
v -0.0175 -2.143131846440256e-18 0.015
v -0.011101882934570312 -0.01352768325805664 0.015
v -0.009722478866577148 -0.014550718307495117 0.015
v -0.006696959972381592 -0.016167892456054687 0.015
v -0.008249443054199218 -0.015433622360229493 0.015
v -3.393885472069663e-18 -0.018475452423095704 0.014903926849365234
v -0.005079981803894043 -0.016746456146240235 0.015
v -0.001715299963951111 -0.017415733337402345 0.015
v 0.0018109109401702882 -0.01838648796081543 0.014903926849365234
v -0.003414080619812012 -0.01716374206542969 0.015
v 3.214697769660384e-18 -0.0175 0.015
v 0.001715299963951111 -0.017415733337402345 0.015
v 0.003787369728088379 -0.019040393829345702 0.01461939811706543
v 0.005886349678039551 -0.019404693603515627 0.014157347679138184
v 0.005635417461395264 -0.018577482223510744 0.01461939811706543
v 0.007759997844696045 -0.018734291076660158 0.014157347679138184
v 0.009558913230895996 -0.017883468627929687 0.014157347679138184
v 0.01126577091217041 -0.016860416412353516 0.014157347679138184
v 0.012864132881164551 -0.0156749906539917 0.014157347679138184
v 0.007429193019866944 -0.017935659408569338 0.01461939811706543
v 0.009151421546936035 -0.017121105194091796 0.01461939811706543
v 0.007070249080657959 -0.017069091796875 0.014903926849365234
v 0.00536314058303833 -0.017679904937744143 0.014903926849365234
v 0.012315741539001465 -0.015006773948669434 0.01461939811706543
v 0.010785516738891603 -0.016141666412353515 0.01461939811706543
v 0.010264410972595214 -0.01536177635192871 0.014903926849365234
v 0.011720702171325684 -0.01428171730041504 0.014903926849365234
v 0.014338605880737305 -0.014338605880737305 0.014157347679138184
v 0.0137273588180542 -0.0137273588180542 0.01461939811706543
v 0.008709267616271972 -0.016293893814086913 0.014903926849365234
v 0.003604381799697876 -0.018120450973510744 0.014903926849365234
v 0.0156749906539917 -0.012864132881164551 0.014157347679138184
v 0.016860416412353516 -0.01126577091217041 0.014157347679138184
v 0.017883468627929687 -0.009558913230895996 0.014157347679138184
v 0.019404693603515627 -0.005886349678039551 0.014157347679138184
v 0.01988821792602539 -0.003956012487411499 0.014157347679138184
v 0.018734291076660158 -0.007759997844696045 0.014157347679138184
v 0.016141666412353515 -0.010785516738891603 0.01461939811706543
v 0.015006773948669434 -0.012315741539001465 0.01461939811706543
v 0.01428171730041504 -0.011720702171325684 0.014903926849365234
v 0.017121105194091796 -0.009151421546936035 0.01461939811706543
v 0.018577482223510744 -0.005635417461395264 0.01461939811706543
v 0.019040393829345702 -0.003787369728088379 0.01461939811706543
v 0.017935659408569338 -0.007429193019866944 0.01461939811706543
v 0.013064117431640626 -0.013064117431640626 0.014903926849365234
v 0.006696959972381592 -0.016167892456054687 0.015
v 0.005079981803894043 -0.016746456146240235 0.015
v 0.008249443054199218 -0.015433622360229493 0.015
v 0.01237436866760254 -0.01237436866760254 0.015
v 0.011101882934570312 -0.01352768325805664 0.015
v 0.003414080619812012 -0.01716374206542969 0.015
v 0.009722478866577148 -0.014550718307495117 0.015
v 0.01352768325805664 -0.011101882934570312 0.015
v 0.01536177635192871 -0.010264410972595214 0.014903926849365234
v 0.014550718307495117 -0.009722478866577148 0.015
v 0.016293893814086913 -0.008709267616271972 0.014903926849365234
v 0.015433622360229493 -0.008249443054199218 0.015
v 0.017069091796875 -0.007070249080657959 0.014903926849365234
v 0.017679904937744143 -0.00536314058303833 0.014903926849365234
v 0.018120450973510744 -0.003604381799697876 0.014903926849365234
v 0.016167892456054687 -0.006696959972381592 0.015
v 0.016746456146240235 -0.005079981803894043 0.015
v 0.017415733337402345 -0.001715299963951111 0.015
v 0.01716374206542969 -0.003414080619812012 0.015
v 0.016746456146240235 0.005079981803894043 0.015
v 0.016167892456054687 0.006696959972381592 0.015
v 0.015433622360229493 0.008249443054199218 0.015
v 0.014550718307495117 0.009722478866577148 0.015
v 0.01352768325805664 0.011101882934570312 0.015
v 0.009722478866577148 0.014550718307495117 0.015
v 0.017415733337402345 0.001715299963951111 0.015
v 0.01716374206542969 0.003414080619812012 0.015
v 0.006696959972381592 0.016167892456054687 0.015
v 0.01716374206542969 -0.003414080619812012 0.015
v 0.0175 -4.286263692880512e-18 0.015
v 0.01237436866760254 0.01237436866760254 0.015
v 0.005079981803894043 0.016746456146240235 0.015
v 0.003414080619812012 0.01716374206542969 0.015
v -0.009722478866577148 -0.014550718307495117 0.015
v 0.005079981803894043 -0.016746456146240235 0.015
v -0.016746456146240235 0.005079981803894043 0.015
v 0.011101882934570312 0.01352768325805664 0.015
v 0.008249443054199218 0.015433622360229493 0.015
v 0.015433622360229493 -0.008249443054199218 0.015
v 0.016746456146240235 -0.005079981803894043 0.015
v 0.016167892456054687 -0.006696959972381592 0.015
v 0.01352768325805664 -0.011101882934570312 0.015
v 0.014550718307495117 -0.009722478866577148 0.015
v 0.011101882934570312 -0.01352768325805664 0.015
v 0.01237436866760254 -0.01237436866760254 0.015
v 0.017415733337402345 -0.001715299963951111 0.015
v 0.009722478866577148 -0.014550718307495117 0.015
v 0.008249443054199218 -0.015433622360229493 0.015
v 0.006696959972381592 -0.016167892456054687 0.015
v 0.003414080619812012 -0.01716374206542969 0.015
v 3.214697769660384e-18 -0.0175 0.015
v 0.001715299963951111 -0.017415733337402345 0.015
v -0.003414080619812012 -0.01716374206542969 0.015
v 0.001715299963951111 0.017415733337402345 0.015
v -1.071565923220128e-18 0.0175 0.015
v -0.001715299963951111 0.017415733337402345 0.015
v -0.003414080619812012 0.01716374206542969 0.015
v -0.006696959972381592 0.016167892456054687 0.015
v -0.005079981803894043 0.016746456146240235 0.015
v -0.008249443054199218 0.015433622360229493 0.015
v -0.009722478866577148 0.014550718307495117 0.015
v -0.011101882934570312 0.01352768325805664 0.015
v -0.01237436866760254 0.01237436866760254 0.015
v -0.01352768325805664 0.011101882934570312 0.015
v -0.014550718307495117 0.009722478866577148 0.015
v -0.016167892456054687 0.006696959972381592 0.015
v -0.015433622360229493 0.008249443054199218 0.015
v -0.01716374206542969 0.003414080619812012 0.015
v -0.015433622360229493 -0.008249443054199218 0.015
v -0.0175 -2.143131846440256e-18 0.015
v -0.017415733337402345 0.001715299963951111 0.015
v -0.01237436866760254 -0.01237436866760254 0.015
v -0.011101882934570312 -0.01352768325805664 0.015
v -0.008249443054199218 -0.015433622360229493 0.015
v -0.006696959972381592 -0.016167892456054687 0.015
v -0.005079981803894043 -0.016746456146240235 0.015
v -0.001715299963951111 -0.017415733337402345 0.015
v -0.01716374206542969 -0.003414080619812012 0.015
v -0.016746456146240235 -0.005079981803894043 0.015
v -0.017415733337402345 -0.001715299963951111 0.015
v -0.014550718307495117 -0.009722478866577148 0.015
v -0.01352768325805664 -0.011101882934570312 0.015
v -0.016167892456054687 -0.006696959972381592 0.015
v 0.010393370628356933 0.0069446277618408206 0.01
v 0.019843229293823244 0.010606426239013672 0.01
v 0.011024015426635742 0.005892459392547607 0.01
v 0.020787288665771484 0.008610377311706543 0.01
v 0.011548494338989258 0.004783543109893799 0.01
v 0.01870806694030762 0.012500329971313477 0.01
v 0.014273848533630371 0.01739273452758789 0.01
v 0.015909902572631838 0.015909902572631838 0.01
v 0.008838834762573243 0.008838834762573243 0.01
v 0.01739273452758789 0.014273848533630371 0.01
v 0.012500329971313477 0.01870806694030762 0.01
v 0.00792991590499878 0.009662631034851075 0.01
v 0.01225981616973877 0.002438628911972046 0.01
v 0.022067668914794922 0.004389532089233398 0.01
v 0.01243980884552002 0.0012252142429351807 0.01
v 0.0125 -3.0616168932349035e-18 0.01
v 0.02239165687561035 0.0022053856849670412 0.01
v 0.021531158447265625 0.006531405448913574 0.01
v 0.011961753845214845 0.003628558397293091 0.01
v 0.005892459392547607 0.011024015426635742 0.01
v 0.010606426239013672 0.019843229293823244 0.01
v 0.002438628911972046 0.01225981616973877 0.01
v 0.004389532089233398 0.022067668914794922 0.01
v 0.006531405448913574 0.021531158447265625 0.01
v 0.003628558397293091 0.011961753845214845 0.01
v 0.008610377311706543 0.020787288665771484 0.01
v 0.004783543109893799 0.011548494338989258 0.01
v 0.0012252142429351807 0.01243980884552002 0.01
v 4.133182816455031e-18 0.0225 0.01
v 0.0022053856849670412 0.02239165687561035 0.01
v 7.654042233087259e-19 0.0125 0.01
v -0.0022053856849670412 0.02239165687561035 0.01
v 0.009662631034851075 0.00792991590499878 0.01
v 0.0069446277618408206 0.010393370628356933 0.01
v 0.01243980884552002 -0.0012252142429351807 0.01
v 0.0225 -5.5109107042843575e-18 0.01
v 0.02239165687561035 -0.0022053856849670412 0.01
v 0.022067668914794922 -0.004389532089233398 0.01
v 0.01225981616973877 -0.002438628911972046 0.01
v 0.011961753845214845 -0.003628558397293091 0.01
v 0.021531158447265625 -0.006531405448913574 0.01
v 0.011548494338989258 -0.004783543109893799 0.01
v 0.020787288665771484 -0.008610377311706543 0.01
v 0.019843229293823244 -0.010606426239013672 0.01
v 0.011024015426635742 -0.005892459392547607 0.01
v 0.01870806694030762 -0.012500329971313477 0.01
v 0.009662631034851075 -0.00792991590499878 0.01
v 0.01739273452758789 -0.014273848533630371 0.01
v 0.015909902572631838 -0.015909902572631838 0.01
v 0.014273848533630371 -0.01739273452758789 0.01
v 0.00792991590499878 -0.009662631034851075 0.01
v 0.012500329971313477 -0.01870806694030762 0.01
v 0.010393370628356933 -0.0069446277618408206 0.01
v 0.008838834762573243 -0.008838834762573243 0.01
v 0.010606426239013672 -0.019843229293823244 0.01
v 0.0069446277618408206 -0.010393370628356933 0.01
v 0.004783543109893799 -0.011548494338989258 0.01
v 0.005892459392547607 -0.011024015426635742 0.01
v 0.006531405448913574 -0.021531158447265625 0.01
v 0.008610377311706543 -0.020787288665771484 0.01
v 0.004389532089233398 -0.022067668914794922 0.01
v 0.002438628911972046 -0.01225981616973877 0.01
v 0.0022053856849670412 -0.02239165687561035 0.01
v -1.3777276760710894e-18 -0.0225 0.01
v 0.0012252142429351807 -0.01243980884552002 0.01
v 0.003628558397293091 -0.011961753845214845 0.01
v -0.004389532089233398 0.022067668914794922 0.01
v -0.0012252142429351807 0.01243980884552002 0.01
v -0.002438628911972046 0.01225981616973877 0.01
v -0.003628558397293091 0.011961753845214845 0.01
v -0.006531405448913574 0.021531158447265625 0.01
v -0.008610377311706543 0.020787288665771484 0.01
v -0.004783543109893799 0.011548494338989258 0.01
v -0.010606426239013672 0.019843229293823244 0.01
v -0.005892459392547607 0.011024015426635742 0.01
v -0.0069446277618408206 0.010393370628356933 0.01
v -0.00792991590499878 0.009662631034851075 0.01
v -0.012500329971313477 0.01870806694030762 0.01
v -0.008838834762573243 0.008838834762573243 0.01
v -0.009662631034851075 0.00792991590499878 0.01
v -0.01739273452758789 0.014273848533630371 0.01
v -0.010393370628356933 0.0069446277618408206 0.01
v -0.011024015426635742 0.005892459392547607 0.01
v -0.019843229293823244 0.010606426239013672 0.01
v -0.015909902572631838 0.015909902572631838 0.01
v -0.014273848533630371 0.01739273452758789 0.01
v -0.01870806694030762 0.012500329971313477 0.01
v -0.011548494338989258 0.004783543109893799 0.01
v -0.020787288665771484 0.008610377311706543 0.01
v -0.021531158447265625 0.006531405448913574 0.01
v -0.011961753845214845 0.003628558397293091 0.01
v -0.022067668914794922 0.004389532089233398 0.01
v -0.01225981616973877 0.002438628911972046 0.01
v -0.01243980884552002 0.0012252142429351807 0.01
v -0.02239165687561035 0.0022053856849670412 0.01
v -0.0225 -2.7554553521421788e-18 0.01
v -0.01243980884552002 -0.0012252142429351807 0.01
v -0.0125 -1.5308084466174517e-18 0.01
v -0.010606426239013672 -0.019843229293823244 0.01
v -0.005892459392547607 -0.011024015426635742 0.01
v -0.008610377311706543 -0.020787288665771484 0.01
v -0.004783543109893799 -0.011548494338989258 0.01
v -0.003628558397293091 -0.011961753845214845 0.01
v -0.009662631034851075 -0.00792991590499878 0.01
v -0.008838834762573243 -0.008838834762573243 0.01
v -0.01739273452758789 -0.014273848533630371 0.01
v -0.00792991590499878 -0.009662631034851075 0.01
v -0.0069446277618408206 -0.010393370628356933 0.01
v -0.014273848533630371 -0.01739273452758789 0.01
v -0.015909902572631838 -0.015909902572631838 0.01
v -0.012500329971313477 -0.01870806694030762 0.01
v -0.0012252142429351807 -0.01243980884552002 0.01
v -2.296212722865737e-18 -0.0125 0.01
v -0.0022053856849670412 -0.02239165687561035 0.01
v -0.004389532089233398 -0.022067668914794922 0.01
v -0.002438628911972046 -0.01225981616973877 0.01
v -0.006531405448913574 -0.021531158447265625 0.01
v -0.01870806694030762 -0.012500329971313477 0.01
v -0.010393370628356933 -0.0069446277618408206 0.01
v -0.021531158447265625 -0.006531405448913574 0.01
v -0.01225981616973877 -0.002438628911972046 0.01
v -0.011961753845214845 -0.003628558397293091 0.01
v -0.011548494338989258 -0.004783543109893799 0.01
v -0.011024015426635742 -0.005892459392547607 0.01
v -0.019843229293823244 -0.010606426239013672 0.01
v -0.022067668914794922 -0.004389532089233398 0.01
v -0.02239165687561035 -0.0022053856849670412 0.01
v -0.020787288665771484 -0.008610377311706543 0.01
v 0.0125 -3.0616168932349035e-18 0.0
v 0.01243980884552002 0.0012252142429351807 0.0
v 0.01243980884552002 0.0012252142429351807 0.01
v 0.01225981616973877 0.002438628911972046 0.0
v 0.011961753845214845 0.003628558397293091 0.0
v 0.011961753845214845 0.003628558397293091 0.01
v 0.01225981616973877 0.002438628911972046 0.01
v 0.011548494338989258 0.004783543109893799 0.0
v 0.011024015426635742 0.005892459392547607 0.0
v 0.011024015426635742 0.005892459392547607 0.01
v 0.010393370628356933 0.0069446277618408206 0.0
v 0.009662631034851075 0.00792991590499878 0.0
v 0.009662631034851075 0.00792991590499878 0.01
v 0.010393370628356933 0.0069446277618408206 0.01
v 0.011548494338989258 0.004783543109893799 0.01
v 0.008838834762573243 0.008838834762573243 0.0
v 0.00792991590499878 0.009662631034851075 0.0
v 0.00792991590499878 0.009662631034851075 0.01
v 0.0069446277618408206 0.010393370628356933 0.0
v 0.005892459392547607 0.011024015426635742 0.0
v 0.005892459392547607 0.011024015426635742 0.01
v 0.0069446277618408206 0.010393370628356933 0.01
v 0.004783543109893799 0.011548494338989258 0.0
v 0.003628558397293091 0.011961753845214845 0.0
v 0.003628558397293091 0.011961753845214845 0.01
v 0.002438628911972046 0.01225981616973877 0.0
v 0.0012252142429351807 0.01243980884552002 0.0
v 0.0012252142429351807 0.01243980884552002 0.01
v 0.002438628911972046 0.01225981616973877 0.01
v 0.004783543109893799 0.011548494338989258 0.01
v 0.008838834762573243 0.008838834762573243 0.01
v 7.654042233087259e-19 0.0125 0.0
v -0.0012252142429351807 0.01243980884552002 0.0
v -0.0012252142429351807 0.01243980884552002 0.01
v -0.002438628911972046 0.01225981616973877 0.0
v -0.003628558397293091 0.011961753845214845 0.0
v -0.003628558397293091 0.011961753845214845 0.01
v -0.002438628911972046 0.01225981616973877 0.01
v -0.004783543109893799 0.011548494338989258 0.0
v -0.005892459392547607 0.011024015426635742 0.0
v -0.005892459392547607 0.011024015426635742 0.01
v -0.0069446277618408206 0.010393370628356933 0.0
v -0.00792991590499878 0.009662631034851075 0.0
v -0.00792991590499878 0.009662631034851075 0.01
v -0.0069446277618408206 0.010393370628356933 0.01
v -0.004783543109893799 0.011548494338989258 0.01
v -0.008838834762573243 0.008838834762573243 0.0
v -0.009662631034851075 0.00792991590499878 0.0
v -0.009662631034851075 0.00792991590499878 0.01
v -0.010393370628356933 0.0069446277618408206 0.0
v -0.011024015426635742 0.005892459392547607 0.0
v -0.011024015426635742 0.005892459392547607 0.01
v -0.010393370628356933 0.0069446277618408206 0.01
v -0.011548494338989258 0.004783543109893799 0.0
v -0.011961753845214845 0.003628558397293091 0.0
v -0.011961753845214845 0.003628558397293091 0.01
v -0.01225981616973877 0.002438628911972046 0.0
v -0.01243980884552002 0.0012252142429351807 0.0
v -0.01243980884552002 0.0012252142429351807 0.01
v -0.01225981616973877 0.002438628911972046 0.01
v -0.011548494338989258 0.004783543109893799 0.01
v -0.008838834762573243 0.008838834762573243 0.01
v 7.654042233087259e-19 0.0125 0.01
v 0.0125 -3.0616168932349035e-18 0.01
v -0.0125 -1.5308084466174517e-18 0.0
v -0.0125 -1.5308084466174517e-18 0.01
v 0.01243980884552002 -0.0012252142429351807 0.01
v -0.01243980884552002 -0.0012252142429351807 0.0
v -0.01243980884552002 -0.0012252142429351807 0.01
v -0.01225981616973877 -0.002438628911972046 0.0
v -0.011961753845214845 -0.003628558397293091 0.0
v -0.011961753845214845 -0.003628558397293091 0.01
v -0.01225981616973877 -0.002438628911972046 0.01
v -0.011548494338989258 -0.004783543109893799 0.0
v -0.011024015426635742 -0.005892459392547607 0.0
v -0.011024015426635742 -0.005892459392547607 0.01
v -0.010393370628356933 -0.0069446277618408206 0.0
v -0.009662631034851075 -0.00792991590499878 0.0
v -0.009662631034851075 -0.00792991590499878 0.01
v -0.010393370628356933 -0.0069446277618408206 0.01
v -0.011548494338989258 -0.004783543109893799 0.01
v -0.008838834762573243 -0.008838834762573243 0.0
v -0.00792991590499878 -0.009662631034851075 0.0
v -0.00792991590499878 -0.009662631034851075 0.01
v -0.0069446277618408206 -0.010393370628356933 0.0
v -0.005892459392547607 -0.011024015426635742 0.0
v -0.005892459392547607 -0.011024015426635742 0.01
v -0.0069446277618408206 -0.010393370628356933 0.01
v -0.004783543109893799 -0.011548494338989258 0.0
v -0.003628558397293091 -0.011961753845214845 0.0
v -0.003628558397293091 -0.011961753845214845 0.01
v -0.002438628911972046 -0.01225981616973877 0.0
v -0.0012252142429351807 -0.01243980884552002 0.0
v -0.0012252142429351807 -0.01243980884552002 0.01
v -0.002438628911972046 -0.01225981616973877 0.01
v -0.004783543109893799 -0.011548494338989258 0.01
v -0.008838834762573243 -0.008838834762573243 0.01
v -2.296212722865737e-18 -0.0125 0.0
v 0.0012252142429351807 -0.01243980884552002 0.0
v 0.0012252142429351807 -0.01243980884552002 0.01
v 0.002438628911972046 -0.01225981616973877 0.0
v 0.003628558397293091 -0.011961753845214845 0.0
v 0.003628558397293091 -0.011961753845214845 0.01
v 0.002438628911972046 -0.01225981616973877 0.01
v 0.004783543109893799 -0.011548494338989258 0.0
v 0.005892459392547607 -0.011024015426635742 0.0
v 0.005892459392547607 -0.011024015426635742 0.01
v 0.0069446277618408206 -0.010393370628356933 0.0
v 0.00792991590499878 -0.009662631034851075 0.0
v 0.00792991590499878 -0.009662631034851075 0.01
v 0.0069446277618408206 -0.010393370628356933 0.01
v 0.004783543109893799 -0.011548494338989258 0.01
v 0.008838834762573243 -0.008838834762573243 0.0
v 0.009662631034851075 -0.00792991590499878 0.0
v 0.009662631034851075 -0.00792991590499878 0.01
v 0.010393370628356933 -0.0069446277618408206 0.0
v 0.011024015426635742 -0.005892459392547607 0.0
v 0.011024015426635742 -0.005892459392547607 0.01
v 0.010393370628356933 -0.0069446277618408206 0.01
v 0.011548494338989258 -0.004783543109893799 0.0
v 0.011961753845214845 -0.003628558397293091 0.0
v 0.011961753845214845 -0.003628558397293091 0.01
v 0.01225981616973877 -0.002438628911972046 0.0
v 0.01243980884552002 -0.0012252142429351807 0.0
v 0.01225981616973877 -0.002438628911972046 0.01
v 0.011548494338989258 -0.004783543109893799 0.01
v 0.008838834762573243 -0.008838834762573243 0.01
v -2.296212722865737e-18 -0.0125 0.01
usemtl Diffuse_2
f 1 2 3
f 3 4 1
f 5 6 7
f 8 7 6
f 9 10 11
f 11 12 9
f 13 14 15
f 15 16 13
f 17 18 19
f 19 20 17
f 21 22 23
f 24 23 22
f 23 24 25
f 25 26 23
f 23 27 28
f 23 29 21
f 29 23 28
f 30 27 23
f 23 31 32
f 23 33 34
f 33 23 32
f 23 26 35
f 23 36 37
f 23 37 38
f 36 23 35
f 23 38 31
f 34 39 23
f 30 40 41
f 30 42 43
f 30 43 40
f 44 45 30
f 42 30 45
f 30 46 44
f 47 46 30
f 27 30 41
f 30 48 47
f 30 49 50
f 30 50 48
f 30 51 52
f 30 53 54
f 30 54 55
f 30 55 51
f 30 52 49
f 56 53 30
f 57 39 58
f 57 59 60
f 59 57 58
f 57 61 62
f 57 63 64
f 63 57 62
f 61 57 60
f 57 65 66
f 67 57 68
f 66 68 57
f 57 64 65
f 57 67 69
f 57 70 71
f 57 71 72
f 70 57 69
f 72 73 57
f 57 23 39
f 56 74 75
f 56 76 77
f 56 77 74
f 56 78 79
f 56 80 81
f 56 81 78
f 80 56 75
f 56 82 83
f 56 73 84
f 56 84 82
f 56 85 86
f 56 87 88
f 83 87 56
f 85 56 88
f 76 56 86
f 56 57 73
f 53 56 79
f 89 90 91
f 91 92 93
f 92 91 90
f 90 94 92
f 91 95 96
f 94 97 92
f 98 97 99
f 92 97 98
f 100 99 101
f 91 93 95
f 92 98 102
f 93 102 103
f 93 92 102
f 100 104 98
f 95 93 105
f 100 106 107
f 106 100 101
f 100 107 104
f 106 108 109
f 106 109 107
f 104 107 110
f 106 101 108
f 104 102 98
f 98 99 100
f 102 104 111
f 101 112 108
f 113 114 95
f 115 116 108
f 117 118 119
f 115 117 116
f 120 121 122
f 123 124 125
f 124 126 125
f 121 123 127
f 118 120 128
f 108 129 109
f 119 116 117
f 128 130 119
f 116 119 131
f 119 118 128
f 108 116 129
f 132 128 133
f 122 133 120
f 134 122 127
f 125 127 123
f 135 125 126
f 136 127 125
f 122 121 127
f 137 133 122
f 128 120 133
f 138 125 135
f 126 139 135
f 108 112 115
f 107 109 140
f 113 105 141
f 113 95 105
f 103 111 142
f 103 102 111
f 93 103 105
f 105 103 143
f 131 144 129
f 131 129 116
f 110 140 145
f 110 107 140
f 140 109 146
f 140 146 147
f 144 146 129
f 110 111 104
f 146 109 129
f 111 110 148
f 149 141 150
f 149 113 141
f 143 142 151
f 143 103 142
f 105 143 141
f 141 143 152
f 110 145 148
f 148 142 111
f 145 147 153
f 145 140 147
f 147 146 154
f 147 154 155
f 156 157 144
f 148 145 158
f 146 144 154
f 142 148 159
f 130 156 131
f 113 149 160
f 130 132 161
f 132 130 128
f 156 161 162
f 161 156 130
f 137 163 132
f 156 144 131
f 134 164 137
f 134 137 122
f 136 165 134
f 164 163 137
f 138 136 125
f 166 136 138
f 134 127 136
f 163 161 132
f 132 133 137
f 161 163 167
f 156 162 157
f 164 168 163
f 162 167 169
f 162 161 167
f 168 167 163
f 157 162 170
f 165 166 171
f 166 165 136
f 168 172 173
f 168 164 172
f 171 172 165
f 172 171 174
f 175 176 166
f 172 164 165
f 164 134 165
f 167 168 177
f 178 175 138
f 157 154 144
f 131 119 130
f 154 157 179
f 180 178 135
f 181 182 149
f 139 183 180
f 184 185 186
f 183 184 187
f 188 189 190
f 191 192 193
f 189 191 193
f 185 188 194
f 180 187 195
f 187 180 183
f 186 194 196
f 194 186 185
f 187 184 186
f 187 186 197
f 190 198 199
f 198 190 189
f 193 200 201
f 200 193 192
f 202 200 192
f 200 202 203
f 198 189 193
f 198 193 204
f 194 188 190
f 194 190 205
f 192 206 202
f 139 180 135
f 206 207 208
f 209 210 211
f 207 209 212
f 213 214 215
f 216 217 218
f 217 219 220
f 214 216 218
f 210 213 221
f 208 212 222
f 208 207 212
f 211 221 223
f 211 210 221
f 209 211 212
f 212 211 224
f 214 218 215
f 215 221 213
f 218 225 226
f 218 217 225
f 225 217 220
f 225 220 227
f 219 228 229
f 215 218 230
f 220 219 229
f 221 215 231
f 206 208 202
f 202 208 232
f 178 195 233
f 178 180 195
f 197 196 234
f 197 186 196
f 187 197 195
f 195 197 235
f 205 199 236
f 205 190 199
f 204 201 237
f 204 193 201
f 201 200 203
f 201 203 238
f 198 204 199
f 199 204 239
f 194 205 196
f 196 205 240
f 166 176 171
f 233 175 178
f 241 233 235
f 234 235 197
f 233 195 235
f 242 175 233
f 243 234 240
f 236 240 205
f 244 236 239
f 237 239 204
f 238 237 201
f 245 239 237
f 236 199 239
f 246 240 236
f 234 196 240
f 247 235 234
f 232 248 203
f 175 166 138
f 232 222 249
f 232 208 222
f 224 223 250
f 224 211 223
f 212 224 222
f 222 224 251
f 225 227 226
f 252 229 253
f 231 230 254
f 231 215 230
f 230 218 226
f 230 226 255
f 229 252 227
f 231 223 221
f 203 202 232
f 223 231 256
f 257 238 248
f 248 232 249
f 258 249 251
f 251 224 250
f 222 251 249
f 259 248 249
f 231 254 256
f 256 250 223
f 260 256 254
f 254 230 255
f 255 226 261
f 262 254 255
f 261 227 263
f 264 250 256
f 226 227 261
f 265 251 250
f 261 266 267
f 248 238 203
f 220 229 227
f 268 237 238
f 228 269 229
f 178 138 135
f 267 255 261
f 181 150 270
f 181 149 150
f 152 151 271
f 152 143 151
f 141 152 150
f 150 152 272
f 159 158 273
f 159 148 158
f 153 155 274
f 153 147 155
f 145 153 158
f 158 153 275
f 142 159 151
f 151 159 276
f 277 270 278
f 277 181 270
f 272 271 279
f 272 152 271
f 150 272 270
f 270 272 280
f 159 273 276
f 276 271 151
f 273 275 281
f 273 158 275
f 275 153 274
f 275 274 282
f 283 274 155
f 276 273 284
f 179 283 155
f 271 276 285
f 154 179 155
f 286 287 277
f 170 169 288
f 170 162 169
f 177 173 289
f 177 168 173
f 167 177 169
f 169 177 290
f 242 291 176
f 242 176 175
f 292 174 171
f 292 176 291
f 293 242 241
f 174 292 294
f 242 233 241
f 174 173 172
f 179 157 170
f 173 174 295
f 283 296 297
f 179 296 283
f 288 290 298
f 288 169 290
f 170 288 296
f 296 288 299
f 292 300 294
f 293 291 242
f 289 295 301
f 289 173 295
f 295 174 294
f 295 294 302
f 291 293 303
f 289 290 177
f 292 291 300
f 290 289 304
f 247 305 241
f 296 179 170
f 176 292 171
f 274 283 306
f 286 278 307
f 286 277 278
f 280 279 308
f 280 272 279
f 270 280 278
f 278 280 308
f 285 284 309
f 285 276 284
f 281 282 310
f 281 275 282
f 282 274 306
f 282 306 311
f 273 281 284
f 284 281 312
f 271 285 279
f 279 285 313
f 314 286 307
f 315 278 308
f 278 315 307
f 285 309 313
f 313 308 279
f 310 312 281
f 282 311 310
f 312 309 284
f 306 316 311
f 317 286 314
f 297 299 318
f 297 296 299
f 298 304 319
f 298 290 304
f 288 298 299
f 299 298 318
f 303 320 300
f 303 300 291
f 301 302 321
f 301 295 302
f 302 294 322
f 302 322 321
f 320 322 300
f 301 304 289
f 306 283 297
f 304 301 323
f 297 318 324
f 324 316 297
f 298 325 318
f 322 326 321
f 321 323 301
f 323 319 304
f 320 327 326
f 319 325 298
f 322 320 326
f 328 329 303
f 297 316 306
f 322 294 300
f 305 328 293
f 181 277 330
f 247 243 331
f 243 247 234
f 305 331 332
f 331 305 247
f 246 333 243
f 303 293 328
f 243 333 331
f 244 246 236
f 334 244 245
f 268 245 237
f 244 239 245
f 335 246 244
f 243 240 246
f 336 245 268
f 305 332 328
f 331 333 337
f 332 337 338
f 332 331 337
f 335 339 333
f 328 332 340
f 335 334 341
f 334 335 244
f 335 341 339
f 334 336 342
f 334 342 341
f 339 341 343
f 334 245 336
f 339 337 333
f 333 246 335
f 337 339 344
f 257 345 268
f 320 303 329
f 259 346 257
f 259 257 248
f 258 347 259
f 346 345 257
f 259 249 258
f 348 336 345
f 349 258 265
f 264 265 250
f 350 264 260
f 262 260 254
f 267 262 255
f 351 260 262
f 264 256 260
f 352 265 264
f 258 251 265
f 353 262 267
f 345 354 348
f 347 346 259
f 342 348 355
f 336 348 342
f 356 346 347
f 345 346 354
f 357 347 349
f 352 349 265
f 358 352 350
f 351 350 260
f 353 351 262
f 359 350 351
f 352 264 350
f 360 349 352
f 347 258 349
f 361 351 353
f 267 362 353
f 336 268 345
f 268 238 257
f 341 342 363
f 329 340 364
f 329 328 340
f 338 344 365
f 338 337 344
f 332 338 340
f 340 338 364
f 341 363 343
f 343 344 339
f 363 355 366
f 363 342 355
f 355 348 367
f 355 367 368
f 356 369 354
f 343 363 370
f 348 354 367
f 344 343 371
f 329 372 327
f 329 364 372
f 338 365 364
f 370 363 373
f 373 363 366
f 355 368 366
f 371 365 344
f 371 343 370
f 367 369 368
f 327 320 329
f 356 357 374
f 357 356 347
f 369 374 375
f 374 369 356
f 360 376 357
f 369 367 354
f 358 377 360
f 358 360 352
f 359 378 358
f 377 376 360
f 361 359 351
f 379 359 361
f 358 350 359
f 376 374 357
f 357 349 360
f 374 376 380
f 376 381 380
f 380 375 374
f 382 381 376
f 377 382 376
f 378 379 383
f 379 378 359
f 382 377 383
f 384 383 379
f 379 361 385
f 383 377 378
f 377 358 378
f 361 353 386
f 369 375 368
f 354 346 356
f 384 379 385
f 293 241 305
f 241 235 247
f 252 263 227
f 91 96 89
f 269 387 388
f 388 389 390
f 389 388 387
f 387 391 389
f 388 253 229
f 389 391 392
f 393 394 395
f 393 391 394
f 396 395 397
f 388 390 253
f 389 392 398
f 390 398 399
f 390 389 398
f 393 400 392
f 253 390 401
f 393 396 402
f 396 393 395
f 393 402 400
f 396 403 404
f 396 404 402
f 400 402 405
f 396 397 403
f 400 398 392
f 392 391 393
f 398 400 406
f 397 407 403
f 252 253 263
f 408 409 407
f 410 411 408
f 409 412 407
f 413 403 412
f 414 410 415
f 416 417 418
f 419 418 420
f 416 415 417
f 421 420 422
f 412 423 413
f 411 409 408
f 404 413 424
f 403 413 404
f 425 409 411
f 412 409 423
f 426 411 414
f 416 414 415
f 427 416 419
f 428 419 420
f 421 428 420
f 429 419 428
f 416 418 419
f 430 414 416
f 411 410 414
f 431 428 421
f 432 433 422
f 412 403 407
f 402 404 434
f 263 435 266
f 435 253 401
f 401 399 436
f 399 401 390
f 435 263 253
f 435 401 437
f 400 405 406
f 406 399 398
f 405 434 438
f 405 402 434
f 434 404 424
f 434 424 439
f 440 424 413
f 406 405 441
f 423 440 413
f 399 406 442
f 266 443 362
f 443 435 437
f 437 436 444
f 436 437 401
f 443 266 435
f 443 437 445
f 406 441 442
f 442 436 399
f 441 438 446
f 441 405 438
f 438 434 439
f 438 439 447
f 448 439 424
f 442 441 449
f 440 448 424
f 436 442 450
f 425 451 423
f 263 266 261
f 425 426 452
f 426 425 411
f 451 452 453
f 452 451 425
f 430 454 426
f 455 440 451
f 427 456 430
f 427 430 416
f 429 457 427
f 456 454 430
f 431 429 428
f 458 429 431
f 427 419 429
f 454 452 426
f 426 414 430
f 452 454 459
f 448 455 460
f 440 455 448
f 453 459 461
f 453 452 459
f 451 453 455
f 455 453 462
f 456 457 463
f 457 456 427
f 456 463 464
f 457 458 465
f 457 465 463
f 464 463 466
f 457 429 458
f 464 459 454
f 454 456 464
f 459 464 467
f 468 469 431
f 440 423 451
f 423 409 425
f 439 448 470
f 433 468 421
f 388 229 269
f 432 471 472
f 473 474 475
f 471 473 475
f 476 477 478
f 479 480 481
f 477 479 482
f 474 476 483
f 472 484 433
f 472 433 432
f 475 485 472
f 484 468 433
f 472 471 475
f 458 431 469
f 486 475 483
f 487 483 476
f 488 487 478
f 482 478 477
f 481 482 479
f 489 478 482
f 487 476 478
f 490 483 487
f 475 474 483
f 481 491 482
f 480 492 481
f 431 421 468
f 492 493 494
f 495 496 497
f 493 495 498
f 499 500 501
f 502 503 504
f 503 505 504
f 500 502 506
f 496 499 501
f 507 481 494
f 508 494 493
f 509 508 498
f 497 498 495
f 508 493 498
f 510 494 508
f 511 497 501
f 506 501 500
f 512 506 513
f 504 513 502
f 96 504 505
f 514 513 504
f 506 502 513
f 515 501 506
f 497 496 501
f 516 498 497
f 492 494 481
f 114 504 96
f 485 517 484
f 485 484 472
f 469 518 519
f 469 468 518
f 484 517 518
f 458 469 520
f 521 485 486
f 490 486 483
f 522 490 488
f 489 488 478
f 491 489 482
f 523 488 489
f 490 487 488
f 524 486 490
f 485 475 486
f 525 489 491
f 520 465 458
f 517 526 518
f 520 519 527
f 520 469 519
f 518 526 519
f 465 520 528
f 529 517 521
f 524 521 486
f 530 524 522
f 523 522 488
f 525 523 489
f 531 522 523
f 524 490 522
f 532 521 524
f 517 485 521
f 525 533 523
f 507 534 491
f 468 484 518
f 507 510 535
f 510 507 494
f 509 516 536
f 516 509 498
f 510 508 509
f 510 509 537
f 511 515 538
f 515 511 501
f 512 514 539
f 514 512 513
f 114 514 504
f 514 114 160
f 515 506 512
f 515 512 540
f 516 497 511
f 516 511 541
f 542 525 534
f 535 534 507
f 543 535 537
f 536 537 509
f 535 510 537
f 544 534 535
f 545 536 541
f 538 541 511
f 546 538 540
f 539 540 512
f 160 539 514
f 547 540 539
f 538 515 540
f 548 541 538
f 536 516 541
f 549 537 536
f 114 113 160
f 534 525 491
f 491 481 507
f 182 539 160
f 95 114 96
f 421 422 433
f 463 465 550
f 551 445 552
f 551 443 445
f 444 450 553
f 444 436 450
f 437 444 445
f 445 444 554
f 449 446 555
f 449 441 446
f 470 556 447
f 447 439 470
f 438 447 446
f 446 447 557
f 442 449 450
f 450 449 558
f 362 386 353
f 362 551 386
f 559 552 560
f 386 551 559
f 552 559 551
f 386 559 385
f 554 553 561
f 552 445 554
f 558 555 562
f 553 450 558
f 558 449 555
f 555 557 563
f 444 553 554
f 553 558 564
f 446 557 555
f 552 554 565
f 556 557 447
f 362 443 551
f 460 462 566
f 460 455 462
f 461 467 567
f 461 459 467
f 453 461 462
f 462 461 568
f 463 550 466
f 466 467 464
f 550 528 569
f 550 465 528
f 528 520 527
f 527 570 528
f 571 527 519
f 466 550 572
f 470 448 460
f 467 466 573
f 556 574 575
f 470 574 556
f 566 568 576
f 566 462 568
f 460 566 574
f 574 566 577
f 467 573 567
f 567 568 461
f 573 572 578
f 573 466 572
f 572 550 569
f 572 569 579
f 527 571 580
f 567 573 581
f 528 570 569
f 568 567 582
f 529 583 526
f 574 470 460
f 526 571 519
f 557 556 584
f 385 585 586
f 385 559 585
f 560 565 587
f 560 552 565
f 559 560 585
f 585 560 588
f 561 564 589
f 561 553 564
f 562 563 590
f 562 555 563
f 563 557 584
f 563 584 591
f 558 562 564
f 564 562 592
f 554 561 565
f 565 561 593
f 594 385 586
f 588 560 587
f 585 588 586
f 561 589 593
f 593 587 565
f 592 589 564
f 590 563 591
f 592 562 590
f 584 595 591
f 385 594 384
f 575 577 596
f 575 574 577
f 576 582 597
f 576 568 582
f 566 576 577
f 577 576 598
f 569 599 579
f 580 570 527
f 581 578 600
f 581 573 578
f 578 572 579
f 578 579 601
f 580 602 570
f 581 582 567
f 584 556 575
f 582 581 600
f 577 598 596
f 598 576 597
f 596 595 575
f 578 603 600
f 600 597 582
f 603 578 601
f 601 579 604
f 599 602 605
f 579 599 604
f 570 602 599
f 575 595 584
f 569 570 599
f 583 606 571
f 386 385 361
f 529 532 607
f 532 529 521
f 583 607 608
f 607 583 529
f 530 609 532
f 580 571 606
f 531 610 530
f 531 530 522
f 533 611 531
f 610 609 530
f 542 533 525
f 612 533 542
f 531 523 533
f 609 607 532
f 532 524 530
f 607 609 613
f 583 608 606
f 610 614 609
f 608 613 615
f 608 607 613
f 614 613 609
f 606 608 616
f 611 612 617
f 612 611 533
f 614 618 619
f 614 610 618
f 617 618 611
f 618 617 620
f 621 622 612
f 618 610 611
f 610 531 611
f 613 614 623
f 544 621 542
f 624 580 606
f 543 625 544
f 543 544 535
f 549 626 543
f 625 621 544
f 543 537 549
f 621 612 542
f 627 549 545
f 548 545 541
f 628 548 546
f 547 546 540
f 182 547 539
f 629 546 547
f 548 538 546
f 630 545 548
f 549 536 545
f 330 547 182
f 626 631 625
f 626 625 543
f 622 632 633
f 622 621 632
f 625 631 632
f 632 621 625
f 634 626 627
f 630 627 545
f 635 630 628
f 629 628 546
f 330 629 547
f 636 628 629
f 630 548 628
f 637 627 630
f 626 549 627
f 287 629 330
f 330 182 181
f 622 617 612
f 542 534 544
f 617 622 638
f 602 624 605
f 580 624 602
f 616 615 639
f 616 608 615
f 606 616 624
f 624 616 640
f 623 619 641
f 623 614 619
f 620 638 642
f 620 617 638
f 638 622 633
f 638 633 642
f 618 620 619
f 619 620 643
f 613 623 615
f 615 623 641
f 624 644 605
f 639 640 616
f 644 624 640
f 642 643 620
f 645 641 619
f 642 633 646
f 641 639 615
f 645 619 643
f 647 648 633
f 605 604 599
f 631 634 649
f 634 631 626
f 647 649 650
f 649 647 631
f 637 651 634
f 647 633 632
f 635 652 637
f 635 637 630
f 636 653 635
f 652 651 637
f 287 636 629
f 317 636 287
f 635 628 636
f 651 649 634
f 634 627 637
f 649 651 654
f 647 650 648
f 652 655 651
f 650 649 654
f 655 654 651
f 653 317 656
f 317 653 636
f 655 652 657
f 656 657 653
f 317 314 656
f 657 652 653
f 652 635 653
f 286 317 287
f 648 646 633
f 647 632 631
f 277 287 330
f 571 526 583
f 526 517 529
f 160 149 182
f 266 362 267
f 89 96 505
f 658 659 660
f 661 662 660
f 658 660 663
f 664 665 666
f 665 658 663
f 667 668 664
f 669 660 662
f 666 670 671
f 664 672 673
f 664 666 674
f 669 675 663
f 676 666 663
f 666 665 663
f 663 660 669
f 666 671 674
f 677 678 667
f 677 679 678
f 680 667 664
f 681 677 680
f 680 677 667
f 680 682 683
f 684 668 667
f 685 680 686
f 673 687 686
f 685 682 680
f 688 673 689
f 689 690 688
f 680 673 686
f 680 664 673
f 691 689 673
f 671 692 693
f 693 694 695
f 695 674 671
f 696 695 697
f 696 698 699
f 699 700 696
f 695 696 674
f 700 701 696
f 701 702 703
f 701 703 704
f 704 703 705
f 674 672 664
f 706 707 674
f 701 704 674
f 696 701 674
f 708 706 709
f 707 710 672
f 710 711 672
f 672 712 713
f 673 672 691
f 713 714 691
f 672 713 691
f 715 689 691
f 716 717 708
f 708 718 716
f 707 706 717
f 710 719 720
f 710 707 719
f 717 721 707
f 707 672 674
f 717 706 708
f 671 693 695
f 722 723 724
f 725 726 723
f 722 727 723
f 728 729 730
f 731 730 729
f 731 727 722
f 732 728 733
f 734 735 736
f 737 736 738
f 735 738 736
f 734 739 735
f 726 725 740
f 739 734 740
f 725 739 740
f 726 724 723
f 741 742 732
f 743 744 745
f 743 745 746
f 747 748 745
f 743 749 744
f 749 750 751
f 750 749 752
f 752 753 750
f 744 749 751
f 733 728 730
f 754 731 722
f 730 731 754
f 745 748 746
f 741 732 755
f 747 741 748
f 733 755 732
f 741 747 742
f 756 757 758
f 738 757 737
f 758 759 756
f 737 757 756
f 759 760 756
f 761 760 762
f 762 760 759
f 763 761 762
f 764 763 762
f 764 765 766
f 766 765 767
f 768 767 769
f 770 771 772
f 768 769 770
f 771 773 772
f 764 766 763
f 774 767 768
f 775 770 772
f 768 770 775
f 773 776 777
f 776 778 779
f 776 779 777
f 772 773 777
f 780 778 781
f 780 782 783
f 778 776 781
f 782 784 783
f 785 786 784
f 783 784 786
f 787 780 783
f 778 780 787
f 766 767 774
f 788 789 790
f 752 789 753
f 790 791 788
f 753 789 788
f 792 791 793
f 791 794 793
f 788 791 792
f 795 793 794
f 795 794 796
f 797 798 799
f 797 795 796
f 800 801 802
f 803 804 805
f 802 801 803
f 806 798 800
f 795 797 799
f 798 806 807
f 802 806 800
f 808 802 803
f 805 804 809
f 809 810 805
f 808 803 805
f 810 809 811
f 812 811 809
f 813 814 815
f 814 813 812
f 816 815 817
f 818 817 819
f 817 815 819
f 813 815 816
f 812 813 811
f 799 798 807
f 820 821 822
f 822 823 824
f 823 822 821
f 825 826 827
f 828 829 830
f 831 826 828
f 829 821 832
f 785 833 834
f 833 785 835
f 835 836 833
f 786 785 834
f 837 838 824
f 822 824 838
f 837 836 838
f 833 836 837
f 839 840 825
f 841 842 843
f 844 845 846
f 844 841 843
f 847 848 818
f 817 818 848
f 847 842 841
f 818 842 847
f 841 844 849
f 832 830 829
f 820 832 821
f 828 830 831
f 825 827 839
f 831 827 826
f 846 840 839
f 846 849 844
f 840 846 845
f 850 851 852
f 853 854 855
f 851 853 856
f 857 858 859
f 860 861 862
f 858 860 863
f 854 857 864
f 865 866 867
f 868 869 870
f 866 868 871
f 872 873 874
f 875 876 877
f 873 875 878
f 869 872 879
f 861 865 880
f 881 882 883
f 884 885 886
f 882 884 887
f 888 889 890
f 891 892 893
f 889 891 894
f 885 888 895
f 896 897 898
f 899 900 901
f 897 899 902
f 903 904 905
f 906 907 908
f 904 906 909
f 900 903 910
f 892 896 911
f 876 881 912
f 852 913 850
f 855 856 853
f 852 851 856
f 859 864 857
f 862 863 860
f 859 858 863
f 855 854 864
f 867 880 865
f 870 871 868
f 867 866 871
f 874 879 872
f 877 878 875
f 874 873 878
f 870 869 879
f 862 861 880
f 883 912 881
f 886 887 884
f 883 882 887
f 890 895 888
f 893 894 891
f 890 889 894
f 886 885 895
f 898 911 896
f 901 902 899
f 898 897 902
f 905 910 903
f 908 909 906
f 905 904 909
f 901 900 910
f 893 892 911
f 877 876 912
f 914 915 907
f 850 913 916
f 914 917 918
f 919 920 921
f 917 919 922
f 923 924 925
f 926 927 928
f 924 926 929
f 920 923 930
f 931 932 933
f 934 935 936
f 932 934 937
f 938 939 940
f 941 942 943
f 939 941 944
f 935 938 945
f 927 931 946
f 947 948 949
f 950 951 952
f 948 950 953
f 954 955 956
f 957 958 959
f 955 957 960
f 951 954 961
f 962 963 964
f 965 966 967
f 963 965 968
f 969 970 971
f 972 973 916
f 970 972 974
f 966 969 975
f 958 962 976
f 942 947 977
f 918 915 914
f 921 922 919
f 918 917 922
f 925 930 923
f 928 929 926
f 925 924 929
f 921 920 930
f 933 946 931
f 936 937 934
f 933 932 937
f 940 945 938
f 943 944 941
f 940 939 944
f 936 935 945
f 928 927 946
f 949 977 947
f 952 953 950
f 949 948 953
f 956 961 954
f 959 960 957
f 956 955 960
f 952 951 961
f 964 976 962
f 967 968 965
f 964 963 968
f 971 975 969
f 916 974 972
f 971 970 974
f 967 966 975
f 959 958 976
f 943 942 977
f 973 850 916
f 915 908 907
