mtllib tn__corpo1_dC_Corpo1_Mesh.mtl
v 0.015 -0.015 0.018000000000000002
v 0.013000000000000001 -0.015 0.02
v 0.013000000000000001 0.015 0.02
v 0.015 0.015 0.018000000000000002
v -0.013000000000000001 -0.015 0.02
v -0.015 -0.015 0.018000000000000002
v -0.015 0.015 0.018000000000000002
v -0.013000000000000001 0.015 0.02
v -0.005 0.025148418426513674 0.015
v 0.005 0.025148418426513674 0.015
v 0.005 0.028148418426513673 0.012
v -0.005 0.028148418426513673 0.012
v -0.005 0.03614841842651367 0.015
v -0.005 0.03314841842651367 0.012
v 0.005 0.03314841842651367 0.012
v 0.005 0.03614841842651367 0.015
v -0.005 0.03314841842651367 0.012
v -0.005 0.028148418426513673 0.012
v 0.005 0.028148418426513673 0.012
v 0.005 0.03314841842651367 0.012
v -0.04404999923706055 4.440892098500626e-18 0.015
v -0.022024999618530276 -0.038148418426513675 0.015
v -0.018000000000000002 -0.018000000000000002 0.015
v -0.018000000000000002 0.018000000000000002 0.015
v 0.018000000000000002 0.018000000000000002 0.015
v -0.005 0.025148418426513674 0.015
v -0.015 0.028148418426513673 0.015
v 0.022024999618530276 -0.038148418426513675 0.015
v -0.022024999618530276 0.038148418426513675 0.015
v -0.015 0.03314841842651367 0.015
v -0.005 0.03614841842651367 0.015
v -0.005 0.03314841842651367 0.015
v -0.005 0.028148418426513673 0.015
v 0.022024999618530276 0.038148418426513675 0.015
v 0.005 0.025148418426513674 0.015
v 0.018000000000000002 -0.018000000000000002 0.015
v 0.04404999923706055 0.0 0.015
v 0.015 0.028148418426513673 0.015
v 0.005 0.03614841842651367 0.015
v 0.005 0.03314841842651367 0.015
v 0.015 0.03314841842651367 0.015
v 0.005 0.028148418426513673 0.015
v -0.015 0.02949357032775879 0.01702164649963379
v -0.015 0.029398418426513674 0.0175
v -0.005 0.02949357032775879 0.01702164649963379
v -0.015 0.03017006492614746 0.016345149993896486
v -0.015 0.029764535903930665 0.01661611557006836
v -0.005 0.03017006492614746 0.016345149993896486
v -0.015 0.031126773834228516 0.016345149993896486
v -0.015 0.030648418426513672 0.01625
v -0.005 0.031126773834228516 0.016345149993896486
v -0.005 0.031532302856445316 0.01661611557006836
v -0.015 0.031532302856445316 0.01661611557006836
v -0.005 0.030648418426513672 0.01625
v -0.015 0.03180326843261719 0.01702164649963379
v -0.005 0.029398418426513674 0.0175
v -0.005 0.029764535903930665 0.01661611557006836
v -0.005 0.03180326843261719 0.01702164649963379
v -0.005 0.03189841842651367 0.0175
v -0.005 0.02949357032775879 0.017978353500366213
v -0.015 0.031532302856445316 0.018383884429931642
v -0.005 0.031126773834228516 0.018654850006103518
v -0.015 0.031126773834228516 0.018654850006103518
v -0.015 0.03180326843261719 0.017978353500366213
v -0.005 0.031532302856445316 0.018383884429931642
v -0.015 0.03189841842651367 0.0175
v -0.015 0.03017006492614746 0.018654850006103518
v -0.015 0.030648418426513672 0.01875
v -0.005 0.03017006492614746 0.018654850006103518
v -0.015 0.029764535903930665 0.018383884429931642
v -0.015 0.02949357032775879 0.017978353500366213
v -0.005 0.030648418426513672 0.01875
v -0.005 0.029764535903930665 0.018383884429931642
v -0.005 0.03180326843261719 0.017978353500366213
v 0.015 0.02949357032775879 0.01702164649963379
v 0.005 0.02949357032775879 0.01702164649963379
v 0.005 0.029398418426513674 0.0175
v 0.015 0.03017006492614746 0.016345149993896486
v 0.005 0.03017006492614746 0.016345149993896486
v 0.005 0.029764535903930665 0.01661611557006836
v 0.015 0.029764535903930665 0.01661611557006836
v 0.015 0.031126773834228516 0.016345149993896486
v 0.005 0.031126773834228516 0.016345149993896486
v 0.005 0.030648418426513672 0.01625
v 0.015 0.03180326843261719 0.01702164649963379
v 0.005 0.03180326843261719 0.01702164649963379
v 0.005 0.031532302856445316 0.01661611557006836
v 0.015 0.031532302856445316 0.01661611557006836
v 0.015 0.030648418426513672 0.01625
v 0.015 0.029398418426513674 0.0175
v 0.015 0.03189841842651367 0.0175
v 0.005 0.03189841842651367 0.0175
v 0.015 0.02949357032775879 0.017978353500366213
v 0.015 0.03180326843261719 0.017978353500366213
v 0.005 0.03180326843261719 0.017978353500366213
v 0.015 0.031126773834228516 0.018654850006103518
v 0.005 0.031126773834228516 0.018654850006103518
v 0.005 0.031532302856445316 0.018383884429931642
v 0.015 0.031532302856445316 0.018383884429931642
v 0.015 0.03017006492614746 0.018654850006103518
v 0.005 0.03017006492614746 0.018654850006103518
v 0.005 0.030648418426513672 0.01875
v 0.005 0.02949357032775879 0.017978353500366213
v 0.005 0.029764535903930665 0.018383884429931642
v 0.015 0.029764535903930665 0.018383884429931642
v 0.015 0.030648418426513672 0.01875
v 0.005 0.03614841842651367 0.015
v 0.005 0.03314841842651367 0.012
v 0.005 0.03314841842651367 0.015
v 0.005 0.030648418426513672 0.01625
v 0.005 0.028148418426513673 0.015
v 0.005 0.031532302856445316 0.01661611557006836
v 0.005 0.03314841842651367 0.0175
v 0.005 0.031126773834228516 0.016345149993896486
v 0.005 0.028148418426513673 0.012
v 0.005 0.03180326843261719 0.01702164649963379
v 0.005 0.03189841842651367 0.0175
v 0.005 0.03180326843261719 0.017978353500366213
v 0.005 0.031532302856445316 0.018383884429931642
v 0.005 0.031126773834228516 0.018654850006103518
v 0.005 0.03314841842651367 0.02
v 0.005 0.030648418426513672 0.01875
v 0.005 0.02949357032775879 0.01702164649963379
v 0.005 0.028148418426513673 0.0175
v 0.005 0.029398418426513674 0.0175
v 0.005 0.029764535903930665 0.01661611557006836
v 0.005 0.03017006492614746 0.016345149993896486
v 0.005 0.025148418426513674 0.015
v 0.005 0.03017006492614746 0.018654850006103518
v 0.005 0.029764535903930665 0.018383884429931642
v 0.005 0.028148418426513673 0.02
v 0.005 0.02949357032775879 0.017978353500366213
v 0.015 0.03314841842651367 0.015
v 0.005 0.03314841842651367 0.015
v 0.005 0.03314841842651367 0.02
v 0.015 0.03314841842651367 0.02
v 0.015 0.028148418426513673 0.015
v 0.015 0.02949357032775879 0.01702164649963379
v 0.015 0.029398418426513674 0.0175
v 0.015 0.029764535903930665 0.01661611557006836
v 0.015 0.03017006492614746 0.016345149993896486
v 0.015 0.030648418426513672 0.01625
v 0.015 0.03314841842651367 0.015
v 0.015 0.028148418426513673 0.02
v 0.015 0.02949357032775879 0.017978353500366213
v 0.015 0.029764535903930665 0.018383884429931642
v 0.015 0.03017006492614746 0.018654850006103518
v 0.015 0.030648418426513672 0.01875
v 0.015 0.031532302856445316 0.01661611557006836
v 0.015 0.031126773834228516 0.016345149993896486
v 0.015 0.03180326843261719 0.01702164649963379
v 0.015 0.03189841842651367 0.0175
v 0.015 0.03314841842651367 0.02
v 0.015 0.031126773834228516 0.018654850006103518
v 0.015 0.031532302856445316 0.018383884429931642
v 0.015 0.03180326843261719 0.017978353500366213
v 0.005 0.028148418426513673 0.015
v 0.015 0.028148418426513673 0.015
v 0.015 0.028148418426513673 0.02
v 0.005 0.028148418426513673 0.02
v 0.005 0.028148418426513673 0.02
v 0.015 0.028148418426513673 0.02
v 0.015 0.03314841842651367 0.02
v 0.005 0.03314841842651367 0.02
v -0.005 0.03314841842651367 0.015
v -0.015 0.03314841842651367 0.015
v -0.015 0.03314841842651367 0.02
v -0.005 0.03314841842651367 0.02
v -0.005 0.025148418426513674 0.015
v -0.005 0.028148418426513673 0.012
v -0.005 0.028148418426513673 0.015
v -0.005 0.030648418426513672 0.01625
v -0.005 0.03314841842651367 0.015
v -0.005 0.029764535903930665 0.01661611557006836
v -0.005 0.028148418426513673 0.0175
v -0.005 0.03017006492614746 0.016345149993896486
v -0.005 0.03314841842651367 0.012
v -0.005 0.02949357032775879 0.01702164649963379
v -0.005 0.029398418426513674 0.0175
v -0.005 0.02949357032775879 0.017978353500366213
v -0.005 0.029764535903930665 0.018383884429931642
v -0.005 0.03017006492614746 0.018654850006103518
v -0.005 0.028148418426513673 0.02
v -0.005 0.030648418426513672 0.01875
v -0.005 0.03180326843261719 0.01702164649963379
v -0.005 0.03314841842651367 0.0175
v -0.005 0.03189841842651367 0.0175
v -0.005 0.031532302856445316 0.01661611557006836
v -0.005 0.031126773834228516 0.016345149993896486
v -0.005 0.03614841842651367 0.015
v -0.005 0.031126773834228516 0.018654850006103518
v -0.005 0.031532302856445316 0.018383884429931642
v -0.005 0.03314841842651367 0.02
v -0.005 0.03180326843261719 0.017978353500366213
v -0.015 0.028148418426513673 0.015
v -0.005 0.028148418426513673 0.015
v -0.005 0.028148418426513673 0.02
v -0.015 0.028148418426513673 0.02
v -0.015 0.03314841842651367 0.015
v -0.015 0.03180326843261719 0.01702164649963379
v -0.015 0.03189841842651367 0.0175
v -0.015 0.031532302856445316 0.01661611557006836
v -0.015 0.031126773834228516 0.016345149993896486
v -0.015 0.030648418426513672 0.01625
v -0.015 0.028148418426513673 0.015
v -0.015 0.03314841842651367 0.02
v -0.015 0.03180326843261719 0.017978353500366213
v -0.015 0.031532302856445316 0.018383884429931642
v -0.015 0.031126773834228516 0.018654850006103518
v -0.015 0.030648418426513672 0.01875
v -0.015 0.029764535903930665 0.01661611557006836
v -0.015 0.03017006492614746 0.016345149993896486
v -0.015 0.02949357032775879 0.01702164649963379
v -0.015 0.029398418426513674 0.0175
v -0.015 0.028148418426513673 0.02
v -0.015 0.03017006492614746 0.018654850006103518
v -0.015 0.029764535903930665 0.018383884429931642
v -0.015 0.02949357032775879 0.017978353500366213
v -0.015 0.028148418426513673 0.02
v -0.005 0.028148418426513673 0.02
v -0.005 0.03314841842651367 0.02
v -0.015 0.03314841842651367 0.02
v 0.013000000000000001 -0.015 0.02
v 0.013000000000000001 -0.015 0.021
v 0.013000000000000001 0.015 0.021
v 0.013000000000000001 0.015 0.02
v -0.013000000000000001 -0.015 0.021
v -0.013000000000000001 -0.015 0.02
v -0.013000000000000001 0.015 0.02
v -0.013000000000000001 0.015 0.021
v -0.018000000000000002 -0.018000000000000002 0.015
v 0.018000000000000002 -0.018000000000000002 0.015
v 0.018000000000000002 -0.018000000000000002 0.021
v -0.018000000000000002 -0.018000000000000002 0.021
v -0.018000000000000002 0.018000000000000002 0.015
v -0.018000000000000002 -0.018000000000000002 0.015
v -0.018000000000000002 -0.018000000000000002 0.021
v -0.018000000000000002 0.018000000000000002 0.021
v 0.018000000000000002 0.018000000000000002 0.015
v -0.018000000000000002 0.018000000000000002 0.015
v -0.018000000000000002 0.018000000000000002 0.021
v 0.018000000000000002 0.018000000000000002 0.021
v 0.018000000000000002 -0.018000000000000002 0.015
v 0.018000000000000002 0.018000000000000002 0.015
v 0.018000000000000002 0.018000000000000002 0.021
v 0.018000000000000002 -0.018000000000000002 0.021
v -0.018000000000000002 -0.018000000000000002 0.021
v -0.013000000000000001 -0.015 0.021
v -0.013000000000000001 0.015 0.021
v 0.018000000000000002 -0.018000000000000002 0.021
v -0.018000000000000002 0.018000000000000002 0.021
v 0.013000000000000001 0.015 0.021
v 0.013000000000000001 -0.015 0.021
v 0.018000000000000002 0.018000000000000002 0.021
v 0.013000000000000001 0.015 0.02
v 0.013000000000000001 0.015 0.021
v -0.013000000000000001 0.015 0.021
v 0.015 0.015 0.018000000000000002
v -0.015 0.015 0.018000000000000002
v 0.015 0.015 0.005
v -0.013000000000000001 0.015 0.02
v -0.015 0.015 0.005
v -0.015 0.015 0.005
v -0.015 0.015 0.018000000000000002
v -0.015 -0.015 0.018000000000000002
v -0.015 -0.015 0.005
v -0.013000000000000001 -0.015 0.02
v -0.013000000000000001 -0.015 0.021
v 0.013000000000000001 -0.015 0.021
v -0.015 -0.015 0.018000000000000002
v 0.015 -0.015 0.018000000000000002
v -0.015 -0.015 0.005
v 0.013000000000000001 -0.015 0.02
v 0.015 -0.015 0.005
v 0.015 -0.015 0.005
v 0.015 -0.015 0.018000000000000002
v 0.015 0.015 0.018000000000000002
v 0.015 0.015 0.005
v -0.015 0.015 0.005
v -0.015 -0.015 0.005
v 0.015 -0.015 0.005
v 0.015 0.015 0.005
v -0.022024999618530276 -0.038148418426513675 0.0
v 0.022024999618530276 -0.038148418426513675 0.0
v 0.022024999618530276 -0.038148418426513675 0.015
v -0.022024999618530276 -0.038148418426513675 0.015
v -0.04404999923706055 4.440892098500626e-18 0.015
v -0.04404999923706055 4.280430176972772e-18 0.0
v -0.022024999618530276 -0.038148418426513675 0.015
v -0.022024999618530276 -0.038148418426513675 0.0
v -0.022024999618530276 0.038148418426513675 0.0
v -0.04404999923706055 4.280430176972772e-18 0.0
v -0.04404999923706055 4.440892098500626e-18 0.015
v -0.022024999618530276 0.038148418426513675 0.015
v 0.022024999618530276 0.038148418426513675 0.0
v -0.022024999618530276 0.038148418426513675 0.0
v -0.022024999618530276 0.038148418426513675 0.015
v 0.022024999618530276 0.038148418426513675 0.015
v 0.04404999923706055 0.0 0.0
v 0.022024999618530276 0.038148418426513675 0.0
v 0.022024999618530276 0.038148418426513675 0.015
v 0.04404999923706055 0.0 0.015
v 0.022024999618530276 -0.038148418426513675 0.0
v 0.04404999923706055 0.0 0.0
v 0.04404999923706055 0.0 0.015
v 0.022024999618530276 -0.038148418426513675 0.015
v 0.022024999618530276 0.038148418426513675 0.0
v -0.04404999923706055 4.280430176972772e-18 0.0
v -0.022024999618530276 0.038148418426513675 0.0
v -0.022024999618530276 -0.038148418426513675 0.0
v 0.022024999618530276 -0.038148418426513675 0.0
v 0.04404999923706055 0.0 0.0
usemtl Diffuse
f 1 2 3
f 3 4 1
f 5 6 7
f 7 8 5
f 9 10 11
f 11 12 9
f 13 14 15
f 15 16 13
f 17 18 19
f 19 20 17
f 21 22 23
f 24 25 26
f 24 26 27
f 23 24 21
f 23 22 28
f 21 24 29
f 29 27 30
f 27 29 24
f 29 30 31
f 32 31 30
f 27 26 33
f 29 31 34
f 26 25 35
f 36 37 25
f 37 36 28
f 25 37 34
f 23 28 36
f 35 25 38
f 39 40 41
f 38 34 41
f 34 38 25
f 41 34 39
f 42 35 38
f 39 34 31
f 43 44 45
f 46 47 48
f 47 43 45
f 49 50 51
f 52 53 49
f 54 50 46
f 55 53 52
f 44 56 45
f 47 57 48
f 57 47 45
f 50 54 51
f 55 52 58
f 52 49 51
f 54 46 48
f 58 59 55
f 60 56 44
f 61 62 63
f 64 65 61
f 59 64 66
f 67 68 69
f 70 60 71
f 68 63 72
f 70 67 73
f 64 59 74
f 61 65 62
f 65 64 74
f 68 72 69
f 70 73 60
f 73 67 69
f 72 63 62
f 60 44 71
f 55 59 66
f 75 76 77
f 78 79 80
f 81 80 76
f 82 83 84
f 85 86 87
f 88 87 83
f 89 84 79
f 77 90 75
f 80 81 78
f 81 76 75
f 84 89 82
f 87 88 85
f 88 83 82
f 89 79 78
f 86 91 92
f 93 90 77
f 94 95 92
f 96 97 98
f 99 98 95
f 100 101 102
f 93 103 104
f 105 104 101
f 106 102 97
f 92 91 94
f 98 99 96
f 99 95 94
f 102 106 100
f 104 105 93
f 105 101 100
f 106 97 96
f 93 77 103
f 86 85 91
f 107 108 109
f 110 109 111
f 109 112 113
f 114 112 109
f 110 114 109
f 108 115 111
f 113 112 116
f 113 116 117
f 118 119 113
f 119 120 121
f 119 121 113
f 121 120 122
f 123 124 125
f 126 127 111
f 126 111 124
f 115 128 111
f 111 127 110
f 108 111 109
f 123 126 124
f 129 130 131
f 122 129 131
f 125 124 132
f 124 131 130
f 124 130 132
f 122 131 121
f 118 113 117
f 133 134 135
f 135 136 133
f 137 138 139
f 138 137 140
f 141 140 137
f 142 141 137
f 137 143 142
f 144 139 145
f 139 144 137
f 146 147 144
f 145 146 144
f 144 147 148
f 149 150 143
f 151 143 152
f 143 151 149
f 152 143 153
f 150 142 143
f 148 154 153
f 155 156 153
f 153 156 152
f 155 153 154
f 148 153 144
f 157 158 159
f 159 160 157
f 161 162 163
f 163 164 161
f 165 166 167
f 167 168 165
f 169 170 171
f 172 171 173
f 171 174 175
f 176 174 171
f 172 176 171
f 170 177 173
f 175 174 178
f 175 178 179
f 180 181 175
f 181 182 183
f 181 183 175
f 183 182 184
f 185 186 187
f 188 189 173
f 188 173 186
f 177 190 173
f 173 189 172
f 170 173 171
f 185 188 186
f 191 192 193
f 184 191 193
f 187 186 194
f 186 193 192
f 186 192 194
f 184 193 183
f 180 175 179
f 195 196 197
f 197 198 195
f 199 200 201
f 200 199 202
f 203 202 199
f 204 203 199
f 199 205 204
f 206 201 207
f 201 206 199
f 208 209 206
f 207 208 206
f 206 209 210
f 211 212 205
f 213 205 214
f 205 213 211
f 214 205 215
f 212 204 205
f 210 216 215
f 217 218 215
f 215 218 214
f 217 215 216
f 210 215 206
f 219 220 221
f 221 222 219
f 223 224 225
f 225 226 223
f 227 228 229
f 229 230 227
f 231 232 233
f 233 234 231
f 235 236 237
f 237 238 235
f 239 240 241
f 241 242 239
f 243 244 245
f 245 246 243
f 247 248 249
f 248 247 250
f 251 249 252
f 249 251 247
f 253 250 254
f 250 253 248
f 252 254 251
f 254 252 253
f 255 256 257
f 258 259 260
f 258 261 259
f 257 261 255
f 260 259 262
f 255 261 258
f 263 264 265
f 265 266 263
f 267 268 269
f 270 271 272
f 270 273 271
f 269 273 267
f 272 271 274
f 267 273 270
f 275 276 277
f 277 278 275
f 279 280 281
f 281 282 279
f 283 284 285
f 285 286 283
f 287 288 289
f 290 289 288
f 291 292 293
f 293 294 291
f 295 296 297
f 297 298 295
f 299 300 301
f 301 302 299
f 303 304 305
f 305 306 303
f 307 308 309
f 310 308 311
f 308 307 312
f 311 308 312
