mtllib Key_pivot_Corpo1_Mesh.mtl
v 5.697666645050049 5.617316722869873 17.695833206176758
v 5.171736717224121 6.0 17.68421173095703
v 5.0 6.0 17.688426971435547
v 5.766854286193848 6.0 17.60338592529297
v 6.3685221672058105 5.617316722869873 17.492332458496094
v 6.339392185211182 6.0 17.422006607055664
v 4.260043144226074 5.292893409729004 17.9084415435791
v 5.739956855773926 5.292893409729004 17.9084415435791
v 6.872491836547852 6.0 17.145414352416992
v 7.759212493896484 6.0 16.341737747192383
v 7.350456237792969 6.0 16.781757354736328
v 7.528698921203613 5.617316722869873 16.717126846313477
v 8.086724281311035 6.0 15.838315963745117
v 7.973435401916504 5.617316722869873 16.175214767456055
v 6.986785888671875 5.617316722869873 17.161863327026367
v 8.323348999023438 6.0 15.286314010620117
v 8.30390453338623 5.617316722869873 15.556949615478516
v 7.1072187423706055 5.292893409729004 17.342103958129883
v 6.575628757476807 5.076120376586914 17.992332458496094
v 6.451477527618408 5.292893409729004 17.692604064941406
v 7.287458419799805 5.076120376586914 17.61185073852539
v 7.681980609893799 5.292893409729004 16.87040901184082
v 8.153675079345703 5.292893409729004 16.29564666748047
v 8.504176139831543 5.292893409729004 15.639904975891113
v 8.423423767089844 5.076120376586914 16.47588539123535
v 7.911382675170898 5.076120376586914 17.099809646606445
v 8.507406234741211 5.617316722869873 14.886094093322754
v 5.803248405456543 5.076120376586914 18.22663116455078
v 8.576120376586914 5.617316722869873 14.188427925109863
v 8.498946189880371 6.0 14.102533340454102
v 8.462118148803711 6.0 14.701984405517578
v 8.507406234741211 5.617316722869873 13.490761756896973
v 8.265474319458008 6.0 12.928794860839844
v 8.432748794555664 6.0 13.505611419677734
v 8.30390453338623 5.617316722869873 12.819905281066895
v 8.002050399780273 6.0 12.389068603515625
v 7.528698921203613 5.617316722869873 11.65972900390625
v 7.220376491546631 6.0 11.482891082763672
v 7.650230884552002 6.0 11.902322769165039
v 6.3685221672058105 5.617316722869873 10.884523391723633
v 6.17911434173584 6.0 10.893023490905762
v 6.725143909454346 6.0 11.143123626708984
v 5.697666645050049 5.617316722869873 10.681021690368652
v 5.598366737365723 6.0 10.73995590209961
v 6.986785888671875 5.617316722869873 11.21499252319336
v 7.973435401916504 5.617316722869873 12.201642036437988
v 8.720013618469238 5.292893409729004 14.928384780883789
v 8.720013618469238 5.292893409729004 13.448471069335938
v 8.504176139831543 5.292893409729004 12.736949920654297
v 8.792893409729004 5.292893409729004 14.188427925109863
v 7.1072187423706055 5.292893409729004 11.034751892089844
v 6.451477527618408 5.292893409729004 10.68425178527832
v 5.739956855773926 5.292893409729004 10.468414306640625
v 5.0 5.617316722869873 10.61230754852295
v 7.681980609893799 5.292893409729004 11.506446838378906
v 8.153675079345703 5.292893409729004 12.081209182739258
v 5.877906322479248 5.0 18.601961135864258
v 8.18198013305664 5.0 17.37040901184082
v 8.741613388061523 5.0 16.688493728637695
v 7.50006628036499 5.0 17.93004035949707
v 9.038203239440918 5.076120376586914 14.991676330566406
v 8.80390453338623 5.076120376586914 15.764056205749512
v 9.117316246032715 5.076120376586914 14.188427925109863
v 9.413534164428711 5.0 15.066333770751953
v 6.722075462341309 5.0 18.34588623046875
v 5.0 5.0 18.688426971435547
v 9.157458305358887 5.0 15.910503387451172
v 9.5 5.0 14.188427925109863
v 9.038203239440918 5.076120376586914 13.38517951965332
v 4.196751594543457 5.076120376586914 18.22663116455078
v 8.80390453338623 5.076120376586914 12.612798690795898
v 8.423423767089844 5.076120376586914 11.900969505310059
v 9.413534164428711 5.0 13.310521125793457
v 7.911382675170898 5.076120376586914 11.277045249938965
v 6.575628757476807 5.076120376586914 10.384523391723633
v 7.287458419799805 5.076120376586914 10.76500415802002
v 5.803248405456543 5.076120376586914 10.150224685668945
v 9.157458305358887 5.0 12.466352462768555
v 8.741613388061523 5.0 11.688362121582031
v 8.18198013305664 5.0 11.006446838378906
v 7.50006628036499 5.0 10.44681453704834
v 6.722075462341309 5.0 10.030969619750977
v 5.877906322479248 5.0 9.774893760681152
v 5.0 5.076120376586914 10.071111679077148
v 5.0 5.292893409729004 10.39553451538086
v 5.0 6.0 10.688427925109863
v 4.302333354949951 5.617316722869873 17.695833206176758
v 4.302333354949951 5.617316722869873 10.681021690368652
v 3.6606080532073975 6.0 10.954849243164062
v 4.317183971405029 6.0 10.7556791305542
v 3.6314778327941895 5.617316722869873 10.884523391723633
v 3.055504083633423 6.0 11.278284072875977
v 3.013213872909546 5.617316722869873 11.21499252319336
v 3.548522710800171 5.292893409729004 10.68425178527832
v 2.4713010787963867 5.617316722869873 11.65972900390625
v 2.5251262187957764 6.0 11.713554382324219
v 2.138453245162964 6.0 12.173099517822266
v 2.026564598083496 5.617316722869873 12.201642036437988
v 1.836037516593933 6.0 12.691985130310059
v 1.6267837285995483 6.0 13.25493335723877
v 1.6960954666137695 5.617316722869873 12.819905281066895
v 2.8927814960479736 5.292893409729004 11.034751892089844
v 4.260043144226074 5.292893409729004 10.468414306640625
v 2.318019390106201 5.292893409729004 11.506446838378906
v 3.4243712425231934 5.076120376586914 10.384523391723633
v 2.7125415802001953 5.076120376586914 10.76500415802002
v 1.495823621749878 5.292893409729004 12.736949920654297
v 1.5765763521194458 5.076120376586914 11.900969505310059
v 1.8463245630264282 5.292893409729004 12.081209182739258
v 1.1960954666137695 5.076120376586914 12.612798690795898
v 1.2799861431121826 5.292893409729004 13.448471069335938
v 1.4925936460494995 5.617316722869873 13.490761756896973
v 2.0886175632476807 5.076120376586914 11.277045249938965
v 1.4238795042037964 5.617316722869873 14.188427925109863
v 1.5094834566116333 6.0 14.445903778076172
v 1.5168534517288208 6.0 13.845367431640625
v 1.6960954666137695 5.617316722869873 15.556949615478516
v 1.800265908241272 6.0 15.606772422790527
v 1.6048905849456787 6.0 15.038858413696289
v 2.026564598083496 5.617316722869873 16.175214767456055
v 2.0898563861846924 6.0 16.132923126220703
v 1.4925936460494995 5.617316722869873 14.886094093322754
v 2.4713010787963867 5.617316722869873 16.717126846313477
v 2.9150524139404297 6.0 16.99965476989746
v 2.465135097503662 6.0 16.60181999206543
v 3.6314778327941895 5.617316722869873 17.492332458496094
v 3.9840035438537598 6.0 17.5377197265625
v 3.4263603687286377 6.0 17.314712524414062
v 4.571562767028809 6.0 17.662105560302734
v 3.013213872909546 5.617316722869873 17.161863327026367
v 1.2071068286895752 5.292893409729004 14.188427925109863
v 1.2799861431121826 5.292893409729004 14.928384780883789
v 1.495823621749878 5.292893409729004 15.639904975891113
v 1.8463245630264282 5.292893409729004 16.29564666748047
v 2.8927814960479736 5.292893409729004 17.342103958129883
v 3.548522710800171 5.292893409729004 17.692604064941406
v 2.318019390106201 5.292893409729004 16.87040901184082
v 0.9617965221405029 5.076120376586914 13.38517951965332
v 4.196751594543457 5.076120376586914 10.150224685668945
v 2.499933958053589 5.0 10.44681453704834
v 1.8180195093154907 5.0 11.006446838378906
v 3.2779245376586914 5.0 10.030969619750977
v 0.5864662528038025 5.0 13.310521125793457
v 0.8826834559440613 5.076120376586914 14.188427925109863
v 0.5 5.0 14.188427925109863
v 0.9617965221405029 5.076120376586914 14.991676330566406
v 0.8425421118736267 5.0 12.466352462768555
v 1.2583867311477661 5.0 11.688362121582031
v 4.122093677520752 5.0 9.774893760681152
v 5.0 5.0 9.688427925109863
v 0.5864662528038025 5.0 15.066333770751953
v 1.1960954666137695 5.076120376586914 15.764056205749512
v 1.5765763521194458 5.076120376586914 16.47588539123535
v 0.8425421118736267 5.0 15.910503387451172
v 2.0886175632476807 5.076120376586914 17.099809646606445
v 3.4243712425231934 5.076120376586914 17.992332458496094
v 2.7125415802001953 5.076120376586914 17.61185073852539
v 1.2583867311477661 5.0 16.688493728637695
v 1.8180195093154907 5.0 17.37040901184082
v 2.499933958053589 5.0 17.93004035949707
v 3.2779245376586914 5.0 18.34588623046875
v 4.122093677520752 5.0 18.601961135864258
v 9.5 5.0 5.5
v 4.122093677520752 5.0 9.774893760681152
v 5.0 5.0 9.688427925109863
v 0.5 5.0 0.5
v 3.2779245376586914 5.0 10.030969619750977
v 2.499933958053589 5.0 10.44681453704834
v 1.8180195093154907 5.0 11.006446838378906
v 19.5 5.0 0.5
v 19.5 5.0 5.5
v 6.722075462341309 5.0 10.030969619750977
v 5.877906322479248 5.0 9.774893760681152
v 9.5 5.0 9.844213485717773
v 7.50006628036499 5.0 10.44681453704834
v 9.5 5.0 12.016321182250977
v 8.741613388061523 5.0 11.688362121582031
v 9.157458305358887 5.0 12.466352462768555
v 1.2583867311477661 5.0 11.688362121582031
v 0.5864662528038025 5.0 13.310521125793457
v 0.8425421118736267 5.0 12.466352462768555
v 0.5 5.0 14.188427925109863
v 8.18198013305664 5.0 11.006446838378906
v 9.413534164428711 5.0 13.310521125793457
v 9.5 5.0 13.102374076843262
v 9.5 5.0 14.188427925109863
v 0.5864662528038025 5.0 15.066333770751953
v 0.5 5.0 24.5
v 1.2583867311477661 5.0 16.688493728637695
v 0.8425421118736267 5.0 15.910503387451172
v 9.413534164428711 5.0 15.066333770751953
v 9.5 5.0 24.5
v 9.157458305358887 5.0 15.910503387451172
v 8.741613388061523 5.0 16.688493728637695
v 1.8180195093154907 5.0 17.37040901184082
v 3.2779245376586914 5.0 18.34588623046875
v 2.499933958053589 5.0 17.93004035949707
v 4.122093677520752 5.0 18.601961135864258
v 5.0 5.0 18.688426971435547
v 8.18198013305664 5.0 17.37040901184082
v 7.50006628036499 5.0 17.93004035949707
v 6.722075462341309 5.0 18.34588623046875
v 5.877906322479248 5.0 18.601961135864258
v 7.4748735427856445 6.0 16.663301467895508
v 7.759212493896484 6.0 16.341737747192383
v 7.722222328186035 54.0 16.388315200805664
v 8.086724281311035 6.0 15.838315963745117
v 8.323348999023438 6.0 15.286314010620117
v 8.311142921447754 54.34687805175781 15.321405410766602
v 8.068017959594727 54.10308837890625 15.871882438659668
v 8.462118148803711 6.0 14.701984405517578
v 8.498946189880371 6.0 14.102533340454102
v 8.5 55.0 14.188427925109863
v 8.432748794555664 6.0 13.505611419677734
v 8.265474319458008 6.0 12.928794860839844
v 8.31169319152832 54.34718704223633 13.05573844909668
v 8.002050399780273 6.0 12.389068603515625
v 8.069441795349121 54.10488510131836 12.50648307800293
v 8.453630447387695 54.65860366821289 13.619549751281738
v 8.45309829711914 54.65855407714844 14.757536888122559
v 7.650230884552002 6.0 11.902322769165039
v 7.220376491546631 6.0 11.482891082763672
v 7.205011367797852 54.0 11.470354080200195
v 6.725143909454346 6.0 11.143123626708984
v 6.17911434173584 6.0 10.893023490905762
v 6.591315746307373 54.0 11.0711030960083
v 5.598366737365723 6.0 10.73995590209961
v 5.0 6.0 10.688427925109863
v 5.18493127822876 54.0 10.693316459655762
v 4.317183971405029 6.0 10.7556791305542
v 3.6606080532073975 6.0 10.954849243164062
v 3.746532917022705 54.0 10.920581817626953
v 3.055504083633423 6.0 11.278284072875977
v 3.0941319465637207 54.0 11.252840995788574
v 4.453781604766846 54.0 10.73131275177002
v 5.907989025115967 54.0 10.808257102966309
v 7.722222328186035 54.0 11.988539695739746
v 7.4748735427856445 54.0 16.663301467895508
v 2.5251262187957764 6.0 11.713554382324219
v 2.5251262187957764 54.0 11.713554382324219
v 7.350456237792969 6.0 16.781757354736328
v 2.138453245162964 6.0 12.173099517822266
v 1.836037516593933 6.0 12.691985130310059
v 1.9327342510223389 54.10020446777344 12.503973007202148
v 1.6267837285995483 6.0 13.25493335723877
v 1.5168534517288208 6.0 13.845367431640625
v 1.546962022781372 54.65800857543945 13.618978500366211
v 1.688848853111267 54.345882415771484 13.055445671081543
v 1.5094834566116333 6.0 14.445903778076172
v 1.6048905849456787 6.0 15.038858413696289
v 1.5463696718215942 54.65860366821289 14.757306098937988
v 1.800265908241272 6.0 15.606772422790527
v 2.0898563861846924 6.0 16.132923126220703
v 1.9305578470230103 54.10488510131836 15.870372772216797
v 2.465135097503662 6.0 16.60181999206543
v 2.277777671813965 54.0 16.388315200805664
v 1.688306450843811 54.34718704223633 15.321117401123047
v 1.5 55.0 14.188427925109863
v 2.9150524139404297 6.0 16.99965476989746
v 3.4263603687286377 6.0 17.314712524414062
v 3.491624593734741 54.0 17.34671974182129
v 3.9840035438537598 6.0 17.5377197265625
v 4.571562767028809 6.0 17.662105560302734
v 4.226701736450195 54.0 17.601932525634766
v 5.0 6.0 17.688426971435547
v 5.171736717224121 6.0 17.68421173095703
v 5.0 54.0 17.688426971435547
v 5.766854286193848 6.0 17.60338592529297
v 6.339392185211182 6.0 17.422006607055664
v 5.773298263549805 54.0 17.601932525634766
v 6.872491836547852 6.0 17.145414352416992
v 6.508375644683838 54.0 17.34671974182129
v 2.8311009407043457 54.0 16.93540382385254
v 2.277777671813965 54.0 11.988539695739746
v 7.168899059295654 54.0 16.93540382385254
v 5.0 54.38268280029297 17.76454734802246
v 4.226701736450195 54.0 17.601932525634766
v 5.0 54.0 17.688426971435547
v 4.161989212036133 54.70710754394531 17.88758659362793
v 4.209883213043213 54.38268280029297 17.676170349121094
v 3.3653979301452637 54.70710754394531 17.61101722717285
v 3.4588193893432617 54.38268280029297 17.415407180786133
v 5.0 54.70710754394531 17.981321334838867
v 3.491624593734741 54.0 17.34671974182129
v 5.838010787963867 54.70710754394531 17.88758659362793
v 5.909689903259277 54.92387771606445 18.20399284362793
v 2.8311009407043457 54.0 16.93540382385254
v 2.2185728549957275 54.38268280029297 16.436161041259766
v 2.7839300632476807 54.38268280029297 16.995147705078125
v 2.649599313735962 54.70710754394531 17.165281295776367
v 2.0499720573425293 54.70710754394531 16.572410583496094
v 3.225583076477051 54.92387771606445 17.903766632080078
v 5.0 54.92387771606445 18.305744171142578
v 4.090310096740723 54.92387771606445 18.20399284362793
v 4.005759239196777 55.0 18.577219009399414
v 5.0 55.0 18.688426971435547
v 3.0606601238250732 55.0 18.249088287353516
v 5.994240760803223 55.0 18.577219009399414
v 2.448558807373047 54.92387771606445 17.419904708862305
v 1.797642707824707 54.92387771606445 16.776323318481445
v 1.5 55.0 17.016855239868164
v 2.2114155292510986 55.0 17.720252990722656
v 2.277777671813965 54.0 16.388315200805664
v 7.781426906585693 54.38268280029297 16.436161041259766
v 7.4748735427856445 54.0 16.663301467895508
v 7.722222328186035 54.0 16.388315200805664
v 7.950027942657471 54.70710754394531 16.572410583496094
v 7.21606969833374 54.38268280029297 16.995147705078125
v 6.541180610656738 54.38268280029297 17.415407180786133
v 6.508375644683838 54.0 17.34671974182129
v 7.168899059295654 54.0 16.93540382385254
v 5.790116786956787 54.38268280029297 17.676170349121094
v 5.773298263549805 54.0 17.601932525634766
v 7.350400924682617 54.70710754394531 17.165281295776367
v 6.634602069854736 54.70710754394531 17.61101722717285
v 8.202357292175293 54.92387771606445 16.776323318481445
v 7.551441192626953 54.92387771606445 17.419904708862305
v 7.7885847091674805 55.0 17.720252990722656
v 8.5 55.0 17.016855239868164
v 6.774416923522949 54.92387771606445 17.903766632080078
v 6.939339637756348 55.0 18.249088287353516
v 8.5 55.0 17.016855239868164
v 8.337181091308594 54.700050354003906 15.470627784729004
v 8.5 55.0 14.188427925109863
v 8.5 55.0 17.016855239868164
v 8.202357292175293 54.92387771606445 16.776323318481445
v 8.150222778320312 54.64243698120117 16.06494903564453
v 8.071854591369629 54.3853645324707 15.951532363891602
v 7.950027942657471 54.70710754394531 16.572410583496094
v 7.781426906585693 54.38268280029297 16.436161041259766
v 7.722222328186035 54.0 16.388315200805664
v 8.068017959594727 54.10308837890625 15.871882438659668
v 8.311142921447754 54.34687805175781 15.321405410766602
v 8.45309829711914 54.65855407714844 14.757536888122559
v 8.5 55.0 14.188427925109863
v 1.5 55.0 17.016855239868164
v 1.5 55.0 14.188427925109863
v 1.661711573600769 54.69942092895508 15.470134735107422
v 2.0499720573425293 54.70710754394531 16.572410583496094
v 1.8469252586364746 54.641326904296875 16.06294822692871
v 2.2185728549957275 54.38268280029297 16.436161041259766
v 1.797642707824707 54.92387771606445 16.776323318481445
v 1.9305578470230103 54.10488510131836 15.870372772216797
v 1.5463696718215942 54.65860366821289 14.757306098937988
v 1.688306450843811 54.34718704223633 15.321117401123047
v 2.277777671813965 54.0 16.388315200805664
v 1.5 55.0 14.188427925109863
v 5.0 54.38268280029297 10.61230754852295
v 5.18493127822876 54.0 10.693316459655762
v 5.0 54.0 10.688427925109863
v 5.838010787963867 54.70710754394531 10.489269256591797
v 5.790116786956787 54.38268280029297 10.700684547424316
v 5.0 54.70710754394531 10.39553451538086
v 4.209883213043213 54.38268280029297 10.700684547424316
v 5.907989025115967 54.0 10.808257102966309
v 4.453781604766846 54.0 10.73131275177002
v 6.541180610656738 54.38268280029297 10.961447715759277
v 6.591315746307373 54.0 11.0711030960083
v 7.21606969833374 54.38268280029297 11.381709098815918
v 7.205011367797852 54.0 11.470354080200195
v 7.781426906585693 54.38268280029297 11.940695762634277
v 7.350400924682617 54.70710754394531 11.21157455444336
v 6.634602069854736 54.70710754394531 10.765838623046875
v 5.0 54.92387771606445 10.071111679077148
v 5.909689903259277 54.92387771606445 10.172863006591797
v 5.994240760803223 55.0 9.799636840820312
v 6.774416923522949 54.92387771606445 10.473089218139648
v 5.0 55.0 9.688427925109863
v 6.939339637756348 55.0 10.127767562866211
v 4.090310096740723 54.92387771606445 10.172863006591797
v 7.551441192626953 54.92387771606445 10.956951141357422
v 7.950027942657471 54.70710754394531 11.804445266723633
v 7.7885847091674805 55.0 10.656601905822754
v 8.202357292175293 54.92387771606445 11.600532531738281
v 7.722222328186035 54.0 11.988539695739746
v 4.161989212036133 54.70710754394531 10.489269256591797
v 2.5251262187957764 54.0 11.713554382324219
v 2.277777671813965 54.0 11.988539695739746
v 2.2185728549957275 54.38268280029297 11.940695762634277
v 3.0941319465637207 54.0 11.252840995788574
v 2.7839300632476807 54.38268280029297 11.381709098815918
v 2.0499720573425293 54.70710754394531 11.804445266723633
v 2.649599313735962 54.70710754394531 11.21157455444336
v 3.4588193893432617 54.38268280029297 10.961447715759277
v 3.746532917022705 54.0 10.920581817626953
v 3.3653979301452637 54.70710754394531 10.765838623046875
v 2.448558807373047 54.92387771606445 10.956951141357422
v 1.797642707824707 54.92387771606445 11.600532531738281
v 2.2114155292510986 55.0 10.656601905822754
v 1.5 55.0 11.360000610351562
v 3.0606601238250732 55.0 10.127767562866211
v 3.225583076477051 54.92387771606445 10.473089218139648
v 8.5 55.0 11.360000610351562
v 4.005759239196777 55.0 9.799636840820312
v 1.7052912712097168 54.85348892211914 12.172202110290527
v 1.5 55.0 11.360000610351562
v 1.797642707824707 54.92387771606445 11.600532531738281
v 2.0499720573425293 54.70710754394531 11.804445266723633
v 1.5 55.0 14.188427925109863
v 1.6640889644622803 54.700035095214844 12.905855178833008
v 1.5 55.0 14.188427925109863
v 1.5 55.0 11.360000610351562
v 1.8535733222961426 54.64278793334961 12.309958457946777
v 1.931077480316162 54.38428497314453 12.423713684082031
v 2.2185728549957275 54.38268280029297 11.940695762634277
v 2.277777671813965 54.0 11.988539695739746
v 1.9327342510223389 54.10020446777344 12.503973007202148
v 1.688848853111267 54.345882415771484 13.055445671081543
v 1.546962022781372 54.65800857543945 13.618978500366211
v 1.5 55.0 14.188427925109863
v 8.5 55.0 11.360000610351562
v 8.5 55.0 14.188427925109863
v 8.338292121887207 54.69941711425781 12.906722068786621
v 7.950027942657471 54.70710754394531 11.804445266723633
v 8.153077125549316 54.64132308959961 12.3139066696167
v 7.781426906585693 54.38268280029297 11.940695762634277
v 8.202357292175293 54.92387771606445 11.600532531738281
v 8.069441795349121 54.10488510131836 12.50648307800293
v 8.453630447387695 54.65860366821289 13.619549751281738
v 8.31169319152832 54.34718704223633 13.05573844909668
v 7.722222328186035 54.0 11.988539695739746
v 8.5 55.0 14.188427925109863
v 2.2114155292510986 55.0 10.656601905822754
v 1.5 55.0 11.360000610351562
v 1.5 55.0 1.0
v 8.5 55.0 11.360000610351562
v 7.7885847091674805 55.0 10.656601905822754
v 8.5 55.0 1.0
v 3.0606601238250732 55.0 10.127767562866211
v 4.005759239196777 55.0 9.799636840820312
v 5.0 55.0 9.688427925109863
v 6.939339637756348 55.0 10.127767562866211
v 5.994240760803223 55.0 9.799636840820312
v 1.5 55.0 1.0
v 1.5 55.0 11.360000610351562
v 1.5 60.0 6.0
v 1.5 79.0 1.0
v 1.5 74.0 6.0
v 1.5 79.0 25.0
v 1.5 55.0 14.188427925109863
v 1.5 55.0 17.016855239868164
v 1.5 60.0 20.0
v 1.5 55.0 25.0
v 1.5 74.0 20.0
v 8.5 55.0 25.0
v 8.5 55.0 17.016855239868164
v 8.5 60.0 20.0
v 8.5 79.0 25.0
v 8.5 74.0 20.0
v 8.5 74.0 6.0
v 8.5 55.0 14.188427925109863
v 8.5 55.0 11.360000610351562
v 8.5 60.0 6.0
v 8.5 55.0 1.0
v 8.5 79.0 1.0
v 1.5 74.0 6.0
v 1.5 60.0 6.0
v 8.5 60.0 6.0
v 8.5 74.0 6.0
v 8.5 74.0 20.0
v 1.5 74.0 20.0
v 1.5 74.0 6.0
v 8.5 74.0 6.0
v 1.5 60.0 20.0
v 1.5 74.0 20.0
v 8.5 74.0 20.0
v 8.5 60.0 20.0
v 8.5 60.0 6.0
v 1.5 60.0 6.0
v 8.5 60.0 20.0
v 1.5 60.0 20.0
v 1.5 79.0 25.0
v 1.5 55.0 25.0
v 8.5 55.0 25.0
v 8.5 79.0 25.0
v 8.5 79.0 1.0
v 1.5 79.0 1.0
v 8.5 79.0 25.0
v 1.5 79.0 25.0
v 1.5 55.0 1.0
v 1.5 79.0 1.0
v 8.5 79.0 1.0
v 8.5 55.0 1.0
v 1.5 55.0 25.0
v 4.005759239196777 55.0 18.577219009399414
v 5.0 55.0 18.688426971435547
v 3.0606601238250732 55.0 18.249088287353516
v 8.5 55.0 25.0
v 5.994240760803223 55.0 18.577219009399414
v 6.939339637756348 55.0 18.249088287353516
v 2.2114155292510986 55.0 17.720252990722656
v 1.5 55.0 17.016855239868164
v 7.7885847091674805 55.0 17.720252990722656
v 8.5 55.0 17.016855239868164
v 19.5 5.0 0.5
v 19.5 0.0 0.5
v 0.5 0.0 0.5
v 0.5 5.0 0.5
v 19.5 5.0 5.5
v 19.5 0.0 5.5
v 19.5 0.0 0.5
v 19.5 5.0 0.5
v 9.5 0.0 5.5
v 19.5 0.0 5.5
v 19.5 5.0 5.5
v 9.5 5.0 5.5
v 9.5 5.0 24.5
v 9.5 0.0 24.5
v 9.5 5.0 14.188427925109863
v 9.5 0.0 5.5
v 9.5 5.0 5.5
v 0.5 0.0 24.5
v 9.5 0.0 24.5
v 9.5 5.0 24.5
v 0.5 5.0 24.5
v 0.5 5.0 0.5
v 0.5 0.0 0.5
v 0.5 5.0 14.188427925109863
v 0.5 0.0 24.5
v 0.5 5.0 24.5
v 9.5 0.0 5.5
v 0.5 0.0 24.5
v 0.5 0.0 0.5
v 9.5 0.0 24.5
v 19.5 0.0 0.5
v 19.5 0.0 5.5
usemtl Diffuse
f 1 2 3
f 4 1 5
f 2 1 4
f 4 5 6
f 7 8 1
f 9 6 5
f 10 11 12
f 13 10 14
f 11 9 15
f 16 13 17
f 18 15 5
f 9 5 15
f 19 20 8
f 20 1 8
f 5 20 18
f 21 18 20
f 15 22 12
f 5 1 20
f 23 14 12
f 10 12 14
f 22 23 12
f 24 17 14
f 24 14 23
f 25 23 22
f 17 13 14
f 15 18 22
f 12 11 15
f 26 22 18
f 17 27 16
f 8 7 28
f 29 30 31
f 32 33 34
f 35 36 33
f 32 34 30
f 37 38 39
f 40 41 42
f 43 44 41
f 45 42 38
f 46 39 36
f 27 17 47
f 29 31 27
f 32 29 48
f 35 33 32
f 46 36 35
f 35 32 49
f 29 32 30
f 29 27 50
f 37 45 38
f 39 46 37
f 45 37 51
f 40 42 45
f 43 41 40
f 40 45 52
f 53 54 43
f 37 46 55
f 43 54 44
f 46 35 56
f 16 27 31
f 43 40 53
f 57 19 28
f 19 8 28
f 58 26 21
f 26 18 21
f 25 22 26
f 59 25 26
f 19 21 20
f 60 21 19
f 61 47 24
f 17 24 47
f 62 61 24
f 63 50 47
f 61 63 47
f 64 61 62
f 50 27 47
f 23 25 62
f 23 62 24
f 59 62 25
f 65 19 57
f 28 66 57
f 19 65 60
f 60 58 21
f 59 67 62
f 26 58 59
f 62 67 64
f 64 68 61
f 68 69 63
f 61 68 63
f 50 69 48
f 66 28 70
f 71 49 48
f 32 48 49
f 69 71 48
f 72 56 49
f 71 72 49
f 73 71 69
f 56 35 49
f 50 63 69
f 72 74 56
f 37 55 51
f 51 75 52
f 76 51 55
f 40 52 53
f 53 52 77
f 52 45 51
f 55 56 74
f 55 46 56
f 78 72 71
f 72 79 80
f 81 74 80
f 78 71 73
f 79 72 78
f 72 80 74
f 82 75 76
f 51 76 75
f 52 75 77
f 83 77 75
f 81 82 76
f 83 75 82
f 84 77 83
f 74 81 76
f 76 55 74
f 85 53 77
f 68 73 69
f 48 29 50
f 54 86 44
f 87 7 1
f 88 89 90
f 88 91 89
f 92 89 91
f 93 92 91
f 94 91 88
f 54 88 90
f 95 96 93
f 97 98 99
f 95 97 96
f 100 99 101
f 92 93 96
f 102 93 91
f 88 103 94
f 93 104 95
f 105 94 103
f 88 54 103
f 102 91 94
f 106 102 94
f 93 102 104
f 85 103 54
f 107 101 98
f 99 98 101
f 108 109 104
f 109 95 104
f 98 109 107
f 110 107 109
f 111 112 101
f 98 95 109
f 98 97 95
f 113 104 102
f 112 100 101
f 86 54 90
f 114 115 116
f 117 118 119
f 120 121 118
f 122 119 115
f 123 124 125
f 126 127 128
f 87 129 127
f 130 128 124
f 120 125 121
f 112 131 114
f 116 112 114
f 114 132 122
f 112 111 131
f 119 122 117
f 122 133 117
f 122 115 114
f 101 107 111
f 120 117 134
f 125 120 123
f 130 123 135
f 128 130 126
f 127 126 87
f 126 130 136
f 130 124 123
f 123 120 137
f 120 118 117
f 87 126 7
f 129 87 3
f 100 112 116
f 138 111 107
f 84 139 85
f 139 103 85
f 140 106 105
f 105 103 139
f 106 94 105
f 141 113 106
f 102 106 113
f 142 105 139
f 108 110 109
f 104 113 108
f 143 138 110
f 138 107 110
f 144 111 138
f 145 144 138
f 131 146 132
f 147 110 108
f 111 144 131
f 148 108 113
f 84 149 139
f 149 142 139
f 84 150 149
f 105 142 140
f 83 150 84
f 148 113 141
f 143 110 147
f 148 147 108
f 141 106 140
f 143 145 138
f 145 151 144
f 77 84 85
f 152 133 132
f 122 132 133
f 146 152 132
f 153 134 133
f 152 153 133
f 154 152 146
f 134 117 133
f 144 151 146
f 153 155 134
f 123 137 135
f 135 156 136
f 157 135 137
f 126 136 7
f 7 136 70
f 136 130 135
f 137 134 155
f 137 120 134
f 158 153 152
f 151 154 146
f 153 159 155
f 152 154 158
f 158 159 153
f 159 160 155
f 161 156 157
f 135 157 156
f 136 156 70
f 162 70 156
f 160 161 157
f 162 156 161
f 28 7 70
f 155 160 157
f 157 137 155
f 1 3 87
f 146 131 144
f 132 114 131
f 66 70 162
f 53 85 54
f 163 164 165
f 164 163 166
f 167 164 166
f 168 167 166
f 166 169 168
f 170 163 171
f 163 170 166
f 172 163 173
f 174 172 175
f 163 165 173
f 176 177 178
f 163 172 174
f 179 169 166
f 180 181 166
f 182 180 166
f 179 166 181
f 177 174 183
f 183 174 175
f 178 184 185
f 178 185 176
f 176 174 177
f 186 185 184
f 187 182 188
f 189 190 188
f 187 188 190
f 186 191 192
f 193 194 192
f 191 193 192
f 189 188 195
f 196 197 188
f 198 188 199
f 188 198 196
f 199 188 192
f 197 195 188
f 200 201 192
f 202 203 192
f 192 203 199
f 202 192 201
f 200 192 194
f 204 205 206
f 207 208 209
f 205 207 210
f 211 212 213
f 214 215 216
f 215 217 218
f 212 214 219
f 208 211 220
f 221 222 223
f 224 225 226
f 222 224 223
f 227 228 229
f 230 231 232
f 231 233 234
f 228 230 235
f 225 227 236
f 217 221 237
f 238 204 206
f 215 218 216
f 210 207 209
f 206 205 210
f 212 219 213
f 213 220 211
f 216 219 214
f 208 220 209
f 237 221 223
f 225 236 226
f 226 223 224
f 218 217 237
f 236 227 229
f 235 230 232
f 232 231 234
f 228 235 229
f 233 239 240
f 240 234 233
f 204 238 241
f 242 243 244
f 245 246 247
f 243 245 248
f 249 250 251
f 252 253 254
f 253 255 256
f 250 252 257
f 246 249 258
f 259 260 261
f 262 263 264
f 260 262 261
f 265 266 267
f 268 269 270
f 269 271 272
f 266 268 270
f 263 265 267
f 255 259 273
f 239 274 240
f 252 254 257
f 244 243 248
f 274 242 244
f 249 251 258
f 258 247 246
f 257 251 250
f 245 247 248
f 256 255 273
f 262 264 261
f 261 273 259
f 254 253 256
f 264 263 267
f 270 269 272
f 272 271 275
f 266 270 267
f 241 238 275
f 275 271 241
f 274 239 242
f 276 277 278
f 279 280 276
f 277 276 280
f 281 282 280
f 283 279 276
f 280 284 277
f 283 285 286
f 282 287 284
f 288 287 289
f 282 290 289
f 287 282 289
f 281 290 282
f 281 280 279
f 291 289 290
f 284 280 282
f 292 281 279
f 293 294 283
f 294 279 283
f 295 294 293
f 293 286 296
f 296 295 293
f 297 294 295
f 297 292 294
f 286 298 296
f 299 281 292
f 279 294 292
f 290 300 291
f 300 290 299
f 301 299 302
f 292 302 299
f 300 299 301
f 297 302 292
f 290 281 299
f 303 287 288
f 283 286 293
f 304 305 306
f 304 307 308
f 308 305 304
f 309 310 311
f 312 313 310
f 314 308 307
f 311 308 309
f 310 309 312
f 309 308 315
f 305 308 311
f 312 309 285
f 316 314 307
f 317 314 316
f 318 317 319
f 316 319 317
f 317 318 320
f 320 315 314
f 315 286 285
f 315 308 314
f 320 286 315
f 314 317 320
f 298 286 321
f 320 321 286
f 312 276 278
f 313 312 278
f 318 321 320
f 315 285 309
f 289 291 288
f 285 276 312
f 283 276 285
f 322 323 324
f 323 325 326
f 327 323 326
f 323 327 328
f 326 329 327
f 329 330 327
f 328 330 331
f 328 331 332
f 323 328 333
f 323 334 335
f 334 323 333
f 328 332 333
f 330 328 327
f 336 337 338
f 339 340 341
f 336 338 340
f 342 336 340
f 340 339 342
f 340 338 343
f 344 345 338
f 345 343 338
f 346 341 343
f 340 343 341
f 344 338 347
f 348 349 350
f 348 351 352
f 349 348 352
f 351 348 353
f 348 354 353
f 352 355 349
f 356 348 350
f 357 358 355
f 359 360 358
f 357 359 358
f 360 359 361
f 359 362 361
f 357 352 363
f 352 357 355
f 359 357 362
f 364 365 353
f 351 353 365
f 365 366 367
f 368 365 364
f 365 368 366
f 366 369 367
f 367 363 351
f 370 368 364
f 362 363 371
f 357 363 362
f 362 372 361
f 372 362 371
f 369 373 371
f 363 367 371
f 371 373 374
f 367 369 371
f 374 372 371
f 351 365 367
f 363 352 351
f 375 360 361
f 364 353 376
f 377 378 379
f 380 377 381
f 381 377 379
f 379 382 383
f 383 381 379
f 384 385 380
f 354 356 385
f 386 381 383
f 386 384 381
f 385 384 354
f 354 384 376
f 356 354 348
f 380 381 384
f 387 383 382
f 388 387 382
f 389 387 388
f 389 388 390
f 387 391 392
f 373 393 374
f 386 370 376
f 384 386 376
f 392 370 386
f 383 387 392
f 391 394 392
f 370 392 394
f 376 370 364
f 376 353 354
f 387 389 391
f 386 383 392
f 368 370 394
f 395 396 397
f 395 397 398
f 399 395 400
f 395 401 402
f 403 400 395
f 400 403 404
f 395 398 403
f 398 405 403
f 404 405 406
f 404 406 407
f 400 404 408
f 400 409 410
f 409 400 408
f 404 407 408
f 405 404 403
f 411 412 413
f 414 415 416
f 411 413 415
f 417 411 415
f 415 414 417
f 415 413 418
f 419 420 413
f 420 418 413
f 421 416 418
f 415 418 416
f 419 413 422
f 423 424 425
f 426 427 428
f 423 425 429
f 430 425 431
f 425 430 429
f 431 425 428
f 432 433 428
f 428 433 431
f 432 428 427
f 434 435 436
f 437 436 438
f 436 437 434
f 437 438 439
f 436 435 440
f 440 441 442
f 441 443 442
f 442 439 444
f 439 442 443
f 444 439 438
f 442 436 440
f 445 446 447
f 448 447 449
f 447 448 445
f 448 449 450
f 447 446 451
f 451 452 453
f 452 454 453
f 453 455 450
f 455 453 454
f 450 455 448
f 453 447 451
f 456 457 458
f 458 459 456
f 460 461 462
f 462 463 460
f 464 465 466
f 466 467 464
f 468 469 470
f 471 470 469
f 472 473 474
f 474 475 472
f 476 477 478
f 479 478 477
f 480 481 482
f 482 483 480
f 484 485 486
f 485 484 487
f 488 486 489
f 486 488 484
f 488 489 490
f 491 487 484
f 492 491 484
f 493 494 488
f 490 493 488
f 495 496 497
f 497 498 495
f 499 500 501
f 501 502 499
f 503 504 505
f 505 506 503
f 507 508 509
f 509 510 511
f 510 509 508
f 512 513 514
f 514 515 512
f 516 517 518
f 518 519 520
f 519 518 517
f 521 522 523
f 524 522 521
f 525 526 521
f 523 525 521
