mtllib Key_Base_pivot_Corpo1_Mesh.mtl
v 5.0 12.5 0.0
v 5.0 12.5 5.0
v -15.0 12.5 5.0
v -15.0 12.5 0.0
v -15.0 12.5 0.0
v -15.0 12.5 5.0
v -15.0 6.5 5.0
v -15.0 6.5 0.0
v -15.0 6.5 0.0
v -15.0 6.5 5.0
v -5.0 6.5 5.0
v -5.0 6.5 0.0
v -5.0 6.5 0.0
v -5.0 6.5 5.0
v -5.0 -12.5 5.0
v -5.0 -12.5 0.0
v -5.0 -12.5 0.0
v -5.0 -12.5 5.0
v 5.0 -12.5 5.0
v 5.0 -12.5 0.0
v 5.0 -12.5 0.0
v 5.0 -12.5 5.0
v 5.0 12.5 5.0
v 5.0 12.5 0.0
v -20.292949676513672 -35.14841842651367 5.0
v -20.292949676513672 -35.14841842651367 15.0
v 20.292949676513672 -35.14841842651367 15.0
v 20.292949676513672 -35.14841842651367 5.0
v 20.292949676513672 -35.14841842651367 5.0
v 20.292949676513672 -35.14841842651367 15.0
v 40.585899353027344 -4.440892098500626e-15 15.0
v 40.585899353027344 -4.440892098500626e-15 5.0
v 40.585899353027344 -4.440892098500626e-15 5.0
v 40.585899353027344 -4.440892098500626e-15 15.0
v 20.292949676513672 35.14841842651367 15.0
v 20.292949676513672 35.14841842651367 5.0
v 20.292949676513672 35.14841842651367 5.0
v 20.292949676513672 35.14841842651367 15.0
v -20.292949676513672 35.14841842651367 15.0
v -20.292949676513672 35.14841842651367 5.0
v -20.292949676513672 35.14841842651367 5.0
v -20.292949676513672 35.14841842651367 15.0
v -40.585899353027344 8.881784197001252e-15 15.0
v -40.585899353027344 8.881784197001252e-15 5.0
v -40.585899353027344 8.881784197001252e-15 5.0
v -40.585899353027344 8.881784197001252e-15 15.0
v -20.292949676513672 -35.14841842651367 15.0
v -20.292949676513672 -35.14841842651367 5.0
v 5.0 -12.5 5.0
v -5.0 -12.5 5.0
v 20.292949676513672 -35.14841842651367 5.0
v -20.292949676513672 -35.14841842651367 5.0
v 40.585899353027344 -4.440892098500626e-15 5.0
v 20.292949676513672 35.14841842651367 5.0
v 5.0 12.5 5.0
v -20.292949676513672 35.14841842651367 5.0
v -15.0 6.5 5.0
v -5.0 6.5 5.0
v -40.585899353027344 8.881784197001252e-15 5.0
v -15.0 12.5 5.0
v -22.024999618530273 -38.14841842651367 0.0
v 22.024999618530273 -38.14841842651367 0.0
v 22.024999618530273 -38.14841842651367 15.0
v -22.024999618530273 -38.14841842651367 15.0
v -44.04999923706055 4.440892098500626e-15 15.0
v -44.04999923706055 4.2804301769727715e-15 0.0
v -22.024999618530273 -38.14841842651367 15.0
v -22.024999618530273 -38.14841842651367 0.0
v -22.024999618530273 38.14841842651367 0.0
v -44.04999923706055 4.2804301769727715e-15 0.0
v -44.04999923706055 4.440892098500626e-15 15.0
v -22.024999618530273 38.14841842651367 15.0
v 22.024999618530273 38.14841842651367 0.0
v -22.024999618530273 38.14841842651367 0.0
v -22.024999618530273 38.14841842651367 15.0
v 22.024999618530273 38.14841842651367 15.0
v 44.04999923706055 0.0 0.0
v 22.024999618530273 38.14841842651367 0.0
v 22.024999618530273 38.14841842651367 15.0
v 44.04999923706055 0.0 15.0
v 22.024999618530273 -38.14841842651367 0.0
v 44.04999923706055 0.0 0.0
v 44.04999923706055 0.0 15.0
v 22.024999618530273 -38.14841842651367 15.0
v -44.04999923706055 4.440892098500626e-15 15.0
v -22.024999618530273 -38.14841842651367 15.0
v -20.292949676513672 -35.14841842651367 15.0
v 20.292949676513672 -35.14841842651367 15.0
v -40.585899353027344 8.881784197001252e-15 15.0
v -20.292949676513672 35.14841842651367 15.0
v -22.024999618530273 38.14841842651367 15.0
v 20.292949676513672 35.14841842651367 15.0
v 40.585899353027344 -4.440892098500626e-15 15.0
v 44.04999923706055 0.0 15.0
v 22.024999618530273 -38.14841842651367 15.0
v 22.024999618530273 38.14841842651367 15.0
v -5.0 -12.5 0.0
v -22.024999618530273 -38.14841842651367 0.0
v -44.04999923706055 4.2804301769727715e-15 0.0
v 22.024999618530273 -38.14841842651367 0.0
v -15.0 6.5 0.0
v -22.024999618530273 38.14841842651367 0.0
v -15.0 12.5 0.0
v 5.0 12.5 0.0
v -5.0 6.5 0.0
v 44.04999923706055 0.0 0.0
v 5.0 -12.5 0.0
v 22.024999618530273 38.14841842651367 0.0
usemtl Diffuse
f 1 2 3
f 3 4 1
f 5 6 7
f 7 8 5
f 9 10 11
f 11 12 9
f 13 14 15
f 15 16 13
f 17 18 19
f 19 20 17
f 21 22 23
f 23 24 21
f 25 26 27
f 27 28 25
f 29 30 31
f 31 32 29
f 33 34 35
f 35 36 33
f 37 38 39
f 39 40 37
f 41 42 43
f 43 44 41
f 45 46 47
f 47 48 45
f 49 50 51
f 52 51 50
f 53 49 51
f 54 55 53
f 49 53 55
f 56 55 54
f 57 50 58
f 59 52 50
f 57 59 50
f 57 60 59
f 56 59 60
f 60 55 56
f 61 62 63
f 63 64 61
f 65 66 67
f 68 67 66
f 69 70 71
f 71 72 69
f 73 74 75
f 75 76 73
f 77 78 79
f 79 80 77
f 81 82 83
f 83 84 81
f 85 86 87
f 87 86 88
f 85 87 89
f 90 91 85
f 91 90 92
f 90 85 89
f 93 88 94
f 95 88 86
f 94 88 95
f 92 94 96
f 94 92 93
f 92 96 91
f 97 98 99
f 100 98 97
f 101 97 99
f 102 103 99
f 101 99 103
f 103 102 104
f 97 101 105
f 106 100 107
f 97 107 100
f 104 106 107
f 102 108 104
f 106 104 108
