v -2.390104043425128 -3.50075078929745 11.899999999999999
v 2.390104043425128 -3.50075078929745 11.899999999999999
v -2.390104043425128 3.50075078929745 11.899999999999999
v 2.390104043425128 3.50075078929745 11.899999999999999
v -2.390104043425128 -3.50075078929745 -11.899999999999999
v 2.390104043425128 -3.50075078929745 -11.899999999999999
v -2.390104043425128 3.50075078929745 -11.899999999999999
v 2.390104043425128 3.50075078929745 -11.899999999999999
f 1 2 4 3
f 5 7 8 6
f 7 3 4 8
f 5 6 2 1
f 5 1 3 7
f 6 8 4 2
