v -2.4632653387795607 -4.350934643298387 11.947890790094606
v 2.4632653387795607 -4.350934643298387 11.947890790094606
v -2.4632653387795607 4.350934643298387 11.947890790094606
v 2.4632653387795607 4.350934643298387 11.947890790094606
v -2.4632653387795607 -4.350934643298387 -11.947890790094606
v 2.4632653387795607 -4.350934643298387 -11.947890790094606
v -2.4632653387795607 4.350934643298387 -11.947890790094606
v 2.4632653387795607 4.350934643298387 -11.947890790094606
f 1 2 4 3
f 5 7 8 6
f 7 3 4 8
f 5 6 2 1
f 5 1 3 7
f 6 8 4 2
