v -2.4632653221487986 -12.71968480259869 21.916491654808826
v 2.4632653221487986 -12.71968480259869 21.916491654808826
v -2.4632653221487986 12.71968480259869 21.916491654808826
v 2.4632653221487986 12.71968480259869 21.916491654808826
v -2.4632653221487986 -12.71968480259869 -21.916491654808826
v 2.4632653221487986 -12.71968480259869 -21.916491654808826
v -2.4632653221487986 12.71968480259869 -21.916491654808826
v 2.4632653221487986 12.71968480259869 -21.916491654808826
f 1 2 4 3
f 5 7 8 6
f 7 3 4 8
f 5 6 2 1
f 5 1 3 7
f 6 8 4 2
