v -2.500359211680959 -4.980488247808303 2.476190638190321
v 2.500359211680959 -4.980488247808303 2.476190638190321
v -2.500359211680959 4.980488247808303 2.476190638190321
v 2.500359211680959 4.980488247808303 2.476190638190321
v -2.500359211680959 -4.980488247808303 -2.476190638190321
v 2.500359211680959 -4.980488247808303 -2.476190638190321
v -2.500359211680959 4.980488247808303 -2.476190638190321
v 2.500359211680959 4.980488247808303 -2.476190638190321
f 1 2 4 3
f 5 7 8 6
f 7 3 4 8
f 5 6 2 1
f 5 1 3 7
f 6 8 4 2
